<?xml version="1.0" encoding="UTF-8" standalone="no"?>
<svg
   width="64"
   height="64"
   version="1.1"
   viewBox="0 0 16.933 16.933"
   id="svg8"
   sodipodi:docname="user-identity (copy).svg"
   inkscape:version="1.1 (c68e22c387, 2021-05-23)"
   xmlns:inkscape="http://www.inkscape.org/namespaces/inkscape"
   xmlns:sodipodi="http://sodipodi.sourceforge.net/DTD/sodipodi-0.dtd"
   xmlns:xlink="http://www.w3.org/1999/xlink"
   xmlns="http://www.w3.org/2000/svg"
   xmlns:svg="http://www.w3.org/2000/svg">
  <defs
     id="defs12">
    <linearGradient
       inkscape:collect="always"
       id="linearGradient968">
      <stop
         style="stop-color:#3689e6;stop-opacity:1;"
         offset="0"
         id="stop964" />
      <stop
         style="stop-color:#64baff;stop-opacity:1"
         offset="1"
         id="stop966" />
    </linearGradient>
    <linearGradient
       inkscape:collect="always"
       xlink:href="#linearGradient968"
       id="linearGradient869"
       x1="0.52920008"
       y1="9.2603998"
       x2="14.8168"
       y2="9.2603998"
       gradientUnits="userSpaceOnUse" />
  </defs>
  <sodipodi:namedview
     id="namedview10"
     pagecolor="#ffffff"
     bordercolor="#666666"
     borderopacity="1.0"
     inkscape:pageshadow="2"
     inkscape:pageopacity="0.0"
     inkscape:pagecheckerboard="0"
     showgrid="false"
     inkscape:zoom="2.46875"
     inkscape:cx="-18.025316"
     inkscape:cy="46.987342"
     inkscape:window-width="1366"
     inkscape:window-height="700"
     inkscape:window-x="0"
     inkscape:window-y="0"
     inkscape:window-maximized="1"
     inkscape:current-layer="svg8" />
  <g
     transform="translate(.79372 -.79371)"
     fill-rule="evenodd"
     id="g6">
    <circle
       cx="7.673"
       cy="9.2604"
       r="7.1438"
       fill="#4d4d4d"
       style="paint-order:normal;fill:url(#linearGradient869);fill-opacity:1.0"
       id="circle2" />
    <path
       d="m11.642 12.7c0-1.2998-2.2056-1.9629-3.0854-2.1986 0 0 0.036457-0.72877 0.12149-0.99604 0.085036-0.26726 0.097155-0.57093 0.13361-0.65595 0.036464-0.085 0.46592-0.47375 0.49025-0.83813-0.0058875-0.2175-0.048846-0.26894-0.15616-0.26894v-1.1295c0-0.60979-0.88904-1.1423-1.4725-1.1423-0.58358 0-1.4725 0.5325-1.4725 1.1423v1.1295c-0.10741 0-0.15038 0.0515-0.15616 0.26894 0.024335 0.36436 0.4537 0.7531 0.49025 0.83813 0.036367 0.085 0.048491 0.38864 0.13353 0.65595 0.085037 0.26723 0.12149 0.99604 0.12149 0.99604-0.87978 0.23576-3.0854 0.89887-3.0854 2.1986z"
       fill="#f9f9f9"
       stroke-width=".26458"
       id="path4" />
  </g>
</svg>
