<svg viewBox="-5 0 512 512.00003" xmlns="http://www.w3.org/2000/svg" xmlns:xlink="http://www.w3.org/1999/xlink"><linearGradient id="a"><stop offset="0" stop-color="#acfcd9"/><stop offset="1" stop-color="#53d6be"/></linearGradient><linearGradient id="b" gradientUnits="userSpaceOnUse" x1="250.7816" x2="250.7816" xlink:href="#a" y1="333.02636592" y2="521.37882456"/><linearGradient id="c"><stop offset="0" stop-color="#53d6be" stop-opacity="0"/><stop offset=".2513" stop-color="#51b4a7" stop-opacity=".25098"/><stop offset=".5767" stop-color="#508d8e" stop-opacity=".576471"/><stop offset=".8378" stop-color="#4e767f" stop-opacity=".839216"/><stop offset="1" stop-color="#4e6d79"/></linearGradient><linearGradient id="d" gradientUnits="userSpaceOnUse" x1="250.7816" x2="250.7816" xlink:href="#c" y1="455.46545304" y2="508.66518168"/><linearGradient id="e" gradientUnits="userSpaceOnUse" x1="353.70046664" x2="-61.512814" xlink:href="#c" y1="207.06954312" y2="-208.14373752"/><linearGradient id="f" gradientUnits="userSpaceOnUse" x1="250.7816" x2="250.7816" xlink:href="#a" y1="11.97977736" y2="55.77076776"/><linearGradient id="g"><stop offset="0" stop-color="#cfffb4"/><stop offset="1" stop-color="#8ee388"/></linearGradient><linearGradient id="h" gradientUnits="userSpaceOnUse" x1="250.7816" x2="250.7816" xlink:href="#g" y1="104.08542168" y2="127.93253736"/><linearGradient id="i"><stop offset="0" stop-color="#53d6be" stop-opacity="0"/><stop offset=".9757" stop-color="#4e707b" stop-opacity=".976471"/><stop offset="1" stop-color="#4e6d79"/></linearGradient><linearGradient id="j" gradientUnits="userSpaceOnUse" x1="368.97410552" x2="164.34308408" xlink:href="#i" y1="317.65635072" y2="113.0263332"/><linearGradient id="k" gradientUnits="userSpaceOnUse" x1="384.855116" x2="256.83222584" xlink:href="#i" y1="409.10944704" y2="281.0875608"/><linearGradient id="l" gradientUnits="userSpaceOnUse" x1="243.40579976" x2="120.87134024" xlink:href="#i" y1="395.70410328" y2="273.16863984"/><linearGradient id="m"><stop offset="0" stop-color="#ffb92d"/><stop offset="1" stop-color="#f59500"/></linearGradient><linearGradient id="n" gradientUnits="userSpaceOnUse" x1="201.5543828" x2="246.22079144" xlink:href="#m" y1="214.71439392" y2="200.23987536"/><linearGradient id="o" gradientUnits="userSpaceOnUse" x1="263.10371408" x2="329.13354032" xlink:href="#m" y1="187.42584048" y2="253.45566672"/><linearGradient id="p" gradientTransform="matrix(-.50417 .86819 -.86819 -.50417 -2008.412 4431.163)" gradientUnits="userSpaceOnUse" x1="-4741.876" x2="-4697.386" xlink:href="#m" y1="40.745" y2="26.327"/><linearGradient id="q" gradientUnits="userSpaceOnUse" x1="311.19850952" x2="337.77528368" xlink:href="#m" y1="341.77552872" y2="423.60504792"/><linearGradient id="r" gradientTransform="matrix(-.57474 -.82312 .82312 -.57474 -4795.576 813.773)" gradientUnits="userSpaceOnUse" x1="-2506.248" x2="-2461.756" xlink:href="#m" y1="4338.691" y2="4324.273"/><linearGradient id="s" gradientUnits="userSpaceOnUse" x1="163.43754824" x2="284.12479496" xlink:href="#m" y1="325.63851864" y2="359.43046584"/><linearGradient id="t" gradientUnits="userSpaceOnUse" x1="250.7816" x2="250.7816" xlink:href="#g" y1="496.65227496" y2="512.65777152"/><path d="m455.410156 101.019531-35.925781 353.46875c-1.628906 16.027344-15.121094 28.21875-31.230469 28.21875h-274.945312c-16.109375 0-29.601563-12.191406-31.230469-28.21875l-35.925781-353.46875c-1.878906-18.5 12.640625-34.566406 31.230468-34.566406h346.796876c18.59375 0 33.109374 16.066406 31.230468 34.566406zm0 0" fill="url(#b)"/><path d="m419.484375 454.488281 4.070313-40.023437h-345.546876l4.070313 40.023437c1.628906 16.027344 15.121094 28.21875 31.230469 28.21875h274.945312c16.109375 0 29.601563-12.191406 31.230469-28.21875zm0 0" fill="url(#d)"/><path d="m46.152344 101.019531 2.558594 25.160157 353.332031 353.328124c9.464843-4.636718 16.3125-13.898437 17.441406-25.019531l35.925781-353.46875c1.878906-18.5-12.636718-34.566406-31.230468-34.566406h-346.796876c-18.589843 0-33.109374 16.066406-31.230468 34.566406zm0 0" fill="url(#e)"/><path d="m341.632812 54.140625h-181.703124v-18.0625c0-19.925781 16.152343-36.078125 36.074218-36.078125h109.554688c19.925781 0 36.074218 16.152344 36.074218 36.078125zm0 0" fill="url(#f)"/><path d="m463.898438 126.949219h-426.234376c-20.800781 0-37.664062-16.859375-37.664062-37.664063 0-20.800781 16.863281-37.664062 37.664062-37.664062h426.234376c20.804687 0 37.664062 16.863281 37.664062 37.664062 0 20.804688-16.859375 37.664063-37.664062 37.664063zm0 0" fill="url(#h)"/><path d="m339.273438 192.164062c-.804688-.898437-2.1875-1.261718-3.417969-.550781l-11.035157 6.394531c-.738281-.71875-20.226562-20.3125-22.039062-21.753906-5.765625-7.277344-14.574219-11.605468-23.988281-11.605468h-62.5625l.003906.007812-37.097656 53.984375c-1.34375 1.960937-.847657 4.640625 1.113281 5.988281l237.480469 237.480469c.878906-2.410156 1.484375-4.960937 1.753906-7.617187l16.664063-163.960938c-34.28125-34.792969-96.472657-97.917969-96.875-98.367188zm0 0" fill="url(#j)"/><path d="m354.785156 272.410156c-1.019531-2.148437-3.585937-3.066406-5.734375-2.046875l-43.945312 20.832031c-2.148438 1.015626-3.066407 3.585938-2.046875 5.730469l16.929687 36.148438-8.648437.203125-13.074219-12.980469c-1-.613281-2.367187-.597656-3.355469.367187l-44.011718 43.085938c-5.226563 5.117188-5.140626 13.554688.183593 18.5625l100.476563 100.394531h36.695312c16.109375 0 29.605469-12.191406 31.234375-28.21875l10.828125-106.550781zm0 0" fill="url(#k)"/><path d="m404.75 478.027344-212.710938-213.871094c-3.175781-5.308594-9.839843-7.722656-15.816406-5.332031l-55.789062 22.335937c-1.515625.605469-2.039063 2.246094-1.527344 3.550782l16.921875 15.75-7.929687 18.15625c-4.265626 9.765624-3.144532 21.042968 2.953124 29.78125l35.816407 51.292968v-.007812l83.949219 83.023437h137.636718c6.023438 0 11.683594-1.707031 16.496094-4.679687zm0 0" fill="url(#l)"/><path d="m220.332031 252.167969-40.082031-27.542969c-1.960938-1.34375-2.457031-4.023438-1.113281-5.984375l37.101562-53.992187 36.566407 48.238281-26.488282 38.171875c-1.34375 1.960937-4.027344 2.457031-5.984375 1.109375zm0 0" fill="url(#n)"/><path d="m317.195312 199.34375-12.292968-20.070312c-5.566406-9.085938-15.457032-14.625-26.109375-14.625h-62.5625l42.0625 68.671874c.800781 1.308594.367187 3.023438-.960938 3.792969l-7.035156 4.070313c-2.097656 1.214844-1.695313 4.355468.640625 5l59.359375 16.425781c7.046875 1.949219 14.304687-2.359375 15.960937-9.484375l13.628907-58.527344c.542969-2.332031-1.960938-4.183594-4.03125-2.984375l-14.960938 8.667969c-1.28125.746094-2.925781.328125-3.699219-.9375zm0 0" fill="url(#o)"/><path d="m305.105469 291.195312 43.945312-20.832031c2.148438-1.015625 4.714844-.101562 5.734375 2.046875l28.058594 59.195313-60.078125 7.398437-19.707031-42.074218c-1.019532-2.152344-.101563-4.71875 2.046875-5.734376zm0 0" fill="url(#p)"/><path d="m302.140625 401.484375 23.53125-.550781c10.652344-.25 20.40625-6.019532 25.757813-15.234375l31.417968-54.097657-80.507812 1.886719c-1.535156.035157-2.800782-1.203125-2.796875-2.738281l.011719-8.125c.003906-2.425781-2.914063-3.652344-4.644532-1.957031l-44.015625 43.082031c-5.222656 5.117188-5.140625 13.554688.183594 18.5625l43.773437 41.179688c1.742188 1.640624 4.601563.40625 4.605469-1.988282l.015625-17.289062c0-1.484375 1.183594-2.695313 2.667969-2.730469zm0 0" fill="url(#q)"/><path d="m236.082031 346.226562.363281 48.632813c.015626 2.375-1.898437 4.316406-4.273437 4.335937l-65.507813.488282 18.617188-57.597656 46.460938-.132813c2.378906-.015625 4.320312 1.894531 4.339843 4.273437zm0 0" fill="url(#r)"/><path d="m137.316406 297.046875-9.417968 21.570313c-4.265626 9.761718-3.144532 21.042968 2.953124 29.78125l35.816407 51.292968 32.226562-73.800781c.613281-1.40625 2.269531-2.035156 3.660157-1.382813l7.363281 3.4375c2.195312 1.023438 4.539062-1.101562 3.734375-3.386718l-20.515625-58.074219c-2.4375-6.894531-10.121094-10.375-16.914063-7.660156l-55.789062 22.332031c-2.222656.890625-2.308594 4.003906-.140625 5.015625l15.675781 7.300781c1.34375.628906 1.941406 2.214844 1.347656 3.574219zm0 0" fill="url(#s)"/><path d="m413.753906 512h-325.945312c-13.960938 0-25.28125-11.316406-25.28125-25.28125 0-13.960938 11.316406-25.28125 25.28125-25.28125h325.945312c13.960938 0 25.28125 11.320312 25.28125 25.28125 0 13.964844-11.320312 25.28125-25.28125 25.28125zm0 0" fill="url(#t)"/></svg>