<svg id="Capa_1" enable-background="new 0 0 510 510" height="512" viewBox="0 0 510 510" width="512" xmlns="http://www.w3.org/2000/svg" xmlns:xlink="http://www.w3.org/1999/xlink"><linearGradient id="SVGID_1_" gradientUnits="userSpaceOnUse" x1="104.513" x2="254.932" y1="253.201" y2="492.1"><stop offset="0" stop-color="#9b62cd"/><stop offset=".3003" stop-color="#985dcb"/><stop offset=".6716" stop-color="#8f4ec7"/><stop offset="1" stop-color="#833ac1"/></linearGradient><linearGradient id="lg1"><stop offset="0" stop-color="#662d90" stop-opacity="0"/><stop offset=".3052" stop-color="#632d8c" stop-opacity=".305"/><stop offset=".5953" stop-color="#5b2d81" stop-opacity=".595"/><stop offset=".8785" stop-color="#4d2d6e" stop-opacity=".879"/><stop offset="1" stop-color="#452d63"/></linearGradient><linearGradient id="SVGID_2_" gradientUnits="userSpaceOnUse" x1="45.773" x2="46.536" xlink:href="#lg1" y1="478.731" y2="429.097"/><linearGradient id="SVGID_3_" gradientUnits="userSpaceOnUse" x1="214.462" x2="179.382" xlink:href="#lg1" y1="430.927" y2="395.847"/><linearGradient id="SVGID_4_" gradientUnits="userSpaceOnUse" x1="314.434" x2="314.434" xlink:href="#lg1" y1="378.554" y2="414.812"/><linearGradient id="SVGID_5_" gradientUnits="userSpaceOnUse" x1="238.811" x2="246.978" xlink:href="#lg1" y1="476.526" y2="433.646"/><linearGradient id="SVGID_6_" gradientUnits="userSpaceOnUse" x1="67.56" x2="97.902" xlink:href="#lg1" y1="276.652" y2="306.994"/><linearGradient id="lg2"><stop offset="0" stop-color="#8a7889"/><stop offset="1" stop-color="#6e566e"/></linearGradient><linearGradient id="SVGID_7_" gradientTransform="matrix(.707 .707 -.707 .707 682.714 71.54)" gradientUnits="userSpaceOnUse" x1="-294.402" x2="-96.855" xlink:href="#lg2" y1="173.112" y2="370.66"/><linearGradient id="lg3"><stop offset="0" stop-color="#6e566e" stop-opacity="0"/><stop offset=".3782" stop-color="#6a516a" stop-opacity=".378"/><stop offset=".8244" stop-color="#5f435d" stop-opacity=".824"/><stop offset="1" stop-color="#593b56"/></linearGradient><linearGradient id="SVGID_8_" gradientTransform="matrix(.707 .707 -.707 .707 682.714 71.54)" gradientUnits="userSpaceOnUse" x1="-271.409" x2="-115.481" xlink:href="#lg3" y1="196.105" y2="352.033"/><linearGradient id="SVGID_9_" gradientTransform="matrix(-.707 .707 .707 .707 -69.648 71.54)" gradientUnits="userSpaceOnUse" x1="-335.895" x2="-179.967" xlink:href="#lg3" y1="260.591" y2="416.519"/><linearGradient id="SVGID_10_" gradientTransform="matrix(.707 .707 -.707 .707 682.714 71.54)" gradientUnits="userSpaceOnUse" x1="-185.266" x2="-185.266" xlink:href="#lg2" y1="720.911" y2="696.71"/><linearGradient id="SVGID_11_" gradientTransform="matrix(.707 .707 -.707 .707 682.714 71.54)" gradientUnits="userSpaceOnUse" x1="-254.69" x2="-95.971" xlink:href="#lg2" y1="533.399" y2="533.399"/><linearGradient id="SVGID_12_" gradientTransform="matrix(.707 .707 -.707 .707 682.714 71.54)" gradientUnits="userSpaceOnUse" x1="-191.377" x2="-164.954" xlink:href="#lg2" y1="383.548" y2="458.588"/><linearGradient id="SVGID_13_" gradientTransform="matrix(.707 .707 -.707 .707 682.714 71.54)" gradientUnits="userSpaceOnUse" x1="-154.128" x2="-211.847" xlink:href="#lg2" y1="527.273" y2="527.273"/><linearGradient id="SVGID_14_" gradientTransform="matrix(.707 .707 -.707 .707 682.714 71.54)" gradientUnits="userSpaceOnUse" x1="-121.713" x2="-199.412" xlink:href="#lg3" y1="589.805" y2="512.107"/><linearGradient id="SVGID_15_" gradientTransform="matrix(.707 .707 -.707 .707 682.714 71.54)" gradientUnits="userSpaceOnUse" x1="-192.455" x2="-178.869" y1="519.063" y2="532.65"><stop offset="0" stop-color="#ffd945"/><stop offset=".3043" stop-color="#ffcd3e"/><stop offset=".8558" stop-color="#ffad2b"/><stop offset="1" stop-color="#ffa325"/></linearGradient><g><g><path d="m196.134 510h-135.373c-17.449 0-33.038-10.416-39.715-26.536-6.677-16.121-3.02-34.509 9.318-46.847l13.779-13.779c6.977-6.977 18.289-6.977 25.267 0 6.977 6.978 6.977 18.29 0 25.267l-13.779 13.779c-2.982 2.982-2.265 6.233-1.573 7.905.693 1.672 2.485 4.478 6.702 4.478h135.373c23.543 0 44.918-9.449 60.534-24.758h-9.892c-32.656 0-63.358-12.717-86.449-35.808l-98.116-98.116c-23.091-23.091-35.808-53.793-35.808-86.449v-80.293c0-9.867 7.999-17.866 17.866-17.866s17.866 7.999 17.866 17.866v80.293c0 23.112 9 44.84 25.342 61.182l98.116 98.116c16.342 16.342 38.07 25.342 61.182 25.342h31.881c2.599-8.22 4.001-16.966 4.001-26.034 0-34.058 27.709-61.767 61.767-61.767h1.011c34.058 0 61.767 27.708 61.767 61.767s-27.709 61.767-61.767 61.767h-43.825c-21.255 36.166-60.577 60.491-105.475 60.491zm119.468-96.223h29.835c14.355 0 26.034-11.679 26.034-26.034s-11.679-26.034-26.034-26.034h-1.011c-14.355 0-26.034 11.679-26.034 26.034 0 8.932-.963 17.641-2.79 26.034z" fill="url(#SVGID_1_)"/><path d="m54.058 469.789c-.692-1.672-1.409-4.923 1.573-7.905l13.779-13.779c6.977-6.978 6.977-18.29 0-25.267-6.978-6.977-18.29-6.977-25.267 0l-13.779 13.779c-12.338 12.338-15.996 30.726-9.318 46.847 2.712 6.547 6.894 12.153 12.073 16.503l25.886-25.886c-2.975-.648-4.359-2.874-4.947-4.292z" fill="url(#SVGID_2_)"/><path d="m160.327 413.701c19.846 19.846 45.317 32.02 72.816 35.052v-36.054c-17.931-2.822-34.468-11.183-47.549-24.265l-7.965-7.965-25.267 25.267z" fill="url(#SVGID_3_)"/><path d="m344.425 325.976c-34.058 0-61.767 27.708-61.767 61.767 0 9.068-1.402 17.814-4.001 26.034h36.944c1.828-8.393 2.79-17.101 2.79-26.034 0-14.355 11.679-26.034 26.034-26.034h1.011c1.631 0 3.225.158 4.774.446v-35.977c-1.578-.121-3.166-.203-4.774-.203h-1.011z" fill="url(#SVGID_4_)"/><path d="m196.134 474.267h-14.548v35.733h14.548c44.898 0 84.219-24.325 105.478-60.491h-44.944c-15.616 15.309-36.99 24.758-60.534 24.758z" fill="url(#SVGID_5_)"/><path d="m30.061 259.02c5.308 21.226 16.279 40.694 32.15 56.566l23.534 23.534 25.267-25.267-23.534-23.534c-16.342-16.342-25.342-38.07-25.342-61.182v-2.191z" fill="url(#SVGID_6_)"/></g><g><g><circle cx="352.131" cy="140.117" fill="url(#SVGID_7_)" r="140.117"/><path d="m401.221 189.207c-54.719 54.719-121.056 77.099-148.167 49.987-27.112-27.112-4.732-93.449 49.987-148.167s121.056-77.099 148.167-49.987 4.732 93.448-49.987 148.167z" fill="url(#SVGID_8_)"/><path d="m303.041 189.207c54.719 54.719 121.056 77.099 148.167 49.987s4.732-93.449-49.987-148.167-121.056-77.1-148.167-49.988-4.732 93.449 49.987 148.168z" fill="url(#SVGID_9_)"/></g><path d="m60.118 455.953-23.823-23.823c-6.778-6.778-6.778-17.767 0-24.545l10.829-10.829 48.368 48.368-10.829 10.829c-6.778 6.778-17.767 6.778-24.545 0z" fill="url(#SVGID_10_)"/><path d="m84.589 450.104-42.445-42.445c-10.516-10.516-11.888-26.555-3.133-36.635l191.135-220.062 111.14 111.14-220.062 191.135c-10.08 8.755-26.119 7.383-36.635-3.133z" fill="url(#SVGID_11_)"/><path d="m177.954 211.053 103.241 103.241 47.196-13.922c17.436-5.143 23.017-27.069 10.163-39.923l-106.756-106.755c-12.854-12.854-34.78-7.272-39.923 10.163z" fill="url(#SVGID_12_)"/><path d="m158.027 348.839-14.619-14.619c-4.635-4.635-4.635-12.15 0-16.784l39.525-39.525c4.635-4.635 12.15-4.635 16.784 0l14.619 14.619c4.635 4.635 4.635 12.15 0 16.784l-39.525 39.525c-4.634 4.635-12.149 4.635-16.784 0z" fill="url(#SVGID_13_)"/><path d="m198.006 386.548v-71.465c.339-3.118-.681-6.355-3.071-8.746l-9.024-9.024c-4.186-4.186-10.974-4.186-15.16 0l-6.497 6.497c-2.39 2.39-3.41 5.628-3.071 8.746v105.974z" fill="url(#SVGID_14_)"/><path d="m173.277 327.994-9.024-9.024c-4.186-4.186-4.186-10.974 0-15.16l6.497-6.497c4.186-4.186 10.974-4.186 15.16 0l9.024 9.024c4.186 4.186 4.186 10.974 0 15.16l-6.497 6.497c-4.186 4.187-10.973 4.187-15.16 0z" fill="url(#SVGID_15_)"/></g></g></svg>