<svg id="Capa_1" enable-background="new 0 0 510 510" height="512" viewBox="0 0 510 510" width="512" xmlns="http://www.w3.org/2000/svg" xmlns:xlink="http://www.w3.org/1999/xlink"><linearGradient id="lg1"><stop offset="0" stop-color="#18cefb"/><stop offset=".2969" stop-color="#2bb9f9"/><stop offset=".7345" stop-color="#42a0f7"/><stop offset="1" stop-color="#4a97f6"/></linearGradient><linearGradient id="SVGID_1_" gradientUnits="userSpaceOnUse" x1="40.78" x2="78.433" xlink:href="#lg1" y1="249.891" y2="249.891"/><linearGradient id="SVGID_2_" gradientUnits="userSpaceOnUse" x1="226.239" x2="178.348" xlink:href="#lg1" y1="249.891" y2="249.891"/><linearGradient id="lg2"><stop offset="0" stop-color="#f8f6fb"/><stop offset="1" stop-color="#efdcfb"/></linearGradient><linearGradient id="SVGID_3_" gradientUnits="userSpaceOnUse" x1="321.002" x2="378.066" xlink:href="#lg2" y1="41.552" y2="247.861"/><linearGradient id="SVGID_4_" gradientUnits="userSpaceOnUse" x1="354.061" x2="354.061" xlink:href="#lg2" y1="247.33" y2="-19.501"/><linearGradient id="SVGID_5_" gradientUnits="userSpaceOnUse" x1="354.061" x2="354.061" xlink:href="#lg2" y1="88.575" y2="229.042"/><linearGradient id="SVGID_6_" gradientUnits="userSpaceOnUse" x1="318.398" x2="57.219" y1="207.764" y2="115.583"><stop offset="0" stop-color="#efdcfb" stop-opacity="0"/><stop offset=".0287" stop-color="#e9d6f7" stop-opacity=".029"/><stop offset=".2203" stop-color="#c5b5de" stop-opacity=".22"/><stop offset=".4138" stop-color="#aa9bcb" stop-opacity=".414"/><stop offset=".6078" stop-color="#9688bd" stop-opacity=".608"/><stop offset=".8028" stop-color="#8a7db5" stop-opacity=".803"/><stop offset="1" stop-color="#8679b2"/></linearGradient><linearGradient id="lg3"><stop offset="0" stop-color="#8a7889"/><stop offset=".3344" stop-color="#867385"/><stop offset=".7039" stop-color="#7b667b"/><stop offset="1" stop-color="#6e566e"/></linearGradient><linearGradient id="SVGID_7_" gradientUnits="userSpaceOnUse" x1="64.55" x2="197.951" xlink:href="#lg3" y1="253.354" y2="253.354"/><linearGradient id="SVGID_8_" gradientUnits="userSpaceOnUse" x1="131.251" x2="131.251" xlink:href="#lg3" y1="436" y2="418.472"/><linearGradient id="SVGID_9_" gradientUnits="userSpaceOnUse" x1="131.251" x2="131.251" xlink:href="#lg3" y1="407.333" y2="389.805"/><linearGradient id="SVGID_10_" gradientUnits="userSpaceOnUse" x1="131.251" x2="131.251" xlink:href="#lg3" y1="378.667" y2="361.138"/><linearGradient id="SVGID_11_" gradientUnits="userSpaceOnUse" x1="131.251" x2="131.251" xlink:href="#lg3" y1="350" y2="332.471"/><linearGradient id="lg4"><stop offset="0" stop-color="#6e566e" stop-opacity="0"/><stop offset=".2944" stop-color="#674d66" stop-opacity=".294"/><stop offset="1" stop-color="#593b56"/></linearGradient><linearGradient id="SVGID_12_" gradientUnits="userSpaceOnUse" x1="187.825" x2="56.145" xlink:href="#lg4" y1="262.424" y2="226.212"/><linearGradient id="SVGID_13_" gradientUnits="userSpaceOnUse" x1="141.233" x2="128.065" xlink:href="#lg4" y1="348.687" y2="213.159"/><linearGradient id="SVGID_14_" gradientUnits="userSpaceOnUse" x1="91.789" x2="230.115" xlink:href="#lg2" y1="121.61" y2="259.936"/><linearGradient id="SVGID_15_" gradientTransform="matrix(-1 0 0 -1 -1618 -1618)" gradientUnits="userSpaceOnUse" x1="-1783.595" x2="-1663.206" xlink:href="#lg2" y1="-1813.416" y2="-1693.027"/><linearGradient id="SVGID_16_" gradientUnits="userSpaceOnUse" x1="86.926" x2="179.6" xlink:href="#lg3" y1="116.747" y2="209.421"/><linearGradient id="SVGID_17_" gradientUnits="userSpaceOnUse" x1="131.251" x2="131.251" y1="164.169" y2="17.998"><stop offset="0" stop-color="#fff" stop-opacity="0"/><stop offset="1" stop-color="#fff"/></linearGradient><linearGradient id="SVGID_18_" gradientUnits="userSpaceOnUse" x1="131.251" x2="131.251" xlink:href="#lg4" y1="481.468" y2="505.635"/><linearGradient id="SVGID_19_" gradientUnits="userSpaceOnUse" x1="171.514" x2="115.66" xlink:href="#lg4" y1="525.838" y2="469.984"/><linearGradient id="SVGID_20_" gradientUnits="userSpaceOnUse" x1="114.104" x2="152.764" xlink:href="#lg3" y1="468.436" y2="507.097"/><linearGradient id="SVGID_21_" gradientUnits="userSpaceOnUse" x1="253.719" x2="240.261" xlink:href="#lg2" y1="263.379" y2="249.921"/><linearGradient id="SVGID_22_" gradientUnits="userSpaceOnUse" x1="239.179" x2="253.784" y1="248.839" y2="263.444"><stop offset="0" stop-color="#cdec7a"/><stop offset=".2157" stop-color="#b0e995"/><stop offset=".5613" stop-color="#87e4bb"/><stop offset=".8347" stop-color="#6ee1d2"/><stop offset="1" stop-color="#65e0db"/></linearGradient><linearGradient id="SVGID_23_" gradientUnits="userSpaceOnUse" x1="288.698" x2="275.24" xlink:href="#lg2" y1="263.379" y2="249.921"/><linearGradient id="SVGID_24_" gradientUnits="userSpaceOnUse" x1="274.158" x2="288.763" y1="248.839" y2="263.444"><stop offset="0" stop-color="#ffd945"/><stop offset=".3043" stop-color="#ffcd3e"/><stop offset=".8558" stop-color="#ffad2b"/><stop offset="1" stop-color="#ffa325"/></linearGradient><linearGradient id="SVGID_25_" gradientUnits="userSpaceOnUse" x1="323.678" x2="310.22" xlink:href="#lg2" y1="263.379" y2="249.921"/><linearGradient id="SVGID_26_" gradientUnits="userSpaceOnUse" x1="309.137" x2="323.742" y1="248.839" y2="263.444"><stop offset="0" stop-color="#ffa936"/><stop offset=".4112" stop-color="#ff8548"/><stop offset=".7781" stop-color="#ff6c54"/><stop offset="1" stop-color="#ff6359"/></linearGradient><linearGradient id="SVGID_27_" gradientUnits="userSpaceOnUse" x1="358.657" x2="345.199" xlink:href="#lg2" y1="263.379" y2="249.921"/><linearGradient id="SVGID_28_" gradientUnits="userSpaceOnUse" x1="344.117" x2="358.722" xlink:href="#lg1" y1="248.839" y2="263.444"/><g><g><path d="m88.703 27.054c-23.967 3.179-43.661 22.902-48.086 49.241-19.352 115.189-19.352 232.001 0 347.191 4.426 26.339 24.12 46.062 48.086 49.241z" fill="url(#SVGID_1_)"/><path d="m173.798 27.054c23.967 3.179 43.661 22.902 48.086 49.241 19.352 115.189 19.352 232.001 0 347.191-4.426 26.339-24.12 46.062-48.086 49.241z" fill="url(#SVGID_2_)"/></g><g><path d="m482.614 273.535h-257.107c-8.99 0-16.278-7.288-16.278-16.278v-192.37c0-8.99 7.288-16.278 16.278-16.278h257.107c8.99 0 16.278 7.288 16.278 16.278v192.37c.001 8.99-7.287 16.278-16.278 16.278z" fill="url(#SVGID_3_)"/><path d="m467.441 233.066h-226.76c-8.99 0-16.278-7.288-16.278-16.278v-137.781c0-8.99 7.288-16.278 16.278-16.278h226.759c8.99 0 16.278 7.288 16.278 16.278v137.78c.001 8.991-7.287 16.279-16.277 16.279z" fill="url(#SVGID_4_)"/><path d="m457.871 221.341h-207.621c-7.973 0-14.436-6.463-14.436-14.436v-118.015c0-7.973 6.463-14.436 14.436-14.436h207.621c7.973 0 14.436 6.463 14.436 14.436v118.015c0 7.973-6.463 14.436-14.436 14.436z" fill="url(#SVGID_5_)"/></g><path d="m225.507 273.535h188.033l-194.89-194.89c-2.975-3.153-6.124-6.139-9.421-8.956v187.568c0 8.99 7.288 16.278 16.278 16.278z" fill="url(#SVGID_6_)"/><g><path d="m175.363 506.708h-88.225c-12.475 0-22.588-10.113-22.588-22.588v-461.532c0-12.475 10.113-22.588 22.588-22.588h88.226c12.475 0 22.588 10.113 22.588 22.588v461.532c-.001 12.475-10.114 22.588-22.589 22.588z" fill="url(#SVGID_7_)"/><path d="m155.765 436.832h-49.03c-3.095 0-5.603-2.509-5.603-5.603v-4.44c0-3.095 2.509-5.603 5.603-5.603h49.03c3.095 0 5.603 2.509 5.603 5.603v4.44c.001 3.094-2.508 5.603-5.603 5.603z" fill="url(#SVGID_8_)"/><path d="m155.765 408.165h-49.03c-3.095 0-5.603-2.509-5.603-5.603v-4.44c0-3.095 2.509-5.603 5.603-5.603h49.03c3.095 0 5.603 2.509 5.603 5.603v4.44c.001 3.095-2.508 5.603-5.603 5.603z" fill="url(#SVGID_9_)"/><path d="m155.765 379.499h-49.03c-3.095 0-5.603-2.509-5.603-5.603v-4.44c0-3.095 2.509-5.603 5.603-5.603h49.03c3.095 0 5.603 2.509 5.603 5.603v4.44c.001 3.094-2.508 5.603-5.603 5.603z" fill="url(#SVGID_10_)"/><path d="m155.765 350.832h-49.03c-3.095 0-5.603-2.509-5.603-5.603v-4.44c0-3.095 2.509-5.603 5.603-5.603h49.03c3.095 0 5.603 2.509 5.603 5.603v4.44c.001 3.094-2.508 5.603-5.603 5.603z" fill="url(#SVGID_11_)"/><path d="m175.363 0h-44.113v506.708h44.113c12.475 0 22.588-10.113 22.588-22.588v-461.532c0-12.475-10.113-22.588-22.588-22.588z" fill="url(#SVGID_12_)"/><path d="m197.951 230.885h-133.401v30.124l133.401 133.401z" fill="url(#SVGID_13_)"/><g><circle cx="131.25" cy="161.072" fill="url(#SVGID_14_)" r="120.143"/><circle cx="131.25" cy="161.072" fill="url(#SVGID_15_)" r="104.564"/><circle cx="131.25" cy="161.072" fill="url(#SVGID_16_)" r="90.203"/><ellipse cx="131.25" cy="134.869" fill="url(#SVGID_17_)" rx="66.701" ry="49.974"/></g><path d="m64.55 448.18v35.94c0 12.475 10.113 22.588 22.588 22.588h88.226c12.475 0 22.588-10.113 22.588-22.588v-35.94z" fill="url(#SVGID_18_)"/><path d="m192.815 498.459-33.864-33.864c-1.815-2.097-4.49-2.429-7.481-2.429h-40.438c-5.467 0-8.899 3.432-8.899 8.899v29.036c0 2.544-.029 4.855 1.549 6.607h71.682c7.029 0 13.308-3.213 17.451-8.249z" fill="url(#SVGID_19_)"/><path d="m151.47 510h-40.438c-5.467 0-9.899-4.432-9.899-9.899v-29.036c0-5.467 4.432-9.899 9.899-9.899h40.438c5.467 0 9.899 4.432 9.899 9.899v29.036c0 5.467-4.432 9.899-9.899 9.899z" fill="url(#SVGID_20_)"/></g><g><circle cx="245.031" cy="254.692" fill="url(#SVGID_21_)" r="12.208"/><circle cx="245.031" cy="254.692" fill="url(#SVGID_22_)" r="8.633"/></g><g><circle cx="280.011" cy="254.692" fill="url(#SVGID_23_)" r="12.208"/><circle cx="280.011" cy="254.692" fill="url(#SVGID_24_)" r="8.633"/></g><g><circle cx="314.99" cy="254.692" fill="url(#SVGID_25_)" r="12.208"/><circle cx="314.99" cy="254.692" fill="url(#SVGID_26_)" r="8.633"/></g><g><circle cx="349.969" cy="254.692" fill="url(#SVGID_27_)" r="12.208"/><circle cx="349.969" cy="254.692" fill="url(#SVGID_28_)" r="8.633"/></g></g></svg>