<svg id="Capa_1" enable-background="new 0 0 510 510" height="512" viewBox="0 0 510 510" width="512" xmlns="http://www.w3.org/2000/svg" xmlns:xlink="http://www.w3.org/1999/xlink"><linearGradient id="lg1"><stop offset="0" stop-color="#76e2f8"/><stop offset="1" stop-color="#48b2e3"/></linearGradient><linearGradient id="SVGID_1_" gradientUnits="userSpaceOnUse" x1="9.844" x2="88.888" xlink:href="#lg1" y1="188.719" y2="267.763"/><linearGradient id="lg2"><stop offset="0" stop-color="#48b2e3" stop-opacity="0"/><stop offset=".4112" stop-color="#2995bf" stop-opacity=".411"/><stop offset=".7781" stop-color="#1381a6" stop-opacity=".778"/><stop offset="1" stop-color="#0b799d"/></linearGradient><linearGradient id="SVGID_2_" gradientUnits="userSpaceOnUse" x1="48.75" x2="3.526" xlink:href="#lg2" y1="245.344" y2="245.344"/><linearGradient id="SVGID_3_" gradientTransform="matrix(-1 0 0 1 882.667 0)" gradientUnits="userSpaceOnUse" x1="382.51" x2="461.554" xlink:href="#lg1" y1="188.719" y2="267.763"/><linearGradient id="SVGID_4_" gradientTransform="matrix(-1 0 0 1 882.667 0)" gradientUnits="userSpaceOnUse" x1="421.417" x2="376.192" xlink:href="#lg2" y1="245.344" y2="245.344"/><linearGradient id="lg3"><stop offset="0" stop-color="#ffda2d"/><stop offset="1" stop-color="#fdbf00"/></linearGradient><linearGradient id="SVGID_5_" gradientUnits="userSpaceOnUse" x1="255" x2="255" xlink:href="#lg3" y1="105.177" y2="139.927"/><linearGradient id="SVGID_6_" gradientUnits="userSpaceOnUse" x1="255" x2="255" y1="111.524" y2="137.434"><stop offset="0" stop-color="#edf5ff"/><stop offset="1" stop-color="#d5e8fe"/></linearGradient><linearGradient id="SVGID_7_" gradientUnits="userSpaceOnUse" x1="111" x2="111" y1="114.455" y2="125.835"><stop offset="0" stop-color="#ff9100"/><stop offset="1" stop-color="#e63950"/></linearGradient><linearGradient id="SVGID_8_" gradientUnits="userSpaceOnUse" x1="37.875" x2="37.875" xlink:href="#lg3" y1="174.576" y2="199.368"/><linearGradient id="SVGID_9_" gradientTransform="matrix(-1 0 0 1 930 0)" gradientUnits="userSpaceOnUse" x1="457.875" x2="457.875" xlink:href="#lg3" y1="174.576" y2="199.368"/><linearGradient id="SVGID_10_" gradientUnits="userSpaceOnUse" x1="159.754" x2="328.424" y1="186.754" y2="355.424"><stop offset="0" stop-color="#b9dd39"/><stop offset="1" stop-color="#90cc1c"/></linearGradient><linearGradient id="lg4"><stop offset="0" stop-color="#07485e" stop-opacity="0"/><stop offset=".2898" stop-color="#064155" stop-opacity=".29"/><stop offset=".7606" stop-color="#042e3d" stop-opacity=".761"/><stop offset="1" stop-color="#03232e"/></linearGradient><linearGradient id="SVGID_11_" gradientUnits="userSpaceOnUse" x1="382.125" x2="100.064" xlink:href="#lg4" y1="409.125" y2="127.064"/><linearGradient id="SVGID_12_" gradientUnits="userSpaceOnUse" x1="255" x2="255" y1="312.375" y2="450.974"><stop offset="0" stop-color="#6b0"/><stop offset="1" stop-color="#0b799d"/></linearGradient><linearGradient id="SVGID_13_" gradientUnits="userSpaceOnUse" x1="255" x2="255" xlink:href="#lg4" y1="392.25" y2="464.329"/><linearGradient id="SVGID_14_" gradientUnits="userSpaceOnUse" x1="203.15" x2="294.971" xlink:href="#lg3" y1="230.15" y2="321.971"/><linearGradient id="SVGID_15_" gradientTransform="matrix(-1 0 0 -1 510 510)" gradientUnits="userSpaceOnUse" x1="209.916" x2="289.755" xlink:href="#lg3" y1="182.916" y2="262.755"/><linearGradient id="SVGID_16_" gradientUnits="userSpaceOnUse" x1="221.813" x2="311.988" y1="248.813" y2="338.988"><stop offset="0" stop-color="#0b799d"/><stop offset="1" stop-color="#07485e"/></linearGradient><g><g><g><path d="m51 153.375h-27.634c-12.905 0-23.366 10.461-23.366 23.366v55.192c0 15.01 5.963 29.405 16.576 40.019l34.424 34.423z" fill="url(#SVGID_1_)"/><path d="m51 184.312h-13.009c-12.905 0-23.366 10.461-23.366 23.366v24.439c0 23.801 9.33 46.654 25.987 63.655l10.388 10.603z" fill="url(#SVGID_2_)"/></g><g><path d="m459 153.375h27.634c12.905 0 23.366 10.461 23.366 23.366v55.192c0 15.01-5.963 29.405-16.576 40.019l-34.424 34.423z" fill="url(#SVGID_3_)"/><path d="m459 184.312h13.009c12.905 0 23.366 10.461 23.366 23.366v24.439c0 23.801-9.33 46.654-25.987 63.655l-10.388 10.603z" fill="url(#SVGID_4_)"/></g></g><g><path d="m321.375 130.125h-132.75l13.847-43.925c3.79-12.024 14.941-20.2 27.548-20.2h49.961c12.607 0 23.757 8.176 27.548 20.2z" fill="url(#SVGID_5_)"/><path d="m302.813 130.125h-95.625l12.343-40.528c1.32-4.336 5.205-7.284 9.597-7.284h51.745c4.392 0 8.277 2.948 9.597 7.284z" fill="url(#SVGID_6_)"/><path d="m136.875 122.625h-51.75v-10.097c0-6.021 4.881-10.903 10.903-10.903h29.944c6.021 0 10.903 4.881 10.903 10.903z" fill="url(#SVGID_7_)"/><g><path d="m53.25 192.375h-21.819c-4.933 0-8.931-3.999-8.931-8.931v-27.888c0-4.933 3.999-8.931 8.931-8.931h21.819z" fill="url(#SVGID_8_)"/><path d="m456.75 192.375h21.819c4.933 0 8.931-3.999 8.931-8.931v-27.888c0-4.933-3.999-8.931-8.931-8.931h-21.819z" fill="url(#SVGID_9_)"/></g><path d="m429.7 444h-349.4c-20.945 0-37.925-16.98-37.925-37.925v-248.15c0-20.945 16.98-37.925 37.925-37.925h349.4c20.945 0 37.925 16.98 37.925 37.925v248.15c0 20.945-16.98 37.925-37.925 37.925z" fill="url(#SVGID_10_)"/><path d="m467.625 406.075v-103.211l-111.787-111.787c-24.729-26.157-59.751-42.482-98.588-42.482-74.92 0-135.655 60.735-135.655 135.655 0 38.837 16.325 73.859 42.482 98.588l61.162 61.162h204.461c20.945 0 37.925-16.979 37.925-37.925z" fill="url(#SVGID_11_)"/><path d="m42.375 316.87v89.205c0 20.946 16.98 37.925 37.925 37.925h349.4c20.945 0 37.925-16.979 37.925-37.925v-89.205z" fill="url(#SVGID_12_)"/><path d="m42.375 313.875v92.2c0 20.946 16.98 37.925 37.925 37.925h349.4c20.945 0 37.925-16.979 37.925-37.925v-92.2z" fill="url(#SVGID_13_)"/><g><circle cx="255" cy="282" fill="url(#SVGID_14_)" r="135.655"/><circle cx="255" cy="282" fill="url(#SVGID_15_)" r="117.954"/><circle cx="255" cy="282" fill="url(#SVGID_16_)" r="98.394"/></g></g></g></svg>