<?xml version="1.0" encoding="UTF-8" standalone="no"?>
<svg
   id="Capa_1"
   enable-background="new 0 0 510 510"
   height="512"
   viewBox="0 0 510 510"
   width="512"
   version="1.1"
   sodipodi:docname="aegisub.svg"
   inkscape:version="1.1 (c68e22c387, 2021-05-23)"
   xmlns:inkscape="http://www.inkscape.org/namespaces/inkscape"
   xmlns:sodipodi="http://sodipodi.sourceforge.net/DTD/sodipodi-0.dtd"
   xmlns:xlink="http://www.w3.org/1999/xlink"
   xmlns="http://www.w3.org/2000/svg"
   xmlns:svg="http://www.w3.org/2000/svg">
  <defs
     id="defs112" />
  <sodipodi:namedview
     id="namedview110"
     pagecolor="#ffffff"
     bordercolor="#666666"
     borderopacity="1.0"
     inkscape:pageshadow="2"
     inkscape:pageopacity="0.0"
     inkscape:pagecheckerboard="0"
     showgrid="false"
     inkscape:zoom="0.81445312"
     inkscape:cx="256"
     inkscape:cy="256"
     inkscape:window-width="1366"
     inkscape:window-height="708"
     inkscape:window-x="0"
     inkscape:window-y="0"
     inkscape:window-maximized="1"
     inkscape:current-layer="Capa_1" />
  <linearGradient
     id="lg1">
    <stop
       offset="0"
       stop-color="#0b799d"
       id="stop2" />
    <stop
       offset="1"
       stop-color="#07485e"
       id="stop4" />
  </linearGradient>
  <linearGradient
     id="SVGID_1_"
     gradientUnits="userSpaceOnUse"
     x1="227.815"
     x2="287.676"
     xlink:href="#lg1"
     y1="408.293"
     y2="482.837" />
  <linearGradient
     id="SVGID_2_"
     gradientUnits="userSpaceOnUse"
     x1="287.907"
     x2="263.623"
     y1="426.977"
     y2="324.761">
    <stop
       offset="0"
       stop-color="#07485e"
       stop-opacity="0"
       id="stop8" />
    <stop
       offset="1"
       stop-color="#03232e"
       id="stop10" />
  </linearGradient>
  <linearGradient
     id="SVGID_3_"
     gradientUnits="userSpaceOnUse"
     x1="150.372"
     x2="492.466"
     xlink:href="#lg1"
     y1="82.711"
     y2="424.805" />
  <linearGradient
     id="SVGID_4_"
     gradientUnits="userSpaceOnUse"
     x1="429.165"
     x2="24.811"
     xlink:href="#lg1"
     y1="361.505"
     y2="-42.85" />
  <linearGradient
     id="SVGID_5_"
     gradientUnits="userSpaceOnUse"
     x1="222.282"
     x2="313.777"
     y1="99.911"
     y2="344.399">
    <stop
       offset="0"
       stop-color="#fdbf00"
       id="stop15" />
    <stop
       offset="1"
       stop-color="#ff9100"
       id="stop17" />
  </linearGradient>
  <linearGradient
     id="SVGID_6_"
     gradientUnits="userSpaceOnUse"
     x1="269.837"
     x2="236.07"
     xlink:href="#lg1"
     y1="45.078"
     y2="11.311" />
  <linearGradient
     id="SVGID_7_"
     gradientTransform="matrix(-1 0 0 -1 1574 -5080)"
     gradientUnits="userSpaceOnUse"
     x1="1328.312"
     x2="1307.12"
     xlink:href="#lg1"
     y1="-5100.93"
     y2="-5122.122" />
  <linearGradient
     id="SVGID_8_"
     gradientUnits="userSpaceOnUse"
     x1="244.984"
     x2="281.79"
     xlink:href="#lg1"
     y1="462.62"
     y2="563.837" />
  <linearGradient
     id="SVGID_9_"
     gradientUnits="userSpaceOnUse"
     x1="50.726"
     x2="75.204"
     y1="341.977"
     y2="366.455">
    <stop
       offset="0"
       stop-color="#b9dd39"
       id="stop23" />
    <stop
       offset="1"
       stop-color="#0b799d"
       id="stop25" />
  </linearGradient>
  <linearGradient
     id="SVGID_10_"
     gradientUnits="userSpaceOnUse"
     x1="346.913"
     x2="244.352"
     y1="312.069"
     y2="78.072">
    <stop
       offset="0"
       stop-color="#07485e"
       stop-opacity="0"
       id="stop28" />
    <stop
       offset=".5274"
       stop-color="#053342"
       stop-opacity=".527"
       id="stop30" />
    <stop
       offset="1"
       stop-color="#03232e"
       id="stop32" />
  </linearGradient>
  <linearGradient
     id="lg2">
    <stop
       offset="0"
       stop-color="#edf5ff"
       id="stop35" />
    <stop
       offset="1"
       stop-color="#d5e8fe"
       id="stop37" />
  </linearGradient>
  <linearGradient
     id="SVGID_11_"
     gradientUnits="userSpaceOnUse"
     x1="207.851"
     x2="325.031"
     xlink:href="#lg2"
     y1="140.191"
     y2="257.37" />
  <linearGradient
     id="SVGID_12_"
     gradientUnits="userSpaceOnUse"
     x1="340.859"
     x2="166.509"
     xlink:href="#lg2"
     y1="273.198"
     y2="98.848" />
  <linearGradient
     id="SVGID_13_"
     gradientUnits="userSpaceOnUse"
     x1="218.601"
     x2="282.869"
     y1="150.94"
     y2="215.208">
    <stop
       offset="0"
       stop-color="#ff637b"
       id="stop42" />
    <stop
       offset="1"
       stop-color="#e63950"
       id="stop44" />
  </linearGradient>
  <g
     id="g107">
    <g
       id="g95">
      <path
         d="m361.923 461.896c-35.869-11.594-60.172-44.991-60.172-82.686v-31.745h-93.501v31.745c0 37.696-24.303 71.093-60.172 82.686z"
         fill="url(#SVGID_1_)"
         id="path47" />
      <path
         d="m301.751 379.21v-31.745h-93.501v20.846l93.585 93.585h60.088c-35.869-11.593-60.172-44.99-60.172-82.686z"
         fill="url(#SVGID_2_)"
         id="path49" />
      <g
         id="g89">
        <g
           id="g87">
          <g
             id="g85">
            <path
               d="m477.622 368.312h-445.244c-17.882 0-32.378-14.497-32.378-32.378v-297.189c0-17.882 14.496-32.378 32.378-32.378h445.244c17.882 0 32.378 14.496 32.378 32.378v297.189c0 17.881-14.496 32.378-32.378 32.378z"
               fill="url(#SVGID_3_)"
               id="path51" />
            <path
               d="m460.059 344.437h-410.117c-14.216 0-25.74-11.524-25.74-25.74v-262.716c0-14.216 11.524-25.74 25.74-25.74h410.117c14.216 0 25.74 11.524 25.74 25.74v262.716c-.001 14.216-11.525 25.74-25.74 25.74z"
               fill="url(#SVGID_4_)"
               id="path53" />
            <path
               d="m447.416 328.921h-384.832c-13.057 0-23.642-10.585-23.642-23.642v-235.88c0-13.057 10.585-23.642 23.642-23.642h384.831c13.057 0 23.642 10.585 23.642 23.642v235.879c.001 13.058-10.584 23.643-23.641 23.643z"
               fill="url(#SVGID_5_)"
               id="path55" />
            <g
               id="g79">
              <g
                 id="g77">
                <g
                   id="g63" />
                <g
                   id="g69" />
                <g
                   id="g75" />
              </g>
            </g>
            <circle
               cx="255"
               cy="30.241"
               fill="url(#SVGID_6_)"
               r="9.891"
               id="circle81" />
            <circle
               cx="255"
               cy="30.241"
               fill="url(#SVGID_7_)"
               r="6.208"
               id="circle83" />
          </g>
        </g>
      </g>
      <path
         d="m402.987 503.633h-295.974c-6.223 0-11.267-5.044-11.267-11.267 0-19.975 16.193-36.168 36.168-36.168h246.172c19.975 0 36.168 16.193 36.168 36.168 0 6.223-5.044 11.267-11.267 11.267z"
         fill="url(#SVGID_8_)"
         id="path91" />
      <path
         d="m59.888 358.768h-7.347c-4.214 0-7.629-3.416-7.629-7.629v-7.347c0-4.214 3.416-7.629 7.629-7.629h7.347c4.214 0 7.629 3.416 7.629 7.629v7.347c0 4.213-3.415 7.629-7.629 7.629z"
         fill="url(#SVGID_9_)"
         id="path93" />
    </g>
    <g
       id="g105" />
  </g>
</svg>
