<?xml version="1.0"?>
<svg xmlns="http://www.w3.org/2000/svg" xmlns:xlink="http://www.w3.org/1999/xlink" xmlns:svgjs="http://svgjs.com/svgjs" version="1.1" width="512" height="512" x="0" y="0" viewBox="0 0 512 512" style="enable-background:new 0 0 512 512" xml:space="preserve" class=""><g><g xmlns="http://www.w3.org/2000/svg"><g><g><path d="m418.178 445.23h55.05c17.502 0 31.691-14.188 31.691-31.691v-92.878h-86.741z" fill="#ffd88f" data-original="#ffd88f" style="" class=""/><path d="m418.178 361.016h55.05c17.502 0 31.691-14.188 31.691-31.691v-92.878h-86.741z" fill="#ff7893" data-original="#ff7893" style="" class=""/><path d="m418.178 276.803h55.05c17.502 0 31.691-14.188 31.691-31.691v-94.275h-86.741z" fill="#59a1a5" data-original="#59a1a5" style="" class=""/><path d="m418.178 191.193h55.048c17.504 0 31.693-14.188 31.693-31.689v-61.19c0-17.501-14.189-31.689-31.693-31.689h-55.048z" fill="#ff9e5e" data-original="#ff9e5e" style="" class=""/></g><g><path d="m396.387 512h-283.758c-31.617 0-57.248-25.631-57.248-57.248v-397.504c.001-31.617 25.631-57.248 57.248-57.248h283.758c31.617 0 57.248 25.631 57.248 57.248v397.503c0 31.618-25.631 57.249-57.248 57.249z" fill="#fff7e8" data-original="#fff7e8" style="" class=""/><path d="m396.387 0h-41.207c31.617 0 57.248 25.631 57.248 57.248v397.503c0 31.617-25.631 57.248-57.248 57.248h41.207c31.617 0 57.248-25.631 57.248-57.248v-397.503c0-31.617-25.631-57.248-57.248-57.248z" fill="#d6ccbb" data-original="#fff1d6" style="" class=""/><g><path d="m112.634 0c-31.62 0-57.252 25.629-57.252 57.244v397.512c0 31.615 25.633 57.244 57.252 57.244h35.874v-512z" fill="#59a1a5" data-original="#59a1a5" style="" class=""/></g><g fill="#b5e8e0"><path d="m82.775 106.802h-54.445c-11.735 0-21.249-9.514-21.249-21.249 0-11.735 9.514-21.249 21.249-21.249h54.445c11.735 0 21.249 9.513 21.249 21.249 0 11.735-9.513 21.249-21.249 21.249z" fill="#b5e8e0" data-original="#b5e8e0" style="" class=""/><path d="m82.775 220.433h-54.445c-11.735 0-21.249-9.513-21.249-21.249 0-11.736 9.514-21.249 21.249-21.249h54.445c11.735 0 21.249 9.513 21.249 21.249 0 11.736-9.513 21.249-21.249 21.249z" fill="#b5e8e0" data-original="#b5e8e0" style="" class=""/><path d="m82.775 334.065h-54.445c-11.735 0-21.249-9.513-21.249-21.249 0-11.736 9.514-21.249 21.249-21.249h54.445c11.735 0 21.249 9.513 21.249 21.249 0 11.735-9.513 21.249-21.249 21.249z" fill="#b5e8e0" data-original="#b5e8e0" style="" class=""/><path d="m82.775 447.696h-54.445c-11.735 0-21.249-9.513-21.249-21.249 0-11.736 9.514-21.249 21.249-21.249h54.445c11.735 0 21.249 9.513 21.249 21.249 0 11.736-9.513 21.249-21.249 21.249z" fill="#b5e8e0" data-original="#b5e8e0" style="" class=""/></g><g fill="#97dbd1"><path d="m82.775 64.304h-41.207c11.735 0 21.249 9.513 21.249 21.249s-9.513 21.249-21.249 21.249h41.207c11.735 0 21.249-9.514 21.249-21.249s-9.513-21.249-21.249-21.249z" fill="#97dbd1" data-original="#97dbd1" style=""/><path d="m82.775 177.935h-41.207c11.735 0 21.249 9.513 21.249 21.249 0 11.735-9.513 21.249-21.249 21.249h41.207c11.735 0 21.249-9.513 21.249-21.249 0-11.735-9.513-21.249-21.249-21.249z" fill="#97dbd1" data-original="#97dbd1" style=""/><path d="m82.775 291.567h-41.207c11.735 0 21.249 9.513 21.249 21.249 0 11.735-9.513 21.249-21.249 21.249h41.207c11.735 0 21.249-9.513 21.249-21.249 0-11.736-9.513-21.249-21.249-21.249z" fill="#97dbd1" data-original="#97dbd1" style=""/><path d="m82.775 405.198h-41.207c11.735 0 21.249 9.513 21.249 21.249 0 11.735-9.513 21.249-21.249 21.249h41.207c11.735 0 21.249-9.513 21.249-21.249 0-11.735-9.513-21.249-21.249-21.249z" fill="#97dbd1" data-original="#97dbd1" style=""/></g></g></g><g fill="#ffd88f"><path d="m208.388 300.537c4.267 0 7.726-3.459 7.726-7.726 0-36.321 24.441-68.423 59.437-78.066 3.118-.859 5.371-3.569 5.645-6.792.275-3.222-1.486-6.275-4.413-7.65-16.741-7.865-27.558-24.883-27.558-43.358 0-26.404 21.485-47.885 47.893-47.885 26.409 0 47.894 21.481 47.894 47.885 0 18.475-10.817 35.493-27.558 43.358-2.927 1.375-4.688 4.428-4.413 7.65s2.528 5.933 5.645 6.792c34.995 9.644 59.436 41.745 59.436 78.066 0 4.268 3.459 7.726 7.726 7.726s7.726-3.459 7.726-7.726c0-37.816-22.251-71.792-55.699-87.41 14.067-11.882 22.589-29.595 22.589-48.456 0-34.925-28.417-63.338-63.347-63.338-34.929 0-63.346 28.413-63.346 63.338 0 18.861 8.521 36.573 22.589 48.456-33.448 15.619-55.7 49.595-55.7 87.41.002 4.267 3.461 7.726 7.728 7.726z" fill="#ffd88f" data-original="#ffd88f" style="" class=""/><path d="m385.85 351.826h-177.462c-4.267 0-7.726 3.459-7.726 7.726s3.459 7.726 7.726 7.726h177.462c4.267 0 7.726-3.459 7.726-7.726s-3.459-7.726-7.726-7.726z" fill="#ffd88f" data-original="#ffd88f" style="" class=""/><path d="m354.804 402.796h-115.369c-4.267 0-7.726 3.459-7.726 7.726s3.459 7.726 7.726 7.726h115.369c4.267 0 7.726-3.459 7.726-7.726s-3.459-7.726-7.726-7.726z" fill="#ffd88f" data-original="#ffd88f" style="" class=""/></g></g></g></svg>
