<?xml version="1.0"?>
<svg xmlns="http://www.w3.org/2000/svg" xmlns:xlink="http://www.w3.org/1999/xlink" xmlns:svgjs="http://svgjs.com/svgjs" version="1.1" width="512" height="512" x="0" y="0" viewBox="0 0 512 512" style="enable-background:new 0 0 512 512" xml:space="preserve" class=""><g>
<path xmlns="http://www.w3.org/2000/svg" style="" d="M463.252,0H156.836c-8.391,0-15.194,6.803-15.194,15.194v37.985h265.897  c8.391,0,15.195,6.804,15.195,15.195V407.71h40.518c8.39,0,15.194-6.803,15.194-15.194c0-4.597,0-369.484,0-377.322  C478.445,6.803,471.642,0,463.252,0z" fill="#ff0000" data-original="#6edcf9" class=""/>
<path xmlns="http://www.w3.org/2000/svg" style="" d="M463.252,0H320.184c-33.395,11.788-63.749,30.006-89.574,53.179h176.929  c8.391,0,15.195,6.804,15.195,15.195V407.71h40.518c8.39,0,15.194-6.803,15.194-15.194c0-4.597,0-369.484,0-377.322  C478.445,6.803,471.642,0,463.252,0z" fill="#ff0000" data-original="#95e8fc" class=""/>
<path xmlns="http://www.w3.org/2000/svg" style="" d="M408.573,52.145H102.158c-8.39,0-15.194,6.804-15.194,15.195v37.985h267.163  c8.391,0,15.195,6.803,15.195,15.194v339.337h39.251c8.391,0,15.195-6.803,15.195-15.195V67.34  C423.768,58.948,416.965,52.145,408.573,52.145z" fill="#97ff8e" data-original="#f7ac16" class=""/>
<path xmlns="http://www.w3.org/2000/svg" style="" d="M408.573,52.145H231.776c-17.589,15.601-33.107,33.48-46.094,53.18h168.445  c8.391,0,15.195,6.803,15.195,15.194v339.337h39.251c8.391,0,15.195-6.803,15.195-15.195V67.34  C423.768,58.948,416.965,52.145,408.573,52.145z" fill="#97ff8e" data-original="#f4ca19" class=""/>
<path xmlns="http://www.w3.org/2000/svg" style="" d="M355.162,104.29H48.747c-8.391,0-15.194,6.804-15.194,15.194v272.542L153.527,512  c4.662,0,198.894,0,201.635,0c8.392,0,15.195-6.803,15.195-15.194V119.484C370.357,111.094,363.553,104.29,355.162,104.29z" fill="#1fabff" data-original="#ef5552" class=""/>
<path xmlns="http://www.w3.org/2000/svg" style="" d="M355.162,104.29H186.363C84.494,257.276,164.505,466.933,343.852,512h11.31  c8.392,0,15.195-6.803,15.195-15.194V119.484C370.357,111.094,363.553,104.29,355.162,104.29z" fill="#1fabff" data-original="#ff6969" class=""/>
<path xmlns="http://www.w3.org/2000/svg" style="" d="M153.527,512V407.222c0-8.392-6.802-15.195-15.194-15.195H33.553L153.527,512z" fill="#0087d9" data-original="#d84439" class=""/>
<g xmlns="http://www.w3.org/2000/svg">
</g>
<g xmlns="http://www.w3.org/2000/svg">
</g>
<g xmlns="http://www.w3.org/2000/svg">
</g>
<g xmlns="http://www.w3.org/2000/svg">
</g>
<g xmlns="http://www.w3.org/2000/svg">
</g>
<g xmlns="http://www.w3.org/2000/svg">
</g>
<g xmlns="http://www.w3.org/2000/svg">
</g>
<g xmlns="http://www.w3.org/2000/svg">
</g>
<g xmlns="http://www.w3.org/2000/svg">
</g>
<g xmlns="http://www.w3.org/2000/svg">
</g>
<g xmlns="http://www.w3.org/2000/svg">
</g>
<g xmlns="http://www.w3.org/2000/svg">
</g>
<g xmlns="http://www.w3.org/2000/svg">
</g>
<g xmlns="http://www.w3.org/2000/svg">
</g>
<g xmlns="http://www.w3.org/2000/svg">
</g>
</g></svg>
