<svg id="Capa_1" enable-background="new 0 0 510 510" height="512" viewBox="0 0 510 510" width="512" xmlns="http://www.w3.org/2000/svg" xmlns:xlink="http://www.w3.org/1999/xlink"><linearGradient id="lg1"><stop offset="0" stop-color="#2f73a0"/><stop offset="1" stop-color="#174461"/></linearGradient><linearGradient id="SVGID_1_" gradientUnits="userSpaceOnUse" x1="215.437" x2="294.563" xlink:href="#lg1" y1="419.694" y2="419.694"/><linearGradient id="SVGID_2_" gradientUnits="userSpaceOnUse" x1="255" x2="255" xlink:href="#lg1" y1="460.856" y2="493.99"/><linearGradient id="lg2"><stop offset="0" stop-color="#092a40" stop-opacity="0"/><stop offset="1" stop-color="#092a40"/></linearGradient><linearGradient id="SVGID_3_" gradientUnits="userSpaceOnUse" x1="276.709" x2="253.709" xlink:href="#lg2" y1="444.675" y2="380.675"/><linearGradient id="SVGID_4_" gradientUnits="userSpaceOnUse" x1="127.817" x2="396.849" xlink:href="#lg1" y1="95.144" y2="364.175"/><linearGradient id="SVGID_5_" gradientUnits="userSpaceOnUse" x1="329.111" x2="287.611" xlink:href="#lg2" y1="191.796" y2="163.796"/><linearGradient id="SVGID_6_" gradientUnits="userSpaceOnUse" x1="147.97" x2="374.372" y1="115.297" y2="341.699"><stop offset="0" stop-color="#edf5ff"/><stop offset="1" stop-color="#c7e9ff"/></linearGradient><linearGradient id="lg3"><stop offset="0" stop-color="#7acbff" stop-opacity="0"/><stop offset="1" stop-color="#2f73a0"/></linearGradient><linearGradient id="SVGID_7_" gradientUnits="userSpaceOnUse" x1="399" x2="335.498" xlink:href="#lg3" y1="222.327" y2="222.327"/><linearGradient id="SVGID_8_" gradientUnits="userSpaceOnUse" x1="255" x2="255" xlink:href="#lg2" y1="356.124" y2="401.327"/><linearGradient id="SVGID_9_" gradientUnits="userSpaceOnUse" x1="277.333" x2="249.968" xlink:href="#lg3" y1="252.464" y2="252.464"/><linearGradient id="SVGID_10_" gradientUnits="userSpaceOnUse" x1="461.333" x2="433.968" xlink:href="#lg3" y1="288.37" y2="288.37"/><linearGradient id="SVGID_11_" gradientUnits="userSpaceOnUse" x1="176.446" x2="273.34" y1="208.069" y2="304.964"><stop offset="0" stop-color="#ff755c"/><stop offset="1" stop-color="#ff4181"/></linearGradient><linearGradient id="SVGID_12_" gradientUnits="userSpaceOnUse" x1="249.067" x2="387.451" y1="124.986" y2="263.37"><stop offset="0" stop-color="#ffce47"/><stop offset="1" stop-color="#ff9356"/></linearGradient><linearGradient id="SVGID_13_" gradientUnits="userSpaceOnUse" x1="372.255" x2="445.164" y1="256.103" y2="329.011"><stop offset="0" stop-color="#7acbff"/><stop offset="1" stop-color="#45a2e0"/></linearGradient><g><path d="m215.437 367.33h79.125v104.729h-79.125z" fill="url(#SVGID_1_)"/><path d="m346.76 504.354h-183.52c-13.224 0-23.944-10.72-23.944-23.944 0-13.224 10.72-23.944 23.944-23.944h183.52c13.224 0 23.944 10.72 23.944 23.944 0 13.223-10.72 23.944-23.944 23.944z" fill="url(#SVGID_2_)"/><path d="m215.437 401.202 70.856 70.856h8.27v-104.728h-79.126z" fill="url(#SVGID_3_)"/><g><g><g><path d="m471.896 401.202h-433.792c-21.044 0-38.104-17.059-38.104-38.103v-281.544c0-21.044 17.06-38.104 38.104-38.104h433.793c21.044 0 38.104 17.06 38.104 38.104v281.544c-.001 21.044-17.061 38.103-38.105 38.103z" fill="url(#SVGID_4_)"/><path d="m349.259 43.451 57.733 57.733v266.145h-57.733z" fill="url(#SVGID_5_)"/><path d="m443.14 367.329h-376.28c-17.599 0-31.866-14.267-31.866-31.866v-226.273c0-17.599 14.267-31.866 31.866-31.866h376.28c17.599 0 31.866 14.267 31.866 31.866v226.273c0 17.6-14.267 31.866-31.866 31.866z" fill="url(#SVGID_6_)"/><path d="m383.132 77.324h-33.873v290.005h57.733v-266.145z" fill="url(#SVGID_7_)"/></g><path d="m0 330.993v32.105c0 21.044 17.06 38.104 38.104 38.104h433.793c21.044 0 38.104-17.06 38.104-38.104v-32.105z" fill="url(#SVGID_8_)"/></g><path d="m252.962 137.598 31.749 31.749v197.982h-31.749z" fill="url(#SVGID_9_)"/><path d="m436.962 209.411 31.749 31.749v102.229c0 13.222-10.718 23.94-23.94 23.94h-7.809z" fill="url(#SVGID_10_)"/><g><path d="m257.024 367.329h-69.544v-221.366c0-7.388 5.989-13.378 13.378-13.378h42.789c7.388 0 13.378 5.989 13.378 13.378v221.366z" fill="url(#SVGID_11_)"/><path d="m349.259 367.329h-69.544v-348.305c0-7.388 5.989-13.378 13.378-13.378h42.789c7.388 0 13.378 5.989 13.378 13.378v348.305z" fill="url(#SVGID_12_)"/><path d="m441.494 367.329h-69.544v-147.979c0-7.388 5.989-13.378 13.378-13.378h42.789c7.388 0 13.378 5.989 13.378 13.378v147.979z" fill="url(#SVGID_13_)"/></g><g><g><g fill="#7acbff"><path d="m90.875 161.114h-32.34c-2.945 0-5.332-2.387-5.332-5.332v-14.554c0-2.945 2.387-5.332 5.332-5.332h32.34c2.945 0 5.332 2.387 5.332 5.332v14.554c0 2.945-2.387 5.332-5.332 5.332z"/><path d="m169.385 161.114h-57.687c-2.945 0-5.332-2.387-5.332-5.332v-14.554c0-2.945 2.387-5.332 5.332-5.332h57.687c2.945 0 5.332 2.387 5.332 5.332v14.554c0 2.945-2.387 5.332-5.332 5.332z"/></g><g fill="#7acbff"><path d="m137.045 199.097h32.34c2.945 0 5.332-2.387 5.332-5.332v-14.554c0-2.945-2.387-5.332-5.332-5.332h-32.34c-2.945 0-5.332 2.387-5.332 5.332v14.554c0 2.945 2.388 5.332 5.332 5.332z"/><path d="m58.535 199.097h57.687c2.945 0 5.332-2.387 5.332-5.332v-14.554c0-2.945-2.387-5.332-5.332-5.332h-57.687c-2.945 0-5.332 2.387-5.332 5.332v14.554c0 2.945 2.388 5.332 5.332 5.332z"/></g><g><path d="m90.875 237.08h-32.34c-2.945 0-5.332-2.387-5.332-5.332v-14.554c0-2.945 2.387-5.332 5.332-5.332h32.34c2.945 0 5.332 2.387 5.332 5.332v14.554c0 2.945-2.387 5.332-5.332 5.332z" fill="#7acbff"/></g></g></g></g></g></svg>