<?xml version="1.0" encoding="iso-8859-1"?>
<!-- Generator: Adobe Illustrator 19.0.0, SVG Export Plug-In . SVG Version: 6.00 Build 0)  -->
<svg version="1.1" id="Capa_1" xmlns="http://www.w3.org/2000/svg" xmlns:xlink="http://www.w3.org/1999/xlink" x="0px" y="0px"
	 viewBox="0 0 512 512" style="enable-background:new 0 0 512 512;" xml:space="preserve">
<linearGradient id="SVGID_1_" gradientUnits="userSpaceOnUse" x1="256" y1="421.73" x2="256" y2="358.93" gradientTransform="matrix(1 0 0 -1 0 514)">
	<stop  offset="0" style="stop-color:#74AEF8"/>
	<stop  offset="1" style="stop-color:#4E85FB"/>
</linearGradient>
<path style="fill:url(#SVGID_1_);" d="M338.5,134.6h-165l14.6-53.1c2.3-8.5,10.1-14.4,18.9-14.4h97.8c8.8,0,16.6,5.9,18.9,14.4
	L338.5,134.6z"/>
<linearGradient id="SVGID_2_" gradientUnits="userSpaceOnUse" x1="256" y1="359.65" x2="256" y2="444.29" gradientTransform="matrix(1 0 0 -1 0 514)">
	<stop  offset="0" style="stop-color:#FFF2E8"/>
	<stop  offset="1" style="stop-color:#E7D2B9"/>
</linearGradient>
<path style="fill:url(#SVGID_2_);" d="M316.9,132.3H195.1l10.8-39.2c1.7-6.3,7.5-10.7,14-10.7h72.2c6.5,0,12.3,4.4,14,10.7
	L316.9,132.3z"/>
<linearGradient id="SVGID_3_" gradientUnits="userSpaceOnUse" x1="419.8" y1="233.4" x2="662.81" y2="233.4" gradientTransform="matrix(1 0 0 -1 0 514)">
	<stop  offset="0" style="stop-color:#FF4C4A"/>
	<stop  offset="1" style="stop-color:#FF001C"/>
</linearGradient>
<path style="fill:url(#SVGID_3_);" d="M462.9,431.7H49.1C22,431.7,0,409.7,0,382.6v-204c0-27.1,22-49.1,49.1-49.1h413.8
	c27.1,0,49.1,22,49.1,49.1v204C512,409.7,490,431.7,462.9,431.7z"/>
<linearGradient id="SVGID_4_" gradientUnits="userSpaceOnUse" x1="256" y1="129.48" x2="256" y2="59.42" gradientTransform="matrix(1 0 0 -1 0 514)">
	<stop  offset="0" style="stop-color:#FF001C;stop-opacity:0"/>
	<stop  offset="1" style="stop-color:#C1001C"/>
</linearGradient>
<path style="fill:url(#SVGID_4_);" d="M0,356.4v26.2c0,27.1,22,49.1,49.1,49.1h413.8c27.1,0,49.1-22,49.1-49.1v-26.2"/>
<linearGradient id="SVGID_5_" gradientUnits="userSpaceOnUse" x1="120.023" y1="347.973" x2="48.333" y2="419.653" gradientTransform="matrix(1 0 0 -1 0 514)">
	<stop  offset="0" style="stop-color:#FF001C;stop-opacity:0"/>
	<stop  offset="1" style="stop-color:#C1001C"/>
</linearGradient>
<polygon style="fill:url(#SVGID_5_);" points="171.2,194.2 106.4,129.5 60.5,129.5 125.2,194.2 "/>
<linearGradient id="SVGID_6_" gradientUnits="userSpaceOnUse" x1="375.03" y1="265.72" x2="244.24" y2="396.51" gradientTransform="matrix(1 0 0 -1 0 514)">
	<stop  offset="0" style="stop-color:#FF001C;stop-opacity:0"/>
	<stop  offset="1" style="stop-color:#C1001C"/>
</linearGradient>
<polygon style="fill:url(#SVGID_6_);" points="500.2,292.1 337.6,129.5 174.9,129.5 337.6,292.1 "/>
<linearGradient id="SVGID_7_" gradientUnits="userSpaceOnUse" x1="482.255" y1="74.395" x2="289.325" y2="267.325" gradientTransform="matrix(1 0 0 -1 0 514)">
	<stop  offset="0" style="stop-color:#FF001C;stop-opacity:0"/>
	<stop  offset="1" style="stop-color:#C1001C"/>
</linearGradient>
<path style="fill:url(#SVGID_7_);" d="M374.2,166.5l-1.5,4.4c27,28.7,43.5,67.2,43.5,109.7c0,69.8-44.7,129.2-107,151.1h153.7
	c27.1,0,49.1-22,49.1-49.1v-78.4L374.2,166.5z"/>
<g>
	<path style="fill:#FFFFFF;" d="M176.1,379.4c-1.9-0.3-3.9-0.6-5.8-0.9c-0.1,0-0.2,0-0.4-0.1h0.1l1.4-7.9c0.1,0,0.2,0,0.3,0.1
		c1.9,0.3,3.7,0.6,5.6,0.9L176.1,379.4z M171.6,370.6L171.6,370.6L171.6,370.6z"/>
	<path style="fill:#FFFFFF;" d="M229.3,383l-0.1-8c3.8-0.1,7.7-0.2,11.6-0.4l0.4,8C237.2,382.8,233.2,382.9,229.3,383z M219.4,383
		c-3.9-0.1-7.9-0.2-11.9-0.4l0.4-8c3.8,0.2,7.7,0.3,11.6,0.4L219.4,383z M251,381.9l-0.7-8c3.8-0.3,7.7-0.7,11.5-1.2l1,8
		C258.9,381.2,254.9,381.6,251,381.9z M197.7,381.9c-3.9-0.3-7.9-0.7-11.8-1.2l1-8c3.8,0.5,7.7,0.9,11.5,1.2L197.7,381.9z"/>
	<path style="fill:#FFFFFF;" d="M272.6,379.4l-1.2-7.9c1.9-0.3,3.7-0.6,5.6-0.9c0.1,0,0.2,0,0.3-0.1l0.7,4l0.8,3.9
		c-0.1,0-0.3,0.1-0.4,0.1C276.4,378.8,274.5,379.1,272.6,379.4z"/>
</g>
<linearGradient id="SVGID_8_" gradientUnits="userSpaceOnUse" x1="256" y1="359.26" x2="256" y2="-76.16" gradientTransform="matrix(1 0 0 -1 0 514)">
	<stop  offset="0" style="stop-color:#564D56"/>
	<stop  offset="1" style="stop-color:#2F352D"/>
</linearGradient>
<circle style="fill:url(#SVGID_8_);" cx="256" cy="280.6" r="164.3"/>
<linearGradient id="SVGID_9_" gradientUnits="userSpaceOnUse" x1="256" y1="110.66" x2="256" y2="535.06" gradientTransform="matrix(1 0 0 -1 0 514)">
	<stop  offset="0" style="stop-color:#564D56"/>
	<stop  offset="1" style="stop-color:#2F352D"/>
</linearGradient>
<circle style="fill:url(#SVGID_9_);" cx="256" cy="280.6" r="160.2"/>
<linearGradient id="SVGID_10_" gradientUnits="userSpaceOnUse" x1="411.9972" y1="77.4072" x2="293.5372" y2="195.8672" gradientTransform="matrix(1 0 0 -1 0 514)">
	<stop  offset="0" style="stop-color:#564D56;stop-opacity:0"/>
	<stop  offset="1" style="stop-color:#2F352D"/>
</linearGradient>
<path style="fill:url(#SVGID_10_);" d="M420.3,280.6c0-6.3-0.4-12.6-1.1-18.8l-70.1-70.1c-23.4-24.6-56.5-39.9-93.2-39.9
	c-71.1,0-128.7,57.6-128.7,128.7c0,36.6,15.3,69.7,39.9,93.2l70.1,70.1c6.2,0.7,12.4,1.1,18.8,1.1
	C346.8,444.9,420.3,371.4,420.3,280.6z"/>
<linearGradient id="SVGID_11_" gradientUnits="userSpaceOnUse" x1="256" y1="155.93" x2="256" y2="404.23" gradientTransform="matrix(1 0 0 -1 0 514)">
	<stop  offset="0" style="stop-color:#564D56"/>
	<stop  offset="1" style="stop-color:#2F352D"/>
</linearGradient>
<circle style="fill:url(#SVGID_11_);" cx="256" cy="280.6" r="128.7"/>
<linearGradient id="SVGID_12_" gradientUnits="userSpaceOnUse" x1="256" y1="323.36" x2="256" y2="140.56" gradientTransform="matrix(1 0 0 -1 0 514)">
	<stop  offset="0" style="stop-color:#868485"/>
	<stop  offset="1" style="stop-color:#564D56"/>
</linearGradient>
<circle style="fill:url(#SVGID_12_);" cx="256" cy="280.6" r="119.9"/>
<linearGradient id="SVGID_13_" gradientUnits="userSpaceOnUse" x1="256" y1="182.53" x2="256" y2="345.5" gradientTransform="matrix(1 0 0 -1 0 514)">
	<stop  offset="0" style="stop-color:#868485"/>
	<stop  offset="1" style="stop-color:#564D56"/>
</linearGradient>
<circle style="fill:url(#SVGID_13_);" cx="256" cy="280.6" r="84.5"/>
<linearGradient id="SVGID_14_" gradientUnits="userSpaceOnUse" x1="256" y1="282.31" x2="256" y2="178.99" gradientTransform="matrix(1 0 0 -1 0 514)">
	<stop  offset="0" style="stop-color:#868485"/>
	<stop  offset="1" style="stop-color:#564D56"/>
</linearGradient>
<circle style="fill:url(#SVGID_14_);" cx="256" cy="280.6" r="71.3"/>
<linearGradient id="SVGID_15_" gradientUnits="userSpaceOnUse" x1="330.9101" y1="158.47" x2="274.8501" y2="214.5401" gradientTransform="matrix(1 0 0 -1 0 514)">
	<stop  offset="0" style="stop-color:#564D56;stop-opacity:0"/>
	<stop  offset="1" style="stop-color:#2F352D"/>
</linearGradient>
<path style="fill:url(#SVGID_15_);" d="M371.4,313.3L299,240.8c-10.7-11.5-26-18.8-43-18.8c-32.3,0-58.6,26.2-58.6,58.6
	c0,17,7.2,32.3,18.8,43l72.4,72.4C328.6,384.7,360.1,353.2,371.4,313.3z"/>
<linearGradient id="SVGID_16_" gradientUnits="userSpaceOnUse" x1="256" y1="144.72" x2="256" y2="331.07" gradientTransform="matrix(1 0 0 -1 0 514)">
	<stop  offset="0" style="stop-color:#456A97"/>
	<stop  offset="1" style="stop-color:#1A338C"/>
</linearGradient>
<circle style="fill:url(#SVGID_16_);" cx="256" cy="280.6" r="58.6"/>
<linearGradient id="SVGID_17_" gradientUnits="userSpaceOnUse" x1="256" y1="311.53" x2="256" y2="215.84" gradientTransform="matrix(1 0 0 -1 0 514)">
	<stop  offset="0" style="stop-color:#456A97"/>
	<stop  offset="1" style="stop-color:#1A338C"/>
</linearGradient>
<circle style="fill:url(#SVGID_17_);" cx="256" cy="280.6" r="46"/>
<linearGradient id="SVGID_18_" gradientUnits="userSpaceOnUse" x1="238.575" y1="250.825" x2="126.475" y2="362.925" gradientTransform="matrix(1 0 0 -1 0 514)">
	<stop  offset="1.000000e-004" style="stop-color:#E7EEED;stop-opacity:0"/>
	<stop  offset="1" style="stop-color:#E7EEED"/>
</linearGradient>
<circle style="fill:url(#SVGID_18_);" cx="235" cy="259.6" r="28.1"/>
<linearGradient id="SVGID_19_" gradientUnits="userSpaceOnUse" x1="325.4048" y1="163.9948" x2="175.8648" y2="313.5448" gradientTransform="matrix(1 0 0 -1 0 514)">
	<stop  offset="1.000000e-004" style="stop-color:#E7EEED;stop-opacity:0"/>
	<stop  offset="1" style="stop-color:#E7EEED"/>
</linearGradient>
<circle style="fill:url(#SVGID_19_);" cx="320.7" cy="345.3" r="37.4"/>
<linearGradient id="SVGID_20_" gradientUnits="userSpaceOnUse" x1="255.3122" y1="298.7376" x2="16.7022" y2="519.9276" gradientTransform="matrix(1 0 0 -1 0 514)">
	<stop  offset="1.000000e-004" style="stop-color:#E7EEED;stop-opacity:0"/>
	<stop  offset="1" style="stop-color:#E7EEED"/>
</linearGradient>
<circle style="fill:url(#SVGID_20_);" cx="256" cy="215.9" r="95.5"/>
<linearGradient id="SVGID_21_" gradientUnits="userSpaceOnUse" x1="83.4" y1="397.42" x2="83.4" y2="381.95" gradientTransform="matrix(1 0 0 -1 0 514)">
	<stop  offset="0" style="stop-color:#74AEF8"/>
	<stop  offset="1" style="stop-color:#4E85FB"/>
</linearGradient>
<path style="fill:url(#SVGID_21_);" d="M106.4,129.5h-46V118c0-7.6,6.1-13.7,13.7-13.7h18.6c7.6,0,13.7,6.1,13.7,13.7
	C106.4,117.9,106.4,129.5,106.4,129.5z"/>
<g>
</g>
<g>
</g>
<g>
</g>
<g>
</g>
<g>
</g>
<g>
</g>
<g>
</g>
<g>
</g>
<g>
</g>
<g>
</g>
<g>
</g>
<g>
</g>
<g>
</g>
<g>
</g>
<g>
</g>
</svg>
