<svg id="Capa_1" enable-background="new 0 0 510 510" height="512" viewBox="0 0 510 510" width="512" xmlns="http://www.w3.org/2000/svg" xmlns:xlink="http://www.w3.org/1999/xlink"><linearGradient id="lg1"><stop offset="0" stop-color="#e4e08e"/><stop offset="1" stop-color="#6fa953"/></linearGradient><linearGradient id="SVGID_1_" gradientUnits="userSpaceOnUse" x1="139.002" x2="448.852" xlink:href="#lg1" y1="139.002" y2="448.852"/><linearGradient id="SVGID_2_" gradientTransform="matrix(-1 0 0 -1 510 5830)" gradientUnits="userSpaceOnUse" x1="151.57" x2="427.849" xlink:href="#lg1" y1="5471.57" y2="5747.849"/><linearGradient id="lg2"><stop offset="0" stop-color="#ffdecf"/><stop offset="1" stop-color="#faa68e"/></linearGradient><linearGradient id="SVGID_3_" gradientUnits="userSpaceOnUse" x1="139.167" x2="166.108" xlink:href="#lg2" y1="270.161" y2="330.582"/><linearGradient id="SVGID_4_" gradientUnits="userSpaceOnUse" x1="356.307" x2="383.248" xlink:href="#lg2" y1="270.161" y2="330.582"/><linearGradient id="SVGID_5_" gradientUnits="userSpaceOnUse" x1="247.911" x2="363.396" xlink:href="#lg2" y1="260.345" y2="375.83"/><linearGradient id="lg3"><stop offset="0" stop-color="#ff9356" stop-opacity="0"/><stop offset="1" stop-color="#ff4181"/></linearGradient><linearGradient id="SVGID_6_" gradientUnits="userSpaceOnUse" x1="265.634" x2="241.059" xlink:href="#lg3" y1="303.695" y2="169.476"/><linearGradient id="lg4"><stop offset="0" stop-color="#5a7587"/><stop offset="1" stop-color="#092a40"/></linearGradient><linearGradient id="SVGID_7_" gradientUnits="userSpaceOnUse" x1="237.917" x2="298.173" xlink:href="#lg4" y1="151.234" y2="314.281"/><linearGradient id="lg5"><stop offset="0" stop-color="#092a40" stop-opacity="0"/><stop offset="1" stop-color="#092a40"/></linearGradient><linearGradient id="SVGID_8_" gradientUnits="userSpaceOnUse" x1="176.031" x2="249.757" xlink:href="#lg5" y1="196.332" y2="258.006"/><linearGradient id="SVGID_9_" gradientUnits="userSpaceOnUse" x1="198.741" x2="219.894" xlink:href="#lg4" y1="302.952" y2="324.105"/><linearGradient id="SVGID_10_" gradientUnits="userSpaceOnUse" x1="205.419" x2="227.868" xlink:href="#lg5" y1="315.322" y2="273.569"/><linearGradient id="SVGID_11_" gradientUnits="userSpaceOnUse" x1="299.038" x2="320.19" xlink:href="#lg4" y1="302.952" y2="324.105"/><linearGradient id="SVGID_12_" gradientUnits="userSpaceOnUse" x1="305.715" x2="328.165" xlink:href="#lg5" y1="315.322" y2="273.569"/><linearGradient id="SVGID_13_" gradientUnits="userSpaceOnUse" x1="250.727" x2="267.493" y1="356.704" y2="385.207"><stop offset="0" stop-color="#ff755c"/><stop offset="1" stop-color="#ff4181"/></linearGradient><linearGradient id="SVGID_14_" gradientUnits="userSpaceOnUse" x1="255" x2="255" xlink:href="#lg3" y1="335.139" y2="295.078"/><linearGradient id="lg6"><stop offset="0" stop-color="#43765a" stop-opacity="0"/><stop offset="1" stop-color="#43765a"/></linearGradient><linearGradient id="SVGID_15_" gradientUnits="userSpaceOnUse" x1="482.927" x2="461.593" xlink:href="#lg6" y1="317.995" y2="273.995"/><linearGradient id="SVGID_16_" gradientUnits="userSpaceOnUse" x1="156.758" x2="56.091" xlink:href="#lg6" y1="384.192" y2="248.858"/><linearGradient id="SVGID_17_" gradientUnits="userSpaceOnUse" x1="347.022" x2="262.355" xlink:href="#lg6" y1="121.911" y2="73.911"/><linearGradient id="SVGID_18_" gradientUnits="userSpaceOnUse" x1="349.236" x2="267.903" xlink:href="#lg6" y1="506.484" y2="452.484"/><linearGradient id="SVGID_19_" gradientUnits="userSpaceOnUse" x1="233.346" x2="291.187" xlink:href="#lg1" y1="29.051" y2="86.891"/><linearGradient id="SVGID_20_" gradientUnits="userSpaceOnUse" x1="233.346" x2="291.187" xlink:href="#lg1" y1="437.642" y2="495.482"/><linearGradient id="SVGID_21_" gradientTransform="matrix(0 1 -1 0 3170 2660)" gradientUnits="userSpaceOnUse" x1="-2426.654" x2="-2368.813" xlink:href="#lg1" y1="2689.051" y2="2746.891"/><linearGradient id="SVGID_22_" gradientTransform="matrix(0 1 -1 0 3170 2660)" gradientUnits="userSpaceOnUse" x1="-2426.654" x2="-2368.813" xlink:href="#lg1" y1="3097.642" y2="3155.482"/><g><g><path d="m255 18.36c-130.69 0-236.64 105.95-236.64 236.64s105.95 236.64 236.64 236.64 236.64-105.95 236.64-236.64-105.95-236.64-236.64-236.64zm0 416.95c-99.58 0-180.31-80.73-180.31-180.31s80.73-180.31 180.31-180.31 180.31 80.73 180.31 180.31-80.73 180.31-180.31 180.31z" fill="url(#SVGID_1_)"/><path d="m255 466c116.53 0 211-94.47 211-211s-94.47-211-211-211-211 94.47-211 211 94.47 211 211 211zm0-391.31c99.58 0 180.31 80.73 180.31 180.31s-80.73 180.31-180.31 180.31-180.31-80.73-180.31-180.31 80.73-180.31 180.31-180.31z" fill="url(#SVGID_2_)"/></g><g><g><path d="m121.988 297.301v-21.7c0-13.499 10.943-24.442 24.442-24.442 13.499 0 24.442 10.943 24.442 24.442v21.7c0 13.499-10.943 24.442-24.442 24.442-13.499 0-24.442-10.943-24.442-24.442z" fill="url(#SVGID_3_)"/><path d="m339.128 297.301v-21.7c0-13.499 10.943-24.442 24.442-24.442 13.499 0 24.442 10.943 24.442 24.442v21.7c0 13.499-10.943 24.442-24.442 24.442-13.499 0-24.442-10.943-24.442-24.442z" fill="url(#SVGID_4_)"/></g><path d="m255 402.906c-62.61 0-113.364-50.755-113.364-113.364v-44.214c0-62.609 50.755-113.364 113.364-113.364 62.609 0 113.364 50.755 113.364 113.364v44.214c0 62.609-50.755 113.364-113.364 113.364z" fill="url(#SVGID_5_)"/><path d="m255 131.963c-62.61 0-113.364 50.755-113.364 113.364v10.978l142.747 142.747c48.364-12.944 83.982-57.065 83.982-109.511v-44.214c-.001-62.609-50.756-113.364-113.365-113.364z" fill="url(#SVGID_6_)"/><g><path d="m311.915 107.094h-69.171c-17.929 0-34.46 5.975-47.719 16.037-7.308-4-15.694-6.277-24.613-6.277-28.356 0-51.343 22.987-51.343 51.343v45.583c0 28.356 22.987 51.343 51.343 51.343 12.056 0 23.133-4.166 31.894-11.123 11.83 7.062 25.659 11.123 40.438 11.123h69.171c43.638 0 79.014-35.376 79.014-79.014.001-43.639-35.375-79.015-79.014-79.015z" fill="url(#SVGID_7_)"/><path d="m163.73 186.109c0-25.71 12.282-48.548 31.295-62.977-7.308-4-15.694-6.277-24.613-6.277-28.356 0-51.343 22.987-51.343 51.343v45.583c0 28.356 22.987 51.343 51.343 51.343 12.056 0 23.133-4.166 31.894-11.123-23.101-13.791-38.576-39.033-38.576-67.892z" fill="url(#SVGID_8_)"/></g><g><g><g><path d="m221.184 309.063c0 9.02-7.312 16.332-16.332 16.332s-16.332-7.312-16.332-16.332 7.312-16.332 16.332-16.332c9.02-.001 16.332 7.312 16.332 16.332z" fill="url(#SVGID_9_)"/><path d="m212.158 294.453c1.102 2.198 1.723 4.679 1.723 7.306 0 9.02-7.312 16.332-16.332 16.332-2.626 0-5.108-.621-7.306-1.722 2.681 5.352 8.216 9.026 14.61 9.026 9.02 0 16.332-7.312 16.332-16.332-.001-6.394-3.676-11.929-9.027-14.61z" fill="url(#SVGID_10_)"/></g></g><g><g><path d="m321.48 309.063c0 9.02-7.312 16.332-16.332 16.332s-16.332-7.312-16.332-16.332 7.312-16.332 16.332-16.332c9.02-.001 16.332 7.312 16.332 16.332z" fill="url(#SVGID_11_)"/><path d="m312.454 294.453c1.102 2.198 1.723 4.679 1.723 7.306 0 9.02-7.312 16.332-16.332 16.332-2.626 0-5.108-.621-7.306-1.722 2.681 5.352 8.216 9.026 14.61 9.026 9.02 0 16.332-7.312 16.332-16.332-.001-6.394-3.675-11.929-9.027-14.61z" fill="url(#SVGID_12_)"/></g></g></g><path d="m277.493 356.874c-14.257-6.655-30.728-6.655-44.985 0-3.688 1.721-5.337 6.078-3.677 9.794 3.798 8.505 12.02 21.877 26.17 21.877s22.372-13.372 26.17-21.877c1.658-3.716.009-8.072-3.678-9.794z" fill="url(#SVGID_13_)"/><ellipse cx="255" cy="330.028" fill="url(#SVGID_14_)" rx="14.651" ry="12.616"/></g><path d="m434.875 267.434c-.361 5.299-.946 10.536-1.755 15.699l.004.004 46.493 46.493c6.546-19.71 10.579-40.567 11.698-62.196z" fill="url(#SVGID_15_)"/><path d="m254.318 491.632.382-56.325c-95.263-.155-173.193-74.192-179.576-167.872h-56.44c.228 4.402.586 8.77 1.051 13.105l2.722 2.597 207.144 207.144c8.124.867 16.369 1.327 24.717 1.351z" fill="url(#SVGID_16_)"/><path d="m490.083 227.871-207.954-207.954c-.007-.001-.014-.001-.021-.002v56.804c80.773 12.18 143.988 77.942 152.278 159.926h56.551c-.226-2.943-.522-5.864-.854-8.774z" fill="url(#SVGID_17_)"/><path d="m281.816 433.325v56.794c16.1-1.816 31.71-5.247 46.665-10.128z" fill="url(#SVGID_18_)"/><g><path d="m255 101.409c-15.689 0-28.407-12.718-28.407-28.407v-44.595c0-15.689 12.718-28.407 28.407-28.407 15.689 0 28.407 12.718 28.407 28.407v44.596c0 15.688-12.718 28.406-28.407 28.406z" fill="url(#SVGID_19_)"/><path d="m255 510c-15.689 0-28.407-12.718-28.407-28.407v-44.596c0-15.689 12.718-28.407 28.407-28.407 15.689 0 28.407 12.718 28.407 28.407v44.596c0 15.689-12.718 28.407-28.407 28.407z" fill="url(#SVGID_20_)"/></g><g><path d="m408.591 255c0-15.689 12.718-28.407 28.407-28.407h44.596c15.688 0 28.406 12.718 28.406 28.407 0 15.689-12.718 28.407-28.407 28.407h-44.596c-15.688 0-28.406-12.718-28.406-28.407z" fill="url(#SVGID_21_)"/><path d="m0 255c0-15.689 12.718-28.407 28.407-28.407h44.596c15.689 0 28.407 12.718 28.407 28.407 0 15.689-12.718 28.407-28.407 28.407h-44.596c-15.689 0-28.407-12.718-28.407-28.407z" fill="url(#SVGID_22_)"/></g></g></svg>