<svg id="Capa_1" enable-background="new 0 0 510 510" height="512" viewBox="0 0 510 510" width="512" xmlns="http://www.w3.org/2000/svg" xmlns:xlink="http://www.w3.org/1999/xlink"><linearGradient id="lg1"><stop offset="0" stop-color="#ffdfcf"/><stop offset="1" stop-color="#ffa78f"/></linearGradient><linearGradient id="SVGID_1_" gradientTransform="matrix(.942 -.335 .335 .942 -71.134 100.282)" gradientUnits="userSpaceOnUse" x1="41.129" x2="248.129" xlink:href="#lg1" y1="241.367" y2="385.367"/><linearGradient id="lg2"><stop offset="0" stop-color="#f89580" stop-opacity="0"/><stop offset=".278" stop-color="#ef8f79" stop-opacity=".279"/><stop offset=".7325" stop-color="#d67d67" stop-opacity=".735"/><stop offset=".9972" stop-color="#c5715a"/></linearGradient><linearGradient id="SVGID_2_" gradientTransform="matrix(.942 -.335 .335 .942 -71.134 100.282)" gradientUnits="userSpaceOnUse" x1="128.49" x2="96.49" xlink:href="#lg2" y1="221.154" y2="141.154"/><linearGradient id="SVGID_3_" gradientTransform="matrix(.942 -.335 .335 .942 -71.134 100.282)" gradientUnits="userSpaceOnUse" x1="213.562" x2="213.562" xlink:href="#lg1" y1="92.168" y2="166.665"/><linearGradient id="SVGID_4_" gradientTransform="matrix(.986 -.166 .166 .986 -60.263 58.254)" gradientUnits="userSpaceOnUse" x1="163.41" x2="163.41" xlink:href="#lg1" y1="105.207" y2="157.841"/><linearGradient id="SVGID_5_" gradientTransform="matrix(.986 -.166 .166 .986 -60.263 58.254)" gradientUnits="userSpaceOnUse" x1="119.966" x2="119.966" xlink:href="#lg1" y1="117.7" y2="168.104"/><linearGradient id="SVGID_6_" gradientTransform="matrix(.83 -.554 .493 .784 -67.654 160.774)" gradientUnits="userSpaceOnUse" x1="70.069" x2="70.069" xlink:href="#lg1" y1="87.353" y2="139.988"/><linearGradient id="SVGID_7_" gradientTransform="matrix(.662 -.743 .648 .662 -74.185 206.931)" gradientUnits="userSpaceOnUse" x1="42.546" x2="42.546" xlink:href="#lg1" y1="83.254" y2="135.889"/><linearGradient id="lg3"><stop offset="0" stop-color="#f89580" stop-opacity="0"/><stop offset=".9972" stop-color="#c5715a"/></linearGradient><linearGradient id="SVGID_8_" gradientTransform="matrix(.942 -.335 .335 .942 -71.134 100.282)" gradientUnits="userSpaceOnUse" x1="121.031" x2="121.031" xlink:href="#lg3" y1="389.205" y2="473.247"/><linearGradient id="SVGID_9_" gradientTransform="matrix(-.942 -.335 -.335 .942 324.698 100.282)" gradientUnits="userSpaceOnUse" x1="-200.476" x2="6.524" xlink:href="#lg1" y1="155.423" y2="299.423"/><linearGradient id="SVGID_10_" gradientTransform="matrix(-.942 -.335 -.335 .942 324.698 100.282)" gradientUnits="userSpaceOnUse" x1="-113.115" x2="-145.115" xlink:href="#lg2" y1="135.211" y2="55.211"/><linearGradient id="SVGID_11_" gradientTransform="matrix(-.942 -.335 -.335 .942 324.698 100.282)" gradientUnits="userSpaceOnUse" x1="-28.043" x2="-28.043" xlink:href="#lg1" y1="6.225" y2="80.721"/><linearGradient id="SVGID_12_" gradientTransform="matrix(-.986 -.166 -.166 .986 313.828 58.254)" gradientUnits="userSpaceOnUse" x1="-89.465" x2="-89.465" xlink:href="#lg1" y1="62.624" y2="115.258"/><linearGradient id="SVGID_13_" gradientTransform="matrix(-.986 -.166 -.166 .986 313.828 58.254)" gradientUnits="userSpaceOnUse" x1="-132.91" x2="-132.91" xlink:href="#lg1" y1="75.117" y2="125.52"/><linearGradient id="SVGID_14_" gradientTransform="matrix(-.83 -.554 -.493 .784 321.218 160.774)" gradientUnits="userSpaceOnUse" x1="-147.584" x2="-147.584" xlink:href="#lg1" y1="-66.554" y2="-13.919"/><linearGradient id="SVGID_15_" gradientTransform="matrix(-.662 -.743 -.648 .662 327.749 206.931)" gradientUnits="userSpaceOnUse" x1="-142.131" x2="-142.131" xlink:href="#lg1" y1="-123.844" y2="-71.209"/><linearGradient id="SVGID_16_" gradientTransform="matrix(-.942 -.335 -.335 .942 324.698 100.282)" gradientUnits="userSpaceOnUse" x1="-120.574" x2="-120.574" xlink:href="#lg3" y1="303.261" y2="387.304"/><linearGradient id="SVGID_17_" gradientUnits="userSpaceOnUse" x1="226.849" x2="283.9" y1="8.358" y2="91.807"><stop offset="0" stop-color="#ff9df0"/><stop offset=".3625" stop-color="#f791e8"/><stop offset="1" stop-color="#e273d3"/></linearGradient><g><g><g><path d="m206.734 317.419c23.188-21.98 31.486-55.508 20.999-85.688-.106-.306-.214-.612-.323-.918-15.456-43.449-71.432-63.216-125.028-44.151s-84.514 69.742-69.058 113.191c3.033 8.527 8.351 18.175 15.344 28.029 25.169 35.468 43.071 75.808 50.332 118.688.723 4.271 1.825 8.535 3.326 12.754 14.183 39.872 58.556 60.501 99.109 46.076 40.553-14.426 61.93-58.443 47.747-98.315-5.256-14.777-23.738-31.633-40.256-44.402-14.469-11.185-15.464-32.683-2.192-45.264z" fill="url(#SVGID_1_)"/><path d="m102.383 186.663c-53.595 19.065-84.514 69.742-69.058 113.191 3.033 8.528 8.351 18.174 15.344 28.029 8.58 12.09 16.313 24.748 23.07 37.878l134.498-47.844c.167-.166.326-.336.497-.498 23.188-21.979 31.486-55.508 20.999-85.687-.106-.306-.214-.612-.323-.918-15.455-43.449-71.432-63.216-125.027-44.151z" fill="url(#SVGID_2_)"/><g><circle cx="174.832" cy="154.523" fill="url(#SVGID_3_)" r="41"/><g><circle cx="123.203" cy="163.688" fill="url(#SVGID_4_)" r="28.968"/><path d="m110.722 176.982c2.426 15.127-8.364 29.637-24.1 32.408s-30.458-7.245-32.884-22.372 8.364-29.637 24.1-32.408c15.735-2.771 30.458 7.245 32.884 22.372z" fill="url(#SVGID_5_)"/><path d="m71.967 197.25c7.883 12.536 3.512 29.885-9.763 38.749s-30.427 5.888-38.31-6.648-3.512-29.885 9.763-38.749 30.427-5.888 38.31 6.648z" fill="url(#SVGID_6_)"/><path d="m46.024 228.312c10.359 10.595 10.166 28.815-.432 40.696s-27.587 12.924-37.947 2.329c-10.359-10.595-10.166-28.815.432-40.696s27.587-12.924 37.947-2.329z" fill="url(#SVGID_7_)"/></g></g><path d="m81.303 386.238c8.144 19.337 14.175 39.535 17.697 60.332.723 4.271 1.825 8.535 3.326 12.754 14.183 39.872 58.556 60.501 99.109 46.076 40.553-14.426 61.93-58.443 47.747-98.315-5.256-14.777-23.738-31.633-40.256-44.402-6.019-4.653-9.698-11.092-10.996-17.931z" fill="url(#SVGID_8_)"/></g><g><path d="m303.266 317.419c-23.188-21.98-31.486-55.508-20.999-85.688.106-.306.214-.612.323-.918 15.456-43.449 71.432-63.216 125.028-44.151s84.514 69.742 69.058 113.191c-3.033 8.527-8.351 18.175-15.344 28.029-25.169 35.468-43.071 75.808-50.332 118.688-.723 4.271-1.825 8.535-3.326 12.754-14.183 39.872-58.556 60.501-99.109 46.076-40.553-14.426-61.93-58.443-47.747-98.315 5.256-14.777 23.738-31.633 40.256-44.402 14.469-11.185 15.464-32.683 2.192-45.264z" fill="url(#SVGID_9_)"/><path d="m407.617 186.663c53.595 19.065 84.514 69.742 69.058 113.191-3.033 8.528-8.351 18.174-15.344 28.029-8.58 12.09-16.313 24.748-23.07 37.878l-134.498-47.844c-.167-.166-.326-.336-.497-.498-23.188-21.979-31.486-55.508-20.999-85.687.106-.306.214-.612.323-.918 15.455-43.449 71.432-63.216 125.027-44.151z" fill="url(#SVGID_10_)"/><g><circle cx="335.168" cy="154.523" fill="url(#SVGID_11_)" r="41"/><g><circle cx="386.797" cy="163.688" fill="url(#SVGID_12_)" r="28.968"/><path d="m399.278 176.982c-2.426 15.127 8.364 29.637 24.1 32.408s30.458-7.245 32.884-22.372-8.364-29.637-24.1-32.408c-15.735-2.771-30.458 7.245-32.884 22.372z" fill="url(#SVGID_13_)"/><path d="m438.033 197.25c-7.883 12.536-3.512 29.885 9.763 38.749 13.275 8.865 30.427 5.888 38.31-6.648s3.512-29.885-9.763-38.749-30.427-5.888-38.31 6.648z" fill="url(#SVGID_14_)"/><path d="m463.976 228.312c-10.359 10.595-10.166 28.815.432 40.696s27.587 12.924 37.947 2.329c10.359-10.595 10.166-28.815-.432-40.696s-27.587-12.924-37.947-2.329z" fill="url(#SVGID_15_)"/></g></g><path d="m428.697 386.238c-8.143 19.337-14.175 39.534-17.696 60.332-.723 4.271-1.825 8.535-3.326 12.754-14.183 39.872-58.556 60.501-99.109 46.076-40.553-14.426-61.93-58.443-47.747-98.315 5.256-14.777 23.738-31.633 40.256-44.402 6.019-4.653 9.698-11.092 10.996-17.931z" fill="url(#SVGID_16_)"/></g></g><path d="m255 136.667c-2.984 0-5.972-.706-8.643-2.043-8.07-4.039-23.83-12.699-38.696-25.324-19.339-16.423-30.802-34.052-34.07-52.396-2.539-14.25 1.086-28.797 9.944-39.911 8.204-10.293 19.829-16.308 32.734-16.937.758-.037 1.527-.056 2.284-.056 12.091 0 23.504 4.66 32.139 13.12 1.56 1.528 2.998 3.15 4.307 4.852 1.31-1.702 2.748-3.324 4.308-4.852 8.635-8.461 20.049-13.12 32.14-13.12.757 0 1.526.019 2.285.056 12.905.629 24.53 6.644 32.734 16.938 8.858 11.114 12.482 25.661 9.943 39.911-3.268 18.343-14.731 35.972-34.07 52.396-14.866 12.624-30.625 21.285-38.696 25.324-2.67 1.335-5.659 2.042-8.643 2.042z" fill="url(#SVGID_17_)"/></g></svg>