<?xml version="1.0" encoding="iso-8859-1"?>
<!-- Generator: Adobe Illustrator 19.0.0, SVG Export Plug-In . SVG Version: 6.00 Build 0)  -->
<svg version="1.1" id="Capa_1" xmlns="http://www.w3.org/2000/svg" xmlns:xlink="http://www.w3.org/1999/xlink" x="0px" y="0px"
	 viewBox="0 0 512 512" style="enable-background:new 0 0 512 512;" xml:space="preserve">
<linearGradient id="SVGID_1_" gradientUnits="userSpaceOnUse" x1="259.6747" y1="334.1067" x2="259.6747" y2="311.0266" gradientTransform="matrix(0.9881 0 0 -0.9881 -0.5828 506.2328)">
	<stop  offset="0" style="stop-color:#EFFBFF"/>
	<stop  offset="0.235" style="stop-color:#D5EBF7"/>
	<stop  offset="0.487" style="stop-color:#C2DFF1"/>
	<stop  offset="0.742" style="stop-color:#B6D7ED"/>
	<stop  offset="1" style="stop-color:#B2D5EC"/>
</linearGradient>
<rect x="177.987" y="169.569" style="fill:url(#SVGID_1_);" width="156.032" height="23.724"/>
<linearGradient id="SVGID_2_" gradientUnits="userSpaceOnUse" x1="222.8442" y1="277.815" x2="276.1442" y2="254.735" gradientTransform="matrix(0.9881 0 0 -0.9881 -0.5828 506.2328)">
	<stop  offset="0" style="stop-color:#EFFBFF"/>
	<stop  offset="0.235" style="stop-color:#D5EBF7"/>
	<stop  offset="0.487" style="stop-color:#C2DFF1"/>
	<stop  offset="0.742" style="stop-color:#B6D7ED"/>
	<stop  offset="1" style="stop-color:#B2D5EC"/>
</linearGradient>
<rect x="228.608" y="96.439" style="fill:url(#SVGID_2_);" width="54.79" height="302.084"/>
<linearGradient id="SVGID_3_" gradientUnits="userSpaceOnUse" x1="259.6702" y1="197.6566" x2="259.6702" y2="-146.9534" gradientTransform="matrix(0.9881 0 0 -0.9881 -0.5828 506.2328)">
	<stop  offset="0" style="stop-color:#EFFBFF"/>
	<stop  offset="0.235" style="stop-color:#D5EBF7"/>
	<stop  offset="0.487" style="stop-color:#C2DFF1"/>
	<stop  offset="0.742" style="stop-color:#B6D7ED"/>
	<stop  offset="1" style="stop-color:#B2D5EC"/>
</linearGradient>
<path style="fill:url(#SVGID_3_);" d="M469.504,231.684c-7.016,77.72-59.256,143.045-131.393,171.724
	c-18.921,7.522-40.44,4.094-55.929-9.123l-26.183-22.342l-26.191,22.349c-15.203,12.974-36.344,16.793-54.952,9.499
	c-72.639-28.477-125.317-94.038-132.363-172.106c-2.022,11.889-3.089,24.102-3.089,36.567c0,105.892,75.995,194.022,176.418,212.86
	l0,0c3.897,0.731,7.83,1.365,11.798,1.883c28.352,6.656,28.377,24.973,28.377,24.973s0.027-18.317,28.377-24.973
	c3.968-0.52,7.9-1.152,11.797-1.883l0,0c100.423-18.838,176.418-106.967,176.418-212.86
	C472.594,255.786,471.526,243.573,469.504,231.684z"/>
<linearGradient id="SVGID_4_" gradientUnits="userSpaceOnUse" x1="259.6707" y1="110.7266" x2="259.6707" y2="-20.3333" gradientTransform="matrix(0.9881 0 0 -0.9881 -0.5828 506.2328)">
	<stop  offset="0" style="stop-color:#EFFBFF"/>
	<stop  offset="0.235" style="stop-color:#D5EBF7"/>
	<stop  offset="0.487" style="stop-color:#C2DFF1"/>
	<stop  offset="0.742" style="stop-color:#B6D7ED"/>
	<stop  offset="1" style="stop-color:#B2D5EC"/>
</linearGradient>
<path style="fill:url(#SVGID_4_);" d="M465.834,261.731c0-1.852-0.045-3.694-0.113-5.53c-14.656,66.776-63.199,121.6-127.61,147.208
	c-18.921,7.522-40.439,4.094-55.929-9.123l-26.183-22.342l-26.191,22.349c-15.203,12.974-36.344,16.793-54.952,9.499
	C109.963,378.351,61.006,323.31,46.278,256.198c-0.067,1.839-0.113,3.682-0.113,5.533c0,87.014,73.624,159.43,170.913,174.91l0,0
	c3.776,0.601,7.585,1.121,11.429,1.547c27.466,5.469,27.492,9.34,27.492,9.34s0.026-3.87,27.492-9.34
	c3.844-0.427,7.653-0.947,11.429-1.547l0,0C392.21,421.161,465.834,348.744,465.834,261.731z"/>
<linearGradient id="SVGID_5_" gradientUnits="userSpaceOnUse" x1="93.1911" y1="162.8081" x2="12.1861" y2="243.8181" gradientTransform="matrix(0.9881 0 0 -0.9881 -0.5828 506.2328)">
	<stop  offset="0" style="stop-color:#B2D5EC;stop-opacity:0"/>
	<stop  offset="1" style="stop-color:#7797B0"/>
</linearGradient>
<path style="fill:url(#SVGID_5_);" d="M114.558,367.976c-40.287-33.923-67.171-82.095-72.063-136.293
	c-2.022,11.889-3.089,24.102-3.089,36.567c0,65.557,29.134,124.297,75.151,164.011V367.976z"/>
<linearGradient id="SVGID_6_" gradientUnits="userSpaceOnUse" x1="339.8291" y1="147.9748" x2="112.2892" y2="228.9848" gradientTransform="matrix(0.9881 0 0 -0.9881 -0.5828 506.2328)">
	<stop  offset="0" style="stop-color:#B2D5EC;stop-opacity:0"/>
	<stop  offset="1" style="stop-color:#7797B0"/>
</linearGradient>
<path style="fill:url(#SVGID_6_);" d="M469.504,231.684c-7.016,77.72-59.257,143.044-131.393,171.724
	c-18.921,7.522-40.439,4.094-55.929-9.123l-26.183-22.342v136.021v0.004c0,0,0.027-18.317,28.377-24.973
	c3.968-0.52,7.9-1.152,11.797-1.883l0,0c100.423-18.838,176.418-106.967,176.418-212.86
	C472.594,255.786,471.526,243.573,469.504,231.684z"/>
<linearGradient id="SVGID_7_" gradientUnits="userSpaceOnUse" x1="45.5891" y1="256.0266" x2="55.1291" y2="162.2166" gradientTransform="matrix(0.9881 0 0 -0.9881 -0.5828 506.2328)">
	<stop  offset="0" style="stop-color:#EFFBFF"/>
	<stop  offset="0.235" style="stop-color:#D5EBF7"/>
	<stop  offset="0.487" style="stop-color:#C2DFF1"/>
	<stop  offset="0.742" style="stop-color:#B6D7ED"/>
	<stop  offset="1" style="stop-color:#B2D5EC"/>
</linearGradient>
<path style="fill:url(#SVGID_7_);" d="M47.824,286.276l46.011,15.774c3.712,1.273,6.781-3.1,4.322-6.158l-49.47-61.528
	c-3.302-4.107-9.738-3.453-12.147,1.234L0.453,305.817c-1.794,3.491,2.091,7.157,5.472,5.163L47.824,286.276z"/>
<linearGradient id="SVGID_8_" gradientUnits="userSpaceOnUse" x1="22.1202" y1="237.2512" x2="64.8992" y2="241.5912" gradientTransform="matrix(0.9881 0 0 -0.9881 -0.5828 506.2328)">
	<stop  offset="0" style="stop-color:#7797B0"/>
	<stop  offset="1" style="stop-color:#B2D5EC;stop-opacity:0"/>
</linearGradient>
<path style="fill:url(#SVGID_8_);" d="M93.835,302.051c3.712,1.273,6.781-3.1,4.322-6.158l-49.47-61.528
	c-1.651-2.053-4.086-2.917-6.408-2.681l5.545,54.592L93.835,302.051z"/>
<linearGradient id="SVGID_9_" gradientUnits="userSpaceOnUse" x1="473.7478" y1="256.0269" x2="464.2178" y2="162.2169" gradientTransform="matrix(0.9881 0 0 -0.9881 -0.5828 506.2328)">
	<stop  offset="0" style="stop-color:#EFFBFF"/>
	<stop  offset="0.235" style="stop-color:#D5EBF7"/>
	<stop  offset="0.487" style="stop-color:#C2DFF1"/>
	<stop  offset="0.742" style="stop-color:#B6D7ED"/>
	<stop  offset="1" style="stop-color:#B2D5EC"/>
</linearGradient>
<path style="fill:url(#SVGID_9_);" d="M464.175,286.276l-46.011,15.774c-3.712,1.273-6.781-3.1-4.322-6.158l49.47-61.528
	c3.302-4.107,9.738-3.453,12.147,1.234l36.088,70.218c1.794,3.491-2.091,7.157-5.472,5.163L464.175,286.276z"/>
<linearGradient id="SVGID_10_" gradientUnits="userSpaceOnUse" x1="497.22" y1="237.2504" x2="454.45" y2="241.5903" gradientTransform="matrix(0.9881 0 0 -0.9881 -0.5828 506.2328)">
	<stop  offset="0" style="stop-color:#7797B0"/>
	<stop  offset="1" style="stop-color:#B2D5EC;stop-opacity:0"/>
</linearGradient>
<path style="fill:url(#SVGID_10_);" d="M418.164,302.051c-3.712,1.273-6.781-3.1-4.322-6.158l49.47-61.528
	c1.651-2.053,4.085-2.917,6.408-2.681l-5.545,54.592L418.164,302.051z"/>
<linearGradient id="SVGID_11_" gradientUnits="userSpaceOnUse" x1="303.928" y1="354.505" x2="229.238" y2="429.185" gradientTransform="matrix(0.9881 0 0 -0.9881 -0.5828 506.2328)">
	<stop  offset="0" style="stop-color:#B2D5EC;stop-opacity:0"/>
	<stop  offset="1" style="stop-color:#7797B0"/>
</linearGradient>
<polygon style="fill:url(#SVGID_11_);" points="228.606,127.993 283.394,182.782 283.394,96.438 228.606,96.438 "/>
<linearGradient id="SVGID_12_" gradientUnits="userSpaceOnUse" x1="298.9979" y1="403.1249" x2="118.4279" y2="583.6949" gradientTransform="matrix(0.9881 0 0 -0.9881 -0.5828 506.2328)">
	<stop  offset="0" style="stop-color:#EFFBFF"/>
	<stop  offset="1" style="stop-color:#B2D5EC"/>
</linearGradient>
<path style="fill:url(#SVGID_12_);" d="M255.999,134.054c-35.847,0-65.01-29.164-65.01-65.01c0-35.847,29.163-65.011,65.01-65.011
	s65.01,29.164,65.01,65.011C321.011,104.891,291.847,134.054,255.999,134.054z M255.999,41.966
	c-14.93,0-27.076,12.147-27.076,27.077S241.07,96.12,255.999,96.12c14.93,0,27.077-12.147,27.077-27.077
	S270.93,41.966,255.999,41.966z"/>
<linearGradient id="SVGID_13_" gradientUnits="userSpaceOnUse" x1="237.1085" y1="465.0154" x2="342.6085" y2="359.5054" gradientTransform="matrix(0.9881 0 0 -0.9881 -0.5828 506.2328)">
	<stop  offset="0" style="stop-color:#EFFBFF"/>
	<stop  offset="1" style="stop-color:#B2D5EC"/>
</linearGradient>
<path style="fill:url(#SVGID_13_);" d="M255.999,7.858c-33.738,0-61.188,27.45-61.188,61.188c0,33.738,27.45,61.179,61.188,61.179
	c33.738,0,61.188-27.441,61.188-61.179C317.188,35.308,289.737,7.858,255.999,7.858z M255.999,96.123
	c-14.935,0-27.075-12.154-27.075-27.075c0-14.935,12.14-27.075,27.075-27.075c14.935,0,27.075,12.14,27.075,27.075
	C283.074,83.969,270.935,96.123,255.999,96.123z"/>
<radialGradient id="SVGID_14_" cx="259.6707" cy="445.2367" r="43.3997" gradientTransform="matrix(0.9881 0 0 -0.9881 -0.5828 506.2328)" gradientUnits="userSpaceOnUse">
	<stop  offset="0" style="stop-color:#7797B0"/>
	<stop  offset="0.237" style="stop-color:#7C9CB5;stop-opacity:0.762"/>
	<stop  offset="0.51" style="stop-color:#89AAC2;stop-opacity:0.49"/>
	<stop  offset="0.799" style="stop-color:#9FC1D8;stop-opacity:0.201"/>
	<stop  offset="1" style="stop-color:#B2D5EC;stop-opacity:0"/>
</radialGradient>
<path style="fill:url(#SVGID_14_);" d="M255.999,4.037c-35.847,0-65.009,29.163-65.009,65.009s29.163,65.009,65.009,65.009
	s65.009-29.163,65.009-65.009S291.846,4.037,255.999,4.037z M255.999,96.123c-14.935,0-27.075-12.154-27.075-27.075
	c0-14.935,12.14-27.075,27.075-27.075c14.935,0,27.075,12.14,27.075,27.075C283.074,83.969,270.935,96.123,255.999,96.123z"/>
<linearGradient id="SVGID_15_" gradientUnits="userSpaceOnUse" x1="213.9597" y1="299.7066" x2="160.9097" y2="352.7466" gradientTransform="matrix(0.9881 0 0 -0.9881 -0.5828 506.2328)">
	<stop  offset="0" style="stop-color:#B2D5EC;stop-opacity:0"/>
	<stop  offset="1" style="stop-color:#7797B0"/>
</linearGradient>
<polygon style="fill:url(#SVGID_15_);" points="186.346,169.566 177.984,169.566 177.984,193.293 210.073,193.293 "/>
<radialGradient id="SVGID_16_" cx="165.6497" cy="338.2567" r="35.06" gradientTransform="matrix(0.9881 0 0 -0.9881 -0.5828 506.2328)" gradientUnits="userSpaceOnUse">
	<stop  offset="0" style="stop-color:#EFFBFF"/>
	<stop  offset="0.424" style="stop-color:#EDFAFE"/>
	<stop  offset="0.623" style="stop-color:#E5F5FC"/>
	<stop  offset="0.774" style="stop-color:#D9EDF8"/>
	<stop  offset="0.901" style="stop-color:#C6E2F2"/>
	<stop  offset="1" style="stop-color:#B2D5EC"/>
</radialGradient>
<circle style="fill:url(#SVGID_16_);" cx="168.482" cy="181.426" r="21.445"/>
<radialGradient id="SVGID_17_" cx="342.7897" cy="338.2567" r="35.06" gradientTransform="matrix(0.9881 0 0 -0.9881 -0.5828 506.2328)" gradientUnits="userSpaceOnUse">
	<stop  offset="0" style="stop-color:#EFFBFF"/>
	<stop  offset="0.424" style="stop-color:#EDFAFE"/>
	<stop  offset="0.623" style="stop-color:#E5F5FC"/>
	<stop  offset="0.774" style="stop-color:#D9EDF8"/>
	<stop  offset="0.901" style="stop-color:#C6E2F2"/>
	<stop  offset="1" style="stop-color:#B2D5EC"/>
</radialGradient>
<circle style="fill:url(#SVGID_17_);" cx="343.515" cy="181.426" r="21.445"/>
<linearGradient id="SVGID_18_" gradientUnits="userSpaceOnUse" x1="312.9604" y1="303.1474" x2="267.8604" y2="348.2474" gradientTransform="matrix(0.9881 0 0 -0.9881 -0.5828 506.2328)">
	<stop  offset="0" style="stop-color:#B2D5EC;stop-opacity:0"/>
	<stop  offset="1" style="stop-color:#7797B0"/>
</linearGradient>
<polygon style="fill:url(#SVGID_18_);" points="283.394,169.566 283.394,193.293 307.121,193.293 "/>
<g>
</g>
<g>
</g>
<g>
</g>
<g>
</g>
<g>
</g>
<g>
</g>
<g>
</g>
<g>
</g>
<g>
</g>
<g>
</g>
<g>
</g>
<g>
</g>
<g>
</g>
<g>
</g>
<g>
</g>
</svg>
