<svg height="511pt" viewBox="-9 0 511 511.99958" width="511pt" xmlns="http://www.w3.org/2000/svg" xmlns:xlink="http://www.w3.org/1999/xlink"><linearGradient id="a"><stop offset="0" stop-color="#ffc738"/><stop offset=".2447" stop-color="#ffc331"/><stop offset=".5988" stop-color="#ffb81e"/><stop offset="1" stop-color="#ffa700"/></linearGradient><linearGradient id="b" gradientUnits="userSpaceOnUse" x1="118.769665669" x2="328.6011095564" xlink:href="#a" y1="320.0226109216" y2="529.8539544168"/><linearGradient id="c" gradientUnits="userSpaceOnUse" x1="233.0547406582" x2="485.4834985354" xlink:href="#a" y1="390.368630168" y2="447.9075160682"/><linearGradient id="d"><stop offset="0" stop-color="#e4003d" stop-opacity="0"/><stop offset=".2334" stop-color="#e0053f" stop-opacity=".235294"/><stop offset=".496" stop-color="#d31243" stop-opacity=".494118"/><stop offset=".7717" stop-color="#bd294b" stop-opacity=".772549"/><stop offset="1" stop-color="#a64153"/></linearGradient><linearGradient id="e" gradientUnits="userSpaceOnUse" x1="277.3735800936" x2="261.287436711" xlink:href="#d" y1="490.3192048802" y2="176.6392583312"/><linearGradient id="f" gradientTransform="matrix(.69371 -.725735 .725735 .69371 2.629539 179.038454)" gradientUnits="userSpaceOnUse" x1="128.9766" x2="128.9766" xlink:href="#a" y1="-46.2516" y2="32.839"/><linearGradient id="g"><stop offset="0" stop-color="#a64153"/><stop offset=".3491" stop-color="#c1254a" stop-opacity=".65098"/><stop offset=".7588" stop-color="#da0a40" stop-opacity=".243137"/><stop offset="1" stop-color="#e4003d" stop-opacity="0"/></linearGradient><linearGradient id="h" gradientTransform="matrix(.69371 -.725735 .725735 .69371 2.629539 179.038454)" gradientUnits="userSpaceOnUse" x1="128.6311" x2="128.6311" xlink:href="#g" y1="-43.0782" y2="33.9873"/><linearGradient id="i" gradientTransform="matrix(-.69371 -.725735 -.725735 .69371 269.182863 179.038454)" gradientUnits="userSpaceOnUse" x1="-23.754" x2="-23.754" xlink:href="#a" y1="-206.0276" y2="-126.937"/><linearGradient id="j" gradientTransform="matrix(-.69371 -.725735 -.725735 .69371 269.182863 179.038454)" gradientUnits="userSpaceOnUse" x1="-24.0995" x2="-24.0995" xlink:href="#g" y1="-202.8542" y2="-125.7887"/><linearGradient id="k" gradientUnits="userSpaceOnUse" x1="139.3432399994" x2="353.9276522036" xlink:href="#a" y1="129.712329932" y2="344.2967421362"/><linearGradient id="l" gradientUnits="userSpaceOnUse" x1="343.62359758" x2="418.6294211816" xlink:href="#d" y1="149.4166082026" y2="681.124519808"/><linearGradient id="m" gradientUnits="userSpaceOnUse" x1="270.789558441" x2="390.7625543056" y1="291.7602991698" y2="411.7332950344"><stop offset="0" stop-color="#ecf7ff"/><stop offset="1" stop-color="#c2e0ff"/></linearGradient><linearGradient id="n"><stop offset="0" stop-color="#45425a"/><stop offset="1" stop-color="#2d3251"/></linearGradient><linearGradient id="o" gradientUnits="userSpaceOnUse" x1="126.4179450338" x2="166.3991386838" xlink:href="#n" y1="189.7643337748" y2="229.7454270326"/><linearGradient id="p" gradientUnits="userSpaceOnUse" x1="326.6148498794" x2="366.5959431372" xlink:href="#n" y1="189.7643337748" y2="229.7454270326"/><linearGradient id="q" gradientUnits="userSpaceOnUse" x1="314.8814111122" x2="253.6508028414" y1="436.8714015222" y2="375.6407932514"><stop offset=".0029" stop-color="#c2e0ff" stop-opacity="0"/><stop offset=".0763" stop-color="#bfdcfd" stop-opacity=".07451"/><stop offset="1" stop-color="#9eb2e7"/></linearGradient><linearGradient id="r" gradientUnits="userSpaceOnUse" x1="237.906595292" x2="262.3086261694" xlink:href="#n" y1="351.2930745542" y2="392.4714451892"/><path d="m447.429688 512h-401.148438c-11.917969 0-21.210938-10.597656-19.800781-22.660156 6.339843-54.238282 33.269531-106.101563 62.664062-152.902344 16.316407-25.976562 44.605469-41.5625 74.867188-41.5625h165.871093c30.609376 0 58.976563 16.066406 75.394532 42.398438 29.101562 46.667968 55.113281 97.703124 61.929687 151.890624 1.523438 12.117188-7.789062 22.835938-19.777343 22.835938zm0 0" fill="url(#b)"/><path d="m447.429688 512c11.988281 0 21.300781-10.71875 19.777343-22.839844-6.816406-54.183594-32.828125-105.21875-61.929687-151.890625-16.417969-26.328125-44.785156-42.394531-75.394532-42.394531h-27.625c-.632812.59375-1.261718 1.195312-1.886718 1.816406 0 0-68.878906 73.003906-72.257813 150.09375-.109375 2.457032 2.5625 4.0625 4.695313 2.839844 1.105468-.632812 2.359375-1.324219 3.730468-2.03125 2.917969-1.5 5.894532 1.917969 4.003907 4.605469-4.480469 6.375-9.484375 15.460937-10.917969 25.667969-.34375 2.4375 2.070312 4.332031 4.335938 3.367187 3.003906-1.28125 7.242187-2.792969 12.148437-3.714844 2.578125-.480469 4.558594 2.269531 3.316406 4.578125-3.1875 5.914063-7.632812 16.40625-8.34375 29.902344zm0 0" fill="url(#c)"/><path d="m329.882812 294.875h-165.871093c-30.261719 0-58.550781 15.585938-74.867188 41.5625-2.988281 4.757812-5.953125 9.574219-8.871093 14.4375l161.125 161.125h206.03125c11.988281 0 21.300781-10.71875 19.777343-22.839844-6.816406-54.183594-32.828125-105.21875-61.929687-151.890625-16.417969-26.328125-44.789063-42.394531-75.394532-42.394531zm0 0" fill="url(#e)"/><path d="m20.589844 11.871094c2.96875 27.359375 14.820312 94.5625 61.394531 147.078125l37.765625-46.597657 37.765625-46.601562c-46.574219-52.515625-104.027344-63.449219-127.332031-65.7148438-5.671875-.5507812-10.316406 5.1835938-9.59375 11.8359378zm0 0" fill="url(#f)"/><path d="m119.75 112.351562 29.410156-36.292968c-40.410156-35.625-81.335937-47.921875-99.453125-51.859375-5.199219-1.128907-8.960937 3.515625-7.773437 9.589843 4.152344 21.171876 16.410156 68.839844 48.40625 114.851563zm0 0" fill="url(#h)"/><path d="m473.121094 11.871094c-2.96875 27.359375-14.820313 94.5625-61.394532 147.078125l-37.765624-46.597657-37.765626-46.601562c46.574219-52.515625 104.027344-63.449219 127.332032-65.7148438 5.671875-.5507812 10.316406 5.1835938 9.59375 11.8359378zm0 0" fill="url(#i)"/><path d="m373.960938 112.351562-29.410157-36.292968c40.410157-35.625 81.335938-47.921875 99.453125-51.859375 5.199219-1.128907 8.964844 3.515625 7.773438 9.589843-4.152344 21.171876-16.410156 68.839844-48.402344 114.851563zm0 0" fill="url(#j)"/><path d="m477.546875 241.320312c5.457031-4.503906 10.398437-10.253906 14.246094-15.316406 3.164062-4.171875.691406-10.875-4.015625-10.859375-19.421875.070313-56.929688-7.539062-73.59375-63.6875-23.007813-77.523437-89.9375-120.035156-146.410156-120.035156h-41.835938c-56.472656 0-123.402344 42.511719-146.410156 120.035156-16.664063 56.144531-54.171875 63.757813-73.589844 63.6875-4.710938-.015625-7.183594 6.6875-4.019531 10.859375 3.847656 5.0625 8.789062 10.8125 14.246093 15.316406 4.464844 3.683594 3.199219 11.945313-2.105468 13.316407-.15625.039062-.3125.078125-.46875.117187-7.898438 2.003906-11.238282 13.277344-6.125 20.746094 14.296875 20.886719 41.804687 54.042969 82.519531 73.515625 51.265625 24.519531 98.34375 47.367187 134.386719 91.730469 12.34375 15.1875 32.625 15.1875 44.96875 0 36.042968-44.363282 83.121094-67.210938 134.386718-91.730469 40.761719-19.492187 68.285157-52.707031 82.566407-73.585937 5.109375-7.464844 1.722656-18.671876-6.167969-20.671876-.160156-.042968-.316406-.082031-.472656-.121093-5.304688-1.371094-6.570313-9.632813-2.105469-13.316407zm0 0" fill="url(#k)"/><path d="m246.855469 452.136719c8.15625 0 16.3125-3.796875 22.484375-11.390625 36.042968-44.363282 83.121094-67.210938 134.386718-91.730469 40.761719-19.492187 68.285157-52.707031 82.566407-73.585937 5.105469-7.464844 1.71875-18.671876-6.171875-20.671876-.15625-.042968-.3125-.082031-.472656-.121093-5.300782-1.371094-6.566407-9.632813-2.101563-13.316407 5.457031-4.5 10.398437-10.253906 14.242187-15.316406 3.167969-4.171875.695313-10.875-4.015624-10.859375-19.417969.074219-56.925782-7.539062-73.589844-63.683593-23.007813-77.523438-89.941406-120.035157-146.414063-120.035157h-20.914062zm0 0" fill="url(#l)"/><path d="m480.109375 254.753906c-.160156-.039062-.316406-.078125-.476563-.117187-4.371093-1.128907-5.988281-6.9375-3.921874-11.007813-13.191407 9.425782-28.402344 18.296875-45.65625 25.359375-59.875 24.519531-114.859376 47.367188-156.957032 91.726563-14.414062 15.191406-38.105468 15.191406-52.519531 0-42.097656-44.359375-97.082031-67.207032-156.957031-91.726563-17.25-7.0625-32.464844-15.933593-45.65625-25.359375 2.066406 4.070313.449218 9.878906-3.921875 11.007813-.15625.039062-.316407.078125-.472657.117187-7.898437 2.003906-11.234374 13.277344-6.125 20.746094 14.296876 20.886719 41.804688 54.042969 82.519532 73.515625 51.265625 24.519531 98.34375 47.367187 134.390625 91.730469 12.339843 15.1875 32.621093 15.1875 44.964843 0 36.042969-44.363282 83.121094-67.210938 134.386719-91.730469 40.761719-19.492187 68.285157-52.707031 82.570313-73.585937 5.105468-7.464844 1.71875-18.671876-6.167969-20.675782zm0 0" fill="url(#m)"/><path d="m168.367188 210.101562c0-16.410156-9.675782-29.714843-21.609376-29.714843-11.9375 0-21.613281 13.304687-21.613281 29.714843 0 16.414063 9.675781 29.71875 21.613281 29.71875 11.933594 0 21.609376-13.304687 21.609376-29.71875zm0 0" fill="url(#o)"/><path d="m368.566406 210.101562c0-16.410156-9.675781-29.714843-21.613281-29.714843-11.933594 0-21.609375 13.304687-21.609375 29.714843 0 16.414063 9.675781 29.71875 21.609375 29.71875 11.9375 0 21.613281-13.304687 21.613281-29.71875zm0 0" fill="url(#p)"/><path d="m269.320312 440.746094c19.523438-24.027344 42.285157-41.738282 67.191407-56.824219l-30.929688-33.492187c-.621093-.75-1.277343-1.472657-1.984375-2.144532-2.507812-3.03125-5.726562-5.5-9.601562-7.082031-7.265625 6.03125-14.246094 12.5-20.898438 19.511719-14.414062 15.191406-38.101562 15.191406-52.519531 0-6.648437-7.007813-13.625-13.476563-20.886719-19.503906-17.335937 7.074218-21.546875 31.925781-7.675781 45.277343.617187.742188 1.269531 1.460938 1.980469 2.144531l58.140625 62.953126c6.308593-1.289063 12.355469-4.898438 17.183593-10.839844zm0 0" fill="url(#q)"/><path d="m225.757812 414.996094-32.425781-27.316406c-15.894531-13.390626-11.257812-40.742188 7.980469-47.066407l8.316406-2.734375c24.277344-7.980468 50.175782-7.980468 74.453125 0l8.316407 2.734375c19.238281 6.324219 23.875 33.675781 7.980468 47.066407l-32.425781 27.316406c-12.421875 10.46875-29.773437 10.46875-42.195313 0zm0 0" fill="url(#r)"/></svg>