<svg id="Capa_1" enable-background="new 0 0 510 510" height="512" viewBox="0 0 510 510" width="512" xmlns="http://www.w3.org/2000/svg" xmlns:xlink="http://www.w3.org/1999/xlink"><linearGradient id="SVGID_1_" gradientUnits="userSpaceOnUse" x1="162.993" x2="322.783" y1="235.429" y2="577.331"><stop offset="0" stop-color="#cdec7a"/><stop offset=".2157" stop-color="#b0e995"/><stop offset=".5613" stop-color="#87e4bb"/><stop offset=".8347" stop-color="#6ee1d2"/><stop offset="1" stop-color="#65e0db"/></linearGradient><linearGradient id="lg1"><stop offset="0" stop-color="#cdec7a" stop-opacity="0"/><stop offset=".2354" stop-color="#9ad57d" stop-opacity=".235"/><stop offset=".6035" stop-color="#51b482" stop-opacity=".604"/><stop offset=".8679" stop-color="#239f85" stop-opacity=".868"/><stop offset="1" stop-color="#119786"/></linearGradient><linearGradient id="SVGID_2_" gradientUnits="userSpaceOnUse" x1="481.376" x2="258.725" xlink:href="#lg1" y1="372.913" y2="474.263"/><linearGradient id="SVGID_3_" gradientUnits="userSpaceOnUse" x1="349.341" x2="196.119" xlink:href="#lg1" y1="415.493" y2="344.468"/><linearGradient id="SVGID_4_" gradientUnits="userSpaceOnUse" x1="232.608" x2="45.869" xlink:href="#lg1" y1="386.977" y2="446.83"/><linearGradient id="SVGID_5_" gradientUnits="userSpaceOnUse" x1="439.406" x2="275.589" xlink:href="#lg1" y1="438.253" y2="270.887"/><linearGradient id="SVGID_6_" gradientUnits="userSpaceOnUse" x1="150.965" x2="405.15" y1="67.755" y2="321.941"><stop offset="0" stop-color="#18cefb"/><stop offset=".2969" stop-color="#2bb9f9"/><stop offset=".7345" stop-color="#42a0f7"/><stop offset="1" stop-color="#4a97f6"/></linearGradient><linearGradient id="lg2"><stop offset="0" stop-color="#4a97f6" stop-opacity="0"/><stop offset="1" stop-color="#0469bb"/></linearGradient><linearGradient id="SVGID_7_" gradientUnits="userSpaceOnUse" x1="471.534" x2="125.504" xlink:href="#lg2" y1="371.614" y2="25.584"/><linearGradient id="SVGID_8_" gradientUnits="userSpaceOnUse" x1="379.739" x2="286.075" xlink:href="#lg2" y1="264.123" y2="193.478"/><linearGradient id="SVGID_9_" gradientUnits="userSpaceOnUse" x1="220.009" x2="310.609" y1="120.089" y2="210.69"><stop offset="0" stop-color="#ffd945"/><stop offset=".3043" stop-color="#ffcd3e"/><stop offset=".8558" stop-color="#ffad2b"/><stop offset="1" stop-color="#ffa325"/></linearGradient><g><g><path d="m355.954 287.443-89.226 29.233c-7.621 2.497-15.835 2.497-23.456 0l-89.226-29.233c-7.379-2.418-15.451-2.418-23.109 0l-95.405 30.118c-5.58 1.761-9.82 6.871-10.49 12.672l-18.527 160.451c-1.231 10.662 7.319 18.296 16.887 14.995l95.745-33.034c8.401-2.898 17.24-2.898 25.306 0l97.687 35.103c8.356 3.003 17.365 3.003 25.722 0l97.687-35.103c8.066-2.898 16.905-2.898 25.306 0l95.745 33.034c9.567 3.301 18.118-4.333 16.887-14.995l-18.527-160.451c-.67-5.801-4.91-10.911-10.49-12.672l-95.405-30.118c-7.66-2.418-15.732-2.418-23.111 0z" fill="url(#SVGID_1_)"/><path d="m474.468 317.561-95.405-30.118c-3.831-1.209-7.764-1.814-11.659-1.814l10.671 184.841c4.265 0 8.575.724 12.778 2.175l95.745 33.034c9.567 3.301 18.118-4.333 16.887-14.995l-18.527-160.451c-.669-5.801-4.91-10.911-10.49-12.672z" fill="url(#SVGID_2_)"/><path d="m267.861 507.748 97.687-35.103c4.036-1.45 8.262-2.175 12.527-2.175l-10.671-184.841c-3.895 0-7.758.604-11.45 1.814l-89.226 29.233c-3.808 1.248-7.767 1.872-11.728 1.872v191.451c4.344 0 8.686-.751 12.861-2.251z" fill="url(#SVGID_3_)"/><path d="m255 318.548c-3.961 0-7.92-.624-11.728-1.872l-89.226-29.233c-3.692-1.209-7.555-1.814-11.45-1.814l-10.672 184.841c4.265 0 8.492.724 12.527 2.175l97.687 35.103c4.175 1.5 8.516 2.251 12.861 2.251z" fill="url(#SVGID_4_)"/></g><path d="m390.854 472.645 95.745 33.035c9.568 3.301 18.118-4.333 16.887-14.995l-18.527-160.451c-.67-5.801-4.91-10.911-10.49-12.672l-95.405-30.118c-7.658-2.417-15.731-2.417-23.11 0l-89.226 29.233c-7.621 2.497-15.835 2.497-23.456 0l-89.226-29.233s32.757 52.716 51.959 71.323l125.95 125.95 33.593-12.071c8.066-2.9 16.905-2.9 25.306-.001z" fill="url(#SVGID_5_)"/><g><path d="m410.08 155.08c0 85.648-109.193 233.16-155.08 233.16s-155.08-147.511-155.08-233.16 69.432-155.08 155.08-155.08 155.08 69.432 155.08 155.08z" fill="url(#SVGID_6_)"/><circle cx="255" cy="155.08" fill="url(#SVGID_7_)" r="133.487"/><path d="m332.028 82.124c-19.336-20.409-46.694-31.141-77.028-31.141-58.596 0-104.097 45.501-104.097 104.097 0 30.333 10.732 57.691 31.14 77.028l124.325 124.326c47.13-46.867 100.745-135.495 103.581-196.388z" fill="url(#SVGID_8_)"/><circle cx="255" cy="155.08" fill="url(#SVGID_9_)" r="106.097"/></g></g></svg>