<?xml version="1.0" encoding="iso-8859-1"?>
<!-- Generator: Adobe Illustrator 19.0.0, SVG Export Plug-In . SVG Version: 6.00 Build 0)  -->
<svg version="1.1" id="Capa_1" xmlns="http://www.w3.org/2000/svg" xmlns:xlink="http://www.w3.org/1999/xlink" x="0px" y="0px"
	 viewBox="0 0 512 512" style="enable-background:new 0 0 512 512;" xml:space="preserve">
<linearGradient id="SVGID_1_" gradientUnits="userSpaceOnUse" x1="171.7177" y1="402.6416" x2="526.0477" y2="48.3116" gradientTransform="matrix(1.0039 0 0 -1.0039 0.1922 516.5607)">
	<stop  offset="0" style="stop-color:#FF7BAC"/>
	<stop  offset="1" style="stop-color:#E24786"/>
</linearGradient>
<path style="fill:url(#SVGID_1_);" d="M390.725,48.95c-72.826-3.549-133.148,53.652-134.694,125.328
	c-0.003,0.157-0.057,0.157-0.06,0c-1.546-71.676-61.868-128.876-134.694-125.328C41.293,52.847-11.793,131.077,2.252,209.914
	c23.621,132.591,186.806,223.884,238.25,249.628c9.764,4.886,21.232,4.886,30.996,0c51.444-25.745,214.628-117.037,238.25-249.628
	C523.794,131.077,470.708,52.847,390.725,48.95z"/>
<linearGradient id="SVGID_2_" gradientUnits="userSpaceOnUse" x1="372.869" y1="259.543" x2="137.739" y2="259.543" gradientTransform="matrix(1.0039 0 0 -1.0039 0.1922 516.5607)">
	<stop  offset="0" style="stop-color:#FF7BAC;stop-opacity:0"/>
	<stop  offset="1" style="stop-color:#9E2E4F"/>
</linearGradient>
<path style="fill:url(#SVGID_2_);" d="M390.725,48.95c-72.826-3.549-133.148,53.652-134.694,125.328v288.929
	c5.298-0.005,10.594-1.225,15.467-3.663c51.444-25.745,214.628-117.037,238.25-249.628
	C523.794,131.077,470.708,52.847,390.725,48.95z"/>
<linearGradient id="SVGID_3_" gradientUnits="userSpaceOnUse" x1="135.7508" y1="360.0009" x2="373.8674" y2="121.8744" gradientTransform="matrix(1.0039 0 0 -1.0039 0.1922 516.5607)">
	<stop  offset="0" style="stop-color:#7ECCFD"/>
	<stop  offset="1" style="stop-color:#3FA9F5"/>
</linearGradient>
<path style="fill:url(#SVGID_3_);" d="M489.384,269.003H384.818c-2.514,0-4.669-1.71-5.245-4.156l-20.543-87.53
	c-3.518-14.99-16.22-25.369-31.609-25.829c-15.362-0.448-28.689,9.143-33.096,23.895L251.55,318.58
	c-0.986,3.303-3.615,3.826-5.094,3.845c-1.464,0.037-4.12-0.44-5.189-3.716L210.5,224.376
	c-4.452-13.649-16.603-22.717-30.956-23.098c-14.342-0.363-26.967,8.026-32.14,21.42l-16.547,42.857
	c-0.795,2.061-2.816,3.446-5.026,3.446H22.617c4.966,9.674,10.602,19.044,16.757,28.11h86.458c13.742,0,26.3-8.613,31.249-21.432
	l16.548-42.857c1.192-3.085,3.768-3.476,5.168-3.444c1.42,0.038,3.953,0.57,4.978,3.715l30.767,94.332
	c4.593,14.08,17.049,23.11,31.811,23.11c0.152,0,0.303-0.001,0.455-0.003c14.96-0.188,27.395-9.571,31.676-23.907l42.774-143.197
	c0.981-3.28,3.467-3.895,5.323-3.843c1.888,0.056,4.302,0.822,5.084,4.153l20.543,87.531c3.573,15.215,16.982,25.842,32.61,25.842
	h87.809C478.781,288.047,484.418,278.677,489.384,269.003z"/>
<linearGradient id="SVGID_4_" gradientUnits="userSpaceOnUse" x1="278.2307" y1="213.6044" x2="157.8607" y2="348.6344" gradientTransform="matrix(1.0039 0 0 -1.0039 0.1922 516.5607)">
	<stop  offset="0" style="stop-color:#FF7BAC;stop-opacity:0"/>
	<stop  offset="1" style="stop-color:#9E2E4F"/>
</linearGradient>
<path style="fill:url(#SVGID_4_);" d="M489.382,269.001c-0.622,1.215-1.255,2.419-1.897,3.614c-0.643,1.205-1.295,2.399-1.948,3.584
	c-1.315,2.379-2.68,4.749-4.086,7.088c-1.352,2.266-2.749,4.509-4.168,6.738c-0.082,0.13-0.165,0.26-0.248,0.39
	C420.336,379.162,311.733,439.399,271.5,459.545c-9.768,4.879-21.233,4.879-31.001,0C200.266,439.399,91.66,379.161,34.963,290.412
	c-0.081-0.128-0.162-0.256-0.243-0.384c-1.421-2.232-2.818-4.474-4.17-6.742c-1.405-2.339-2.771-4.708-4.086-7.088
	c-0.582-1.034-1.144-2.078-1.717-3.132c-0.12-0.221-0.241-0.452-0.361-0.683c-0.592-1.124-1.185-2.249-1.767-3.383h103.213
	c2.209,0,4.227-1.385,5.03-3.443l16.545-42.857c5.17-13.392,17.8-21.785,32.136-21.424c14.356,0.382,26.504,9.447,30.961,23.1
	l30.76,94.328c1.074,3.283,3.735,3.755,5.19,3.725c1.486-0.02,4.106-0.542,5.1-3.845l42.767-143.199
	c4.407-14.758,17.739-24.345,33.099-23.893c15.39,0.452,28.09,10.832,31.613,25.821l20.54,87.532c0.572,2.45,2.731,4.156,5.24,4.156
	L489.382,269.001L489.382,269.001z"/>
<linearGradient id="SVGID_5_" gradientUnits="userSpaceOnUse" x1="395.3084" y1="196.1914" x2="213.9784" y2="262.5414" gradientTransform="matrix(1.0039 0 0 -1.0039 0.1922 516.5607)">
	<stop  offset="0" style="stop-color:#FF7BAC;stop-opacity:0"/>
	<stop  offset="1" style="stop-color:#9E2E4F"/>
</linearGradient>
<path style="fill:url(#SVGID_5_);" d="M489.372,269.001c-0.542,1.054-1.084,2.098-1.646,3.152c-0.572,1.084-1.155,2.158-1.747,3.233
	c-4.086,7.429-8.563,14.667-13.352,21.725c-41.753,61.52-107.781,108.735-155.969,137.587l-93.736-93.736v-78.507l18.342,56.25
	c1.074,3.283,3.735,3.755,5.19,3.725c1.486-0.02,4.106-0.542,5.1-3.845l42.767-143.199c4.407-14.758,17.739-24.345,33.099-23.893
	c15.39,0.452,28.09,10.832,31.613,25.821l20.54,87.532c0.572,2.45,2.731,4.156,5.24,4.156H489.372z"/>
<linearGradient id="SVGID_6_" gradientUnits="userSpaceOnUse" x1="135.7516" y1="360.0007" x2="373.8671" y2="121.8751" gradientTransform="matrix(1.0039 0 0 -1.0039 0.1922 516.5607)">
	<stop  offset="0" style="stop-color:#7ECCFD"/>
	<stop  offset="1" style="stop-color:#3FA9F5"/>
</linearGradient>
<path style="fill:url(#SVGID_6_);" d="M489.382,269.001c-0.622,1.215-1.255,2.419-1.897,3.614c-0.643,1.205-1.295,2.399-1.948,3.584
	c-1.325,2.379-2.691,4.749-4.086,7.088c-2.801,4.678-5.753,9.296-8.824,13.824h-87.813c-15.621,0-29.033-10.621-32.607-25.841
	l-20.54-87.532c-0.783-3.333-3.203-4.096-5.09-4.156c-1.847-0.05-4.337,0.572-5.321,3.845l-42.767,143.199
	c-4.287,14.336-16.715,23.723-31.684,23.903c-0.151,0.01-0.301,0.01-0.452,0.01c-14.758,0-27.216-9.035-31.814-23.11l-30.76-94.339
	c-1.024-3.142-3.564-3.674-4.979-3.714c-1.405-0.03-3.976,0.361-5.17,3.443l-16.545,42.857
	c-4.949,12.82-17.508,21.434-31.252,21.434H39.374c-3.072-4.528-6.024-9.146-8.824-13.824c-1.405-2.339-2.761-4.708-4.086-7.088
	c-0.582-1.034-1.144-2.078-1.717-3.132c-0.12-0.221-0.241-0.452-0.361-0.683c-0.592-1.124-1.185-2.249-1.767-3.383h103.213
	c2.209,0,4.227-1.385,5.03-3.443l16.545-42.857c5.17-13.392,17.8-21.785,32.136-21.424c14.356,0.382,26.504,9.447,30.961,23.1
	l30.76,94.328c1.074,3.283,3.735,3.755,5.19,3.725c1.486-0.02,4.106-0.542,5.1-3.845l42.767-143.199
	c4.407-14.758,17.739-24.345,33.099-23.893c15.39,0.452,28.09,10.832,31.613,25.821l20.54,87.532c0.572,2.45,2.731,4.156,5.24,4.156
	L489.382,269.001L489.382,269.001z"/>
<g>
</g>
<g>
</g>
<g>
</g>
<g>
</g>
<g>
</g>
<g>
</g>
<g>
</g>
<g>
</g>
<g>
</g>
<g>
</g>
<g>
</g>
<g>
</g>
<g>
</g>
<g>
</g>
<g>
</g>
</svg>
