<svg id="Capa_1" enable-background="new 0 0 510 510" height="512" viewBox="0 0 510 510" width="512" xmlns="http://www.w3.org/2000/svg" xmlns:xlink="http://www.w3.org/1999/xlink"><linearGradient id="lg1"><stop offset="0" stop-color="#ffdecf"/><stop offset="1" stop-color="#faa68e"/></linearGradient><linearGradient id="SVGID_1_" gradientUnits="userSpaceOnUse" x1="255" x2="255" xlink:href="#lg1" y1="56.114" y2="367.21"/><linearGradient id="SVGID_2_" gradientUnits="userSpaceOnUse" x1="300.489" x2="129.124" xlink:href="#lg1" y1="367.046" y2="61.613"/><linearGradient id="lg2"><stop offset="0" stop-color="#faa68e" stop-opacity="0"/><stop offset="1" stop-color="#d07972"/></linearGradient><linearGradient id="SVGID_3_" gradientUnits="userSpaceOnUse" x1="250.465" x2="392.543" xlink:href="#lg2" y1="373.353" y2="-142.929"/><linearGradient id="lg3"><stop offset="0" stop-color="#ff637b"/><stop offset="1" stop-color="#e63950"/></linearGradient><linearGradient id="SVGID_4_" gradientTransform="matrix(.986 .165 -.165 .986 26.187 142.726)" gradientUnits="userSpaceOnUse" x1="107.822" x2="312.066" xlink:href="#lg3" y1="-33.827" y2="170.417"/><linearGradient id="lg4"><stop offset="0" stop-color="#e63950" stop-opacity="0"/><stop offset=".0467" stop-color="#e4354b" stop-opacity=".047"/><stop offset=".4669" stop-color="#d31822" stop-opacity=".467"/><stop offset=".7991" stop-color="#c90709" stop-opacity=".799"/><stop offset="1" stop-color="#c50000"/></linearGradient><linearGradient id="SVGID_5_" gradientTransform="matrix(.986 .165 -.165 .986 26.187 142.726)" gradientUnits="userSpaceOnUse" x1="211.591" x2="21.27" xlink:href="#lg4" y1="1.162" y2="-66.398"/><linearGradient id="SVGID_6_" gradientTransform="matrix(.986 .165 -.165 .986 26.187 142.726)" gradientUnits="userSpaceOnUse" x1="191.941" x2="157.333" xlink:href="#lg3" y1="-128.482" y2="-163.091"/><linearGradient id="SVGID_7_" gradientTransform="matrix(.986 .165 -.165 .986 26.187 142.726)" gradientUnits="userSpaceOnUse" x1="191.941" x2="157.333" xlink:href="#lg3" y1="-86.464" y2="-121.072"/><linearGradient id="SVGID_8_" gradientTransform="matrix(.986 .165 -.165 .986 26.187 142.726)" gradientUnits="userSpaceOnUse" x1="191.941" x2="157.333" xlink:href="#lg3" y1="-44.445" y2="-79.054"/><linearGradient id="SVGID_9_" gradientTransform="matrix(.986 .165 -.165 .986 26.187 142.726)" gradientUnits="userSpaceOnUse" x1="191.941" x2="157.333" xlink:href="#lg3" y1="-2.426" y2="-37.035"/><linearGradient id="SVGID_10_" gradientTransform="matrix(.986 .165 -.165 .986 26.187 142.726)" gradientUnits="userSpaceOnUse" x1="191.941" x2="157.333" xlink:href="#lg3" y1="39.592" y2="4.984"/><linearGradient id="SVGID_11_" gradientTransform="matrix(.875 -.484 .484 .875 -153.905 -171.189)" gradientUnits="userSpaceOnUse" x1="141.565" x2="106.957" xlink:href="#lg3" y1="507.257" y2="472.648"/><linearGradient id="SVGID_12_" gradientTransform="matrix(.875 -.484 .484 .875 -153.905 -171.189)" gradientUnits="userSpaceOnUse" x1="141.565" x2="106.957" xlink:href="#lg3" y1="549.275" y2="514.667"/><linearGradient id="SVGID_13_" gradientTransform="matrix(.986 .165 -.165 .986 26.187 142.726)" gradientUnits="userSpaceOnUse" x1="251.463" x2="211.916" xlink:href="#lg3" y1="100.024" y2="86.292"/><linearGradient id="SVGID_14_" gradientTransform="matrix(.986 .165 -.165 .986 26.187 142.726)" gradientUnits="userSpaceOnUse" x1="279.327" x2="246.371" xlink:href="#lg3" y1="133.076" y2="122.366"/><linearGradient id="SVGID_15_" gradientTransform="matrix(.986 .165 -.165 .986 26.187 142.726)" gradientUnits="userSpaceOnUse" x1="303.877" x2="267.625" xlink:href="#lg3" y1="167.283" y2="152.178"/><linearGradient id="SVGID_16_" gradientTransform="matrix(.67 .742 .742 -.67 -368.232 1112.817)" gradientUnits="userSpaceOnUse" x1="-285.387" x2="-319.996" xlink:href="#lg3" y1="877.313" y2="842.704"/><linearGradient id="SVGID_17_" gradientTransform="matrix(.67 .742 .742 -.67 -368.232 1112.817)" gradientUnits="userSpaceOnUse" x1="-285.387" x2="-319.996" xlink:href="#lg3" y1="919.331" y2="884.723"/><linearGradient id="SVGID_18_" gradientTransform="matrix(.67 .742 .742 -.67 -368.232 1112.817)" gradientUnits="userSpaceOnUse" x1="-285.387" x2="-319.996" xlink:href="#lg3" y1="961.35" y2="926.741"/><linearGradient id="SVGID_19_" gradientTransform="matrix(.67 .742 .742 -.67 -368.232 1112.817)" gradientUnits="userSpaceOnUse" x1="-285.387" x2="-319.996" xlink:href="#lg3" y1="1003.369" y2="968.76"/><linearGradient id="SVGID_20_" gradientTransform="matrix(.67 .742 .742 -.67 -368.232 1112.817)" gradientUnits="userSpaceOnUse" x1="-285.387" x2="-319.996" xlink:href="#lg3" y1="1045.388" y2="1010.779"/><linearGradient id="SVGID_21_" gradientTransform="matrix(.509 -.861 .861 .509 -658.186 -547.882)" gradientUnits="userSpaceOnUse" x1="-194.502" x2="-229.11" xlink:href="#lg3" y1="962.33" y2="927.722"/><linearGradient id="SVGID_22_" gradientTransform="matrix(.509 -.861 .861 .509 -658.186 -547.882)" gradientUnits="userSpaceOnUse" x1="-194.502" x2="-229.11" xlink:href="#lg3" y1="1004.349" y2="969.74"/><linearGradient id="SVGID_23_" gradientTransform="matrix(.509 -.861 .861 .509 -658.186 -547.882)" gradientUnits="userSpaceOnUse" x1="-194.502" x2="-229.11" xlink:href="#lg3" y1="1046.368" y2="1011.759"/><linearGradient id="SVGID_24_" gradientTransform="matrix(.509 -.861 .861 .509 -658.186 -547.882)" gradientUnits="userSpaceOnUse" x1="-194.502" x2="-229.11" xlink:href="#lg3" y1="1088.386" y2="1053.778"/><linearGradient id="SVGID_25_" gradientTransform="matrix(.509 -.861 .861 .509 -658.186 -547.882)" gradientUnits="userSpaceOnUse" x1="-194.502" x2="-229.11" xlink:href="#lg3" y1="1130.405" y2="1095.797"/><linearGradient id="SVGID_26_" gradientTransform="matrix(.202 .979 .979 -.202 -929.1 1075.122)" gradientUnits="userSpaceOnUse" x1="-617.561" x2="-652.169" xlink:href="#lg3" y1="1293.941" y2="1259.333"/><linearGradient id="SVGID_27_" gradientTransform="matrix(.202 .979 .979 -.202 -929.1 1075.122)" gradientUnits="userSpaceOnUse" x1="-617.561" x2="-652.169" xlink:href="#lg3" y1="1335.96" y2="1301.351"/><linearGradient id="SVGID_28_" gradientTransform="matrix(.202 .979 .979 -.202 -929.1 1075.122)" gradientUnits="userSpaceOnUse" x1="-617.561" x2="-652.169" xlink:href="#lg3" y1="1377.979" y2="1343.37"/><linearGradient id="SVGID_29_" gradientTransform="matrix(.202 .979 .979 -.202 -929.1 1075.122)" gradientUnits="userSpaceOnUse" x1="-617.561" x2="-652.169" xlink:href="#lg3" y1="1419.997" y2="1385.389"/><linearGradient id="SVGID_30_" gradientTransform="matrix(.202 .979 .979 -.202 -929.1 1075.122)" gradientUnits="userSpaceOnUse" x1="-617.561" x2="-652.169" xlink:href="#lg3" y1="1462.016" y2="1427.408"/><linearGradient id="SVGID_31_" gradientUnits="userSpaceOnUse" x1="211.108" x2="219.108" xlink:href="#lg4" y1="190.048" y2="338.048"/><linearGradient id="SVGID_32_" gradientUnits="userSpaceOnUse" x1="197.218" x2="320.882" xlink:href="#lg1" y1="280.429" y2="598.422"/><linearGradient id="SVGID_33_" gradientUnits="userSpaceOnUse" x1="340.204" x2="340.204" xlink:href="#lg1" y1="653" y2="230.97"/><linearGradient id="SVGID_34_" gradientUnits="userSpaceOnUse" x1="255" x2="255" xlink:href="#lg2" y1="439" y2="510"/><linearGradient id="SVGID_35_" gradientUnits="userSpaceOnUse" x1="417.506" x2="337.127" xlink:href="#lg2" y1="474.05" y2="238.904"/><linearGradient id="lg5"><stop offset="0" stop-color="#ff9100"/><stop offset="1" stop-color="#e63950"/></linearGradient><linearGradient id="SVGID_36_" gradientTransform="matrix(.97 -.245 .245 .97 -113.706 -150.19)" gradientUnits="userSpaceOnUse" x1="282.157" x2="437.615" xlink:href="#lg5" y1="542.909" y2="698.367"/><linearGradient id="SVGID_37_" gradientTransform="matrix(.97 -.245 .245 .97 -113.706 -150.19)" gradientUnits="userSpaceOnUse" x1="361.139" x2="216.28" xlink:href="#lg4" y1="569.541" y2="518.119"/><linearGradient id="SVGID_38_" gradientTransform="matrix(.97 -.245 .245 .97 -113.706 -150.19)" gradientUnits="userSpaceOnUse" x1="346.184" x2="319.842" xlink:href="#lg5" y1="470.863" y2="444.522"/><linearGradient id="SVGID_39_" gradientTransform="matrix(.97 -.245 .245 .97 -113.706 -150.19)" gradientUnits="userSpaceOnUse" x1="346.184" x2="319.842" xlink:href="#lg5" y1="502.845" y2="476.504"/><linearGradient id="SVGID_40_" gradientTransform="matrix(.97 -.245 .245 .97 -113.706 -150.19)" gradientUnits="userSpaceOnUse" x1="346.184" x2="319.842" xlink:href="#lg5" y1="534.828" y2="508.486"/><linearGradient id="SVGID_41_" gradientTransform="matrix(.97 -.245 .245 .97 -113.706 -150.19)" gradientUnits="userSpaceOnUse" x1="346.184" x2="319.842" xlink:href="#lg5" y1="566.81" y2="540.468"/><linearGradient id="SVGID_42_" gradientTransform="matrix(.97 -.245 .245 .97 -113.706 -150.19)" gradientUnits="userSpaceOnUse" x1="346.184" x2="319.842" xlink:href="#lg3" y1="598.792" y2="572.45"/><linearGradient id="SVGID_43_" gradientTransform="matrix(.608 -.794 .794 .608 -404.514 -365.612)" gradientUnits="userSpaceOnUse" x1="-87.602" x2="-113.944" xlink:href="#lg3" y1="1042.367" y2="1016.025"/><linearGradient id="SVGID_44_" gradientTransform="matrix(.608 -.794 .794 .608 -404.514 -365.612)" gradientUnits="userSpaceOnUse" x1="-87.602" x2="-113.944" xlink:href="#lg5" y1="1074.349" y2="1048.007"/><linearGradient id="SVGID_45_" gradientTransform="matrix(.97 -.245 .245 .97 -113.706 -150.19)" gradientUnits="userSpaceOnUse" x1="391.488" x2="361.387" xlink:href="#lg5" y1="644.788" y2="634.337"/><linearGradient id="SVGID_46_" gradientTransform="matrix(.97 -.245 .245 .97 -113.706 -150.19)" gradientUnits="userSpaceOnUse" x1="412.696" x2="387.612" xlink:href="#lg5" y1="669.946" y2="661.794"/><linearGradient id="SVGID_47_" gradientTransform="matrix(.97 -.245 .245 .97 -113.706 -150.19)" gradientUnits="userSpaceOnUse" x1="431.382" x2="403.79" xlink:href="#lg5" y1="695.982" y2="684.485"/><linearGradient id="SVGID_48_" gradientTransform="matrix(.912 .411 .411 -.912 -86.263 896.658)" gradientUnits="userSpaceOnUse" x1="184.183" x2="157.842" xlink:href="#lg5" y1="571.888" y2="545.546"/><linearGradient id="SVGID_49_" gradientTransform="matrix(.912 .411 .411 -.912 -86.263 896.658)" gradientUnits="userSpaceOnUse" x1="184.183" x2="157.842" xlink:href="#lg5" y1="603.87" y2="577.528"/><linearGradient id="SVGID_50_" gradientTransform="matrix(.912 .411 .411 -.912 -86.263 896.658)" gradientUnits="userSpaceOnUse" x1="184.183" x2="157.842" xlink:href="#lg5" y1="635.852" y2="609.51"/><linearGradient id="SVGID_51_" gradientTransform="matrix(.912 .411 .411 -.912 -86.263 896.658)" gradientUnits="userSpaceOnUse" x1="184.183" x2="157.842" xlink:href="#lg5" y1="667.834" y2="641.492"/><linearGradient id="SVGID_52_" gradientTransform="matrix(.912 .411 .411 -.912 -86.263 896.658)" gradientUnits="userSpaceOnUse" x1="184.183" x2="157.842" xlink:href="#lg3" y1="699.816" y2="673.474"/><linearGradient id="SVGID_53_" gradientTransform="matrix(.122 -.993 .993 .122 -1017.496 -508.619)" gradientUnits="userSpaceOnUse" x1="-665.039" x2="-691.38" xlink:href="#lg5" y1="1348.818" y2="1322.476"/><linearGradient id="SVGID_54_" gradientTransform="matrix(.122 -.993 .993 .122 -1017.496 -508.619)" gradientUnits="userSpaceOnUse" x1="-665.039" x2="-691.38" xlink:href="#lg5" y1="1380.8" y2="1354.459"/><linearGradient id="SVGID_55_" gradientTransform="matrix(.122 -.993 .993 .122 -1017.496 -508.619)" gradientUnits="userSpaceOnUse" x1="-665.039" x2="-691.38" xlink:href="#lg5" y1="1412.783" y2="1386.441"/><linearGradient id="SVGID_56_" gradientTransform="matrix(.122 -.993 .993 .122 -1017.496 -508.619)" gradientUnits="userSpaceOnUse" x1="-665.039" x2="-691.38" xlink:href="#lg5" y1="1444.765" y2="1418.423"/><linearGradient id="SVGID_57_" gradientTransform="matrix(.122 -.993 .993 .122 -1017.496 -508.619)" gradientUnits="userSpaceOnUse" x1="-665.039" x2="-691.38" xlink:href="#lg3" y1="1476.747" y2="1450.405"/><linearGradient id="SVGID_58_" gradientTransform="matrix(.578 .816 .816 -.578 -615.221 1086.911)" gradientUnits="userSpaceOnUse" x1="-39.51" x2="-65.852" xlink:href="#lg5" y1="1234.945" y2="1208.603"/><linearGradient id="SVGID_59_" gradientTransform="matrix(.578 .816 .816 -.578 -615.221 1086.911)" gradientUnits="userSpaceOnUse" x1="-39.51" x2="-65.852" xlink:href="#lg5" y1="1266.927" y2="1240.585"/><linearGradient id="SVGID_60_" gradientTransform="matrix(.578 .816 .816 -.578 -615.221 1086.911)" gradientUnits="userSpaceOnUse" x1="-39.51" x2="-65.852" xlink:href="#lg5" y1="1298.909" y2="1272.567"/><linearGradient id="SVGID_61_" gradientTransform="matrix(.578 .816 .816 -.578 -615.221 1086.911)" gradientUnits="userSpaceOnUse" x1="-39.51" x2="-65.852" xlink:href="#lg5" y1="1330.891" y2="1304.549"/><linearGradient id="SVGID_62_" gradientTransform="matrix(.578 .816 .816 -.578 -615.221 1086.911)" gradientUnits="userSpaceOnUse" x1="-39.51" x2="-65.852" xlink:href="#lg5" y1="1362.873" y2="1336.531"/><g><path d="m484.598 510h-459.196c-14.029 0-25.402-11.373-25.402-25.402v-459.196c0-14.029 11.373-25.402 25.402-25.402h459.196c14.029 0 25.402 11.373 25.402 25.402v459.196c0 14.029-11.373 25.402-25.402 25.402z" fill="url(#SVGID_1_)"/><path d="m267.705 21.381 28.934 80.178c3.502 9.705 11.556 17.065 21.536 19.682l82.452 21.619c25.132 6.59 31.799 39.137 11.281 55.077l-67.313 52.294c-8.148 6.33-12.659 16.263-12.064 26.563l12.031 95.045c1.499 25.939-27.395 42.336-48.895 27.749l-77.648-57.807c-8.538-5.793-19.379-7.014-28.991-3.264l-88.559 39.091c-24.206 9.441-48.73-12.972-41.5-37.928l32.866-89.99c2.871-9.91.682-20.598-5.854-28.581l-53.998-65.954c-16.459-20.104-8.059-51.444 17.909-52.28l85.195-2.741c10.312-.332 19.801-5.717 25.373-14.4l46.04-71.734c14.033-21.866 52.386-17.058 61.205 7.381z" fill="url(#SVGID_2_)"/><path d="m510 484.598v-208.422l-258.971-258.971c-10.143-16.496-31.958-18.54-44.186-1.55l-45.131 62.705c-5.463 7.59-17.31 15.006-26.66 14.808l-77.24-1.63c-23.544-.497-34.437 23.219-20.51 42.209l45.69 62.299c5.53 7.541 6.996 17.32 3.919 26.151l-37.09 79.863c-4.732 13.581 1.31 26.861 11.818 33.474l174.466 174.466h248.493c14.029 0 25.402-11.373 25.402-25.402z" fill="url(#SVGID_3_)"/><g><path d="m254.104 24.045 22.319 73.964c2.701 8.953 9.635 16.003 18.542 18.853l73.582 23.546c22.429 7.177 26.892 36.957 7.553 50.394l-63.447 44.082c-7.68 5.336-12.242 14.109-12.2 23.46l6.302 86.604c.105 23.549-26.838 36.996-45.593 22.755l-67.488-56.067c-7.448-5.655-17.201-7.283-26.082-4.354l-82.041 31.108c-22.364 7.377-43.479-14.092-35.731-36.33l34.089-79.862c3.077-8.831 1.611-18.61-3.919-26.151l-45.69-62.299c-13.927-18.99-.033-45.705 23.511-45.209l77.24 1.63c9.349.197 18.197-4.219 23.66-11.808l45.131-62.705c13.758-19.114 43.459-14.156 50.262 8.389z" fill="url(#SVGID_4_)"/><path d="m193.673 311.636 67.488 56.067c18.755 14.241 45.698.793 45.593-22.755l-6.302-86.604c-.042-9.351 4.521-18.124 12.2-23.46l63.447-44.082c19.339-13.437 14.876-43.217-7.553-50.394l-73.582-23.546c-8.906-2.85-15.84-9.9-18.542-18.853l-22.319-73.964c-3.401-11.273-12.528-18.148-22.523-19.817l-50.411 302.012c4.48.748 8.78 2.568 12.504 5.396z" fill="url(#SVGID_5_)"/><g><circle cx="226.677" cy="33.611" fill="url(#SVGID_6_)" r="14.83"/><circle cx="219.758" cy="75.057" fill="url(#SVGID_7_)" r="14.83"/><circle cx="212.84" cy="116.502" fill="url(#SVGID_8_)" r="14.83"/><circle cx="205.922" cy="157.947" fill="url(#SVGID_9_)" r="14.83"/><circle cx="199.004" cy="199.392" fill="url(#SVGID_10_)" r="14.83"/></g><g><circle cx="199.004" cy="199.392" fill="url(#SVGID_11_)" r="14.83"/><circle cx="219.345" cy="236.16" fill="url(#SVGID_12_)" r="14.83"/><circle cx="239.685" cy="272.927" fill="url(#SVGID_13_)" r="14.83"/><circle cx="260.026" cy="309.695" fill="url(#SVGID_14_)" r="14.83"/><circle cx="280.366" cy="346.462" fill="url(#SVGID_15_)" r="14.83"/></g><g><circle cx="74.29" cy="312.064" fill="url(#SVGID_16_)" r="14.83"/><circle cx="105.469" cy="283.896" fill="url(#SVGID_17_)" r="14.83"/><circle cx="136.649" cy="255.728" fill="url(#SVGID_18_)" r="14.83"/><circle cx="167.828" cy="227.561" fill="url(#SVGID_19_)" r="14.83"/><circle cx="199.008" cy="199.393" fill="url(#SVGID_20_)" r="14.83"/></g><g><circle cx="54.351" cy="113.808" fill="url(#SVGID_21_)" r="14.83"/><circle cx="90.514" cy="135.204" fill="url(#SVGID_22_)" r="14.83"/><circle cx="126.678" cy="156.6" fill="url(#SVGID_23_)" r="14.83"/><circle cx="162.841" cy="177.996" fill="url(#SVGID_24_)" r="14.83"/><circle cx="199.004" cy="199.392" fill="url(#SVGID_25_)" r="14.83"/></g><g><circle cx="199.004" cy="199.392" fill="url(#SVGID_26_)" r="14.83"/><circle cx="240.156" cy="190.902" fill="url(#SVGID_27_)" r="14.83"/><circle cx="281.308" cy="182.411" fill="url(#SVGID_28_)" r="14.83"/><circle cx="322.46" cy="173.921" fill="url(#SVGID_29_)" r="14.83"/><circle cx="363.612" cy="165.43" fill="url(#SVGID_30_)" r="14.83"/></g></g><path d="m254.104 24.045 22.319 73.964c2.701 8.953 9.635 16.003 18.542 18.853l73.582 23.546c22.429 7.177 26.892 36.957 7.553 50.394l-63.447 44.082c-7.68 5.336-12.242 14.109-12.2 23.46l6.302 86.604c.105 23.549-26.838 36.996-45.593 22.755l-67.488-56.067c-7.448-5.655-17.201-7.283-26.082-4.354l-82.041 31.108c-22.364 7.377-43.479-14.092-35.731-36.33l34.089-79.862c3.077-8.831 1.611-18.61-3.919-26.151l-45.69-62.299c-13.927-18.99-.033-45.705 23.511-45.209l77.24 1.63c9.349.197 18.197-4.219 23.66-11.808l45.131-62.705c13.758-19.114 43.459-14.156 50.262 8.389z" fill="url(#SVGID_31_)"/><path d="m510 373.08v111.442c0 14.071-11.407 25.478-25.478 25.478h-459.044c-14.071 0-25.478-11.407-25.478-25.478v-195.122c0-10.44 6.96-19.6 17.01-22.4 84.47-23.54 174.81-12.82 251.42 29.84l12.02 6.69c54.52 30.36 115.89 46.29 178.3 46.29h27.99c12.85 0 23.26 10.42 23.26 23.26z" fill="url(#SVGID_32_)"/><path d="m484.011 427.922-33.66-63.87c-2.027-4.577-2.511-9.606-1.518-14.377-58.981-1.596-116.754-17.396-168.383-46.146l-12.02-6.69c-2.024-1.127-4.064-2.22-6.107-3.303l-53.384 22.024c-18.1 7.467-19.781 32.447-2.844 42.272l55.564 32.231c6.725 3.901 11.101 10.862 11.7 18.614l.645 72.194c1.508 19.521 24.747 28.839 39.324 15.768l52.127-51.034c5.789-5.191 13.761-7.201 21.318-5.375l70.092 20.219c19.031 4.598 35.073-14.623 27.146-32.527z" fill="url(#SVGID_33_)"/><path d="m0 410v74.522c0 14.071 11.407 25.478 25.478 25.478h459.044c14.071 0 25.478-11.407 25.478-25.478v-74.522z" fill="url(#SVGID_34_)"/><path d="m510 484.598v-196.382l-32.39-32.39c-4.159-6.296-11.524-7.486-20.245-6.587l-58.494 6.027c-1.673.172-3.339.141-4.971-.069l-2.033-5.387-49.804-49.804c-11.621-13.646-30.846-8.043-34.608 9.482l-12.343 57.494c-1.494 6.959-9.317 15.737-15.896 18.452l-52.359 21.426c-16.167 6.67-20.016 26.596-5.694 36.011 0 0 65.615 65.804 65.808 66.072l.449 47.249c.559 7.24 1.385 12.945 6.624 16.377l37.43 37.43h153.124c14.029.001 25.402-11.372 25.402-25.401z" fill="url(#SVGID_35_)"/><g><path d="m342.065 200.007 38.126 44.769c4.615 5.419 11.601 8.22 18.681 7.49l58.494-6.027c17.83-1.837 30.026 17.568 20.639 32.837l-30.796 50.095c-3.728 6.064-4.233 13.573-1.351 20.081l30.814 58.469c7.257 16.389-7.429 33.986-24.852 29.776l-64.165-18.51c-6.919-1.671-14.217.169-19.516 4.92l-47.719 46.719c-13.345 11.966-34.618 3.436-35.999-14.434l-.591-66.089c-.548-7.096-4.554-13.469-10.71-17.04l-50.865-29.506c-15.504-8.994-13.966-31.862 2.604-38.697l54.359-22.426c6.58-2.714 11.402-8.493 12.896-15.452l12.343-57.494c3.762-17.524 25.986-23.127 37.608-9.481z" fill="url(#SVGID_36_)"/><path d="m387.654 418.988 64.165 18.51c17.423 4.209 32.109-13.387 24.852-29.776l-30.814-58.469c-2.882-6.508-2.376-14.018 1.351-20.081l30.796-50.095c9.387-15.269-2.81-34.674-20.639-32.837l-58.494 6.027c-7.08.73-14.066-2.072-18.681-7.49l-38.126-44.769c-5.811-6.823-14.272-8.834-21.751-6.948l56.976 225.981c3.352-.846 6.906-.888 10.365-.053z" fill="url(#SVGID_37_)"/><g><circle cx="325.857" cy="215.045" fill="url(#SVGID_38_)" r="11.288"/><circle cx="333.675" cy="246.056" fill="url(#SVGID_39_)" r="11.288"/><circle cx="341.494" cy="277.068" fill="url(#SVGID_40_)" r="11.288"/><circle cx="349.313" cy="308.079" fill="url(#SVGID_41_)" r="11.288"/><circle cx="357.132" cy="339.091" fill="url(#SVGID_42_)" r="11.288"/></g><g><circle cx="357.132" cy="339.091" fill="url(#SVGID_43_)" r="11.288"/><circle cx="382.532" cy="358.525" fill="url(#SVGID_44_)" r="11.288"/><circle cx="407.932" cy="377.959" fill="url(#SVGID_45_)" r="11.288"/><circle cx="433.332" cy="397.393" fill="url(#SVGID_46_)" r="11.288"/><circle cx="458.732" cy="416.828" fill="url(#SVGID_47_)" r="11.288"/></g><g><circle cx="304.535" cy="455.705" fill="url(#SVGID_48_)" r="11.288"/><circle cx="317.685" cy="426.551" fill="url(#SVGID_49_)" r="11.288"/><circle cx="330.835" cy="397.397" fill="url(#SVGID_50_)" r="11.288"/><circle cx="343.985" cy="368.244" fill="url(#SVGID_51_)" r="11.288"/><circle cx="357.134" cy="339.09" fill="url(#SVGID_52_)" r="11.288"/></g><g><circle cx="230.153" cy="323.537" fill="url(#SVGID_53_)" r="11.288"/><circle cx="261.898" cy="327.425" fill="url(#SVGID_54_)" r="11.288"/><circle cx="293.642" cy="331.314" fill="url(#SVGID_55_)" r="11.288"/><circle cx="325.387" cy="335.202" fill="url(#SVGID_56_)" r="11.288"/><circle cx="357.132" cy="339.091" fill="url(#SVGID_57_)" r="11.288"/></g><g><circle cx="357.132" cy="339.091" fill="url(#SVGID_58_)" r="11.288"/><circle cx="383.238" cy="320.617" fill="url(#SVGID_59_)" r="11.288"/><circle cx="409.345" cy="302.142" fill="url(#SVGID_60_)" r="11.288"/><circle cx="435.452" cy="283.668" fill="url(#SVGID_61_)" r="11.288"/><circle cx="461.558" cy="265.194" fill="url(#SVGID_62_)" r="11.288"/></g></g></g></svg>