<svg id="Capa_1" enable-background="new 0 0 510 510" height="512" viewBox="0 0 510 510" width="512" xmlns="http://www.w3.org/2000/svg" xmlns:xlink="http://www.w3.org/1999/xlink"><linearGradient id="lg1"><stop offset="0" stop-color="#efdcfb" stop-opacity="0"/><stop offset=".4856" stop-color="#baaad6" stop-opacity=".486"/><stop offset="1" stop-color="#8679b2"/></linearGradient><linearGradient id="SVGID_1_" gradientUnits="userSpaceOnUse" x1="151.901" x2="34.474" xlink:href="#lg1" y1="124.4" y2="63.368"/><linearGradient id="lg2"><stop offset="0" stop-color="#f8f6fb"/><stop offset="1" stop-color="#efdcfb"/></linearGradient><linearGradient id="SVGID_2_" gradientUnits="userSpaceOnUse" x1="93.654" x2="435.808" xlink:href="#lg2" y1="275.43" y2="275.43"/><linearGradient id="SVGID_3_" gradientUnits="userSpaceOnUse" x1="96.279" x2="118.624" xlink:href="#lg2" y1="60.165" y2="82.509"/><linearGradient id="SVGID_4_" gradientUnits="userSpaceOnUse" x1="446.538" x2="354.915" xlink:href="#lg1" y1="441.943" y2="350.32"/><linearGradient id="SVGID_5_" gradientTransform="matrix(.707 .707 -.707 .707 541.789 1332.254)" gradientUnits="userSpaceOnUse" x1="-833.377" x2="-792.485" y1="-476.688" y2="-476.688"><stop offset="0" stop-color="#ffdecf"/><stop offset="1" stop-color="#faa68e"/></linearGradient><linearGradient id="SVGID_6_" gradientTransform="matrix(.707 .707 -.707 .707 541.789 1332.254)" gradientUnits="userSpaceOnUse" x1="-820.905" x2="-804.956" y1="-450.105" y2="-450.105"><stop offset="0" stop-color="#8a7889"/><stop offset="1" stop-color="#6e566e"/></linearGradient><linearGradient id="SVGID_7_" gradientTransform="matrix(.707 .707 -.707 .707 541.789 1332.254)" gradientUnits="userSpaceOnUse" x1="-833.377" x2="-792.485" y1="-582.034" y2="-582.034"><stop offset="0" stop-color="#ffd945"/><stop offset=".3043" stop-color="#ffcd3e"/><stop offset=".8558" stop-color="#ffad2b"/><stop offset="1" stop-color="#ffa325"/></linearGradient><linearGradient id="SVGID_8_" gradientTransform="matrix(.707 .707 -.707 .707 541.789 1332.254)" gradientUnits="userSpaceOnUse" x1="-787.225" x2="-833.602" y1="-579.678" y2="-588.654"><stop offset="0" stop-color="#e87264" stop-opacity="0"/><stop offset=".3529" stop-color="#ed725d" stop-opacity=".353"/><stop offset=".8514" stop-color="#fa704b" stop-opacity=".851"/><stop offset="1" stop-color="#ff7044"/></linearGradient><g><path d="m389.065 29.267v404.726c0 16.168-13.099 29.267-29.267 29.267h-283.602c-16.168 0-29.279-13.111-29.279-29.279v-316.537c0-10.042 62.024-53.95 69.126-61.052 0 0 27.67-51.37 27.752-51.441 3.61-3.187 8.255-4.951 13.099-4.951h202.904c16.168 0 29.267 13.111 29.267 29.267z" fill="#e3ceef"/><path d="m337.741 0h-180.847c-4.844 0-9.489 1.764-13.099 4.95-.082.071-.165.141-.247.212-.188.165-.365.341-.541.506l-73.473 85.377c-7.102 7.102-22.616 16.356-22.616 26.398v173.38z" fill="url(#SVGID_1_)"/><path d="m406.531 510h-283.599c-16.17 0-29.277-13.108-29.277-29.277v-410.585c0-16.17 13.108-29.277 29.277-29.277h283.599c16.169 0 29.277 13.108 29.277 29.277v410.584c0 16.17-13.108 29.278-29.277 29.278z" fill="url(#SVGID_2_)"/><path d="m162.421 44.964-64.66 64.66c-4.468 4.468-11.088 5.985-17.062 3.904l-10.394-3.622c-11.441-3.974-23.388 4.515-23.388 16.626v-9.089c0-10.042 3.986-19.66 11.088-26.762l85.002-85.014c.176-.165.353-.341.541-.506.082-.071.165-.141.247-.212 5.409-4.409 13.757-2.199 16.133 4.586l6.397 18.378c2.081 5.963.564 12.583-3.904 17.051z" fill="url(#SVGID_3_)"/><g fill="#e3ceef"><g><path d="m388.571 139.124h-247.679c-5.268 0-9.538-4.27-9.538-9.538v-14.26c0-5.268 4.27-9.538 9.538-9.538h247.679c5.267 0 9.538 4.27 9.538 9.538v14.26c-.001 5.268-4.271 9.538-9.538 9.538z"/><path d="m324.291 215.378h-183.399c-5.268 0-9.538-4.27-9.538-9.538v-14.26c0-5.268 4.27-9.538 9.538-9.538h183.399c5.268 0 9.538 4.27 9.538 9.538v14.26c0 5.268-4.271 9.538-9.538 9.538z"/><path d="m388.571 291.631h-247.679c-5.268 0-9.538-4.27-9.538-9.538v-14.26c0-5.268 4.27-9.538 9.538-9.538h247.679c5.267 0 9.538 4.27 9.538 9.538v14.26c-.001 5.268-4.271 9.538-9.538 9.538z"/></g><g><path d="m334.482 368.818h-193.59c-5.268 0-9.538-4.27-9.538-9.538v-14.26c0-5.268 4.27-9.538 9.538-9.538h193.59c5.268 0 9.538 4.27 9.538 9.538v14.26c-.001 5.268-4.271 9.538-9.538 9.538z"/><path d="m278.041 445.071h-137.149c-5.268 0-9.538-4.27-9.538-9.538v-14.26c0-5.268 4.27-9.538 9.538-9.538h137.149c5.268 0 9.538 4.27 9.538 9.538v14.26c0 5.268-4.27 9.538-9.538 9.538z"/></g></g><path d="m435.808 480.722v-219.13c-1.617.4-143.052 143.809-143.612 145.681l-12.828 36.197c-.142.474.008.931.312 1.235l65.302 65.295h61.549c16.169 0 29.277-13.108 29.277-29.278z" fill="url(#SVGID_4_)"/><g><g><path d="m338.914 414.386-28.915-28.915-16.845 16.845c-1.382 1.382-2.398 3.085-2.958 4.957l-6.682 22.337.27 11.357 10.994-.096 22.334-6.681c1.872-.56 3.575-1.576 4.957-2.958z" fill="url(#SVGID_5_)"/><path d="m290.785 433.6c-2.051-2.051-4.566-3.377-7.264-4.014l-4.153 13.884c-.283.948.6 1.831 1.547 1.547l13.884-4.153c-.637-2.697-1.964-5.213-4.014-7.264z" fill="url(#SVGID_6_)"/><path d="m314.17 415v12.58c0 4.263 5.154 6.397 8.168 3.383l137.97-137.97c3.7-3.7 3.7-9.699 0-13.4l-15.515-15.515c-3.7-3.7-9.699-3.7-13.4 0l-137.97 137.97c-3.014 3.014-.879 8.168 3.383 8.168h12.579c2.643-.001 4.785 2.141 4.785 4.784z" fill="url(#SVGID_7_)"/></g><path d="m460.307 279.593-7.758-7.758-139.78 139.782c.866.866 1.401 2.062 1.401 3.383v12.579c0 4.263 5.154 6.397 8.168 3.383l137.97-137.97c3.7-3.7 3.7-9.699-.001-13.399z" fill="url(#SVGID_8_)"/></g></g></svg>