<svg id="Capa_1" enable-background="new 0 0 510 510" height="512" viewBox="0 0 510 510" width="512" xmlns="http://www.w3.org/2000/svg" xmlns:xlink="http://www.w3.org/1999/xlink"><linearGradient id="lg1"><stop offset="0" stop-color="#eef5f6"/><stop offset="1" stop-color="#cbe5e8"/></linearGradient><linearGradient id="SVGID_1_" gradientUnits="userSpaceOnUse" x1="36.678" x2="93.633" xlink:href="#lg1" y1="91.935" y2="167.231"/><linearGradient id="lg2"><stop offset="0" stop-color="#cbe5e8" stop-opacity="0"/><stop offset="1" stop-color="#7ca1b1"/></linearGradient><linearGradient id="SVGID_2_" gradientUnits="userSpaceOnUse" x1="86.544" x2="86.544" xlink:href="#lg2" y1="132.399" y2="63.687"/><linearGradient id="lg3"><stop offset="0" stop-color="#60b7ff"/><stop offset="1" stop-color="#0268b4"/></linearGradient><linearGradient id="SVGID_3_" gradientUnits="userSpaceOnUse" x1="75.46" x2="100.988" xlink:href="#lg3" y1="36.243" y2="100.063"/><linearGradient id="SVGID_4_" gradientUnits="userSpaceOnUse" x1="153.013" x2="443.721" xlink:href="#lg1" y1="243.933" y2="534.64"/><linearGradient id="SVGID_5_" gradientUnits="userSpaceOnUse" x1="336.796" x2="149.305" xlink:href="#lg2" y1="448.462" y2="71.623"/><linearGradient id="SVGID_6_" gradientUnits="userSpaceOnUse" x1="287.454" x2="263.298" xlink:href="#lg2" y1="451.695" y2="256.871"/><linearGradient id="SVGID_7_" gradientUnits="userSpaceOnUse" x1="308.259" x2="290.321" xlink:href="#lg2" y1="468.762" y2="324.093"/><linearGradient id="SVGID_8_" gradientUnits="userSpaceOnUse" x1="314.037" x2="302.088" xlink:href="#lg2" y1="486.736" y2="390.369"/><linearGradient id="SVGID_9_" gradientUnits="userSpaceOnUse" x1="306.867" x2="245.936" xlink:href="#lg2" y1="508.195" y2="447.264"/><linearGradient id="SVGID_10_" gradientUnits="userSpaceOnUse" x1="126.04" x2="322.933" xlink:href="#lg3" y1="116.661" y2="313.555"/><linearGradient id="SVGID_11_" gradientUnits="userSpaceOnUse" x1="255" x2="255" xlink:href="#lg3" y1="347.271" y2="-1.581"/><linearGradient id="SVGID_12_" gradientUnits="userSpaceOnUse" x1="440.781" x2="440.781" y1="301.402" y2="272.777"><stop offset="0" stop-color="#0268b4" stop-opacity="0"/><stop offset="1" stop-color="#0268b4"/></linearGradient><linearGradient id="SVGID_13_" gradientUnits="userSpaceOnUse" x1="255" x2="255" xlink:href="#lg2" y1="459.579" y2="518.782"/><linearGradient id="lg4"><stop offset="0" stop-color="#c1e9af"/><stop offset="1" stop-color="#4fc123"/></linearGradient><linearGradient id="SVGID_14_" gradientUnits="userSpaceOnUse" x1="199.579" x2="286.221" xlink:href="#lg4" y1="216.901" y2="336.625"/><linearGradient id="SVGID_15_" gradientUnits="userSpaceOnUse" x1="171.321" x2="257.964" xlink:href="#lg4" y1="237.351" y2="357.075"/><linearGradient id="SVGID_16_" gradientUnits="userSpaceOnUse" x1="144.185" x2="230.828" xlink:href="#lg4" y1="256.989" y2="376.713"/><linearGradient id="SVGID_17_" gradientUnits="userSpaceOnUse" x1="255" x2="255" xlink:href="#lg4" y1="292.586" y2="149.808"/><linearGradient id="SVGID_18_" gradientUnits="userSpaceOnUse" x1="255" x2="255" xlink:href="#lg4" y1="394.462" y2="294.681"/><linearGradient id="SVGID_19_" gradientUnits="userSpaceOnUse" x1="255" x2="255" xlink:href="#lg4" y1="450.126" y2="400.363"/><linearGradient id="SVGID_20_" gradientUnits="userSpaceOnUse" x1="243.301" x2="266.7" xlink:href="#lg4" y1="440.161" y2="472.495"/><g><g><g><path d="m46.195 65.535h80.697v184.649h-80.697z" fill="url(#SVGID_1_)"/><path d="m46.195 82.514 80.698 76.143v-93.122h-80.698z" fill="url(#SVGID_2_)"/><path d="m128.047 81.715h-83.005c-5.77 0-10.447-4.677-10.447-10.447v-14.63c0-5.77 4.677-10.447 10.447-10.447h83.005c5.77 0 10.447 4.677 10.447 10.447v14.63c-.001 5.77-4.678 10.447-10.447 10.447z" fill="url(#SVGID_3_)"/><path d="m430.517 510h-351.034c-18.384 0-33.288-14.062-33.288-31.409v-208.42l180.397-249.158c14.002-19.339 42.815-19.339 56.817 0l180.396 249.158v208.42c0 17.347-14.904 31.409-33.288 31.409z" fill="url(#SVGID_4_)"/><path d="m226.592 21.013-180.397 249.158v27.778l224.733 212.051h159.589c18.384 0 33.288-14.062 33.288-31.409v-208.42l-180.397-249.158c-14.002-19.339-42.814-19.339-56.816 0z" fill="url(#SVGID_5_)"/><path d="m430.517 510c18.384 0 33.288-14.062 33.288-31.409v-168.943l-33.729-33.807c-46.665-46.028-108.468-71.377-174.024-71.377s-127.36 25.349-174.025 71.377c-10.324 10.184-10.439 26.807-.255 37.132l197.027 197.027z" fill="url(#SVGID_6_)"/><path d="m430.517 510c18.384 0 33.288-14.062 33.288-31.409v-50.024l-93.302-93.302c-30.757-30.093-71.403-46.665-114.452-46.665-43.048 0-83.694 16.572-114.451 46.664-10.365 10.142-10.547 26.765-.406 37.131l137.844 137.605z" fill="url(#SVGID_7_)"/><path d="m430.517 510c.144 0 .286-.008.429-.01l-117.884-117.885c-15.458-14.643-35.705-22.708-57.011-22.708s-41.553 8.065-57.011 22.708c-10.247 9.707-10.943 25.709-1.775 36.263l81.773 81.632z" fill="url(#SVGID_8_)"/><path d="m336.721 510-65.145-65.145c-3.658-4.529-9.25-7.43-15.524-7.43-11.021 0-19.955 8.934-19.955 19.955 0 6.275 2.902 11.866 7.43 15.524l37.096 37.096z" fill="url(#SVGID_9_)"/><g><path d="m268.217 102.043 131.899 188.57c2.921 4.176 7.87 6.689 13.173 6.689h62.042c12.573 0 20.098-13.194 13.173-23.096l-167.896-240.032c-31.871-45.565-99.344-45.565-131.215 0l-167.896 240.032c-6.926 9.901.6 23.096 13.173 23.096h62.042c5.303 0 10.251-2.513 13.173-6.689l131.899-188.57c6.42-9.179 20.012-9.179 26.433 0z" fill="url(#SVGID_10_)"/><path d="m109.884 290.613 131.899-188.57c6.259-8.949 20.174-8.949 26.434 0l131.899 188.57c2.921 4.176 7.87 6.689 13.173 6.689h48.428l-169.849-242.825c-17.46-24.962-56.276-24.962-73.736 0l-169.849 242.825h48.428c5.304 0 10.252-2.513 13.173-6.689z" fill="url(#SVGID_11_)"/><g><path d="m430.075 275.841v21.461h21.411z" fill="url(#SVGID_12_)"/></g></g></g><path d="m46.195 410.085v68.505c0 17.347 14.903 31.409 33.288 31.409h351.034c18.384 0 33.288-14.062 33.288-31.409v-68.505z" fill="url(#SVGID_13_)"/></g><g><g><path d="m410.585 319.74c-6.66 0-13.321-2.517-18.437-7.563-36.776-36.274-85.482-56.251-137.148-56.251s-100.372 19.977-137.148 56.251c-10.324 10.183-26.948 10.068-37.132-.255-10.183-10.324-10.069-26.948.255-37.132 46.665-46.028 108.469-71.377 174.025-71.377s127.359 25.349 174.024 71.377c10.324 10.184 10.438 26.807.255 37.132-5.137 5.208-11.914 7.818-18.694 7.818z" fill="url(#SVGID_14_)"/><path d="m158.913 379.238c-6.816 0-13.626-2.637-18.769-7.894-10.142-10.365-9.96-26.989.406-37.131 30.757-30.092 71.403-46.664 114.451-46.664 43.049 0 83.695 16.572 114.451 46.664 10.365 10.142 10.547 26.765.406 37.131-10.143 10.365-26.765 10.547-37.131.406-20.885-20.434-48.489-31.687-77.727-31.687-29.237 0-56.842 11.253-77.727 31.687-5.108 4.997-11.737 7.488-18.36 7.488z" fill="url(#SVGID_15_)"/><path d="m293.95 436.373c-6.482 0-12.975-2.385-18.052-7.195-5.663-5.364-13.084-8.318-20.898-8.318s-15.234 2.954-20.897 8.318c-10.529 9.973-27.147 9.523-37.119-1.005-9.973-10.527-9.523-27.146 1.005-37.118 15.458-14.643 35.705-22.708 57.011-22.708s41.553 8.065 57.011 22.708c10.528 9.972 10.978 26.591 1.005 37.118-5.163 5.45-12.108 8.2-19.066 8.2z" fill="url(#SVGID_16_)"/></g><path d="m255 228.619c-65.556 0-127.36 25.349-174.025 71.377-1.868 1.843-3.397 3.898-4.596 6.087 1.144 2.089 2.585 4.058 4.341 5.838 10.183 10.323 26.808 10.438 37.132.255 36.776-36.274 85.483-56.251 137.148-56.251 51.666 0 100.372 19.977 137.148 56.251 5.116 5.046 11.778 7.563 18.437 7.563 6.78 0 13.557-2.61 18.695-7.819 1.755-1.78 3.197-3.749 4.341-5.838-1.199-2.189-2.728-4.245-4.596-6.087-46.665-46.027-108.468-71.376-174.025-71.376z" fill="url(#SVGID_17_)"/><path d="m255 312.755c-43.048 0-83.694 16.572-114.451 46.664-1.902 1.861-3.458 3.942-4.673 6.16 1.128 2.059 2.545 4.003 4.267 5.764 5.143 5.257 11.953 7.894 18.769 7.894 6.623 0 13.252-2.491 18.361-7.488 20.885-20.434 48.49-31.687 77.727-31.687 29.238 0 56.842 11.253 77.727 31.687 10.365 10.141 26.988 9.959 37.131-.406 1.722-1.761 3.14-3.704 4.267-5.764-1.215-2.219-2.771-4.3-4.673-6.161-30.756-30.09-71.403-46.663-114.452-46.663z" fill="url(#SVGID_18_)"/><path d="m312.011 416.261c-15.458-14.643-35.705-22.708-57.011-22.708s-41.553 8.065-57.011 22.708c-2.041 1.934-3.699 4.119-4.98 6.46 1.062 1.937 2.385 3.773 3.975 5.452 9.971 10.528 26.59 10.979 37.119 1.005 5.663-5.364 13.084-8.318 20.897-8.318s15.235 2.954 20.898 8.318c5.077 4.81 11.57 7.195 18.053 7.195 6.958 0 13.903-2.75 19.066-8.2 1.591-1.679 2.913-3.514 3.975-5.452-1.282-2.341-2.939-4.526-4.981-6.46z" fill="url(#SVGID_19_)"/><circle cx="255" cy="456.328" fill="url(#SVGID_20_)" r="19.955"/></g></g></svg>