<svg id="Capa_1" enable-background="new 0 0 510 510" height="512" viewBox="0 0 510 510" width="512" xmlns="http://www.w3.org/2000/svg" xmlns:xlink="http://www.w3.org/1999/xlink"><linearGradient id="SVGID_1_" gradientUnits="userSpaceOnUse" x1="140.994" x2="369.185" y1="239.641" y2="467.831"><stop offset="0" stop-color="#76e2f8"/><stop offset="1" stop-color="#48b2e3"/></linearGradient><linearGradient id="SVGID_2_" gradientUnits="userSpaceOnUse" x1="157.718" x2="352.436" y1="256.364" y2="451.082"><stop offset="0" stop-color="#edf5ff"/><stop offset="1" stop-color="#d5e8fe"/></linearGradient><linearGradient id="lg1"><stop offset="0" stop-color="#b5dbff" stop-opacity="0"/><stop offset=".1734" stop-color="#8fc5e9" stop-opacity=".173"/><stop offset=".4541" stop-color="#56a4c8" stop-opacity=".454"/><stop offset=".6955" stop-color="#2d8db1" stop-opacity=".696"/><stop offset=".8853" stop-color="#147ea2" stop-opacity=".885"/><stop offset="1" stop-color="#0b799d"/></linearGradient><linearGradient id="SVGID_3_" gradientUnits="userSpaceOnUse" x1="355.864" x2="258.531" xlink:href="#lg1" y1="396.353" y2="191.686"/><linearGradient id="SVGID_4_" gradientUnits="userSpaceOnUse" x1="141.955" x2="-114.644" xlink:href="#lg1" y1="394.529" y2="234.313"/><linearGradient id="SVGID_5_" gradientUnits="userSpaceOnUse" x1="244.542" x2="-12.057" xlink:href="#lg1" y1="390.282" y2="230.066"/><linearGradient id="SVGID_6_" gradientUnits="userSpaceOnUse" x1="357.841" x2="101.245" xlink:href="#lg1" y1="392.722" y2="232.508"/><linearGradient id="SVGID_7_" gradientUnits="userSpaceOnUse" x1="441.836" x2="278.207" xlink:href="#lg1" y1="376.868" y2="274.701"/><linearGradient id="lg2"><stop offset="0" stop-color="#b9dd39"/><stop offset="1" stop-color="#0b799d"/></linearGradient><linearGradient id="SVGID_8_" gradientUnits="userSpaceOnUse" x1="90.915" x2="90.915" xlink:href="#lg2" y1="321.333" y2="422.667"/><linearGradient id="SVGID_9_" gradientUnits="userSpaceOnUse" x1="200.305" x2="200.305" xlink:href="#lg2" y1="321.333" y2="422.667"/><linearGradient id="SVGID_10_" gradientUnits="userSpaceOnUse" x1="309.695" x2="309.695" xlink:href="#lg2" y1="321.333" y2="422.667"/><linearGradient id="SVGID_11_" gradientUnits="userSpaceOnUse" x1="419.085" x2="419.085" xlink:href="#lg2" y1="321.333" y2="422.667"/><linearGradient id="SVGID_12_" gradientUnits="userSpaceOnUse" x1="201.215" x2="283.522" y1="72.426" y2="154.734"><stop offset="0" stop-color="#edf5ff"/><stop offset="1" stop-color="#b5dbff"/></linearGradient><linearGradient id="SVGID_13_" gradientUnits="userSpaceOnUse" x1="251.688" x2="251.688" y1="131.627" y2="-65.726"><stop offset="0" stop-color="#b5dbff" stop-opacity="0"/><stop offset=".2428" stop-color="#93cef6" stop-opacity=".243"/><stop offset=".5763" stop-color="#6abfec" stop-opacity=".576"/><stop offset=".8403" stop-color="#51b5e5" stop-opacity=".84"/><stop offset="1" stop-color="#48b2e3"/></linearGradient><linearGradient id="lg3"><stop offset="0" stop-color="#ffda2d"/><stop offset="1" stop-color="#fdbf00"/></linearGradient><linearGradient id="SVGID_14_" gradientUnits="userSpaceOnUse" x1="200.312" x2="292" xlink:href="#lg3" y1="170.187" y2="261.875"/><linearGradient id="SVGID_15_" gradientUnits="userSpaceOnUse" x1="295.081" x2="203.622" xlink:href="#lg3" y1="260.426" y2="168.967"/><linearGradient id="SVGID_16_" gradientUnits="userSpaceOnUse" x1="286.411" x2="214.735" y1="251.763" y2="180.087"><stop offset="0" stop-color="#0b799d"/><stop offset="1" stop-color="#07485e"/></linearGradient><linearGradient id="SVGID_17_" gradientUnits="userSpaceOnUse" x1="255" x2="255" y1="282.671" y2="310.286"><stop offset="0" stop-color="#ff9100" stop-opacity="0"/><stop offset="1" stop-color="#ff9100"/></linearGradient><linearGradient id="SVGID_18_" gradientUnits="userSpaceOnUse" x1="255" x2="255" xlink:href="#lg1" y1="426.151" y2="469.441"/><g><g><g><g><path d="m487.362 463.63h-464.724c-12.503 0-22.638-10.135-22.638-22.638v-174.692c0-12.503 10.135-22.638 22.638-22.638h464.724c12.503 0 22.638 10.135 22.638 22.638v174.692c0 12.503-10.135 22.638-22.638 22.638z" fill="url(#SVGID_1_)"/></g></g><g><g><path d="m464.723 436.358h-419.446c-10.259 0-18.575-8.316-18.575-18.575v-128.274c0-10.259 8.316-18.575 18.575-18.575h419.445c10.259 0 18.575 8.316 18.575 18.575v128.273c.001 10.26-8.315 18.576-18.574 18.576z" fill="url(#SVGID_2_)"/></g></g><path d="m160.499 304.81 158.82 158.82h168.044c12.503 0 22.638-10.135 22.638-22.638v-45.771l-151.559-151.559h-206.884v43.277c0 7.309 3.513 13.798 8.941 17.871z" fill="url(#SVGID_3_)"/><g><path d="m242.505 436.36h-136.865l-44.671-44.67c-3.151-1.933-5.681-4.953-5.681-8.879 0-2.84 1.086-5.239 2.614-6.994l7.077-10.073-17.102-17.579c-3.855-1.635-5.705-5.609-5.705-10.598 0-5.681 5.025-12.03 12.018-12.03.656 0 1.754 0 3.282.656l22.95 7.435-1.098-22.294c.227-7.22 5.693-10.49 11.803-10.49 4.595 0 8.7 1.838 10.55 5.812l21.076 20.312 2.268-.776c1.086-.43 2.184-.656 3.27-.656 3.938 0 7.137 2.447 9.118 5.729l35.935 35.935z" fill="url(#SVGID_4_)"/><path d="m351.896 436.36h-136.865l-44.671-44.671c-3.151-1.933-5.681-4.953-5.681-8.879 0-2.84 1.086-5.239 2.614-6.994l6.051-8.617 1.026-1.456-17.102-17.579c-3.855-1.635-5.705-5.609-5.705-10.598 0-5.681 5.024-12.03 12.018-12.03.656 0 1.754 0 3.282.656l22.95 7.435-1.098-22.294c.227-7.22 5.693-10.49 11.803-10.49 4.595 0 8.688 1.838 10.55 5.812l21.076 20.312 2.256-.776c1.098-.43 2.196-.656 3.282-.656 3.938 0 7.137 2.447 9.118 5.729z" fill="url(#SVGID_5_)"/><path d="m461.276 436.36h-136.853l-44.671-44.671c-3.151-1.933-5.693-4.953-5.693-8.879 0-2.84 1.098-5.239 2.626-6.994l6.051-8.617 1.026-1.456-17.114-17.579c-3.843-1.635-5.705-5.609-5.705-10.598 0-5.681 5.036-12.03 12.03-12.03.656 0 1.742 0 3.282.656l22.95 7.435-1.098-22.294c.227-7.22 5.681-10.49 11.803-10.49 4.595 0 8.688 1.838 10.55 5.812l21.076 20.312 2.255-.776c1.098-.43 2.184-.656 3.282-.656 3.938 0 7.125 2.447 9.118 5.729l35.935 35.935z" fill="url(#SVGID_6_)"/><path d="m483.295 348.976v68.802c0 10.264-8.318 18.582-18.57 18.582h-30.922l-44.671-44.671c-3.139-1.933-5.681-4.953-5.681-8.879 0-2.84 1.098-5.239 2.626-6.994l6.051-8.617 1.027-1.456-17.114-17.579c-3.843-1.635-5.704-5.609-5.704-10.598 0-5.681 5.036-12.03 12.03-12.03.656 0 1.742 0 3.27.656l22.962 7.435-1.098-22.294c.215-7.22 5.681-10.49 11.803-10.49 4.595 0 8.688 1.838 10.55 5.812l21.064 20.312 2.268-.776c1.098-.43 2.184-.656 3.282-.656 3.938 0 7.125 2.447 9.118 5.729z" fill="url(#SVGID_7_)"/><g><path d="m125.235 376.037c1.093 1.311 1.748 3.935 1.748 6.339 0 6.995-6.995 11.804-13.334 11.804-2.404 0-5.901-.437-8.306-4.153l-14.209-21.86-14.427 22.078c-1.967 3.279-4.59 3.935-7.651 3.935-5.247 0-13.771-4.153-13.771-11.367 0-2.841 1.093-5.246 2.623-6.995l14.427-20.548-22.733-6.558c-5.028-1.093-7.433-5.465-7.433-11.148s5.028-12.023 12.023-12.023c.656 0 2.598.073 4.127.729l22.104 7.359-1.094-22.296c.219-7.213 5.684-10.492 11.804-10.492 6.121 0 11.367 3.279 11.586 10.492l-.875 22.734 23.171-7.87c1.093-.437 2.186-.656 3.279-.656 6.777 0 11.367 7.214 11.367 13.553 0 4.372-2.186 8.525-7.432 9.618l-22.297 5.246z" fill="url(#SVGID_8_)"/></g><g><path d="m234.625 376.037c1.093 1.311 1.748 3.935 1.748 6.339 0 6.995-6.995 11.804-13.334 11.804-2.404 0-5.901-.437-8.306-4.153l-14.209-21.86-14.427 22.078c-1.967 3.279-4.59 3.935-7.651 3.935-5.247 0-13.771-4.153-13.771-11.367 0-2.841 1.093-5.246 2.623-6.995l14.427-20.548-22.733-6.558c-5.028-1.093-7.433-5.465-7.433-11.148s5.028-12.023 12.023-12.023c.656 0 1.749 0 3.279.656l22.953 7.432-1.094-22.296c.219-7.213 5.684-10.492 11.804-10.492 6.121 0 11.367 3.279 11.586 10.492l-.875 22.734 23.171-7.87c1.093-.437 2.186-.656 3.279-.656 6.777 0 11.367 7.214 11.367 13.553 0 4.372-2.186 8.525-7.432 9.618l-22.297 5.246z" fill="url(#SVGID_9_)"/></g><g><path d="m344.015 376.037c1.093 1.311 1.748 3.935 1.748 6.339 0 6.995-6.995 11.804-13.334 11.804-2.404 0-5.901-.437-8.306-4.153l-14.209-21.86-14.427 22.078c-1.967 3.279-4.59 3.935-7.651 3.935-5.247 0-13.771-4.153-13.771-11.367 0-2.841 1.093-5.246 2.623-6.995l14.427-20.548-22.733-6.558c-5.028-1.093-7.433-5.465-7.433-11.148s5.028-12.023 12.023-12.023c.656 0 1.749 0 3.279.656l22.953 7.432-1.094-22.296c.219-7.213 5.684-10.492 11.804-10.492 6.121 0 11.367 3.279 11.586 10.492l-.875 22.734 23.171-7.87c1.093-.437 2.186-.656 3.279-.656 6.777 0 11.367 7.214 11.367 13.553 0 4.372-2.186 8.525-7.432 9.618l-22.297 5.246z" fill="url(#SVGID_10_)"/></g><g><path d="m453.405 376.037c1.093 1.311 1.748 3.935 1.748 6.339 0 6.995-6.995 11.804-13.334 11.804-2.404 0-5.901-.437-8.306-4.153l-14.209-21.86-14.427 22.078c-1.967 3.279-4.59 3.935-7.651 3.935-5.247 0-13.771-4.153-13.771-11.367 0-2.841 1.093-5.246 2.623-6.995l14.427-20.548-22.733-6.558c-5.028-1.093-7.433-5.465-7.433-11.148s5.028-12.023 12.023-12.023c.656 0 1.749 0 3.279.656l22.953 7.432-1.094-22.296c.219-7.213 5.684-10.492 11.804-10.492 6.121 0 11.367 3.279 11.586 10.492l-.875 22.734 23.171-7.87c1.093-.437 2.186-.656 3.279-.656 6.777 0 11.367 7.214 11.367 13.553 0 4.372-2.186 8.525-7.432 9.618l-22.297 5.246z" fill="url(#SVGID_11_)"/></g></g></g><g><g><path d="m339.654 147.841h-31.945v-13.506c0-30.89-25.131-56.021-56.021-56.021s-56.021 25.131-56.021 56.021v13.506h-31.945v-13.506c0-48.504 39.461-87.966 87.966-87.966 48.504 0 87.966 39.461 87.966 87.966z" fill="url(#SVGID_12_)"/><path d="m251.688 63.666c-40.237 0-72.972 32.735-72.972 72.972v11.203h16.951v-13.506c0-30.89 25.131-56.021 56.021-56.021s56.021 25.131 56.021 56.021v13.506h16.951v-11.203c0-40.237-32.736-72.972-72.972-72.972z" fill="url(#SVGID_13_)"/></g><g><g><path d="m336.111 309.27h-162.222c-12.333 0-22.33-9.998-22.33-22.33v-124.13c0-12.333 9.998-22.33 22.33-22.33h162.223c12.333 0 22.33 9.998 22.33 22.33v124.13c0 12.332-9.998 22.33-22.331 22.33z" fill="url(#SVGID_14_)"/><path d="m294.656 208.965c0-21.901-17.755-39.656-39.656-39.656s-39.656 17.755-39.656 39.656c0 15.505 8.904 28.922 21.872 35.443v18.249c0 9.822 7.962 17.784 17.784 17.784 9.822 0 17.784-7.962 17.784-17.784v-18.249c12.969-6.521 21.872-19.938 21.872-35.443z" fill="url(#SVGID_15_)"/><path d="m255 270.131c-4.121 0-7.475-3.353-7.475-7.475v-24.605l-5.678-2.855c-9.988-5.022-16.193-15.073-16.193-26.232 0-16.182 13.165-29.346 29.346-29.346s29.346 13.165 29.346 29.346c0 11.158-6.205 21.21-16.193 26.232l-5.678 2.855v24.605c0 4.122-3.354 7.475-7.475 7.475z" fill="url(#SVGID_16_)"/><path d="m151.558 253.143v33.796c0 12.333 9.998 22.33 22.33 22.33h162.223c12.333 0 22.33-9.998 22.33-22.33v-33.796z" fill="url(#SVGID_17_)"/></g></g></g><path d="m0 394.18v46.812c0 12.503 10.135 22.638 22.638 22.638h464.724c12.503 0 22.638-10.135 22.638-22.638v-46.812z" fill="url(#SVGID_18_)"/></g></svg>