<svg id="Capa_1" enable-background="new 0 0 512 512" height="512" viewBox="0 0 512 512" width="512" xmlns="http://www.w3.org/2000/svg" xmlns:xlink="http://www.w3.org/1999/xlink"><linearGradient id="SVGID_1_" gradientUnits="userSpaceOnUse" x1="74.98" x2="437.018" y1="437.018" y2="74.98"><stop offset="0" stop-color="#00aa45"/><stop offset="1" stop-color="#d3ff33"/></linearGradient><radialGradient id="SVGID_2_" cx="256" cy="173.182" gradientUnits="userSpaceOnUse" r="340.563"><stop offset="0" stop-color="#00aa45"/><stop offset=".1507" stop-color="#2ab94f" stop-opacity=".849"/><stop offset=".4596" stop-color="#79d664" stop-opacity=".54"/><stop offset=".7139" stop-color="#b4ec72" stop-opacity=".286"/><stop offset=".9007" stop-color="#d8f97c" stop-opacity=".099"/><stop offset="1" stop-color="#e6fe7f" stop-opacity="0"/></radialGradient><linearGradient id="lg1"><stop offset="0" stop-color="#008547"/><stop offset=".1212" stop-color="#128f45"/><stop offset=".3647" stop-color="#41aa41"/><stop offset=".7046" stop-color="#8cd63a"/><stop offset="1" stop-color="#d3ff33"/></linearGradient><linearGradient id="SVGID_3_" gradientUnits="userSpaceOnUse" x1="332.014" x2="815.197" xlink:href="#lg1" y1="411.065" y2="-72.117"/><linearGradient id="SVGID_4_" gradientUnits="userSpaceOnUse" x1="252.415" x2="732.773" xlink:href="#lg1" y1="476.206" y2="-4.152"/><linearGradient id="lg2"><stop offset="0" stop-color="#d3ff33"/><stop offset="1" stop-color="#fff"/></linearGradient><linearGradient id="SVGID_5_" gradientUnits="userSpaceOnUse" x1="-223.648" x2="474.491" xlink:href="#lg2" y1="812.259" y2="114.12"/><linearGradient id="SVGID_6_" gradientUnits="userSpaceOnUse" x1="-726.748" x2="316.142" xlink:href="#lg2" y1="1281.764" y2="238.873"/><linearGradient id="lg3"><stop offset="0" stop-color="#5ccd38"/><stop offset="1" stop-color="#d3ff33"/></linearGradient><linearGradient id="SVGID_7_" gradientUnits="userSpaceOnUse" x1="223.099" x2="261.757" xlink:href="#lg3" y1="375.39" y2="336.733"/><linearGradient id="SVGID_8_" gradientUnits="userSpaceOnUse" x1="162.691" x2="200.798" xlink:href="#lg3" y1="374.603" y2="336.496"/><linearGradient id="SVGID_9_" gradientUnits="userSpaceOnUse" x1="106.568" x2="155.279" xlink:href="#lg3" y1="368.815" y2="320.104"/><linearGradient id="SVGID_10_" gradientUnits="userSpaceOnUse" x1="283.557" x2="322.659" xlink:href="#lg3" y1="375.416" y2="336.314"/><linearGradient id="SVGID_11_" gradientUnits="userSpaceOnUse" x1="-223.237" x2="360.572" xlink:href="#lg2" y1="652.349" y2="68.539"/><linearGradient id="lg4"><stop offset="0" stop-color="#5ccd38"/><stop offset=".5" stop-color="#95e12e"/><stop offset="1" stop-color="#ddff59"/></linearGradient><linearGradient id="SVGID_12_" gradientUnits="userSpaceOnUse" x1="108.207" x2="260.111" xlink:href="#lg4" y1="256.615" y2="104.711"/><linearGradient id="SVGID_13_" gradientUnits="userSpaceOnUse" x1="96.91" x2="250.662" xlink:href="#lg4" y1="328.34" y2="174.589"/><linearGradient id="SVGID_14_" gradientUnits="userSpaceOnUse" x1="157.896" x2="292.963" xlink:href="#lg4" y1="325.589" y2="190.522"/><linearGradient id="SVGID_15_" gradientUnits="userSpaceOnUse" x1="177.687" x2="350.214" xlink:href="#lg4" y1="319.145" y2="146.618"/><linearGradient id="SVGID_16_" gradientUnits="userSpaceOnUse" x1="204.895" x2="341.211" xlink:href="#lg4" y1="231.228" y2="94.912"/><linearGradient id="SVGID_17_" gradientUnits="userSpaceOnUse" x1="125.117" x2="300.715" xlink:href="#lg4" y1="248.18" y2="72.582"/><linearGradient id="SVGID_18_" gradientUnits="userSpaceOnUse" x1="194.306" x2="375.299" xlink:href="#lg1" y1="234.042" y2="53.049"/><radialGradient id="SVGID_19_" cx="256" cy="172.188" gradientUnits="userSpaceOnUse" r="66.617"><stop offset="0" stop-color="#00aa45" stop-opacity="0"/><stop offset="1" stop-color="#008547"/></radialGradient><g><circle cx="256" cy="256" fill="url(#SVGID_1_)" r="256"/><circle cx="256" cy="256" fill="url(#SVGID_2_)" r="256"/><path d="m301.508 357.512c15.026 15.218 29.881 30.322 44.492 45.241 25-.602 50-1.456 75-2.56 8.277-.371 15.347-7.415 15.745-15.693.474-10 .903-20 1.287-30-45.508 1.606-91.017 2.61-136.524 3.012z" fill="url(#SVGID_3_)"/><path d="m424.169 309.834c-25.48.532-50.96.942-76.44 1.232-15.476 15.455-30.908 30.961-46.221 46.446 15.121 4.983 30.192 9.884 45.203 14.679 25.197-.498 50.395-1.204 75.592-2.118 8.343-.307 15.405-7.297 15.729-15.573.384-10 .724-20 1.018-30 .249-8.277-6.436-14.837-14.881-14.666z" fill="url(#SVGID_4_)"/><path d="m73.968 354.5c.384 10 .813 20 1.287 30 .399 8.277 7.468 15.32 15.745 15.693 85 3.755 170 4.609 255 2.56.259-10.188.496-20.375.711-30.563-90.604-3.299-181.534-9.477-272.743-17.69z" fill="url(#SVGID_5_)"/><path d="m87.83 309.834c-8.445-.17-15.128 6.389-14.88 14.667.294 10 .634 20 1.018 30 .323 8.277 7.386 15.265 15.728 15.573 85.671 3.106 171.343 3.812 257.014 2.118.429-20.375.768-40.75 1.018-61.125-86.632.984-173.265.574-259.898-1.233z" fill="url(#SVGID_6_)"/><path d="m225.661 357.623c.06 8.484 6.877 15.412 15.22 15.439 8.344.028 15.112-6.859 15.119-15.35.005-8.491-6.808-15.373-15.215-15.395-8.408-.019-15.182 6.821-15.124 15.306z" fill="url(#SVGID_7_)"/><path d="m164.984 356.909c.163 8.436 7.081 15.416 15.423 15.555 8.343.141 15.016-6.639 14.915-15.109-.101-8.471-6.99-15.404-15.395-15.511-8.405-.104-15.108 6.629-14.943 15.065z" fill="url(#SVGID_8_)"/><path d="m104.307 355.482c.27 8.342 7.284 15.335 15.627 15.588 8.345.252 14.919-6.382 14.712-14.785-.207-8.404-7.168-15.351-15.576-15.543-8.407-.191-15.034 6.397-14.763 14.74z" fill="url(#SVGID_9_)"/><path d="m286.338 357.623c-.047 8.486 6.671 15.324 15.017 15.24 8.344-.084 15.211-7.042 15.322-15.508s-6.628-15.259-15.034-15.195c-8.408.065-15.256 6.977-15.305 15.463z" fill="url(#SVGID_10_)"/><path d="m379.748 172.781c.67 67.431-55.727 123.266-123.748 123.432-68.022-.166-124.417-56.001-123.748-123.432 1.005-67.41 57.4-124.471 123.748-124.618 66.348.146 122.743 57.208 123.748 124.618z" fill="url(#SVGID_11_)"/><path d="m256 176.255c0-17.933 0-35.866 0-53.799-16.571-9.647-33.065-19.232-49.449-28.703-25.741 16.812-43.353 45.946-43.617 78.769-.011 1.355.016 2.702.063 4.042 31-.205 62.001-.309 93.003-.309z" fill="url(#SVGID_12_)"/><path d="m213.137 147.427c-16.675 9.712-33.399 19.443-50.141 29.138 1.209 33.997 21.249 63.304 49.963 78.336 14.347.025 28.694.038 43.04.038-14.346-35.872-28.762-71.757-42.862-107.512z" fill="url(#SVGID_13_)"/><path d="m256 172.188c-14.324 8.288-28.677 16.601-43.04 24.904-.037 19.27-.037 38.54 0 57.81 12.889 6.734 27.523 10.563 43.04 10.562 18.426.001 35.614-5.392 50.104-14.648.05-26.177.021-52.353-.088-78.53-16.672-.066-33.344-.098-50.016-.098z" fill="url(#SVGID_14_)"/><path d="m256 221.919c16.709 9.647 33.421 19.296 50.104 28.896 25.967-16.608 43.236-45.463 42.963-78.292-.011-1.355-.057-2.702-.126-4.043-27.816-.216-55.632-.335-83.448-.356-3.149 17.929-6.321 35.862-9.493 53.795z" fill="url(#SVGID_15_)"/><path d="m299.04 197.091c16.675-9.602 33.319-19.156 49.9-28.611-1.769-34.012-22.095-63.639-50.492-78.863-11.023-.094-22.045-.152-33.068-.172 11.095 35.891 22.415 71.802 33.66 107.646z" fill="url(#SVGID_16_)"/><path d="m298.449 89.617c-12.762-6.82-27.173-10.706-42.449-10.705-18.138-.002-35.069 5.475-49.449 14.842 16.384 9.471 32.878 19.056 49.449 28.703v24.865c14.287 0 28.575.035 42.863.104-.102-19.269-.239-38.539-.414-57.809z" fill="url(#SVGID_17_)"/><path d="m298.862 147.427c-14.331-8.347-28.625-16.681-42.863-24.97-14.237 8.289-28.532 16.623-42.863 24.97-.086 16.555-.146 33.11-.178 49.665 14.331 8.252 28.684 16.538 43.04 24.827 14.356-8.289 28.709-16.575 43.04-24.827-.03-16.555-.089-33.11-.176-49.665z" fill="url(#SVGID_18_)"/><path d="m298.862 147.427c-14.331-8.347-28.625-16.681-42.863-24.97-14.237 8.289-28.532 16.623-42.863 24.97-.086 16.555-.146 33.11-.178 49.665 14.331 8.252 28.684 16.538 43.04 24.827 14.356-8.289 28.709-16.575 43.04-24.827-.03-16.555-.089-33.11-.176-49.665z" fill="url(#SVGID_19_)"/></g></svg>