<svg id="Capa_1" enable-background="new 0 0 510 510" height="512" viewBox="0 0 510 510" width="512" xmlns="http://www.w3.org/2000/svg" xmlns:xlink="http://www.w3.org/1999/xlink"><linearGradient id="lg1"><stop offset="0" stop-color="#0b799d"/><stop offset="1" stop-color="#07485e"/></linearGradient><linearGradient id="SVGID_1_" gradientUnits="userSpaceOnUse" x1="227.815" x2="287.676" xlink:href="#lg1" y1="414.659" y2="489.204"/><linearGradient id="lg2"><stop offset="0" stop-color="#07485e" stop-opacity="0"/><stop offset="1" stop-color="#03232e"/></linearGradient><linearGradient id="SVGID_2_" gradientUnits="userSpaceOnUse" x1="300.771" x2="241.438" xlink:href="#lg2" y1="491.168" y2="345.835"/><linearGradient id="SVGID_3_" gradientUnits="userSpaceOnUse" x1="150.372" x2="492.466" xlink:href="#lg1" y1="134.312" y2="476.406"/><linearGradient id="SVGID_4_" gradientUnits="userSpaceOnUse" x1="429.165" x2="24.811" xlink:href="#lg1" y1="413.106" y2="8.751"/><linearGradient id="SVGID_5_" gradientUnits="userSpaceOnUse" x1="424.994" x2="263.994" xlink:href="#lg2" y1="277.749" y2="122.749"/><linearGradient id="SVGID_6_" gradientUnits="userSpaceOnUse" x1="143.565" x2="366.61" y1="127.506" y2="350.55"><stop offset="0" stop-color="#edf5ff"/><stop offset="1" stop-color="#d5e8fe"/></linearGradient><linearGradient id="SVGID_7_" gradientUnits="userSpaceOnUse" x1="269.837" x2="236.07" xlink:href="#lg1" y1="96.679" y2="62.912"/><linearGradient id="SVGID_8_" gradientTransform="matrix(-1 0 0 -1 510 2368)" gradientUnits="userSpaceOnUse" x1="264.312" x2="243.12" xlink:href="#lg1" y1="2295.469" y2="2274.277"/><linearGradient id="SVGID_9_" gradientUnits="userSpaceOnUse" x1="244.984" x2="281.79" xlink:href="#lg1" y1="468.986" y2="570.203"/><linearGradient id="SVGID_10_" gradientUnits="userSpaceOnUse" x1="50.726" x2="75.204" y1="396.123" y2="420.601"><stop offset="0" stop-color="#b9dd39"/><stop offset="1" stop-color="#0b799d"/></linearGradient><linearGradient id="lg3"><stop offset="0" stop-color="#b5dbff" stop-opacity="0"/><stop offset=".1734" stop-color="#8fc5e9" stop-opacity=".173"/><stop offset=".4541" stop-color="#56a4c8" stop-opacity=".454"/><stop offset=".6955" stop-color="#2d8db1" stop-opacity=".696"/><stop offset=".8853" stop-color="#147ea2" stop-opacity=".885"/><stop offset="1" stop-color="#0b799d"/></linearGradient><linearGradient id="SVGID_11_" gradientUnits="userSpaceOnUse" x1="432.945" x2="243.552" xlink:href="#lg3" y1="318.489" y2="141.058"/><linearGradient id="SVGID_12_" gradientUnits="userSpaceOnUse" x1="122.377" x2="395.362" y1="17.096" y2="290.081"><stop offset="0" stop-color="#76e2f8"/><stop offset="1" stop-color="#48b2e3"/></linearGradient><linearGradient id="SVGID_13_" gradientUnits="userSpaceOnUse" x1="433.127" x2="191.592" y1="332.191" y2="90.656"><stop offset="0" stop-color="#b5dbff" stop-opacity="0"/><stop offset=".2428" stop-color="#93cef6" stop-opacity=".243"/><stop offset=".5763" stop-color="#6abfec" stop-opacity=".576"/><stop offset=".8403" stop-color="#51b5e5" stop-opacity=".84"/><stop offset="1" stop-color="#48b2e3"/></linearGradient><linearGradient id="SVGID_14_" gradientUnits="userSpaceOnUse" x1="170.721" x2="244.563" y1="72.919" y2="146.76"><stop offset="0" stop-color="#ff637b"/><stop offset="1" stop-color="#e63950"/></linearGradient><linearGradient id="SVGID_15_" gradientUnits="userSpaceOnUse" x1="238.062" x2="295.431" y1="132.438" y2="189.808"><stop offset="0" stop-color="#b9dd39"/><stop offset="1" stop-color="#90cc1c"/></linearGradient><linearGradient id="SVGID_16_" gradientUnits="userSpaceOnUse" x1="223.57" x2="284.189" y1="181.006" y2="241.625"><stop offset="0" stop-color="#48b2e3"/><stop offset="1" stop-color="#0095ff"/></linearGradient><linearGradient id="SVGID_17_" gradientUnits="userSpaceOnUse" x1="272.118" x2="313.12" y1="218.733" y2="259.735"><stop offset="0" stop-color="#ffda2d"/><stop offset="1" stop-color="#fdbf00"/></linearGradient><linearGradient id="SVGID_18_" gradientUnits="userSpaceOnUse" x1="287.899" x2="69.922" xlink:href="#lg3" y1="187.16" y2="82.531"/><g><g><path d="m361.923 468.263c-35.869-11.594-60.172-44.991-60.172-82.686v-31.745h-93.501v31.745c0 37.696-24.303 71.093-60.172 82.686z" fill="url(#SVGID_1_)"/><path d="m361.922 468.263c-35.868-11.594-60.172-44.991-60.172-82.686v-31.745h-93.501v31.745c0 12.077-2.506 23.707-7.076 34.326l.005.01 48.35 48.35z" fill="url(#SVGID_2_)"/><g><g><g><path d="m477.622 419.913h-445.244c-17.882 0-32.378-14.496-32.378-32.378v-297.189c0-17.882 14.496-32.378 32.378-32.378h445.244c17.882 0 32.378 14.496 32.378 32.378v297.189c0 17.882-14.496 32.378-32.378 32.378z" fill="url(#SVGID_3_)"/><path d="m460.059 396.038h-410.117c-14.216 0-25.74-11.524-25.74-25.74v-262.716c0-14.216 11.524-25.74 25.74-25.74h410.117c14.216 0 25.74 11.524 25.74 25.74v262.716c-.001 14.216-11.525 25.74-25.74 25.74z" fill="url(#SVGID_4_)"/><path d="m510 90.35v297.18c0 17.89-14.5 32.38-32.38 32.38h-198.93l-103.26-103.27c-50.08-48.33-78.72-115.18-78.72-185.4v-60.45c0-4.76 1.48-9.18 4.01-12.82h376.9c17.88 0 32.38 14.49 32.38 32.38z" fill="url(#SVGID_5_)"/><path d="m447.416 380.522h-384.832c-13.057 0-23.642-10.585-23.642-23.642v-235.879c0-13.057 10.585-23.642 23.642-23.642h384.831c13.057 0 23.642 10.585 23.642 23.642v235.879c.001 13.057-10.584 23.642-23.641 23.642z" fill="url(#SVGID_6_)"/><circle cx="255" cy="81.842" fill="url(#SVGID_7_)" r="9.891"/><circle cx="255" cy="81.842" fill="url(#SVGID_8_)" r="6.208"/></g></g></g><path d="m402.987 510h-295.974c-6.223 0-11.267-5.044-11.267-11.267 0-19.975 16.193-36.168 36.168-36.168h246.172c19.975 0 36.168 16.193 36.168 36.168 0 6.223-5.044 11.267-11.267 11.267z" fill="url(#SVGID_9_)"/><path d="m59.888 412.915h-7.347c-4.214 0-7.629-3.416-7.629-7.629v-7.347c0-4.214 3.416-7.629 7.629-7.629h7.347c4.214 0 7.629 3.416 7.629 7.629v7.347c0 4.213-3.415 7.629-7.629 7.629z" fill="url(#SVGID_10_)"/></g><path d="m447.416 97.358h-348.705v33.882c0 70.22 26.639 137.07 76.719 185.4l63.876 63.882h208.11c13.057 0 23.642-10.585 23.642-23.642v-235.88c0-13.057-10.585-23.642-23.642-23.642z" fill="url(#SVGID_11_)"/><g><path d="m390.735 48.24c-39.89 0-78.562-13.744-109.505-38.918-15.278-12.43-37.182-12.43-52.461 0-30.942 25.175-69.614 38.918-109.504 38.918-12.456 0-22.554 10.098-22.554 22.554v60.447c0 77.544 34.918 150.966 95.069 199.904l18.565 15.104c26.009 21.16 63.299 21.16 89.308 0l18.565-15.104c60.152-48.937 95.069-122.363 95.069-199.907 0-23.207 0-45.016 0-60.449.002-12.456-10.096-22.549-22.552-22.549z" fill="url(#SVGID_12_)"/><path d="m255 342.219c-4.349 0-8.601-1.511-11.975-4.256l-35.508-28.888c-25.936-21.101-47.235-48.214-61.595-78.409s-21.95-63.827-21.95-97.262v-47.969c0-5.803 4.745-10.738 10.539-11.044 39.518-2.09 77.723-16.744 108.514-41.794 3.374-2.745 7.627-4.256 11.975-4.256 4.349 0 8.601 1.511 11.974 4.256 30.791 25.051 68.997 39.705 108.516 41.795 5.794.306 10.538 5.24 10.538 11.042v47.967c0 33.435-7.59 67.069-21.95 97.264s-35.659 57.309-61.594 78.41l-35.509 28.888c-3.374 2.745-7.626 4.256-11.975 4.256z" fill="url(#SVGID_13_)"/><g><path d="m255 322.976c-3.982 0-7.876-1.384-10.964-3.897l-32.512-26.451c-23.747-19.32-43.249-44.146-56.397-71.792-5.902-12.41-12.113-29.007-13.891-32.833-4.096-16.424-6.207-33.351-6.207-50.222v-43.92c0-5.313 4.344-9.831 9.65-10.112 36.184-1.914 71.165-15.331 99.357-38.267 3.089-2.513 6.983-3.897 10.965-3.897s7.875 3.384 10.964 5.896c28.193 22.937 56.175 34.355 92.359 36.268 5.305.281 9.649 4.798 9.649 10.11v43.92c0 30.614-6.95 61.409-20.098 89.056s-32.65 52.473-56.397 71.793c-.001 0-32.496 24.348-36.478 24.348z" fill="url(#SVGID_14_)"/><path d="m265.964 325.079 32.512-26.451c23.747-19.32 43.249-44.146 56.397-71.793s20.098-58.442 20.098-89.056v-43.92c0-5.312-4.344-9.83-9.649-10.11-36.184-1.913-71.166-15.331-99.359-38.268-3.089-2.513-6.982-3.896-10.964-3.896v287.391c3.983 0 7.876-1.384 10.965-3.897z" fill="url(#SVGID_15_)"/><path d="m361.75 188c-3.33 13.38-7.97 26.42-13.88 38.84-13.14 27.64-32.65 52.47-56.39 71.79l-32.52 26.45c-3.08 2.51.02 3.9-3.96 3.9s-7.88-1.39-10.96-3.9l-32.52-26.45c-23.74-19.32-43.25-44.15-56.39-71.79-5.91-12.41-10.55-25.46-13.88-38.84z" fill="url(#SVGID_16_)"/><path d="m368.75 188c-3.33 13.38-7.97 26.42-13.88 38.84-13.14 27.64-32.65 52.47-56.39 71.79l-32.52 26.45c-3.08 2.51-6.98 3.9-10.96 3.9v-140.98z" fill="url(#SVGID_17_)"/></g><path d="m413.289 70.789c0-12.456-10.098-22.548-22.554-22.548-39.89 0-78.562-13.744-109.504-38.918-7.64-6.215-16.935-9.323-26.231-9.323v362.119c15.825 0 31.65-5.29 44.654-15.87l18.565-15.104c60.152-48.937 95.069-122.363 95.069-199.907.001-23.207.001-45.016.001-60.449z" fill="url(#SVGID_18_)"/></g></g></svg>