<svg id="Capa_1" enable-background="new 0 0 512 512" height="512" viewBox="0 0 512 512" width="512" xmlns="http://www.w3.org/2000/svg" xmlns:xlink="http://www.w3.org/1999/xlink"><radialGradient id="SVGID_1_" cx="68.988" cy="51.786" gradientTransform="matrix(.707 -.707 .655 .655 -13.7 66.662)" gradientUnits="userSpaceOnUse" r="327.523"><stop offset="0" stop-color="#dfdde2"/><stop offset=".6376" stop-color="#756e78"/><stop offset=".7682" stop-color="#716b74"/><stop offset=".8863" stop-color="#666069"/><stop offset=".9995" stop-color="#544f57"/><stop offset="1" stop-color="#544f57"/></radialGradient><radialGradient id="SVGID_2_" cx="-22.184" cy="239.017" gradientTransform="matrix(1 0 0 .66 0 81.201)" gradientUnits="userSpaceOnUse" r="401.906"><stop offset="0" stop-color="#756e78"/><stop offset=".1679" stop-color="#6f6872"/><stop offset=".3924" stop-color="#5e5861"/><stop offset=".4937" stop-color="#544f57"/><stop offset="1" stop-color="#454045"/></radialGradient><linearGradient id="lg1"><stop offset="0" stop-color="#8b818e"/><stop offset=".5622" stop-color="#665e66"/><stop offset=".7097" stop-color="#615961"/><stop offset=".895" stop-color="#514b51"/><stop offset="1" stop-color="#454045"/></linearGradient><radialGradient id="SVGID_3_" cx="322.559" cy="269.825" gradientUnits="userSpaceOnUse" r="398.444" xlink:href="#lg1"/><radialGradient id="SVGID_4_" cx="309.89" cy="248.823" gradientUnits="userSpaceOnUse" r="231.357"><stop offset=".0132" stop-color="#fff"/><stop offset=".0322" stop-color="#fefeff"/><stop offset=".5523" stop-color="#f1f1f4"/><stop offset=".9638" stop-color="#c6c1c8"/></radialGradient><radialGradient id="SVGID_5_" cx="332.122" cy="360.103" gradientUnits="userSpaceOnUse" r="295.703"><stop offset=".0541" stop-color="#a298a5"/><stop offset=".3005" stop-color="#827983"/><stop offset=".4937" stop-color="#665e66"/><stop offset="1" stop-color="#454045"/></radialGradient><radialGradient id="SVGID_6_" cx="212.991" cy="201.344" gradientTransform="matrix(.707 -.707 .488 .488 -35.795 253.773)" gradientUnits="userSpaceOnUse" r="160.647"><stop offset=".0132" stop-color="#fbe2dd"/><stop offset=".6064" stop-color="#eab1b7"/><stop offset=".717" stop-color="#e9adb3"/><stop offset=".8319" stop-color="#e7a0a6"/><stop offset=".9484" stop-color="#e48c92"/><stop offset="1" stop-color="#e28086"/></radialGradient><radialGradient id="SVGID_7_" cx="190.752" cy="231.559" gradientTransform="matrix(.707 -.707 .488 .488 -57.042 253.528)" gradientUnits="userSpaceOnUse" r="200.013"><stop offset="0" stop-color="#dfdde2"/><stop offset=".525" stop-color="#756e78"/><stop offset=".7367" stop-color="#69636c"/><stop offset="1" stop-color="#544f57"/></radialGradient><radialGradient id="SVGID_8_" cx="283.314" cy="281.067" gradientTransform="matrix(.707 -.707 .488 .488 -54.072 344.347)" gradientUnits="userSpaceOnUse" r="204.83"><stop offset=".0544" stop-color="#e4989d"/><stop offset=".5398" stop-color="#da4a54"/><stop offset=".8375" stop-color="#bc393d"/><stop offset=".9823" stop-color="#ac3030"/></radialGradient><radialGradient id="SVGID_9_" cx="283.314" cy="281.067" gradientTransform="matrix(.707 -.707 .488 .488 -54.072 344.347)" gradientUnits="userSpaceOnUse" r="204.83" xlink:href="#lg1"/><radialGradient id="SVGID_10_" cx="430.73" cy="1479.261" gradientTransform="matrix(.931 0 0 .112 -147.994 311.003)" gradientUnits="userSpaceOnUse" r="230.347"><stop offset="0" stop-color="#a298a5"/><stop offset=".0433" stop-color="#aaa1ad"/><stop offset=".3492" stop-color="#dddae0"/><stop offset=".4962" stop-color="#f1f1f4"/><stop offset=".888" stop-color="#fff"/></radialGradient><g><path d="m278.286 8.595h-44.571c-129.078 0-233.715 104.638-233.715 233.715l90.05 25.619z" fill="url(#SVGID_1_)"/><path d="m73.359 242.31h-73.359c0 129.077 104.637 233.714 233.714 233.714h44.571z" fill="url(#SVGID_2_)"/><circle cx="278.286" cy="242.31" fill="url(#SVGID_3_)" r="233.714"/><path d="m431.741 242.31c0 99.704-96.185 178.539-153.455 178.539-8.397 0-16.661 1.418-24.754.308-87.992-12.066-155.777-87.541-155.777-178.847s67.785-166.782 155.777-178.848c8.093-1.11 18.461 1.642 26.858 1.642 66.464.001 151.351 77.501 151.351 177.206z" fill="url(#SVGID_4_)"/><path d="m278.286 61.779c-8.398 0-16.661.574-24.753 1.684 87.992 12.066 155.777 87.54 155.777 178.847s-67.786 166.78-155.778 178.846c8.093 1.11 16.356 1.684 24.753 1.684 99.704 0 180.531-80.826 180.531-180.53s-80.826-180.531-180.53-180.531z" fill="url(#SVGID_5_)"/><path d="m334.993 145.169-137.991 56.451 28.771 6.59 136.196-63.041z" fill="url(#SVGID_6_)"/><path d="m140.551 339.611h26.976l66.957-137.991h-37.482z" fill="url(#SVGID_7_)"/><path d="m223.977 201.62 29.555 45.816 51.986 35.724 56.451-137.991z" fill="url(#SVGID_8_)"/><path d="m167.527 339.611 137.991-56.451-81.541-81.54z" fill="url(#SVGID_9_)"/><path d="m256 503.405c123.428 0 223.487-12.259 223.487-27.381h-446.974c0 15.122 100.059 27.381 223.487 27.381z" fill="url(#SVGID_10_)"/></g></svg>