<svg id="Capa_1" enable-background="new 0 0 510 510" height="512" viewBox="0 0 510 510" width="512" xmlns="http://www.w3.org/2000/svg" xmlns:xlink="http://www.w3.org/1999/xlink"><linearGradient id="lg1"><stop offset="0" stop-color="#76e2f8"/><stop offset="1" stop-color="#48b2e3"/></linearGradient><linearGradient id="SVGID_1_" gradientUnits="userSpaceOnUse" x1="0" x2="136.595" xlink:href="#lg1" y1="68.298" y2="68.298"/><linearGradient id="SVGID_2_" gradientUnits="userSpaceOnUse" x1="373.405" x2="510" xlink:href="#lg1" y1="68.298" y2="68.298"/><linearGradient id="SVGID_3_" gradientUnits="userSpaceOnUse" x1="0" x2="136.595" xlink:href="#lg1" y1="441.703" y2="441.703"/><linearGradient id="SVGID_4_" gradientUnits="userSpaceOnUse" x1="373.405" x2="510" xlink:href="#lg1" y1="441.703" y2="441.703"/><linearGradient id="lg2"><stop offset="0" stop-color="#b5dbff" stop-opacity="0"/><stop offset=".1734" stop-color="#8fc5e9" stop-opacity=".173"/><stop offset=".4541" stop-color="#56a4c8" stop-opacity=".454"/><stop offset=".6955" stop-color="#2d8db1" stop-opacity=".696"/><stop offset=".8853" stop-color="#147ea2" stop-opacity=".885"/><stop offset="1" stop-color="#0b799d"/></linearGradient><linearGradient id="SVGID_5_" gradientUnits="userSpaceOnUse" x1="110.785" x2="-18.692" xlink:href="#lg2" y1="110.785" y2="-18.692"/><linearGradient id="SVGID_6_" gradientUnits="userSpaceOnUse" x1="405.555" x2="499.843" xlink:href="#lg2" y1="104.445" y2="10.157"/><linearGradient id="SVGID_7_" gradientUnits="userSpaceOnUse" x1="100.219" x2="8.205" xlink:href="#lg2" y1="409.781" y2="501.795"/><linearGradient id="SVGID_8_" gradientUnits="userSpaceOnUse" x1="417.705" x2="513.05" xlink:href="#lg2" y1="417.705" y2="513.05"/><linearGradient id="lg3"><stop offset="0" stop-color="#0b799d"/><stop offset="1" stop-color="#07485e"/></linearGradient><linearGradient id="SVGID_9_" gradientUnits="userSpaceOnUse" x1="403.804" x2="446.255" xlink:href="#lg3" y1="366.405" y2="366.405"/><linearGradient id="SVGID_10_" gradientUnits="userSpaceOnUse" x1="133.596" x2="446.435" xlink:href="#lg3" y1="179.253" y2="179.253"/><linearGradient id="SVGID_11_" gradientUnits="userSpaceOnUse" x1="63.565" x2="134.305" xlink:href="#lg3" y1="261.301" y2="261.301"/><linearGradient id="SVGID_12_" gradientUnits="userSpaceOnUse" x1="346.635" x2="389.141" xlink:href="#lg3" y1="317.994" y2="317.994"/><linearGradient id="SVGID_13_" gradientUnits="userSpaceOnUse" x1="120.859" x2="366.888" xlink:href="#lg3" y1="263.52" y2="263.52"/><linearGradient id="SVGID_14_" gradientUnits="userSpaceOnUse" x1="181.363" x2="328.64" xlink:href="#lg3" y1="298.318" y2="298.318"/><linearGradient id="SVGID_15_" gradientUnits="userSpaceOnUse" x1="181.388" x2="223.735" xlink:href="#lg3" y1="383.31" y2="383.31"/><linearGradient id="SVGID_16_" gradientUnits="userSpaceOnUse" x1="233.87" x2="276.131" xlink:href="#lg3" y1="405.555" y2="405.555"/><linearGradient id="SVGID_17_" gradientUnits="userSpaceOnUse" x1="233.87" x2="276.131" xlink:href="#lg3" y1="298.494" y2="298.494"/><g><g><path d="m25.384 136.591c-13.959.264-25.384-11.498-25.384-25.459v-86.23c0-13.753 11.149-24.902 24.902-24.902h86.23c13.961 0 25.723 11.425 25.459 25.384-.257 13.531-11.305 24.421-24.898 24.421h-43.169c-10.338 0-18.719 8.381-18.719 18.719v43.169c0 13.592-10.89 24.641-24.421 24.898z" fill="url(#SVGID_1_)"/><path d="m373.409 25.384c-.264-13.959 11.498-25.384 25.459-25.384h86.23c13.753 0 24.902 11.149 24.902 24.902v86.23c0 13.961-11.425 25.723-25.384 25.459-13.531-.257-24.421-11.305-24.421-24.898v-43.169c0-10.338-8.381-18.719-18.719-18.719h-43.169c-13.592 0-24.641-10.89-24.898-24.421z" fill="url(#SVGID_2_)"/><path d="m25.384 373.409c-13.959-.264-25.384 11.498-25.384 25.459v86.23c0 13.753 11.149 24.902 24.902 24.902h86.23c13.961 0 25.723-11.425 25.459-25.384-.257-13.531-11.305-24.421-24.898-24.421h-43.169c-10.338 0-18.719-8.381-18.719-18.719v-43.169c0-13.592-10.89-24.641-24.421-24.898z" fill="url(#SVGID_3_)"/><path d="m373.409 484.616c-.264 13.959 11.498 25.384 25.459 25.384h86.23c13.753 0 24.902-11.149 24.902-24.902v-86.23c0-13.961-11.425-25.723-25.384-25.459-13.531.257-24.421 11.305-24.421 24.898v43.169c0 10.338-8.381 18.719-18.719 18.719h-43.169c-13.592 0-24.641 10.89-24.898 24.421z" fill="url(#SVGID_4_)"/></g><g><path d="m136.519 26.766c-3.394-2.036-7.352-3.229-11.598-3.229h-78.78c-12.484 0-22.604 10.12-22.604 22.604v78.779c0 4.246 1.192 8.204 3.229 11.598 12.882-.954 23.039-11.7 23.039-24.826v-43.168c0-10.338 8.381-18.719 18.719-18.719h43.169c13.125 0 23.871-10.157 24.826-23.039z" fill="url(#SVGID_5_)"/><path d="m463.859 23.537h-78.779c-4.246 0-8.204 1.192-11.598 3.229.954 12.882 11.7 23.039 24.826 23.039h43.169c10.338 0 18.719 8.381 18.719 18.719v43.169c0 13.126 10.157 23.871 23.039 24.826 2.036-3.394 3.229-7.352 3.229-11.598v-78.78c-.001-12.484-10.121-22.604-22.605-22.604z" fill="url(#SVGID_6_)"/><path d="m136.519 483.234c-.954-12.882-11.7-23.039-24.826-23.039h-43.169c-10.338 0-18.719-8.381-18.719-18.719v-43.169c0-13.126-10.157-23.871-23.039-24.826-2.036 3.394-3.229 7.352-3.229 11.598v78.779c0 12.484 10.12 22.604 22.604 22.604h78.779c4.247.001 8.205-1.192 11.599-3.228z" fill="url(#SVGID_7_)"/><path d="m460.195 398.307v43.169c0 10.338-8.381 18.719-18.719 18.719h-43.169c-13.126 0-23.871 10.157-24.826 23.039 3.394 2.036 7.352 3.229 11.598 3.229h78.78c12.484 0 22.604-10.12 22.604-22.604v-78.78c0-4.246-1.192-8.204-3.229-11.598-12.882.955-23.039 11.701-23.039 24.826z" fill="url(#SVGID_8_)"/></g><g><g><path d="m424.938 407.139c-.042 0-.083 0-.125-.001-11.67-.067-21.076-9.582-21.009-21.252 0-.008.095-16.469.189-39.173.048-11.64 9.499-21.043 21.128-21.043h.09c11.669.048 21.091 9.548 21.043 21.218-.094 22.749-.189 39.242-.189 39.242-.066 11.629-9.515 21.009-21.127 21.009z" fill="url(#SVGID_9_)"/><path d="m425.289 313.111c-.011 0-.023 0-.034 0-11.67-.018-21.116-9.493-21.097-21.163.077-49.61-.142-66.97-.34-72.796-2.506-73.584-67.205-131.344-147.292-131.494-1.017-.002-2.032-.002-3.048 0-31.533.059-61.592 9.127-86.93 26.225-9.672 6.528-22.807 3.977-29.335-5.696-6.527-9.674-3.977-22.808 5.696-29.335 32.324-21.811 70.529-33.38 110.487-33.454 1.069-.003 2.141-.003 3.21 0 49.305.092 95.991 17.802 131.457 49.867 35.809 32.376 56.404 75.863 57.991 122.451.305 8.975.428 33.972.365 74.299-.019 11.657-9.476 21.095-21.13 21.096z" fill="url(#SVGID_10_)"/><path d="m85.063 407.139c-11.613 0-21.06-9.379-21.127-21.008-.034-5.864-.823-143.902.012-168.418 1.139-33.428 12.219-65.732 32.045-93.421 6.794-9.489 19.993-11.674 29.482-4.879 9.489 6.794 11.673 19.993 4.879 29.482-14.958 20.89-23.316 45.184-24.17 70.256-.806 23.682.004 165.307.012 166.735.068 11.67-9.337 21.185-21.008 21.252-.042.001-.084.001-.125.001z" fill="url(#SVGID_11_)"/></g><g><path d="m367.767 428.344c-.026 0-.05 0-.074 0-11.67-.04-21.099-9.533-21.058-21.203.19-55.544.437-164.165.01-177.702-.367-11.664 8.791-21.418 20.455-21.786 11.623-.378 21.417 8.79 21.786 20.455.556 17.649.033 172.59.01 179.177-.04 11.646-9.493 21.059-21.129 21.059z" fill="url(#SVGID_12_)"/><path d="m142.233 428.344c-11.637 0-21.089-9.412-21.129-21.058-.023-6.587-.546-161.528.01-179.177 1.095-34.757 15.38-67.268 40.224-91.544 24.919-24.35 57.798-37.799 92.58-37.869h2.167c41.819.085 81.693 20.28 106.657 54.021 6.941 9.382 4.963 22.614-4.419 29.555-9.383 6.94-22.613 4.963-29.555-4.419-17.305-23.39-43.829-36.838-72.773-36.896h-1.987c-49.276.1-89.094 38.966-90.654 88.483-.427 13.537-.18 122.158.01 177.702.04 11.67-9.388 21.162-21.058 21.203-.023-.001-.049-.001-.073-.001z" fill="url(#SVGID_13_)"/></g><g><path d="m307.397 440.948c-.011 0-.022 0-.033 0-11.67-.018-21.116-9.492-21.098-21.162.071-47.171.21-171.357.007-179.42-.591-23.348-14.428-42.376-30.843-42.418h-.843c-16.431.041-30.267 19.07-30.858 42.418-.033 1.289-.089 7.652-.104 35.775-.006 11.666-9.466 21.12-21.13 21.12-.005 0-.007 0-.011 0-11.67-.006-21.125-9.471-21.12-21.141.015-29.44.074-35.115.117-36.822 1.184-46.785 33.242-83.51 72.984-83.61h1.086c39.726.1 71.784 36.826 72.969 83.609.261 10.278.018 173.606.007 180.554-.018 11.657-9.476 21.096-21.13 21.097z" fill="url(#SVGID_14_)"/><path d="m202.603 440.948c-11.655 0-21.112-9.44-21.129-21.099 0 0-.052-34.32-.086-73.029-.01-11.67 9.442-21.139 21.112-21.149h.019c11.662 0 21.12 9.447 21.13 21.112.034 38.695.086 73.002.086 73.002.018 11.67-9.429 21.145-21.098 21.162-.012.001-.023.001-.034.001z" fill="url(#SVGID_15_)"/></g><path d="m255 440.948c-11.67 0-21.13-9.46-21.13-21.13v-28.526c0-11.67 9.46-21.13 21.13-21.13s21.13 9.46 21.13 21.13v28.526c0 11.67-9.46 21.13-21.13 21.13z" fill="url(#SVGID_16_)"/><path d="m255 356.427c-11.67 0-21.13-9.46-21.13-21.13v-73.605c0-11.67 9.46-21.13 21.13-21.13s21.13 9.46 21.13 21.13v73.605c0 11.67-9.46 21.13-21.13 21.13z" fill="url(#SVGID_17_)"/></g></g></svg>