<?xml version="1.0" encoding="iso-8859-1"?>
<!-- Generator: Adobe Illustrator 21.0.0, SVG Export Plug-In . SVG Version: 6.00 Build 0)  -->
<svg version="1.1" id="Capa_1" xmlns="http://www.w3.org/2000/svg" xmlns:xlink="http://www.w3.org/1999/xlink" x="0px" y="0px"
	 viewBox="0 0 512 512" style="enable-background:new 0 0 512 512;" xml:space="preserve">
<linearGradient id="SVGID_1_" gradientUnits="userSpaceOnUse" x1="188.862" y1="217.3665" x2="228.862" y2="177.3665" gradientTransform="matrix(1.0039 0 0 -1.0039 0.1922 516.5618)">
	<stop  offset="0" style="stop-color:#F2F2F2"/>
	<stop  offset="1" style="stop-color:#C3C3C3"/>
</linearGradient>
<polygon style="fill:url(#SVGID_1_);" points="185.441,363.413 148.588,326.56 218.012,257.136 254.865,293.989 "/>
<linearGradient id="SVGID_2_" gradientUnits="userSpaceOnUse" x1="9.5861" y1="37.9766" x2="64.5121" y2="-16.9534" gradientTransform="matrix(1.0039 0 0 -1.0039 0.1922 516.5618)">
	<stop  offset="0" style="stop-color:#A7F3CE"/>
	<stop  offset="1" style="stop-color:#61DB99"/>
</linearGradient>
<path style="fill:url(#SVGID_2_);" d="M29.611,507.678L4.323,482.39c-5.216-5.216-5.216-13.673,0-18.89l0,0l44.178,44.178l0,0
	C43.284,512.894,34.827,512.894,29.611,507.678z"/>
<linearGradient id="SVGID_3_" gradientUnits="userSpaceOnUse" x1="74.7293" y1="122.3297" x2="174.2553" y2="22.7997" gradientTransform="matrix(1.0039 0 0 -1.0039 0.1922 516.5618)">
	<stop  offset="0" style="stop-color:#777777"/>
	<stop  offset="1" style="stop-color:#3B4041"/>
</linearGradient>
<path style="fill:url(#SVGID_3_);" d="M147.108,444.939l-54.899,54.899c-12.199,12.199-30.098,15.22-45.126,9.066
	c-4.952-2.026-9.581-5.049-13.6-9.066l-21.32-21.32c-4.018-4.018-7.041-8.648-9.066-13.6c-6.154-15.029-3.132-32.928,9.066-45.126
	l54.9-54.898c11.773-11.773,25.531-21.367,40.641-28.36l1.924-0.892c7.556-3.49,14.774-7.645,21.574-12.384
	c1.429-1.003,2.837-2.026,4.231-3.077c0.015-0.011,0.03-0.023,0.046-0.034c4.548-3.433,10.928-3.017,14.957,1.012l40.416,40.416
	c4.018,4.018,4.461,10.382,1.035,14.915c-6.073,8.035-11.279,16.711-15.525,25.887l-0.892,1.923
	C168.483,419.402,158.88,433.166,147.108,444.939z"/>
<linearGradient id="SVGID_4_" gradientUnits="userSpaceOnUse" x1="115.782" y1="64.7865" x2="97.422" y2="83.1465" gradientTransform="matrix(1.0039 0 0 -1.0039 0.1922 516.5618)">
	<stop  offset="0" style="stop-color:#777777"/>
	<stop  offset="1" style="stop-color:#3B4041"/>
</linearGradient>
<path style="fill:url(#SVGID_4_);" d="M150.883,409.092L150.883,409.092c4.076,4.076,4.076,10.686,0,14.762l-62.122,62.122
	c-4.076,4.076-10.686,4.076-14.762,0l0,0c-4.076-4.076-4.076-10.685,0-14.762l62.122-62.122
	C140.198,405.017,146.807,405.017,150.883,409.092z"/>
<linearGradient id="SVGID_5_" gradientUnits="userSpaceOnUse" x1="98.8419" y1="95.6364" x2="80.4919" y2="113.9964" gradientTransform="matrix(1.0039 0 0 -1.0039 0.1922 516.5618)">
	<stop  offset="0" style="stop-color:#777777"/>
	<stop  offset="1" style="stop-color:#3B4041"/>
</linearGradient>
<path style="fill:url(#SVGID_5_);" d="M152.736,359.265L152.736,359.265c4.076,4.076,4.076,10.686,0,14.762L52.9,473.863
	c-4.076,4.076-10.686,4.076-14.762,0l0,0c-4.076-4.076-4.076-10.686,0-14.762l99.836-99.836
	C142.05,355.189,148.659,355.189,152.736,359.265z"/>
<linearGradient id="SVGID_6_" gradientUnits="userSpaceOnUse" x1="67.9912" y1="112.5757" x2="49.6382" y2="130.9357" gradientTransform="matrix(1.0039 0 0 -1.0039 0.1922 516.5618)">
	<stop  offset="0" style="stop-color:#777777"/>
	<stop  offset="1" style="stop-color:#3B4041"/>
</linearGradient>
<path style="fill:url(#SVGID_6_);" d="M102.908,361.118L102.908,361.118c4.076,4.076,4.076,10.686,0,14.762l-62.122,62.122
	c-4.076,4.076-10.686,4.076-14.762,0l0,0c-4.076-4.076-4.076-10.686,0-14.762l62.122-62.122
	C92.223,357.041,98.831,357.041,102.908,361.118z"/>
<linearGradient id="SVGID_7_" gradientUnits="userSpaceOnUse" x1="142.8094" y1="118.5133" x2="182.6394" y2="215.1633" gradientTransform="matrix(1.0039 0 0 -1.0039 0.1922 516.5618)">
	<stop  offset="0" style="stop-color:#3B4041;stop-opacity:0"/>
	<stop  offset="1" style="stop-color:#3B4041"/>
</linearGradient>
<path style="fill:url(#SVGID_7_);" d="M147.108,444.939l-11.67,11.67V439.3v-29.521v-18.449l-0.007-29.527v-41.637
	c0.013-0.01,0.027-0.02,0.041-0.03c4.549-3.43,10.926-3.015,14.954,1.014l40.424,40.424c4.018,4.018,4.461,10.382,1.035,14.915
	c-6.073,8.035-11.279,16.711-15.525,25.887l-0.892,1.923C168.483,419.402,158.88,433.166,147.108,444.939z"/>
<linearGradient id="SVGID_8_" gradientUnits="userSpaceOnUse" x1="197.7092" y1="181.6634" x2="230.2992" y2="250.8934" gradientTransform="matrix(1.0039 0 0 -1.0039 0.1922 516.5618)">
	<stop  offset="0" style="stop-color:#3B4041;stop-opacity:0"/>
	<stop  offset="1" style="stop-color:#3B4041"/>
</linearGradient>
<polygon style="fill:url(#SVGID_8_);" points="179.6,295.548 179.796,295.748 179.796,357.768 185.441,363.413 254.865,293.989 
	218.012,257.136 "/>
<linearGradient id="SVGID_9_" gradientUnits="userSpaceOnUse" x1="147.8255" y1="195.32" x2="219.7755" y2="123.38" gradientTransform="matrix(1.0039 0 0 -1.0039 0.1922 516.5618)">
	<stop  offset="0" style="stop-color:#777777"/>
	<stop  offset="1" style="stop-color:#3B4041"/>
</linearGradient>
<path style="fill:url(#SVGID_9_);" d="M188.803,375.082l-51.884-51.884c-3.978-3.978-3.978-10.426,0-14.403l0,0
	c3.978-3.978,10.426-3.978,14.403,0l51.884,51.884c3.978,3.978,3.978,10.426,0,14.403l0,0
	C199.229,379.059,192.78,379.059,188.803,375.082z"/>
<linearGradient id="SVGID_10_" gradientUnits="userSpaceOnUse" x1="241.6795" y1="414.844" x2="525.0795" y2="131.444" gradientTransform="matrix(1.0039 0 0 -1.0039 0.1922 516.5618)">
	<stop  offset="0" style="stop-color:#A7F3CE"/>
	<stop  offset="1" style="stop-color:#61DB99"/>
</linearGradient>
<path style="fill:url(#SVGID_10_);" d="M457.921,54.08c-72.106-72.106-189.007-72.106-261.113,0s-72.106,189.007,0,261.113
	s189.007,72.106,261.113,0S530.027,126.185,457.921,54.08z M247.216,264.785c-44.268-44.268-44.274-116.036-0.007-160.304
	s116.043-44.268,160.311,0c44.268,44.268,44.268,116.043,0,160.311S291.484,309.052,247.216,264.785z"/>
<linearGradient id="SVGID_11_" gradientUnits="userSpaceOnUse" x1="386.5196" y1="270.0041" x2="182.5096" y2="474.0131" gradientTransform="matrix(1.0039 0 0 -1.0039 0.1922 516.5618)">
	<stop  offset="0" style="stop-color:#A7F3CE"/>
	<stop  offset="1" style="stop-color:#61DB99"/>
</linearGradient>
<path style="fill:url(#SVGID_11_);" d="M233.383,278.618c51.906,51.906,136.058,51.906,187.963,0s51.906-136.058,0-187.963
	c-51.906-51.906-136.058-51.906-187.963,0S181.477,226.712,233.383,278.618z M407.513,104.488
	c44.268,44.268,44.274,116.036,0.007,160.304s-116.043,44.268-160.311,0s-44.268-116.043,0-160.311S363.246,60.22,407.513,104.488z"
	/>
<g>
</g>
<g>
</g>
<g>
</g>
<g>
</g>
<g>
</g>
<g>
</g>
<g>
</g>
<g>
</g>
<g>
</g>
<g>
</g>
<g>
</g>
<g>
</g>
<g>
</g>
<g>
</g>
<g>
</g>
</svg>
