<?xml version="1.0" encoding="iso-8859-1"?>
<!-- Generator: Adobe Illustrator 19.0.0, SVG Export Plug-In . SVG Version: 6.00 Build 0)  -->
<svg version="1.1" id="Capa_1" xmlns="http://www.w3.org/2000/svg" xmlns:xlink="http://www.w3.org/1999/xlink" x="0px" y="0px"
	 viewBox="0 0 512.001 512.001" style="enable-background:new 0 0 512.001 512.001;" xml:space="preserve">
<linearGradient id="SVGCleanerId_0_2_" gradientUnits="userSpaceOnUse" x1="373.1438" y1="440.723" x2="373.1438" y2="135.983" gradientTransform="matrix(1.0039 0 0 -1.0039 0.192 516.5594)">
	<stop  offset="0" style="stop-color:#E6E6E6"/>
	<stop  offset="1" style="stop-color:#999999"/>
</linearGradient>
<path id="SVGCleanerId_0" style="fill:url(#SVGCleanerId_0_2_);" d="M379.764,269.747L242.253,132.236
	c-6.208-6.208-6.208-16.275,0-22.483L347.348,4.658c6.208-6.208,16.275-6.208,22.483,0l137.512,137.512
	c6.208,6.208,6.208,16.275,0,22.483L402.247,269.747C396.039,275.955,385.974,275.955,379.764,269.747z"/>
<g>
	
		<linearGradient id="SVGCleanerId_0_3_" gradientUnits="userSpaceOnUse" x1="373.1438" y1="440.723" x2="373.1438" y2="135.983" gradientTransform="matrix(1.0039 0 0 -1.0039 0.192 516.5594)">
		<stop  offset="0" style="stop-color:#E6E6E6"/>
		<stop  offset="1" style="stop-color:#999999"/>
	</linearGradient>
	<path id="SVGCleanerId_0_1_" style="fill:url(#SVGCleanerId_0_3_);" d="M379.764,269.747L242.253,132.236
		c-6.208-6.208-6.208-16.275,0-22.483L347.348,4.658c6.208-6.208,16.275-6.208,22.483,0l137.512,137.512
		c6.208,6.208,6.208,16.275,0,22.483L402.247,269.747C396.039,275.955,385.974,275.955,379.764,269.747z"/>
</g>
<linearGradient id="SVGID_1_" gradientUnits="userSpaceOnUse" x1="409.5359" y1="407.393" x2="409.5359" y2="183.793" gradientTransform="matrix(1.0039 0 0 -1.0039 0.192 516.5594)">
	<stop  offset="0" style="stop-color:#E6E6E6"/>
	<stop  offset="1" style="stop-color:#999999"/>
</linearGradient>
<path style="fill:url(#SVGID_1_);" d="M507.342,164.653L402.247,269.747c-6.211,6.211-16.272,6.211-22.483,0l-69.101-69.101
	l35.555-35.555c3.085-3.085,3.075-8.073-0.01-11.158l-5.919-5.919c-3.085-3.085-3.085-8.084,0-11.168l14.64-14.64
	c3.074-3.074,8.073-3.075,11.158,0.01l5.919,5.919c3.085,3.085,8.084,3.085,11.158,0.01l55.078-55.078l69.101,69.101
	C513.554,148.382,513.554,158.441,507.342,164.653z"/>
<linearGradient id="SVGID_2_" gradientUnits="userSpaceOnUse" x1="343.9798" y1="348.7125" x2="316.8798" y2="321.6125" gradientTransform="matrix(1.0039 0 0 -1.0039 0.192 516.5594)">
	<stop  offset="0" style="stop-color:#E6E6E6;stop-opacity:0"/>
	<stop  offset="0.143" style="stop-color:#DCDCDC;stop-opacity:0.143"/>
	<stop  offset="0.384" style="stop-color:#C2C2C2;stop-opacity:0.384"/>
	<stop  offset="0.692" style="stop-color:#979797;stop-opacity:0.692"/>
	<stop  offset="1" style="stop-color:#666666"/>
</linearGradient>
<path style="fill:url(#SVGID_2_);" d="M272.492,79.514l-30.239,30.239c-6.208,6.208-6.208,16.275,0,22.483l137.512,137.512
	c6.208,6.208,16.275,6.208,22.483,0l30.239-30.239L272.492,79.514z"/>
<linearGradient id="SVGID_3_" gradientUnits="userSpaceOnUse" x1="353.9698" y1="446.5465" x2="333.9998" y2="426.5775" gradientTransform="matrix(1.0039 0 0 -1.0039 0.192 516.5594)">
	<stop  offset="0" style="stop-color:#4D4D4D"/>
	<stop  offset="1" style="stop-color:#333333"/>
</linearGradient>
<path style="fill:url(#SVGID_3_);" d="M349.613,92.499l-18.299-18.3c-3.176-3.176-3.176-8.326,0-11.503l18.3-18.3
	c3.176-3.176,8.326-3.176,11.503,0l18.3,18.3c3.176,3.176,3.176,8.326,0,11.503l-18.3,18.3
	C357.939,95.675,352.79,95.675,349.613,92.499z"/>
<linearGradient id="SVGID_4_" gradientUnits="userSpaceOnUse" x1="441.8118" y1="358.7005" x2="421.8418" y2="338.7305" gradientTransform="matrix(1.0039 0 0 -1.0039 0.192 516.5594)">
	<stop  offset="0" style="stop-color:#4D4D4D"/>
	<stop  offset="1" style="stop-color:#333333"/>
</linearGradient>
<path style="fill:url(#SVGID_4_);" d="M437.802,180.687l-18.3-18.3c-3.176-3.176-3.176-8.327,0-11.503l18.3-18.3
	c3.176-3.176,8.327-3.176,11.503,0l18.3,18.3c3.176,3.176,3.176,8.326,0,11.503l-18.3,18.3
	C446.128,183.863,440.978,183.863,437.802,180.687z"/>
<linearGradient id="SVGID_5_" gradientUnits="userSpaceOnUse" x1="299.0128" y1="391.5895" x2="349.5728" y2="442.1495" gradientTransform="matrix(1.0039 0 0 -1.0039 0.192 516.5594)">
	<stop  offset="0" style="stop-color:#E6E6E6"/>
	<stop  offset="1" style="stop-color:#999999"/>
</linearGradient>
<path style="fill:url(#SVGID_5_);" d="M316.761,133.543l-26.491-26.491c-1.829-1.829-1.829-4.794,0-6.623l11.155-11.155
	c1.829-1.829,4.794-1.829,6.623,0l26.491,26.491c1.829,1.829,1.829,4.794,0,6.623l-11.155,11.155
	C321.554,135.372,318.589,135.372,316.761,133.543z"/>
<linearGradient id="SVGID_6_" gradientUnits="userSpaceOnUse" x1="381.1323" y1="298.02" x2="431.6823" y2="348.57" gradientTransform="matrix(1.0039 0 0 -1.0039 0.192 516.5594)">
	<stop  offset="0" style="stop-color:#E6E6E6"/>
	<stop  offset="1" style="stop-color:#999999"/>
</linearGradient>
<path style="fill:url(#SVGID_6_);" d="M404.949,221.732l-26.491-26.491c-1.829-1.829-1.829-4.794,0-6.623l11.155-11.155
	c1.829-1.829,4.794-1.829,6.623,0l26.491,26.491c1.829,1.829,1.829,4.794,0,6.623l-11.155,11.155
	C409.743,223.56,406.778,223.56,404.949,221.732z"/>
<linearGradient id="SVGID_7_" gradientUnits="userSpaceOnUse" x1="420.3648" y1="425.0975" x2="446.4048" y2="451.1375" gradientTransform="matrix(1.0039 0 0 -1.0039 0.192 516.5594)">
	<stop  offset="0" style="stop-color:#E6E6E6;stop-opacity:0"/>
	<stop  offset="0.143" style="stop-color:#DCDCDC;stop-opacity:0.143"/>
	<stop  offset="0.384" style="stop-color:#C2C2C2;stop-opacity:0.384"/>
	<stop  offset="0.692" style="stop-color:#979797;stop-opacity:0.692"/>
	<stop  offset="1" style="stop-color:#666666"/>
</linearGradient>
<path style="fill:url(#SVGID_7_);" d="M507.342,142.169L369.831,4.658c-6.208-6.208-16.275-6.208-22.483,0l-12.81,12.81
	l159.994,159.994l12.81-12.81C513.551,158.444,513.551,148.379,507.342,142.169z"/>
<linearGradient id="SVGID_8_" gradientUnits="userSpaceOnUse" x1="75.2993" y1="80.033" x2="123.4293" y2="128.163" gradientTransform="matrix(1.0039 0 0 -1.0039 0.192 516.5594)">
	<stop  offset="0" style="stop-color:#4D4D4D"/>
	<stop  offset="1" style="stop-color:#333333"/>
</linearGradient>
<path style="fill:url(#SVGID_8_);" d="M19.008,318.881L5.067,332.82c-6.756,6.756-6.756,17.71,0,24.466l32.212,32.212
	c5.665,5.665,6.943,14.376,3.145,21.43c-3.798,7.055-2.52,15.765,3.145,21.43l36.072,36.072c5.665,5.665,14.376,6.943,21.43,3.145
	c7.055-3.799,15.765-2.52,21.43,3.145l32.212,32.212c6.756,6.756,17.71,6.756,24.466,0l13.94-13.94L19.008,318.881z M79.382,450.917
	l-18.3-18.3c-2.96-2.96-2.96-7.758,0-10.719c2.96-2.96,7.758-2.96,10.719,0l18.3,18.3c2.96,2.96,2.96,7.758,0,10.719
	C87.142,453.878,82.343,453.878,79.382,450.917z"/>
<linearGradient id="SVGID_9_" gradientUnits="userSpaceOnUse" x1="68.5296" y1="73.2628" x2="116.6596" y2="121.3928" gradientTransform="matrix(1.0039 0 0 -1.0039 0.192 516.5594)">
	<stop  offset="0" style="stop-color:#4D4D4D;stop-opacity:0"/>
	<stop  offset="1" style="stop-color:#000000"/>
</linearGradient>
<path style="fill:url(#SVGID_9_);" d="M16.814,321.075v47.959l20.465,20.465c5.665,5.665,6.943,14.376,3.145,21.43
	c-3.798,7.055-2.52,15.765,3.145,21.43l36.072,36.072c5.665,5.665,14.376,6.943,21.43,3.145c7.055-3.799,15.765-2.52,21.43,3.145
	l32.212,32.212c6.756,6.756,17.71,6.756,24.466,0l13.94-13.94L19.008,318.881L16.814,321.075z M71.802,421.899l18.3,18.3
	c2.96,2.96,2.96,7.758,0,10.719c-2.96,2.96-7.758,2.96-10.719,0l-18.3-18.3c-2.96-2.96-2.96-7.758,0-10.719
	C64.042,418.938,68.841,418.939,71.802,421.899z"/>
<linearGradient id="SVGID_10_" gradientUnits="userSpaceOnUse" x1="216.5694" y1="308.093" x2="216.5694" y2="-256.5069" gradientTransform="matrix(1.0039 0 0 -1.0039 0.192 516.5594)">
	<stop  offset="0" style="stop-color:#67DCDC"/>
	<stop  offset="1" style="stop-color:#019394"/>
</linearGradient>
<path style="fill:url(#SVGID_10_);" d="M167.605,482.065L29.935,344.397c-18.723-18.723-18.723-49.081,0-67.804l179.34-179.34
	c6.105-6.105,16.001-6.105,22.106,0L414.748,280.62c6.105,6.105,6.105,16.001,0,22.106l-179.34,179.34
	C216.684,500.789,186.328,500.789,167.605,482.065z"/>
<linearGradient id="SVGID_11_" gradientUnits="userSpaceOnUse" x1="125.2398" y1="129.9725" x2="89.2998" y2="94.0325" gradientTransform="matrix(1.0039 0 0 -1.0039 0.192 516.5594)">
	<stop  offset="0" style="stop-color:#019394;stop-opacity:0"/>
	<stop  offset="1" style="stop-color:#019394"/>
</linearGradient>
<path style="fill:url(#SVGID_11_);" d="M49.672,256.855l-19.737,19.737c-18.724,18.724-18.724,49.081,0,67.804l137.669,137.669
	c18.723,18.723,49.081,18.723,67.804,0l19.737-19.737L49.672,256.855z"/>
<rect x="150.025" y="204.113" transform="matrix(0.7071 0.7071 -0.7071 0.7071 239.7129 -145.3548)" style="fill:#019394;" width="290.581" height="25.138"/>
<linearGradient id="SVGID_12_" gradientUnits="userSpaceOnUse" x1="91.1253" y1="95.857" x2="236.2853" y2="241.017" gradientTransform="matrix(1.0039 0 0 -1.0039 0.192 516.5594)">
	<stop  offset="0" style="stop-color:#019394;stop-opacity:0"/>
	<stop  offset="1" style="stop-color:#019394"/>
</linearGradient>
<path style="fill:url(#SVGID_12_);" d="M131.804,396.844l-16.647-16.647c-6.376-6.376-6.376-16.714,0-23.09l34.593-34.593
	c6.376-6.376,16.714-6.376,23.09,0l16.647,16.647c6.376,6.376,6.376,16.714,0,23.09l-34.593,34.593
	C148.517,403.22,138.18,403.22,131.804,396.844z"/>
<linearGradient id="SVGID_13_" gradientUnits="userSpaceOnUse" x1="173.0329" y1="131.1528" x2="47.6029" y2="252.6028" gradientTransform="matrix(1.0039 0 0 -1.0039 0.192 516.5594)">
	<stop  offset="0" style="stop-color:#019394;stop-opacity:0"/>
	<stop  offset="1" style="stop-color:#019394"/>
</linearGradient>
<path style="fill:url(#SVGID_13_);" d="M187.982,351.547c0.256-2.872-0.712-5.833-2.91-8.03l-16.588-16.588
	c-3.938-3.938-10.322-3.938-14.261,0l-34.652,34.652c-2.199,2.199-3.166,5.159-2.91,8.031v12.089l15.143,15.143
	c6.376,6.376,16.714,6.376,23.09,0l33.089-33.089L187.982,351.547z"/>
<linearGradient id="SVGID_14_" gradientUnits="userSpaceOnUse" x1="146.676" y1="161.1298" x2="179.776" y2="128.0198" gradientTransform="matrix(1.0039 0 0 -1.0039 0.192 516.5594)">
	<stop  offset="0" style="stop-color:#FCC344"/>
	<stop  offset="1" style="stop-color:#D48000"/>
</linearGradient>
<path style="fill:url(#SVGID_14_);" d="M136.159,392.429l-16.588-16.588c-3.938-3.938-3.938-10.322,0-14.261l34.652-34.652
	c3.938-3.938,10.322-3.938,14.261,0l16.588,16.588c3.938,3.938,3.938,10.322,0,14.261l-34.652,34.652
	C146.482,396.367,140.097,396.367,136.159,392.429z"/>
<g>
</g>
<g>
</g>
<g>
</g>
<g>
</g>
<g>
</g>
<g>
</g>
<g>
</g>
<g>
</g>
<g>
</g>
<g>
</g>
<g>
</g>
<g>
</g>
<g>
</g>
<g>
</g>
<g>
</g>
</svg>
