<?xml version="1.0" encoding="iso-8859-1"?>
<!-- Generator: Adobe Illustrator 19.0.0, SVG Export Plug-In . SVG Version: 6.00 Build 0)  -->
<svg version="1.1" id="Capa_1" xmlns="http://www.w3.org/2000/svg" xmlns:xlink="http://www.w3.org/1999/xlink" x="0px" y="0px"
	 viewBox="0 0 512 512" style="enable-background:new 0 0 512 512;" xml:space="preserve">
<linearGradient id="SVGID_1_" gradientUnits="userSpaceOnUse" x1="236.9375" y1="387.8675" x2="236.9375" y2="107.2475" gradientTransform="matrix(1.0667 0 0 -1.0667 3.2667 557.5334)">
	<stop  offset="0" style="stop-color:#00A6F9"/>
	<stop  offset="1" style="stop-color:#0071E2"/>
</linearGradient>
<circle style="fill:url(#SVGID_1_);" cx="256" cy="256" r="256"/>
<radialGradient id="SVGID_2_" cx="236.9375" cy="282.6875" r="294.12" gradientTransform="matrix(1.0667 0 0 -1.0667 3.2667 557.5334)" gradientUnits="userSpaceOnUse">
	<stop  offset="0" style="stop-color:#00A6F9"/>
	<stop  offset="1" style="stop-color:#0071E2"/>
</radialGradient>
<circle style="fill:url(#SVGID_2_);" cx="256" cy="256" r="195.84"/>
<linearGradient id="SVGID_3_" gradientUnits="userSpaceOnUse" x1="448.3261" y1="179.6761" x2="172.7261" y2="455.2861" gradientTransform="matrix(1.0667 0 0 -1.0667 3.2667 557.5334)">
	<stop  offset="1.000000e-004" style="stop-color:#008BF2;stop-opacity:0"/>
	<stop  offset="1" style="stop-color:#0046E2"/>
</linearGradient>
<path style="fill:url(#SVGID_3_);" d="M446.925,299.75c-3.712,16.333-9.485,31.898-17.024,46.387L239.245,155.469
	c-4.672-4.288-7.014-9.28-7.014-15.002c0-5.965,2.342-11.034,7.014-15.194c4.672-4.147,10.253-6.234,16.755-6.234
	c6.49,0,12.083,2.086,16.755,6.234L446.925,299.75z"/>
<linearGradient id="SVGID_4_" gradientUnits="userSpaceOnUse" x1="373.3685" y1="104.7185" x2="97.7585" y2="380.3285" gradientTransform="matrix(1.0667 0 0 -1.0667 3.2667 557.5334)">
	<stop  offset="1.000000e-004" style="stop-color:#008BF2;stop-opacity:0"/>
	<stop  offset="1" style="stop-color:#0046E2"/>
</linearGradient>
<path style="fill:url(#SVGID_4_);" d="M420.698,362.01c-27.238,42.214-70.259,73.293-120.73,84.877
	c-20.634-20.582-58.253-58.112-58.381-58.214c-3.904-2.854-5.85-5.978-5.85-9.357V221.517c0-3.904,1.882-7.078,5.645-9.549
	c3.763-2.47,8.64-3.699,14.618-3.699c5.978,0,10.906,1.229,14.81,3.699L420.698,362.01z"/>
<path style="fill:#FFFFFF;" d="M232.233,140.47c0-5.971,2.337-11.039,7.012-15.196c4.675-4.151,10.258-6.234,16.755-6.234
	c6.49,0,12.08,2.082,16.755,6.234c4.675,4.157,7.012,9.225,7.012,15.196c0,5.716-2.337,10.715-7.012,15.002
	c-4.675,4.285-10.266,6.43-16.755,6.43c-6.496,0-12.08-2.145-16.755-6.43C234.57,151.185,232.233,146.187,232.233,140.47z
	 M235.739,379.322V221.517c0-3.899,1.881-7.075,5.65-9.547c3.762-2.467,8.633-3.702,14.611-3.702c5.973,0,10.911,1.235,14.805,3.702
	c3.897,2.47,5.844,5.648,5.844,9.547v157.805c0,3.378-2.014,6.497-6.038,9.353c-4.03,2.863-8.9,4.287-14.611,4.287
	c-5.718,0-10.521-1.424-14.417-4.287C237.686,385.818,235.739,382.7,235.739,379.322z"/>
<g>
</g>
<g>
</g>
<g>
</g>
<g>
</g>
<g>
</g>
<g>
</g>
<g>
</g>
<g>
</g>
<g>
</g>
<g>
</g>
<g>
</g>
<g>
</g>
<g>
</g>
<g>
</g>
<g>
</g>
</svg>
