<svg id="Capa_1" enable-background="new 0 0 510 510" height="512" viewBox="0 0 510 510" width="512" xmlns="http://www.w3.org/2000/svg" xmlns:xlink="http://www.w3.org/1999/xlink"><linearGradient id="lg1"><stop offset="0" stop-color="#7ca1b1"/><stop offset="1" stop-color="#537983"/></linearGradient><linearGradient id="SVGID_1_" gradientUnits="userSpaceOnUse" x1="107.655" x2="406.216" xlink:href="#lg1" y1="107.655" y2="406.216"/><linearGradient id="SVGID_2_" gradientTransform="matrix(-1 0 0 -1 -1601 -1613)" gradientUnits="userSpaceOnUse" x1="-1989.713" x2="-1718.774" xlink:href="#lg1" y1="-2001.713" y2="-1730.774"/><linearGradient id="lg2"><stop offset="0" stop-color="#ade194"/><stop offset="1" stop-color="#68ca44"/></linearGradient><linearGradient id="SVGID_3_" gradientUnits="userSpaceOnUse" x1="146.959" x2="337.356" xlink:href="#lg2" y1="146.959" y2="337.356"/><linearGradient id="lg3"><stop offset="0" stop-color="#68ca44" stop-opacity="0"/><stop offset="1" stop-color="#47a920"/></linearGradient><linearGradient id="SVGID_4_" gradientUnits="userSpaceOnUse" x1="152.701" x2="389.304" xlink:href="#lg3" y1="152.701" y2="389.304"/><linearGradient id="SVGID_5_" gradientUnits="userSpaceOnUse" x1="213.767" x2="306.007" xlink:href="#lg3" y1="213.767" y2="306.007"/><linearGradient id="SVGID_6_" gradientUnits="userSpaceOnUse" x1="423.105" x2="375.783" xlink:href="#lg3" y1="386.138" y2="338.816"/><linearGradient id="SVGID_7_" gradientUnits="userSpaceOnUse" x1="320.791" x2="353.499" y1="69.391" y2="333.142"><stop offset="0" stop-color="#ade194" stop-opacity="0"/><stop offset="1" stop-color="#ffe177"/></linearGradient><linearGradient id="SVGID_8_" gradientUnits="userSpaceOnUse" x1="409.61" x2="378.294" y1="339.087" y2="326.56"><stop offset="0" stop-color="#fe9738" stop-opacity="0"/><stop offset="1" stop-color="#fe7701"/></linearGradient><linearGradient id="SVGID_9_" gradientUnits="userSpaceOnUse" x1="343.722" x2="389.61" y1="306.665" y2="352.553"><stop offset="0" stop-color="#fe860a"/><stop offset=".6914" stop-color="#fc482b"/><stop offset="1" stop-color="#fb2b3a"/></linearGradient><linearGradient id="lg4"><stop offset="0" stop-color="#537983" stop-opacity="0"/><stop offset="1" stop-color="#3e5959"/></linearGradient><linearGradient id="SVGID_10_" gradientUnits="userSpaceOnUse" x1="336.547" x2="254.429" xlink:href="#lg4" y1="90.627" y2="-3.322"/><linearGradient id="SVGID_11_" gradientUnits="userSpaceOnUse" x1="303.667" x2="261.217" xlink:href="#lg4" y1="484.983" y2="457.843"/><linearGradient id="SVGID_12_" gradientUnits="userSpaceOnUse" x1="241.187" x2="284.001" xlink:href="#lg2" y1="35.443" y2="35.443"/><linearGradient id="SVGID_13_" gradientUnits="userSpaceOnUse" x1="241.187" x2="284.001" xlink:href="#lg2" y1="474.557" y2="474.557"/><linearGradient id="SVGID_14_" gradientUnits="userSpaceOnUse" x1="460.404" x2="460.404" xlink:href="#lg4" y1="306.15" y2="258.257"/><linearGradient id="SVGID_15_" gradientUnits="userSpaceOnUse" x1="88.492" x2="17.509" xlink:href="#lg4" y1="335.408" y2="274.342"/><linearGradient id="SVGID_16_" gradientTransform="matrix(0 1 -1 0 -1086 532)" gradientUnits="userSpaceOnUse" x1="-290.813" x2="-247.999" xlink:href="#lg2" y1="-1560.557" y2="-1560.557"/><linearGradient id="SVGID_17_" gradientTransform="matrix(0 1 -1 0 -1086 532)" gradientUnits="userSpaceOnUse" x1="-290.813" x2="-247.999" xlink:href="#lg2" y1="-1121.443" y2="-1121.443"/><linearGradient id="lg5"><stop offset="0" stop-color="#537983"/><stop offset="1" stop-color="#3e5959"/></linearGradient><linearGradient id="SVGID_18_" gradientUnits="userSpaceOnUse" x1="41.42" x2="70.226" xlink:href="#lg5" y1="41.42" y2="70.226"/><linearGradient id="SVGID_19_" gradientUnits="userSpaceOnUse" x1="98.895" x2="24.514" xlink:href="#lg4" y1="100.351" y2="25.971"/><linearGradient id="SVGID_20_" gradientTransform="matrix(-1 0 0 -1 -1283.867 -219.867)" gradientUnits="userSpaceOnUse" x1="-1752.448" x2="-1723.642" xlink:href="#lg5" y1="-688.448" y2="-659.642"/><linearGradient id="SVGID_21_" gradientTransform="matrix(-1 0 0 -1 -1283.867 -219.867)" gradientUnits="userSpaceOnUse" x1="-1694.973" x2="-1769.354" xlink:href="#lg4" y1="-629.516" y2="-703.897"/><linearGradient id="SVGID_22_" gradientTransform="matrix(0 1 -1 0 -1086 532)" gradientUnits="userSpaceOnUse" x1="-490.58" x2="-461.775" xlink:href="#lg5" y1="-1554.58" y2="-1525.775"/><linearGradient id="SVGID_23_" gradientTransform="matrix(0 1 -1 0 -1086 532)" gradientUnits="userSpaceOnUse" x1="-433.105" x2="-507.486" xlink:href="#lg4" y1="-1495.649" y2="-1570.029"/><linearGradient id="SVGID_24_" gradientTransform="matrix(0 -1 1 0 -866.133 -751.867)" gradientUnits="userSpaceOnUse" x1="-1220.448" x2="-1191.642" xlink:href="#lg5" y1="907.552" y2="936.358"/><linearGradient id="SVGID_25_" gradientTransform="matrix(0 -1 1 0 -866.133 -751.867)" gradientUnits="userSpaceOnUse" x1="-1162.973" x2="-1237.354" xlink:href="#lg4" y1="966.484" y2="892.103"/><g><g><g><path d="m255 31.842c-123.244 0-223.158 99.913-223.158 223.158s99.914 223.158 223.158 223.158 223.158-99.913 223.158-223.158-99.914-223.158-223.158-223.158zm0 378.785c-85.953 0-155.627-69.674-155.627-155.627s69.674-155.627 155.627-155.627 155.627 69.674 155.627 155.627-69.674 155.627-155.627 155.627z" fill="url(#SVGID_1_)"/><path d="m255 457.511c111.843 0 202.511-90.668 202.511-202.511s-90.668-202.511-202.511-202.511-202.511 90.668-202.511 202.511 90.668 202.511 202.511 202.511zm0-358.138c85.953 0 155.627 69.674 155.627 155.627s-69.674 155.627-155.627 155.627-155.627-69.674-155.627-155.627 69.674-155.627 155.627-155.627z" fill="url(#SVGID_2_)"/></g><circle cx="255" cy="255" fill="url(#SVGID_3_)" r="176.248"/><circle cx="255" cy="255" fill="url(#SVGID_4_)" r="130.484"/><circle cx="255" cy="255" fill="url(#SVGID_5_)" r="75.159"/><path d="m410.659 337.715-26.691-26.691c-4.671-5.282-11.493-8.615-19.099-8.615-14.08 0-25.493 11.412-25.493 25.493 0 7.607 3.333 14.428 8.615 19.1l32.124 32.124c12.09-12.186 22.407-26.129 30.544-41.411z" fill="url(#SVGID_6_)"/><path d="m399.568 355.82c19.961-28.569 31.68-63.324 31.68-100.82 0-97.339-78.909-176.248-176.248-176.248v176.248z" fill="url(#SVGID_7_)"/><path d="m364.869 302.409c-9.751 0-18.218 5.475-22.506 13.516l57.206 39.894c4.046-5.791 7.747-11.839 11.086-18.109l-26.686-26.686c-4.672-5.282-11.493-8.615-19.1-8.615z" fill="url(#SVGID_8_)"/><circle cx="363.563" cy="326.505" fill="url(#SVGID_9_)" r="25.307"/><path d="m459.922 166.511h-115.65l-65.315-65.305-34.385-34.385v-34.73c3.455-.167 6.931-.251 10.428-.251 91.798.001 170.663 55.441 204.922 134.671z" fill="url(#SVGID_10_)"/><path d="m265.475 443.224v34.682c10.562-.488 20.93-1.716 31.059-3.623z" fill="url(#SVGID_11_)"/><g><path d="m255 70.885c-8.514 0-15.415-6.902-15.415-15.415v-40.055c0-8.513 6.901-15.415 15.415-15.415 8.514 0 15.415 6.902 15.415 15.415v40.055c0 8.514-6.901 15.415-15.415 15.415z" fill="url(#SVGID_12_)"/><path d="m255 510c-8.514 0-15.415-6.902-15.415-15.415v-40.055c0-8.514 6.902-15.415 15.415-15.415 8.514 0 15.415 6.902 15.415 15.415v40.055c0 8.513-6.901 15.415-15.415 15.415z" fill="url(#SVGID_13_)"/></g><path d="m442.888 265.098 31.402 31.402c1.926-10.238 3.155-20.721 3.631-31.402z" fill="url(#SVGID_14_)"/><path d="m295.596 474.474c-13.163 2.422-26.734 3.685-40.596 3.685-123.239 0-223.159-99.919-223.159-223.159 0-2.286.031-4.572.104-6.837h37.339z" fill="url(#SVGID_15_)"/><g><path d="m439.115 255c0-8.514 6.902-15.415 15.415-15.415h40.055c8.514 0 15.415 6.902 15.415 15.415 0 8.514-6.902 15.415-15.415 15.415h-40.055c-8.514 0-15.415-6.901-15.415-15.415z" fill="url(#SVGID_16_)"/><path d="m0 255c0-8.514 6.902-15.415 15.415-15.415h40.055c8.514 0 15.415 6.902 15.415 15.415 0 8.514-6.902 15.415-15.415 15.415h-40.055c-8.513 0-15.415-6.901-15.415-15.415z" fill="url(#SVGID_17_)"/></g><circle cx="255" cy="255" fill="#47a920" r="25.435"/></g><g><g><g><path d="m57.532 22.845c-19.157 0-34.687 15.53-34.687 34.687v36.052c0 7.542 6.114 13.656 13.656 13.656 7.542 0 13.656-6.114 13.656-13.656v-22.296c0-9.051 7.337-16.387 16.387-16.387h27.039c7.542 0 13.656-6.114 13.656-13.656v-4.743c0-7.542-6.114-13.656-13.656-13.656h-36.051z" fill="url(#SVGID_18_)"/><path d="m60.782 39.114c-13.583 0-24.581 11.007-24.581 24.581v43.545h.3c7.542 0 13.656-6.114 13.656-13.656v-22.296c0-9.051 7.337-16.387 16.387-16.387h27.039c7.542 0 13.656-6.114 13.656-13.656v-2.13h-46.457z" fill="url(#SVGID_19_)"/></g><g><path d="m452.468 487.155c19.157 0 34.687-15.53 34.687-34.687v-36.052c0-7.542-6.114-13.656-13.656-13.656-7.542 0-13.656 6.114-13.656 13.656v22.296c0 9.051-7.337 16.387-16.387 16.387h-27.039c-7.542 0-13.656 6.114-13.656 13.656v4.743c0 7.542 6.114 13.656 13.656 13.656h36.051z" fill="url(#SVGID_20_)"/><path d="m449.218 470.886c13.583 0 24.581-11.007 24.581-24.581v-43.545h-.3c-7.542 0-13.656 6.114-13.656 13.656v22.296c0 9.051-7.337 16.387-16.387 16.387h-27.039c-7.542 0-13.656 6.114-13.656 13.656v2.13h46.457z" fill="url(#SVGID_21_)"/></g></g><g><g><path d="m487.155 57.532c0-19.157-15.53-34.687-34.687-34.687h-36.052c-7.542 0-13.656 6.114-13.656 13.656 0 7.542 6.114 13.656 13.656 13.656h22.296c9.051 0 16.387 7.337 16.387 16.387v27.039c0 7.542 6.114 13.656 13.656 13.656h4.743c7.542 0 13.656-6.114 13.656-13.656v-36.051z" fill="url(#SVGID_22_)"/><path d="m470.886 60.782c0-13.583-11.007-24.581-24.581-24.581h-43.545v.3c0 7.542 6.114 13.656 13.656 13.656h22.296c9.051 0 16.387 7.337 16.387 16.387v27.039c0 7.542 6.114 13.656 13.656 13.656h2.13v-46.457z" fill="url(#SVGID_23_)"/></g><g><path d="m22.845 452.468c0 19.157 15.53 34.687 34.687 34.687h36.052c7.542 0 13.656-6.114 13.656-13.656 0-7.542-6.114-13.656-13.656-13.656h-22.296c-9.051 0-16.387-7.337-16.387-16.387v-27.039c0-7.542-6.114-13.656-13.656-13.656h-4.743c-7.542 0-13.656 6.114-13.656 13.656v36.051z" fill="url(#SVGID_24_)"/><path d="m39.114 449.218c0 13.583 11.007 24.581 24.581 24.581h43.545v-.3c0-7.542-6.114-13.656-13.656-13.656h-22.296c-9.051 0-16.387-7.337-16.387-16.387v-27.039c0-7.542-6.114-13.656-13.656-13.656h-2.13v46.457z" fill="url(#SVGID_25_)"/></g></g></g></g></svg>