<svg id="Capa_1" enable-background="new 0 0 510 510" height="512" viewBox="0 0 510 510" width="512" xmlns="http://www.w3.org/2000/svg" xmlns:xlink="http://www.w3.org/1999/xlink"><linearGradient id="lg1"><stop offset="0" stop-color="#cdec7a"/><stop offset=".34" stop-color="#c1ea76"/><stop offset=".9563" stop-color="#a1e66b"/><stop offset="1" stop-color="#9ee66a"/></linearGradient><linearGradient id="SVGID_1_" gradientUnits="userSpaceOnUse" x1="102.047" x2="189.116" xlink:href="#lg1" y1="360.941" y2="360.941"/><linearGradient id="SVGID_2_" gradientUnits="userSpaceOnUse" x1="207.572" x2="294.392" y1="327.116" y2="327.116"><stop offset="0" stop-color="#ffd945"/><stop offset=".3043" stop-color="#ffcd3e"/><stop offset=".8558" stop-color="#ffad2b"/><stop offset="1" stop-color="#ffa325"/></linearGradient><linearGradient id="lg2"><stop offset="0" stop-color="#ff7044"/><stop offset=".2346" stop-color="#fe653c"/><stop offset=".6509" stop-color="#fb4628"/><stop offset="1" stop-color="#f82814"/></linearGradient><linearGradient id="SVGID_3_" gradientUnits="userSpaceOnUse" x1="285.865" x2="394.181" xlink:href="#lg2" y1="292.527" y2="292.527"/><linearGradient id="SVGID_4_" gradientUnits="userSpaceOnUse" x1="394.794" x2="478.47" xlink:href="#lg1" y1="379.737" y2="379.737"/><linearGradient id="SVGID_5_" gradientUnits="userSpaceOnUse" x1="293.538" x2="79.922" y1="429.971" y2="315.936"><stop offset="0" stop-color="#e87264" stop-opacity="0"/><stop offset=".6519" stop-color="#f67150" stop-opacity=".652"/><stop offset="1" stop-color="#ff7044"/></linearGradient><linearGradient id="SVGID_6_" gradientUnits="userSpaceOnUse" x1="394.335" x2="205.614" y1="394.675" y2="299.913"><stop offset="0" stop-color="#f82814" stop-opacity="0"/><stop offset=".1249" stop-color="#ed2819" stop-opacity=".125"/><stop offset=".4524" stop-color="#d42724" stop-opacity=".452"/><stop offset=".7531" stop-color="#c5272b" stop-opacity=".753"/><stop offset="1" stop-color="#c0272d"/></linearGradient><linearGradient id="SVGID_7_" gradientUnits="userSpaceOnUse" x1="379.558" x2="379.992" xlink:href="#lg1" y1="292.215" y2="292.215"/><linearGradient id="SVGID_8_" gradientUnits="userSpaceOnUse" x1="466.786" x2="295.733" y1="431.046" y2="349.936"><stop offset="0" stop-color="#9ee66a" stop-opacity="0"/><stop offset=".1524" stop-color="#93e267" stop-opacity=".152"/><stop offset=".4172" stop-color="#77d660" stop-opacity=".417"/><stop offset=".7603" stop-color="#49c254" stop-opacity=".76"/><stop offset="1" stop-color="#25b34b"/></linearGradient><linearGradient id="lg3"><stop offset="0" stop-color="#f0ddfc"/><stop offset=".4474" stop-color="#c1aec7"/><stop offset="1" stop-color="#8a7889"/></linearGradient><linearGradient id="SVGID_9_" gradientUnits="userSpaceOnUse" x1="7.227" x2="98.717" xlink:href="#lg3" y1="255" y2="255"/><linearGradient id="SVGID_10_" gradientTransform="matrix(0 1 -1 0 357.819 191.109)" gradientUnits="userSpaceOnUse" x1="272.374" x2="363.863" xlink:href="#lg3" y1="102.819" y2="102.819"/><linearGradient id="SVGID_11_" gradientUnits="userSpaceOnUse" x1="416.298" x2="173.973" xlink:href="#lg2" y1="200.783" y2="85.878"/><linearGradient id="lg4"><stop offset="0" stop-color="#18cffc"/><stop offset="1" stop-color="#4a98f7"/></linearGradient><linearGradient id="SVGID_12_" gradientUnits="userSpaceOnUse" x1="115.077" x2="140.35" xlink:href="#lg4" y1="168.706" y2="193.979"/><linearGradient id="lg5"><stop offset="0" stop-color="#0469bc" stop-opacity="0"/><stop offset="1" stop-color="#0469bc"/></linearGradient><linearGradient id="SVGID_13_" gradientUnits="userSpaceOnUse" x1="132.867" x2="189.152" xlink:href="#lg5" y1="205.511" y2="162.026"/><linearGradient id="SVGID_14_" gradientUnits="userSpaceOnUse" x1="214.157" x2="239.429" xlink:href="#lg4" y1="86.834" y2="112.106"/><linearGradient id="SVGID_15_" gradientUnits="userSpaceOnUse" x1="231.947" x2="288.232" xlink:href="#lg5" y1="123.639" y2="80.154"/><linearGradient id="SVGID_16_" gradientUnits="userSpaceOnUse" x1="404.112" x2="429.385" xlink:href="#lg4" y1="122.52" y2="147.793"/><linearGradient id="SVGID_17_" gradientUnits="userSpaceOnUse" x1="421.902" x2="478.187" xlink:href="#lg5" y1="159.325" y2="115.84"/><linearGradient id="SVGID_18_" gradientUnits="userSpaceOnUse" x1="307.237" x2="332.51" xlink:href="#lg4" y1="10.731" y2="36.004"/><linearGradient id="SVGID_19_" gradientUnits="userSpaceOnUse" x1="325.027" x2="381.312" xlink:href="#lg5" y1="47.536" y2="4.051"/><g><g><path d="m185.017 483.128h-96.875v-222.178c0-12.258 9.937-22.196 22.196-22.196h52.484c12.258 0 22.196 9.937 22.196 22.196v222.178z" fill="url(#SVGID_1_)"/><path d="m281.892 483.128h-96.875v-289.828c0-12.258 9.937-22.196 22.196-22.196h52.484c12.258 0 22.196 9.937 22.196 22.196v289.828z" fill="url(#SVGID_2_)"/><path d="m378.767 483.128h-96.875v-359.007c0-12.258 9.937-22.196 22.196-22.196h52.484c12.258 0 22.196 9.937 22.196 22.196v359.007z" fill="url(#SVGID_3_)"/><path d="m475.642 483.128h-96.875v-184.587c0-12.258 9.937-22.196 22.196-22.196h52.484c12.258 0 22.196 9.937 22.196 22.196v184.587z" fill="url(#SVGID_4_)"/></g><path d="m281.892 483.128v-125.303l-96.875-96.875v222.178z" fill="url(#SVGID_5_)"/><path d="m378.767 483.128v-192.953l-96.875-96.875v289.828z" fill="url(#SVGID_6_)"/><g><path d="m379.475 293.068.502-1.707c-.191.559-.355 1.129-.502 1.707z" fill="url(#SVGID_7_)"/><path d="m378.985 295.593c-.129.967-.218 1.946-.218 2.948v184.587h96.875v-90.878z" fill="url(#SVGID_8_)"/></g><g><path d="m26.872 510c-14.841 0-26.872-12.031-26.872-26.872v-456.256c0-14.841 12.031-26.872 26.872-26.872 14.841 0 26.872 12.031 26.872 26.872v456.256c0 14.841-12.031 26.872-26.872 26.872z" fill="url(#SVGID_9_)"/><path d="m0 483.128c0-14.841 12.031-26.872 26.872-26.872h456.256c14.841 0 26.872 12.031 26.872 26.872 0 14.841-12.031 26.872-26.872 26.872h-456.256c-14.841 0-26.872-12.031-26.872-26.872z" fill="url(#SVGID_10_)"/></g><path d="m134.111 203.3c-2.902 0-5.78-1.257-7.757-3.683-3.489-4.28-2.848-10.58 1.434-14.069l195.974-159.727c4.155-3.387 10.249-2.895 13.805 1.123l100.575 113.588c3.661 4.135 3.276 10.455-.858 14.116-4.134 3.66-10.455 3.277-14.116-.858l-94.211-106.4-188.534 153.662c-1.856 1.511-4.091 2.248-6.312 2.248z" fill="url(#SVGID_11_)"/><g><circle cx="138.17" cy="191.799" fill="url(#SVGID_12_)" r="25.491"/><path d="m150.353 169.403c1.973 3.62 3.095 7.77 3.095 12.183 0 14.078-11.413 25.491-25.491 25.491-4.413 0-8.563-1.122-12.183-3.095 4.322 7.928 12.73 13.308 22.396 13.308 14.078 0 25.491-11.413 25.491-25.491 0-9.666-5.38-18.074-13.308-22.396z" fill="url(#SVGID_13_)"/></g><g><circle cx="237.25" cy="109.926" fill="url(#SVGID_14_)" r="25.491"/><path d="m249.432 87.53c1.973 3.62 3.095 7.77 3.095 12.183 0 14.078-11.413 25.491-25.491 25.491-4.413 0-8.563-1.122-12.183-3.095 4.322 7.928 12.73 13.308 22.396 13.308 14.078 0 25.491-11.413 25.491-25.491.001-9.665-5.379-18.074-13.308-22.396z" fill="url(#SVGID_15_)"/></g><g><circle cx="427.205" cy="145.613" fill="url(#SVGID_16_)" r="25.491"/><path d="m439.388 123.217c1.973 3.62 3.095 7.77 3.095 12.183 0 14.078-11.413 25.491-25.491 25.491-4.413 0-8.563-1.122-12.183-3.095 4.322 7.928 12.73 13.308 22.396 13.308 14.078 0 25.491-11.413 25.491-25.491 0-9.665-5.38-18.074-13.308-22.396z" fill="url(#SVGID_17_)"/></g><g><circle cx="330.33" cy="33.824" fill="url(#SVGID_18_)" r="25.491"/><path d="m342.513 11.428c1.973 3.62 3.095 7.77 3.095 12.183 0 14.078-11.413 25.491-25.491 25.491-4.413 0-8.563-1.122-12.183-3.095 4.322 7.928 12.73 13.308 22.396 13.308 14.078 0 25.491-11.413 25.491-25.491 0-9.665-5.38-18.074-13.308-22.396z" fill="url(#SVGID_19_)"/></g></g></svg>