<svg id="Capa_1" enable-background="new 0 0 510 510" height="512" viewBox="0 0 510 510" width="512" xmlns="http://www.w3.org/2000/svg" xmlns:xlink="http://www.w3.org/1999/xlink"><linearGradient id="lg1"><stop offset="0" stop-color="#a2e62e"/><stop offset=".1231" stop-color="#97de30"/><stop offset=".3395" stop-color="#79cb36"/><stop offset=".6234" stop-color="#4aab3f"/><stop offset=".9609" stop-color="#09804c"/><stop offset="1" stop-color="#017b4e"/></linearGradient><linearGradient id="SVGID_1_" gradientUnits="userSpaceOnUse" x1="184.333" x2="411.651" xlink:href="#lg1" y1="183.678" y2="410.996"/><linearGradient id="lg2"><stop offset="0" stop-color="#017b4e" stop-opacity="0"/><stop offset="1" stop-color="#01525a"/></linearGradient><linearGradient id="SVGID_2_" gradientUnits="userSpaceOnUse" x1="402.27" x2="330.27" xlink:href="#lg2" y1="403.495" y2="325.495"/><linearGradient id="SVGID_3_" gradientUnits="userSpaceOnUse" x1="404.576" x2="404.576" xlink:href="#lg2" y1="401" y2="477.059"/><linearGradient id="SVGID_4_" gradientUnits="userSpaceOnUse" x1="446.066" x2="446.066" xlink:href="#lg2" y1="311" y2="391.025"/><linearGradient id="lg3"><stop offset="0" stop-color="#838383"/><stop offset=".3537" stop-color="#787878"/><stop offset=".9728" stop-color="#5b5b5b"/><stop offset="1" stop-color="#5a5a5a"/></linearGradient><linearGradient id="SVGID_5_" gradientUnits="userSpaceOnUse" x1="176" x2="334" xlink:href="#lg3" y1="31" y2="31"/><linearGradient id="lg4"><stop offset="0" stop-color="#444" stop-opacity="0"/><stop offset="1" stop-color="#444"/></linearGradient><linearGradient id="SVGID_6_" gradientUnits="userSpaceOnUse" x1="255" x2="255" xlink:href="#lg4" y1="10" y2="44"/><linearGradient id="SVGID_7_" gradientUnits="userSpaceOnUse" x1="448.028" x2="388.012" xlink:href="#lg2" y1="378.753" y2="378.753"/><linearGradient id="SVGID_8_" gradientUnits="userSpaceOnUse" x1="145.043" x2="314.162" xlink:href="#lg3" y1="270.717" y2="270.717"/><linearGradient id="SVGID_9_" gradientUnits="userSpaceOnUse" x1="407.899" x2="253.899" xlink:href="#lg4" y1="476.913" y2="413.913"/><linearGradient id="SVGID_10_" gradientUnits="userSpaceOnUse" x1="145" x2="365" y1="426.206" y2="426.206"><stop offset="0" stop-color="#fd4755"/><stop offset="1" stop-color="#d2024e"/></linearGradient><linearGradient id="SVGID_11_" gradientUnits="userSpaceOnUse" x1="251.296" x2="272.295" y1="310.102" y2="373.099"><stop offset="0" stop-color="#fac600"/><stop offset="1" stop-color="#fe860a"/></linearGradient><linearGradient id="lg5"><stop offset="0" stop-color="#c00148" stop-opacity="0"/><stop offset="1" stop-color="#6d3326"/></linearGradient><linearGradient id="SVGID_12_" gradientUnits="userSpaceOnUse" x1="309.23" x2="172.23" xlink:href="#lg5" y1="366.807" y2="316.307"/><linearGradient id="SVGID_13_" gradientUnits="userSpaceOnUse" x1="249.802" x2="266.301" y1="197.317" y2="257.314"><stop offset="0" stop-color="#fee97d"/><stop offset="1" stop-color="#fac600"/></linearGradient><linearGradient id="SVGID_14_" gradientUnits="userSpaceOnUse" x1="243.403" x2="274.901" xlink:href="#lg1" y1="82.51" y2="160.506"/><linearGradient id="SVGID_15_" gradientUnits="userSpaceOnUse" x1="255" x2="255" xlink:href="#lg4" y1="425.515" y2="488.583"/><linearGradient id="SVGID_16_" gradientUnits="userSpaceOnUse" x1="350.37" x2="199.87" xlink:href="#lg5" y1="510.128" y2="378.628"/><linearGradient id="SVGID_17_" gradientUnits="userSpaceOnUse" x1="60.822" x2="312.944" xlink:href="#lg1" y1="294.8" y2="546.922"/><linearGradient id="lg6"><stop offset="0" stop-color="#017b4e" stop-opacity="0"/><stop offset="1" stop-color="#026841"/></linearGradient><linearGradient id="SVGID_18_" gradientTransform="matrix(.707 -.707 .707 .707 2416.407 -1230.383)" gradientUnits="userSpaceOnUse" x1="-2665.866" x2="-2836.909" xlink:href="#lg6" y1="-478.021" y2="-478.021"/><linearGradient id="SVGID_19_" gradientTransform="matrix(.707 -.707 .707 .707 2416.407 -1230.383)" gradientUnits="userSpaceOnUse" x1="-2744.117" x2="-2744.117" xlink:href="#lg6" y1="-433.574" y2="-250.443"/><linearGradient id="SVGID_20_" gradientTransform="matrix(.707 -.707 .707 .707 2416.407 -1230.383)" gradientUnits="userSpaceOnUse" x1="-2744.117" x2="-2744.117" y1="-575.311" y2="-334.49"><stop offset="0" stop-color="#017b4e" stop-opacity="0"/><stop offset=".4829" stop-color="#01754a" stop-opacity=".483"/><stop offset="1" stop-color="#026841"/></linearGradient><g><g><g><path d="m509.143 287.453c-1.982-20.406-18.03-36.453-38.435-38.435-55.785-5.419-115.713 14.892-160.928 60.106-45.215 45.215-65.526 105.143-60.107 160.928 1.982 20.406 18.03 36.453 38.435 38.435 55.785 5.419 115.712-14.892 160.928-60.107 45.215-45.214 65.526-105.141 60.107-160.927z" fill="url(#SVGID_1_)"/><path d="m261.982 496.179c6.81 6.811 15.924 11.318 26.127 12.309 55.785 5.419 115.712-14.892 160.927-60.107s65.526-105.142 60.107-160.927c-.991-10.203-5.499-19.317-12.309-26.127z" fill="url(#SVGID_2_)"/><path d="m437.588 459.009c3.905-3.38 7.73-6.911 11.448-10.629 45.215-45.215 65.526-105.142 60.107-160.927-1.982-20.406-18.03-36.453-38.435-38.435-55.785-5.419-115.713 14.892-160.928 60.107-3.717 3.717-7.249 7.542-10.629 11.448v138.437z" fill="url(#SVGID_3_)"/><path d="m382.132 376.028h114.37c11.225-28.848 15.486-59.281 12.641-88.574-1.982-20.406-18.03-36.453-38.435-38.435-29.294-2.845-59.727 1.415-88.575 12.64v114.369z" fill="url(#SVGID_4_)"/></g></g><g><g><path d="m334 62h-158v-28.352c0-18.583 15.065-33.648 33.648-33.648h90.703c18.584 0 33.649 15.065 33.649 33.648z" fill="url(#SVGID_5_)"/><path d="m334 62h-158v-28.352c0-18.583 15.065-33.648 33.648-33.648h90.703c18.584 0 33.649 15.065 33.649 33.648z" fill="url(#SVGID_6_)"/></g><path d="m509.143 287.453c-1.982-20.406-18.03-36.453-38.435-38.435-55.785-5.419-115.713 14.892-160.928 60.106-45.215 45.215-65.526 105.143-60.107 160.928 1.982 20.406 18.03 36.453 38.435 38.435 55.785 5.419 115.712-14.892 160.928-60.107 45.215-45.214 65.526-105.141 60.107-160.927z" fill="url(#SVGID_7_)"/><path d="m362.434 494h-214.868c-17.986 0-32.566-14.58-32.566-32.566v-381.434c0-17.986 14.58-32.566 32.566-32.566h214.867c17.987 0 32.567 14.58 32.567 32.566v381.434c0 17.986-14.58 32.566-32.566 32.566z" fill="url(#SVGID_8_)"/><path d="m211.333 299v195h151.1c11.9 0 22.304-6.385 27.986-15.914z" fill="url(#SVGID_9_)"/><g><path d="m350.918 467.434h-191.836c-7.777 0-14.082-6.305-14.082-14.082v-54.292c0-7.777 6.305-14.082 14.082-14.082h191.836c7.777 0 14.082 6.305 14.082 14.082v54.291c0 7.778-6.305 14.083-14.082 14.083z" fill="url(#SVGID_10_)"/><path d="m350.918 362.441h-191.836c-7.777 0-14.082-6.305-14.082-14.082v-54.291c0-7.777 6.305-14.082 14.082-14.082h191.836c7.777 0 14.082 6.305 14.082 14.082v54.291c0 7.777-6.305 14.082-14.082 14.082z" fill="url(#SVGID_11_)"/><path d="m274.774 362.441-63.441-63.441v63.441z" fill="url(#SVGID_12_)"/><path d="m350.918 257.448h-191.836c-7.777 0-14.082-6.305-14.082-14.082v-54.291c0-7.777 6.305-14.082 14.082-14.082h191.836c7.777 0 14.082 6.305 14.082 14.082v54.291c0 7.777-6.305 14.082-14.082 14.082z" fill="url(#SVGID_13_)"/><path d="m350.918 152.455h-191.836c-7.777 0-14.082-6.305-14.082-14.082v-54.291c0-7.777 6.305-14.082 14.082-14.082h191.836c7.777 0 14.082 6.305 14.082 14.082v54.291c0 7.778-6.305 14.082-14.082 14.082z" fill="url(#SVGID_14_)"/></g><path d="m115 403.016v58.418c0 17.985 14.581 32.566 32.566 32.566h214.867c17.986 0 32.567-14.581 32.567-32.566v-58.418z" fill="url(#SVGID_15_)"/><path d="m365 452.667-67.688-67.688h-85.978v82.455h139.585c7.777 0 14.082-6.305 14.082-14.082v-.685z" fill="url(#SVGID_16_)"/></g><g><path d="m41.525 234.883c-21.565 2.095-38.525 19.054-40.619 40.619-5.727 58.955 15.738 122.287 63.521 170.071 47.784 47.784 111.116 69.249 170.071 63.522 21.565-2.095 38.524-19.054 40.619-40.619 5.727-58.955-15.738-122.286-63.522-170.07-47.784-47.785-111.116-69.25-170.07-63.523z" fill="url(#SVGID_17_)"/><path d="m262.108 496.086c7.198-7.197 11.961-16.828 13.008-27.611 5.727-58.954-15.738-122.286-63.522-170.07s-111.115-69.249-170.07-63.522c-10.783 1.048-20.414 5.811-27.611 13.009z" fill="url(#SVGID_18_)"/><path d="m222.827 310.503c-3.572-4.127-7.304-8.17-11.232-12.098-47.784-47.784-111.115-69.249-170.07-63.522-21.565 2.095-38.525 19.054-40.619 40.619-5.727 58.955 15.738 122.287 63.522 170.071 3.928 3.928 7.971 7.661 12.098 11.233h146.302z" fill="url(#SVGID_19_)"/><path d="m135.132 369.11v-120.868c-30.487-11.863-62.649-16.366-93.607-13.359-21.565 2.095-38.525 19.054-40.619 40.619-3.007 30.958 1.496 63.121 13.358 93.608z" fill="url(#SVGID_20_)"/></g></g></svg>