<svg id="Capa_1" enable-background="new 0 0 510 510" height="512" viewBox="0 0 510 510" width="512" xmlns="http://www.w3.org/2000/svg" xmlns:xlink="http://www.w3.org/1999/xlink"><linearGradient id="lg1"><stop offset="0" stop-color="#ffe548"/><stop offset=".1758" stop-color="#ffde50"/><stop offset=".4446" stop-color="#ffca65"/><stop offset=".7709" stop-color="#ffaa87"/><stop offset="1" stop-color="#ff90a4"/></linearGradient><linearGradient id="SVGID_1_" gradientUnits="userSpaceOnUse" x1="243.718" x2="271.602" xlink:href="#lg1" y1="319.35" y2="549.086"/><linearGradient id="lg2"><stop offset="0" stop-color="#fba5c2" stop-opacity="0"/><stop offset=".3857" stop-color="#fca0ba" stop-opacity=".386"/><stop offset=".9737" stop-color="#ff91a5" stop-opacity=".974"/><stop offset="1" stop-color="#ff90a4"/></linearGradient><linearGradient id="SVGID_2_" gradientUnits="userSpaceOnUse" x1="355.314" x2="383.129" xlink:href="#lg2" y1="306.274" y2="535.451"/><linearGradient id="SVGID_3_" gradientUnits="userSpaceOnUse" x1="172.392" x2="372.039" xlink:href="#lg1" y1="304.593" y2="536.765"/><linearGradient id="SVGID_4_" gradientUnits="userSpaceOnUse" x1="459.438" x2="148.451" xlink:href="#lg2" y1="551.761" y2="240.774"/><linearGradient id="SVGID_5_" gradientUnits="userSpaceOnUse" x1="-14.898" x2="434.158" xlink:href="#lg1" y1="123.032" y2="302.269"/><linearGradient id="lg3"><stop offset="0" stop-color="#d4f7ff"/><stop offset="1" stop-color="#a2e3e9"/></linearGradient><linearGradient id="SVGID_6_" gradientUnits="userSpaceOnUse" x1="246.22" x2="411.457" xlink:href="#lg3" y1="330.073" y2="330.073"/><linearGradient id="SVGID_7_" gradientUnits="userSpaceOnUse" x1="246.22" x2="411.457" xlink:href="#lg3" y1="212.007" y2="212.007"/><linearGradient id="SVGID_8_" gradientUnits="userSpaceOnUse" x1="246.22" x2="411.457" xlink:href="#lg3" y1="92.962" y2="92.962"/><path d="m491.708 401.034c.147-5.044-2.632-10.167-8.38-12.131l-207.242-70.798c-13.669-4.67-28.503-4.67-42.172 0l-207.242 70.798c-5.747 1.964-8.526 7.087-8.38 12.131v22.534c-.147 5.044 2.632 10.167 8.38 12.131l207.242 70.798c13.67 4.67 28.502 4.67 42.172 0l207.242-70.798c5.747-1.964 8.526-7.087 8.38-12.131z" fill="url(#SVGID_1_)"/><path d="m276.086 506.498 207.242-70.798c5.747-1.964 8.526-7.087 8.38-12.131v-22.534c.147-5.044-2.632-10.167-8.38-12.131l-207.242-70.798c-6.835-2.335-13.96-3.502-21.086-3.502v195.396c7.126 0 14.251-1.167 21.086-3.502z" fill="url(#SVGID_2_)"/><path d="m233.914 318.105-207.242 70.799c-11.208 3.829-11.208 19.681 0 23.51l207.242 70.798c13.669 4.67 28.502 4.67 42.172 0l207.242-70.798c11.208-3.829 11.208-19.681 0-23.51l-207.242-70.798c-13.67-4.671-28.502-4.671-42.172-.001z" fill="url(#SVGID_3_)"/><path d="m483.328 388.903-207.242-70.798c-13.669-4.67-28.503-4.67-42.172 0l-109.014 37.242c-1.269 12.402-2.153 24.802-2.581 37.145-.29 8.341 3.919 16.164 11.046 21.252l88.708 88.709 11.842 4.045c13.67 4.67 28.502 4.67 42.172 0l207.242-70.798c5.747-1.964 8.526-7.087 8.38-12.131v-22.534c.146-5.045-2.633-10.168-8.381-12.132z" fill="url(#SVGID_4_)"/><path d="m236.288 10.71c-35.301 69.001-108.683 229.64-113.97 381.781-.361 10.379 6.234 19.964 16.763 24.465 73.261 31.32 158.576 31.32 231.837 0 10.529-4.501 17.124-14.086 16.763-24.465-5.287-152.141-78.669-312.78-113.97-381.781-7.305-14.28-30.117-14.28-37.423 0z" fill="url(#SVGID_5_)"/><path d="m384.984 354.265c-37.407 11.348-82.699 17.495-129.984 17.495s-92.577-6.148-129.984-17.495c2.287-22.059 5.809-44.119 10.271-65.879 31.149 11.784 74.673 18.53 119.713 18.53s88.564-6.746 119.714-18.531c4.461 21.761 7.983 43.821 10.27 65.88z" fill="url(#SVGID_6_)"/><path d="m362.647 237.521c-32.51 7.544-69.426 11.56-107.647 11.56s-75.137-4.015-107.647-11.56c5.809-21.536 12.305-42.498 19.152-62.587 26.294 6.011 57.023 9.303 88.494 9.303s62.2-3.292 88.494-9.303c6.849 20.089 13.345 41.051 19.154 62.587z" fill="url(#SVGID_7_)"/><path d="m323.949 121.849c-21.987 2.98-45.208 4.539-68.949 4.539s-46.962-1.559-68.949-4.539c9.036-22.82 18.114-43.807 26.603-62.313 13.722 1.322 27.95 2.008 42.346 2.008s28.624-.686 42.346-2.008c8.489 18.506 17.567 39.493 26.603 62.313z" fill="url(#SVGID_8_)"/></svg>