<?xml version="1.0" encoding="UTF-8" standalone="no"?>
<svg
   id="Capa_1"
   enable-background="new 0 0 510 510"
   height="512"
   viewBox="0 0 510 510"
   width="512"
   version="1.1"
   sodipodi:docname="utilities-energy-monitor (copy).svg"
   inkscape:version="1.1 (c68e22c387, 2021-05-23)"
   xmlns:inkscape="http://www.inkscape.org/namespaces/inkscape"
   xmlns:sodipodi="http://sodipodi.sourceforge.net/DTD/sodipodi-0.dtd"
   xmlns:xlink="http://www.w3.org/1999/xlink"
   xmlns="http://www.w3.org/2000/svg"
   xmlns:svg="http://www.w3.org/2000/svg">
  <defs
     id="defs139" />
  <sodipodi:namedview
     id="namedview137"
     pagecolor="#ffffff"
     bordercolor="#666666"
     borderopacity="1.0"
     inkscape:pageshadow="2"
     inkscape:pageopacity="0.0"
     inkscape:pagecheckerboard="0"
     showgrid="false"
     inkscape:zoom="0.20361328"
     inkscape:cx="-292.22062"
     inkscape:cy="238.19664"
     inkscape:window-width="1366"
     inkscape:window-height="708"
     inkscape:window-x="0"
     inkscape:window-y="0"
     inkscape:window-maximized="1"
     inkscape:current-layer="Capa_1" />
  <linearGradient
     id="lg1">
    <stop
       offset="0"
       stop-color="#a2e62e"
       id="stop2" />
    <stop
       offset=".1231"
       stop-color="#97de30"
       id="stop4" />
    <stop
       offset=".3395"
       stop-color="#79cb36"
       id="stop6" />
    <stop
       offset=".6234"
       stop-color="#4aab3f"
       id="stop8" />
    <stop
       offset=".9609"
       stop-color="#09804c"
       id="stop10" />
    <stop
       offset="1"
       stop-color="#017b4e"
       id="stop12" />
  </linearGradient>
  <linearGradient
     id="SVGID_1_"
     gradientUnits="userSpaceOnUse"
     x1="184.333"
     x2="411.651"
     xlink:href="#lg1"
     y1="183.678"
     y2="410.996" />
  <linearGradient
     id="lg2">
    <stop
       offset="0"
       stop-color="#017b4e"
       stop-opacity="0"
       id="stop16" />
    <stop
       offset="1"
       stop-color="#01525a"
       id="stop18" />
  </linearGradient>
  <linearGradient
     id="SVGID_2_"
     gradientUnits="userSpaceOnUse"
     x1="402.27"
     x2="330.27"
     xlink:href="#lg2"
     y1="403.495"
     y2="325.495" />
  <linearGradient
     id="SVGID_3_"
     gradientUnits="userSpaceOnUse"
     x1="404.576"
     x2="404.576"
     xlink:href="#lg2"
     y1="401"
     y2="477.059" />
  <linearGradient
     id="SVGID_4_"
     gradientUnits="userSpaceOnUse"
     x1="446.066"
     x2="446.066"
     xlink:href="#lg2"
     y1="311"
     y2="391.025" />
  <linearGradient
     id="lg3">
    <stop
       offset="0"
       stop-color="#838383"
       id="stop24" />
    <stop
       offset=".3537"
       stop-color="#787878"
       id="stop26" />
    <stop
       offset=".9728"
       stop-color="#5b5b5b"
       id="stop28" />
    <stop
       offset="1"
       stop-color="#5a5a5a"
       id="stop30" />
  </linearGradient>
  <linearGradient
     id="SVGID_5_"
     gradientUnits="userSpaceOnUse"
     x1="176"
     x2="334"
     xlink:href="#lg3"
     y1="31"
     y2="31" />
  <linearGradient
     id="lg4">
    <stop
       offset="0"
       stop-color="#444"
       stop-opacity="0"
       id="stop34" />
    <stop
       offset="1"
       stop-color="#444"
       id="stop36" />
  </linearGradient>
  <linearGradient
     id="SVGID_6_"
     gradientUnits="userSpaceOnUse"
     x1="255"
     x2="255"
     xlink:href="#lg4"
     y1="10"
     y2="44" />
  <linearGradient
     id="SVGID_7_"
     gradientUnits="userSpaceOnUse"
     x1="448.028"
     x2="388.012"
     xlink:href="#lg2"
     y1="378.753"
     y2="378.753" />
  <linearGradient
     id="SVGID_8_"
     gradientUnits="userSpaceOnUse"
     x1="145.043"
     x2="314.162"
     xlink:href="#lg3"
     y1="270.717"
     y2="270.717" />
  <linearGradient
     id="SVGID_9_"
     gradientUnits="userSpaceOnUse"
     x1="407.899"
     x2="253.899"
     xlink:href="#lg4"
     y1="476.913"
     y2="413.913" />
  <linearGradient
     id="SVGID_10_"
     gradientUnits="userSpaceOnUse"
     x1="145"
     x2="365"
     y1="426.206"
     y2="426.206">
    <stop
       offset="0"
       stop-color="#fd4755"
       id="stop43" />
    <stop
       offset="1"
       stop-color="#d2024e"
       id="stop45" />
  </linearGradient>
  <linearGradient
     id="SVGID_11_"
     gradientUnits="userSpaceOnUse"
     x1="251.296"
     x2="272.295"
     y1="310.102"
     y2="373.099">
    <stop
       offset="0"
       stop-color="#fac600"
       id="stop48" />
    <stop
       offset="1"
       stop-color="#fe860a"
       id="stop50" />
  </linearGradient>
  <linearGradient
     id="lg5">
    <stop
       offset="0"
       stop-color="#c00148"
       stop-opacity="0"
       id="stop53" />
    <stop
       offset="1"
       stop-color="#6d3326"
       id="stop55" />
  </linearGradient>
  <linearGradient
     id="SVGID_12_"
     gradientUnits="userSpaceOnUse"
     x1="309.23"
     x2="172.23"
     xlink:href="#lg5"
     y1="366.807"
     y2="316.307" />
  <linearGradient
     id="SVGID_13_"
     gradientUnits="userSpaceOnUse"
     x1="249.802"
     x2="266.301"
     y1="197.317"
     y2="257.314">
    <stop
       offset="0"
       stop-color="#fee97d"
       id="stop59" />
    <stop
       offset="1"
       stop-color="#fac600"
       id="stop61" />
  </linearGradient>
  <linearGradient
     id="SVGID_14_"
     gradientUnits="userSpaceOnUse"
     x1="243.403"
     x2="274.901"
     xlink:href="#lg1"
     y1="82.51"
     y2="160.506" />
  <linearGradient
     id="SVGID_15_"
     gradientUnits="userSpaceOnUse"
     x1="255"
     x2="255"
     xlink:href="#lg4"
     y1="425.515"
     y2="488.583" />
  <linearGradient
     id="SVGID_16_"
     gradientUnits="userSpaceOnUse"
     x1="350.37"
     x2="199.87"
     xlink:href="#lg5"
     y1="510.128"
     y2="378.628" />
  <linearGradient
     id="SVGID_17_"
     gradientUnits="userSpaceOnUse"
     x1="60.822"
     x2="312.944"
     xlink:href="#lg1"
     y1="294.8"
     y2="546.922" />
  <linearGradient
     id="lg6">
    <stop
       offset="0"
       stop-color="#017b4e"
       stop-opacity="0"
       id="stop68" />
    <stop
       offset="1"
       stop-color="#026841"
       id="stop70" />
  </linearGradient>
  <linearGradient
     id="SVGID_18_"
     gradientTransform="matrix(.707 -.707 .707 .707 2416.407 -1230.383)"
     gradientUnits="userSpaceOnUse"
     x1="-2665.866"
     x2="-2836.909"
     xlink:href="#lg6"
     y1="-478.021"
     y2="-478.021" />
  <linearGradient
     id="SVGID_19_"
     gradientTransform="matrix(.707 -.707 .707 .707 2416.407 -1230.383)"
     gradientUnits="userSpaceOnUse"
     x1="-2744.117"
     x2="-2744.117"
     xlink:href="#lg6"
     y1="-433.574"
     y2="-250.443" />
  <linearGradient
     id="SVGID_20_"
     gradientTransform="matrix(.707 -.707 .707 .707 2416.407 -1230.383)"
     gradientUnits="userSpaceOnUse"
     x1="-2744.117"
     x2="-2744.117"
     y1="-575.311"
     y2="-334.49">
    <stop
       offset="0"
       stop-color="#017b4e"
       stop-opacity="0"
       id="stop75" />
    <stop
       offset=".4829"
       stop-color="#01754a"
       stop-opacity=".483"
       id="stop77" />
    <stop
       offset="1"
       stop-color="#026841"
       id="stop79" />
  </linearGradient>
  <g
     id="g134">
    <g
       id="g92">
      <g
         id="g90" />
    </g>
    <g
       id="g122">
      <g
         id="g98">
        <path
           d="m334 62h-158v-28.352c0-18.583 15.065-33.648 33.648-33.648h90.703c18.584 0 33.649 15.065 33.649 33.648z"
           fill="url(#SVGID_5_)"
           id="path94" />
        <path
           d="m334 62h-158v-28.352c0-18.583 15.065-33.648 33.648-33.648h90.703c18.584 0 33.649 15.065 33.649 33.648z"
           fill="url(#SVGID_6_)"
           id="path96" />
      </g>
      <path
         d="m362.434 494h-214.868c-17.986 0-32.566-14.58-32.566-32.566v-381.434c0-17.986 14.58-32.566 32.566-32.566h214.867c17.987 0 32.567 14.58 32.567 32.566v381.434c0 17.986-14.58 32.566-32.566 32.566z"
         fill="url(#SVGID_8_)"
         id="path102" />
      <g
         id="g116">
        <path
           d="m350.918 467.434h-191.836c-7.777 0-14.082-6.305-14.082-14.082v-54.292c0-7.777 6.305-14.082 14.082-14.082h191.836c7.777 0 14.082 6.305 14.082 14.082v54.291c0 7.778-6.305 14.083-14.082 14.083z"
           fill="url(#SVGID_10_)"
           id="path106" />
        <path
           d="m350.918 362.441h-191.836c-7.777 0-14.082-6.305-14.082-14.082v-54.291c0-7.777 6.305-14.082 14.082-14.082h191.836c7.777 0 14.082 6.305 14.082 14.082v54.291c0 7.777-6.305 14.082-14.082 14.082z"
           fill="url(#SVGID_11_)"
           id="path108" />
        <path
           d="m350.918 257.448h-191.836c-7.777 0-14.082-6.305-14.082-14.082v-54.291c0-7.777 6.305-14.082 14.082-14.082h191.836c7.777 0 14.082 6.305 14.082 14.082v54.291c0 7.777-6.305 14.082-14.082 14.082z"
           fill="url(#SVGID_13_)"
           id="path112" />
        <path
           d="m350.918 152.455h-191.836c-7.777 0-14.082-6.305-14.082-14.082v-54.291c0-7.777 6.305-14.082 14.082-14.082h191.836c7.777 0 14.082 6.305 14.082 14.082v54.291c0 7.778-6.305 14.082-14.082 14.082z"
           fill="url(#SVGID_14_)"
           id="path114" />
      </g>
      <path
         d="m115 403.016v58.418c0 17.985 14.581 32.566 32.566 32.566h214.867c17.986 0 32.567-14.581 32.567-32.566v-58.418z"
         fill="url(#SVGID_15_)"
         id="path118" />
    </g>
    <g
       id="g132" />
  </g>
</svg>
