<?xml version="1.0" encoding="UTF-8" standalone="no"?>
<svg
   id="Capa_1"
   enable-background="new 0 0 510 510"
   height="512"
   viewBox="0 0 510 510"
   width="512"
   version="1.1"
   sodipodi:docname="vmware-netcfg.svg"
   inkscape:version="1.1 (c68e22c387, 2021-05-23)"
   xmlns:inkscape="http://www.inkscape.org/namespaces/inkscape"
   xmlns:sodipodi="http://sodipodi.sourceforge.net/DTD/sodipodi-0.dtd"
   xmlns:xlink="http://www.w3.org/1999/xlink"
   xmlns="http://www.w3.org/2000/svg"
   xmlns:svg="http://www.w3.org/2000/svg">
  <defs
     id="defs113">
    <linearGradient
       id="linearGradient1267"
       gradientUnits="userSpaceOnUse"
       x1="247.819"
       x2="258.71701"
       xlink:href="#lg1"
       y1="182.17799"
       y2="275.896" />
    <linearGradient
       id="linearGradient1271">
      <stop
         offset="0"
         stop-color="#0b799d"
         id="stop2-3" />
      <stop
         offset="1"
         stop-color="#07485e"
         id="stop4-6" />
    </linearGradient>
    <linearGradient
       id="linearGradient1273"
       gradientUnits="userSpaceOnUse"
       x1="379.60001"
       x2="379.60001"
       xlink:href="#lg2"
       y1="275.17499"
       y2="192.194" />
    <linearGradient
       id="linearGradient1277">
      <stop
         offset="0"
         stop-color="#07485e"
         stop-opacity="0"
         id="stop8-7" />
      <stop
         offset="1"
         stop-color="#03232e"
         id="stop10-5" />
    </linearGradient>
    <linearGradient
       id="linearGradient1279"
       gradientUnits="userSpaceOnUse"
       x1="306.15601"
       x2="47.509998"
       xlink:href="#lg2"
       y1="213.72099"
       y2="91.664001" />
    <linearGradient
       id="linearGradient1281"
       gradientUnits="userSpaceOnUse"
       x1="158.927"
       x2="208.452"
       xlink:href="#lg3"
       y1="232.82899"
       y2="282.354" />
    <linearGradient
       id="linearGradient1285">
      <stop
         offset="0"
         stop-color="#b9dd39"
         id="stop15-3" />
      <stop
         offset="1"
         stop-color="#90cc1c"
         id="stop17-5" />
    </linearGradient>
    <linearGradient
       id="linearGradient1287"
       gradientUnits="userSpaceOnUse"
       x1="100.615"
       x2="150.13901"
       xlink:href="#lg3"
       y1="232.82899"
       y2="282.354" />
    <linearGradient
       id="linearGradient1289"
       gradientUnits="userSpaceOnUse"
       x1="48.325001"
       x2="69.221001"
       xlink:href="#lg3"
       y1="240.062"
       y2="255.983" />
    <linearGradient
       id="linearGradient1291"
       gradientUnits="userSpaceOnUse"
       x1="251.81"
       x2="258.953"
       xlink:href="#lg2"
       y1="236.13499"
       y2="297.564" />
    <linearGradient
       inkscape:collect="always"
       xlink:href="#lg3"
       id="linearGradient1302"
       gradientUnits="userSpaceOnUse"
       x1="48.325"
       y1="240.062"
       x2="69.221"
       y2="255.983"
       gradientTransform="translate(0,-138.382)" />
    <linearGradient
       inkscape:collect="always"
       xlink:href="#lg3"
       id="linearGradient1304"
       gradientUnits="userSpaceOnUse"
       x1="158.927"
       y1="232.829"
       x2="208.452"
       y2="282.354"
       gradientTransform="translate(0,-138.382)" />
    <linearGradient
       inkscape:collect="always"
       xlink:href="#lg3"
       id="linearGradient1306"
       gradientUnits="userSpaceOnUse"
       x1="100.615"
       y1="232.829"
       x2="150.139"
       y2="282.354"
       gradientTransform="translate(0,-138.382)" />
    <linearGradient
       inkscape:collect="always"
       xlink:href="#lg1"
       id="linearGradient1308"
       gradientUnits="userSpaceOnUse"
       x1="247.819"
       y1="182.178"
       x2="258.717"
       y2="275.896"
       gradientTransform="translate(0,-138.382)" />
    <linearGradient
       inkscape:collect="always"
       xlink:href="#lg2"
       id="linearGradient1310"
       gradientUnits="userSpaceOnUse"
       x1="251.81"
       y1="236.135"
       x2="258.953"
       y2="297.564"
       gradientTransform="translate(0,-138.382)" />
    <linearGradient
       inkscape:collect="always"
       xlink:href="#lg2"
       id="linearGradient1312"
       gradientUnits="userSpaceOnUse"
       x1="306.156"
       y1="213.721"
       x2="47.51"
       y2="91.664"
       gradientTransform="translate(0,-138.382)" />
    <linearGradient
       inkscape:collect="always"
       xlink:href="#lg2"
       id="linearGradient1314"
       gradientUnits="userSpaceOnUse"
       x1="379.6"
       y1="275.175"
       x2="379.6"
       y2="192.194"
       gradientTransform="translate(0,-138.382)" />
  </defs>
  <sodipodi:namedview
     id="namedview111"
     pagecolor="#ffffff"
     bordercolor="#666666"
     borderopacity="1.0"
     inkscape:pageshadow="2"
     inkscape:pageopacity="0.0"
     inkscape:pagecheckerboard="0"
     showgrid="false"
     inkscape:zoom="0.28795266"
     inkscape:cx="-331.65173"
     inkscape:cy="474.03625"
     inkscape:window-width="1366"
     inkscape:window-height="708"
     inkscape:window-x="0"
     inkscape:window-y="0"
     inkscape:window-maximized="1"
     inkscape:current-layer="Capa_1" />
  <linearGradient
     id="lg1">
    <stop
       offset="0"
       stop-color="#0b799d"
       id="stop2" />
    <stop
       offset="1"
       stop-color="#07485e"
       id="stop4" />
  </linearGradient>
  <linearGradient
     id="SVGID_1_"
     gradientUnits="userSpaceOnUse"
     x1="247.819"
     x2="258.717"
     xlink:href="#lg1"
     y1="182.178"
     y2="275.896" />
  <linearGradient
     id="lg2">
    <stop
       offset="0"
       stop-color="#07485e"
       stop-opacity="0"
       id="stop8" />
    <stop
       offset="1"
       stop-color="#03232e"
       id="stop10" />
  </linearGradient>
  <linearGradient
     id="SVGID_2_"
     gradientUnits="userSpaceOnUse"
     x1="251.81"
     x2="258.953"
     xlink:href="#lg2"
     y1="236.135"
     y2="297.564" />
  <linearGradient
     id="SVGID_3_"
     gradientUnits="userSpaceOnUse"
     x1="306.156"
     x2="47.51"
     xlink:href="#lg2"
     y1="213.721"
     y2="91.664" />
  <linearGradient
     id="lg3">
    <stop
       offset="0"
       stop-color="#b9dd39"
       id="stop15" />
    <stop
       offset="1"
       stop-color="#90cc1c"
       id="stop17" />
  </linearGradient>
  <linearGradient
     id="SVGID_4_"
     gradientUnits="userSpaceOnUse"
     x1="48.325"
     x2="69.221"
     xlink:href="#lg3"
     y1="240.062"
     y2="255.983" />
  <linearGradient
     id="SVGID_5_"
     gradientUnits="userSpaceOnUse"
     x1="158.927"
     x2="208.452"
     xlink:href="#lg3"
     y1="232.829"
     y2="282.354" />
  <linearGradient
     id="SVGID_6_"
     gradientUnits="userSpaceOnUse"
     x1="100.615"
     x2="150.139"
     xlink:href="#lg3"
     y1="232.829"
     y2="282.354" />
  <linearGradient
     id="SVGID_7_"
     gradientUnits="userSpaceOnUse"
     x1="379.6"
     x2="379.6"
     xlink:href="#lg2"
     y1="275.175"
     y2="192.194" />
  <linearGradient
     id="SVGID_8_"
     gradientUnits="userSpaceOnUse"
     x1="247.819"
     x2="258.717"
     xlink:href="#lg1"
     y1="320.56"
     y2="414.278" />
  <linearGradient
     id="SVGID_9_"
     gradientUnits="userSpaceOnUse"
     x1="251.81"
     x2="258.953"
     xlink:href="#lg2"
     y1="374.517"
     y2="435.945" />
  <linearGradient
     id="SVGID_10_"
     gradientUnits="userSpaceOnUse"
     x1="306.156"
     x2="47.51"
     xlink:href="#lg2"
     y1="352.103"
     y2="230.046" />
  <linearGradient
     id="SVGID_11_"
     gradientUnits="userSpaceOnUse"
     x1="48.325"
     x2="69.221"
     xlink:href="#lg3"
     y1="378.444"
     y2="394.365" />
  <linearGradient
     id="SVGID_12_"
     gradientUnits="userSpaceOnUse"
     x1="158.927"
     x2="208.452"
     xlink:href="#lg3"
     y1="371.211"
     y2="420.735" />
  <linearGradient
     id="SVGID_13_"
     gradientUnits="userSpaceOnUse"
     x1="100.615"
     x2="150.139"
     xlink:href="#lg3"
     y1="371.211"
     y2="420.735" />
  <linearGradient
     id="SVGID_14_"
     gradientUnits="userSpaceOnUse"
     x1="379.6"
     x2="379.6"
     xlink:href="#lg2"
     y1="413.557"
     y2="330.576" />
  <linearGradient
     id="SVGID_15_"
     gradientUnits="userSpaceOnUse"
     x1="270.895"
     x2="270.895"
     xlink:href="#lg2"
     y1="399.316"
     y2="226.316" />
  <linearGradient
     id="SVGID_16_"
     gradientUnits="userSpaceOnUse"
     x1="445.088"
     x2="301.755"
     xlink:href="#lg2"
     y1="358.001"
     y2="181.335" />
  <linearGradient
     id="SVGID_17_"
     gradientUnits="userSpaceOnUse"
     x1="199.599"
     x2="314.407"
     y1="122.205"
     y2="237.012">
    <stop
       offset="0"
       stop-color="#76e2f8"
       id="stop33" />
    <stop
       offset="1"
       stop-color="#48b2e3"
       id="stop35" />
  </linearGradient>
  <linearGradient
     id="lg4">
    <stop
       offset="0"
       stop-color="#48b2e3"
       stop-opacity="0"
       id="stop38" />
    <stop
       offset=".4112"
       stop-color="#2995bf"
       stop-opacity=".411"
       id="stop40" />
    <stop
       offset=".7781"
       stop-color="#1381a6"
       stop-opacity=".778"
       id="stop42" />
    <stop
       offset="1"
       stop-color="#0b799d"
       id="stop44" />
  </linearGradient>
  <linearGradient
     id="SVGID_18_"
     gradientUnits="userSpaceOnUse"
     x1="319.139"
     x2="237.691"
     xlink:href="#lg4"
     y1="175.101"
     y2="93.653" />
  <linearGradient
     id="lg5">
    <stop
       offset="0"
       stop-color="#edf5ff"
       id="stop48" />
    <stop
       offset="1"
       stop-color="#d5e8fe"
       id="stop50" />
  </linearGradient>
  <linearGradient
     id="SVGID_19_"
     gradientUnits="userSpaceOnUse"
     x1="237.276"
     x2="272.724"
     xlink:href="#lg5"
     y1="111.03"
     y2="111.03" />
  <linearGradient
     id="SVGID_20_"
     gradientUnits="userSpaceOnUse"
     x1="314.399"
     x2="228.942"
     xlink:href="#lg4"
     y1="242.473"
     y2="202.955" />
  <linearGradient
     id="SVGID_21_"
     gradientUnits="userSpaceOnUse"
     x1="238.364"
     x2="272.071"
     xlink:href="#lg5"
     y1="205.151"
     y2="205.151" />
  <g
     id="g108"
     transform="matrix(-1,0,0,1,510,0)">
    <g
       id="g92">
      <g
         id="g72">
        <path
           d="M 478.215,313.125 H 31.785 C 14.231,313.125 0,298.894 0,281.339 v -74.811 c 0,-17.555 14.231,-31.785 31.785,-31.785 h 446.429 c 17.555,0 31.785,14.231 31.785,31.785 v 74.811 c 10e-4,17.555 -14.23,31.786 -31.784,31.786 z"
           fill="url(#SVGID_1_)"
           id="path56"
           style="fill:url(#SVGID_1_)" />
        <path
           d="m 0,243.934 v 37.406 c 0,17.555 14.231,31.785 31.785,31.785 h 446.429 c 17.555,0 31.785,-14.231 31.785,-31.785 v -37.406 z"
           fill="url(#SVGID_2_)"
           id="path58"
           style="fill:url(#SVGID_2_)" />
        <path
           d="M 478.215,174.743 H 255 V 313.125 H 478.215 C 495.77,313.125 510,298.894 510,281.34 v -74.811 c 0,-17.555 -14.231,-31.786 -31.785,-31.786 z"
           fill="url(#SVGID_3_)"
           id="path60"
           style="fill:url(#SVGID_3_)" />
        <g
           id="g68">
          <path
             d="M 60.838,266.802 H 45.974 c -8.525,0 -15.436,-6.911 -15.436,-15.436 v -14.864 c 0,-8.525 6.911,-15.436 15.436,-15.436 h 14.864 c 8.525,0 15.436,6.911 15.436,15.436 v 14.864 c 0,8.525 -6.911,15.436 -15.436,15.436 z"
             fill="url(#SVGID_4_)"
             id="path62"
             style="fill:url(#SVGID_4_)" />
          <path
             d="M 177.464,266.802 H 162.6 c -8.525,0 -15.436,-6.911 -15.436,-15.436 v -14.864 c 0,-8.525 6.911,-15.436 15.436,-15.436 h 14.864 c 8.525,0 15.436,6.911 15.436,15.436 v 14.864 c 0,8.525 -6.911,15.436 -15.436,15.436 z"
             fill="url(#SVGID_5_)"
             id="path64"
             style="fill:url(#SVGID_5_)" />
          <path
             d="m 119.151,266.802 h -14.864 c -8.525,0 -15.436,-6.911 -15.436,-15.436 v -14.864 c 0,-8.525 6.911,-15.436 15.436,-15.436 h 14.864 c 8.525,0 15.436,6.911 15.436,15.436 v 14.864 c 0,8.525 -6.911,15.436 -15.436,15.436 z"
             fill="url(#SVGID_6_)"
             id="path66"
             style="fill:url(#SVGID_6_)" />
        </g>
        <path
           d="M 460.609,266.802 H 298.592 c -9.229,0 -16.71,-7.481 -16.71,-16.71 V 234.49 c 0,-9.229 7.481,-16.71 16.71,-16.71 h 162.017 c 9.229,0 16.71,7.481 16.71,16.71 v 15.602 c 0,9.228 -7.482,16.71 -16.71,16.71 z"
           fill="url(#SVGID_7_)"
           id="path70"
           style="fill:url(#SVGID_7_)" />
        <path
           d="M 478.215,174.743 H 31.785 C 14.231,174.743 0,160.512 0,142.957 V 68.146 C 0,50.591 14.231,36.361 31.785,36.361 h 446.429 c 17.555,0 31.785,14.231 31.785,31.785 v 74.811 c 10e-4,17.555 -14.23,31.786 -31.784,31.786 z"
           fill="url(#SVGID_1_)"
           id="path56-6"
           style="fill:url(#linearGradient1308)" />
        <path
           d="m 0,105.552 v 37.406 c 0,17.555 14.231,31.785 31.785,31.785 h 446.429 c 17.555,0 31.785,-14.231 31.785,-31.785 v -37.406 z"
           fill="url(#SVGID_2_)"
           id="path58-2"
           style="fill:url(#linearGradient1310)" />
        <path
           d="M 478.215,36.361 H 255 V 174.743 H 478.215 C 495.77,174.743 510,160.512 510,142.958 V 68.147 C 510,50.592 495.769,36.361 478.215,36.361 Z"
           fill="url(#SVGID_3_)"
           id="path60-9"
           style="fill:url(#linearGradient1312)" />
        <path
           d="M 460.609,128.42 H 298.592 c -9.229,0 -16.71,-7.481 -16.71,-16.71 V 96.108 c 0,-9.229 7.481,-16.71 16.71,-16.71 h 162.017 c 9.229,0 16.71,7.481 16.71,16.71 v 15.602 c 0,9.228 -7.482,16.71 -16.71,16.71 z"
           fill="url(#SVGID_7_)"
           id="path70-1"
           style="fill:url(#linearGradient1314)" />
        <path
           d="M 60.838,128.42 H 45.974 c -8.525,0 -15.436,-6.911 -15.436,-15.436 V 98.12 c 0,-8.525 6.911,-15.436 15.436,-15.436 h 14.864 c 8.525,0 15.436,6.911 15.436,15.436 v 14.864 c 0,8.525 -6.911,15.436 -15.436,15.436 z"
           fill="url(#SVGID_4_)"
           id="path62-2"
           style="fill:url(#linearGradient1302)" />
        <path
           d="M 177.464,128.42 H 162.6 c -8.525,0 -15.436,-6.911 -15.436,-15.436 V 98.12 c 0,-8.525 6.911,-15.436 15.436,-15.436 h 14.864 c 8.525,0 15.436,6.911 15.436,15.436 v 14.864 c 0,8.525 -6.911,15.436 -15.436,15.436 z"
           fill="url(#SVGID_5_)"
           id="path64-7"
           style="fill:url(#linearGradient1304)" />
        <path
           d="m 119.151,128.42 h -14.864 c -8.525,0 -15.436,-6.911 -15.436,-15.436 V 98.12 c 0,-8.525 6.911,-15.436 15.436,-15.436 h 14.864 c 8.525,0 15.436,6.911 15.436,15.436 v 14.864 c 0,8.525 -6.911,15.436 -15.436,15.436 z"
           fill="url(#SVGID_6_)"
           id="path66-0"
           style="fill:url(#linearGradient1306)" />
      </g>
      <g
         id="g90">
        <path
           d="M 478.215,451.507 H 31.785 C 14.231,451.507 0,437.276 0,419.721 V 344.91 c 0,-17.555 14.231,-31.785 31.785,-31.785 h 446.429 c 17.555,0 31.785,14.231 31.785,31.785 v 74.811 c 10e-4,17.555 -14.23,31.786 -31.784,31.786 z"
           fill="url(#SVGID_8_)"
           id="path74"
           style="fill:url(#SVGID_8_)" />
        <path
           d="m 0,382.316 v 37.405 c 0,17.555 14.231,31.785 31.785,31.785 h 446.429 c 17.555,0 31.785,-14.231 31.785,-31.785 v -37.405 z"
           fill="url(#SVGID_9_)"
           id="path76"
           style="fill:url(#SVGID_9_)" />
        <path
           d="M 478.215,313.125 H 255 V 451.507 H 478.215 C 495.77,451.507 510,437.276 510,419.722 V 344.91 c 0,-17.554 -14.231,-31.785 -31.785,-31.785 z"
           fill="url(#SVGID_10_)"
           id="path78"
           style="fill:url(#SVGID_10_)" />
        <g
           id="g86">
          <path
             d="M 60.838,405.183 H 45.974 c -8.525,0 -15.436,-6.911 -15.436,-15.436 v -14.864 c 0,-8.525 6.911,-15.436 15.436,-15.436 h 14.864 c 8.525,0 15.436,6.911 15.436,15.436 v 14.864 c 0,8.526 -6.911,15.436 -15.436,15.436 z"
             fill="url(#SVGID_11_)"
             id="path80"
             style="fill:url(#SVGID_11_)" />
          <path
             d="M 177.464,405.183 H 162.6 c -8.525,0 -15.436,-6.911 -15.436,-15.436 v -14.864 c 0,-8.525 6.911,-15.436 15.436,-15.436 h 14.864 c 8.525,0 15.436,6.911 15.436,15.436 v 14.864 c 0,8.526 -6.911,15.436 -15.436,15.436 z"
             fill="url(#SVGID_12_)"
             id="path82"
             style="fill:url(#SVGID_12_)" />
          <path
             d="m 119.151,405.183 h -14.864 c -8.525,0 -15.436,-6.911 -15.436,-15.436 v -14.864 c 0,-8.525 6.911,-15.436 15.436,-15.436 h 14.864 c 8.525,0 15.436,6.911 15.436,15.436 v 14.864 c 0,8.526 -6.911,15.436 -15.436,15.436 z"
             fill="url(#SVGID_13_)"
             id="path84"
             style="fill:url(#SVGID_13_)" />
        </g>
        <path
           d="M 460.609,405.183 H 298.592 c -9.229,0 -16.71,-7.481 -16.71,-16.71 v -15.602 c 0,-9.229 7.481,-16.71 16.71,-16.71 h 162.017 c 9.229,0 16.71,7.481 16.71,16.71 v 15.602 c 0,9.229 -7.482,16.71 -16.71,16.71 z"
           fill="url(#SVGID_14_)"
           id="path88"
           style="fill:url(#SVGID_14_)" />
      </g>
    </g>
    <path
       d="m 510,344.906 v 74.82 c 0,17.55 -14.23,31.78 -31.79,31.78 H 170.16 L 31.79,313.126 h 446.42 c 17.56,0 31.79,14.23 31.79,31.78 z"
       fill="url(#SVGID_15_)"
       id="path94"
       style="fill:url(#SVGID_15_)" />
  </g>
</svg>
