<svg id="Capa_1" enable-background="new 0 0 512 512" height="512" viewBox="0 0 512 512" width="512" xmlns="http://www.w3.org/2000/svg" xmlns:xlink="http://www.w3.org/1999/xlink"><radialGradient id="SVGID_1_" cx="70.438" cy="414.517" gradientTransform="matrix(1 0 0 .853 0 60.9)" gradientUnits="userSpaceOnUse" r="125.133"><stop offset="0" stop-color="#90d8f9"/><stop offset=".4731" stop-color="#6bbef6"/><stop offset=".5888" stop-color="#66b5eb"/><stop offset=".7907" stop-color="#5a9ece"/><stop offset="1" stop-color="#4a80aa"/></radialGradient><radialGradient id="SVGID_2_" cx="49.043" cy="101.785" gradientTransform="matrix(.36 .933 -.546 .211 87.005 34.576)" gradientUnits="userSpaceOnUse" r="325.185"><stop offset=".0132" stop-color="#ecf4ff"/><stop offset=".1054" stop-color="#e5f3fe"/><stop offset=".3496" stop-color="#d8f0fc"/><stop offset=".5693" stop-color="#d3effb"/><stop offset=".5856" stop-color="#d0eefb"/><stop offset=".8616" stop-color="#a2defa"/><stop offset="1" stop-color="#90d8f9"/></radialGradient><radialGradient id="SVGID_3_" cx="343.421" cy="304.091" gradientTransform="matrix(-1 0 0 -.982 686.841 602.706)" gradientUnits="userSpaceOnUse" r="414.824"><stop offset=".00000001598" stop-color="#90d8f9"/><stop offset=".3919" stop-color="#6bbef6"/><stop offset=".4934" stop-color="#65b3e8"/><stop offset=".6866" stop-color="#5495c2"/><stop offset=".8925" stop-color="#407093"/></radialGradient><radialGradient id="SVGID_4_" cx="1074.5" cy="431.488" gradientTransform="matrix(.069 0 0 .106 41.338 9.411)" gradientUnits="userSpaceOnUse" r="660.302"><stop offset=".0132" stop-color="#fff"/><stop offset=".6064" stop-color="#f1f1f4"/><stop offset=".782" stop-color="#ededf0"/><stop offset=".9641" stop-color="#e2e0e5"/><stop offset="1" stop-color="#dfdde2"/></radialGradient><radialGradient id="SVGID_5_" cx="306.146" cy="274.377" gradientTransform="matrix(-.662 0 0 .59 503.83 -52.432)" gradientUnits="userSpaceOnUse" r="331.29"><stop offset=".0544" stop-color="#f1f1f4"/><stop offset=".5398" stop-color="#dfdde2"/><stop offset=".8108" stop-color="#c3bfc7"/><stop offset=".9823" stop-color="#afaab4"/></radialGradient><radialGradient id="SVGID_6_" cx="287.266" cy="291.522" gradientTransform="matrix(-.662 0 0 .419 478.845 -18.642)" gradientUnits="userSpaceOnUse" r="236.035"><stop offset="0" stop-color="#f6e266"/><stop offset=".3819" stop-color="#f2d53b"/><stop offset=".448" stop-color="#f1d333"/><stop offset=".8691" stop-color="#e7a627"/><stop offset=".9864" stop-color="#e49824"/></radialGradient><radialGradient id="SVGID_7_" cx="194.988" cy="146.398" gradientTransform="matrix(-.887 0 0 1.134 566.234 7.099)" gradientUnits="userSpaceOnUse" r="40.981"><stop offset=".0132" stop-color="#fffbe4"/><stop offset=".6064" stop-color="#f9efaf"/><stop offset=".6965" stop-color="#f9eeab"/><stop offset=".79" stop-color="#f8ec9e"/><stop offset=".8852" stop-color="#f7e88a"/><stop offset=".981" stop-color="#f6e36d"/><stop offset="1" stop-color="#f6e266"/></radialGradient><radialGradient id="SVGID_8_" cx="214.954" cy="162.805" gradientTransform="matrix(.887 0 0 -1.134 184.983 411.788)" gradientUnits="userSpaceOnUse" r="41.393"><stop offset="0" stop-color="#f6e266"/><stop offset=".1284" stop-color="#f4dc61"/><stop offset=".3004" stop-color="#f0cb55"/><stop offset=".4973" stop-color="#e9af40"/><stop offset=".7111" stop-color="#e08823"/><stop offset=".7226" stop-color="#df8621"/></radialGradient><radialGradient id="SVGID_9_" cx="167.462" cy="157.102" gradientTransform="matrix(-.887 0 0 1.134 566.234 30.141)" gradientUnits="userSpaceOnUse" r="56.133"><stop offset="0" stop-color="#fbf4c6"/><stop offset=".3542" stop-color="#f8ec9b"/><stop offset=".5523" stop-color="#f6e781"/><stop offset=".9864" stop-color="#ecbe6b"/></radialGradient><linearGradient id="lg1"><stop offset="0" stop-color="#dfdde2"/><stop offset=".6376" stop-color="#756e78"/><stop offset=".7682" stop-color="#716b74"/><stop offset=".8863" stop-color="#666069"/><stop offset=".9995" stop-color="#544f57"/><stop offset="1" stop-color="#544f57"/></linearGradient><radialGradient id="SVGID_10_" cx="193.41" cy="212.28" gradientTransform="matrix(.707 -.707 .655 .655 -82.339 210.054)" gradientUnits="userSpaceOnUse" r="174.984" xlink:href="#lg1"/><linearGradient id="lg2"><stop offset="0" stop-color="#756e78"/><stop offset=".1679" stop-color="#6f6872"/><stop offset=".3924" stop-color="#5e5861"/><stop offset=".4937" stop-color="#544f57"/><stop offset="1" stop-color="#454045"/></linearGradient><radialGradient id="SVGID_11_" cx="141.067" cy="304.772" gradientTransform="matrix(1 0 0 .66 0 103.539)" gradientUnits="userSpaceOnUse" r="218.949" xlink:href="#lg2"/><radialGradient id="SVGID_12_" cx="335.44" cy="319.991" gradientUnits="userSpaceOnUse" r="196.832"><stop offset="0" stop-color="#8b818e"/><stop offset=".5622" stop-color="#665e66"/><stop offset=".7097" stop-color="#615961"/><stop offset=".895" stop-color="#514b51"/><stop offset="1" stop-color="#454045"/></radialGradient><radialGradient id="SVGID_13_" cx="132.234" cy="155.842" gradientTransform="matrix(.707 -.707 .655 .655 -63.305 147.31)" gradientUnits="userSpaceOnUse" r="46.562" xlink:href="#lg1"/><radialGradient id="SVGID_14_" cx="118.306" cy="180.453" gradientTransform="matrix(1 0 0 .66 0 61.305)" gradientUnits="userSpaceOnUse" r="58.26" xlink:href="#lg2"/><radialGradient id="SVGID_15_" cx="172.381" cy="181.56" gradientUnits="userSpaceOnUse" r="70.043"><stop offset="0" stop-color="#8b818e"/><stop offset=".1855" stop-color="#837985"/><stop offset=".486" stop-color="#6d646d"/><stop offset=".5615" stop-color="#665e66"/><stop offset=".7093" stop-color="#615961"/><stop offset=".8948" stop-color="#514b51"/><stop offset="1" stop-color="#454045"/></radialGradient><radialGradient id="SVGID_16_" cx="322.053" cy="311.688" gradientUnits="userSpaceOnUse" r="89.674"><stop offset=".0567" stop-color="#fff"/><stop offset=".2246" stop-color="#f9fdfe"/><stop offset=".4381" stop-color="#eaf7fd"/><stop offset=".6497" stop-color="#d3effb"/><stop offset=".7656" stop-color="#ceedfb"/><stop offset=".9103" stop-color="#bee8fa"/><stop offset="1" stop-color="#b1e4f9"/></radialGradient><radialGradient id="SVGID_17_" cx="318.687" cy="304.192" gradientUnits="userSpaceOnUse" r="89.674"><stop offset="0" stop-color="#f1f1f4"/><stop offset=".6376" stop-color="#756e78"/><stop offset=".7682" stop-color="#716b74"/><stop offset=".8863" stop-color="#666069"/><stop offset=".9995" stop-color="#544f57"/><stop offset="1" stop-color="#544f57"/></radialGradient><radialGradient id="SVGID_18_" cx="312.336" cy="301.4" gradientUnits="userSpaceOnUse" r="48.389"><stop offset=".0567" stop-color="#fff"/><stop offset=".4469" stop-color="#f9fdff"/><stop offset=".6497" stop-color="#f4fbff"/><stop offset=".7677" stop-color="#eff9fe"/><stop offset=".9151" stop-color="#dff3fc"/><stop offset="1" stop-color="#d3effb"/></radialGradient><radialGradient id="SVGID_19_" cx="336.862" cy="357.363" gradientUnits="userSpaceOnUse" r="127.939"><stop offset=".0541" stop-color="#a298a5"/><stop offset=".3005" stop-color="#827983"/><stop offset=".4937" stop-color="#665e66"/><stop offset="1" stop-color="#454045"/></radialGradient><linearGradient id="lg3"><stop offset="0" stop-color="#cbe2ff"/><stop offset=".4646" stop-color="#b6e4fa"/><stop offset=".5553" stop-color="#b1e4f9"/><stop offset=".6238" stop-color="#abdef4"/><stop offset=".7148" stop-color="#9bcde5"/><stop offset=".8183" stop-color="#80b2cd"/><stop offset=".9303" stop-color="#5b8cab"/><stop offset="1" stop-color="#407093"/></linearGradient><radialGradient id="SVGID_20_" cx="43.388" cy="242.876" gradientTransform="matrix(1 0 0 .681 0 77.59)" gradientUnits="userSpaceOnUse" r="73.764" xlink:href="#lg3"/><radialGradient id="SVGID_21_" cx="43.388" cy="286.965" gradientTransform="matrix(1 0 0 .681 0 91.674)" gradientUnits="userSpaceOnUse" r="73.764" xlink:href="#lg3"/><radialGradient id="SVGID_22_" cx="43.388" cy="331.054" gradientTransform="matrix(1 0 0 .681 0 105.759)" gradientUnits="userSpaceOnUse" r="73.764" xlink:href="#lg3"/><linearGradient id="lg4"><stop offset="0" stop-color="#cbe2ff"/><stop offset=".2265" stop-color="#b6defd"/><stop offset=".5553" stop-color="#90d8f9"/><stop offset=".6287" stop-color="#8bd2f3"/><stop offset=".7261" stop-color="#7fc1e3"/><stop offset=".8369" stop-color="#69a6c8"/><stop offset=".957" stop-color="#4c80a2"/><stop offset="1" stop-color="#407093"/></linearGradient><radialGradient id="SVGID_23_" cx="43.388" cy="375.143" gradientTransform="matrix(1 0 0 .681 0 119.844)" gradientUnits="userSpaceOnUse" r="73.764" xlink:href="#lg4"/><radialGradient id="SVGID_24_" cx="44.286" cy="415.517" gradientTransform="matrix(1 0 0 .681 0 132.742)" gradientUnits="userSpaceOnUse" r="72.94" xlink:href="#lg4"/><radialGradient id="SVGID_25_" cx="313.548" cy="1168.367" gradientTransform="matrix(.931 0 0 .112 -38.569 357.028)" gradientUnits="userSpaceOnUse" r="207.462"><stop offset="0" stop-color="#90d8f9"/><stop offset=".0194" stop-color="#94d9f9"/><stop offset=".3415" stop-color="#cdeefd"/><stop offset=".4962" stop-color="#e4f6ff"/><stop offset=".888" stop-color="#fff"/></radialGradient><g><path d="m107.651 416.701-62.106 9.426c0 33.807 27.406 61.212 61.212 61.212h59.029z" fill="url(#SVGID_1_)"/><path d="m165.786 125.458h-59.029c-33.806 0-61.212 27.406-61.212 61.212v239.457h59.029z" fill="url(#SVGID_2_)"/><path d="m405.243 487.34h-239.457c-33.807 0-61.212-27.406-61.212-61.212v-239.458c0-33.807 27.406-61.212 61.212-61.212h239.457c33.807 0 61.212 27.406 61.212 61.212v239.457c.001 33.807-27.405 61.213-61.212 61.213z" fill="url(#SVGID_3_)"/><path d="m112.032 0h13.083l8.649 125.458h-21.732z" fill="url(#SVGID_4_)"/><path d="m125.115 0h274.853v125.458h-274.853z" fill="url(#SVGID_5_)"/><path d="m157.627 125.458v-92.946h209.829v92.946z" fill="url(#SVGID_6_)"/><path d="m392.812 228.904 17.488-78.739h-14.416c-15.047 0-27.244 13.754-27.244 30.721v39.534z" fill="url(#SVGID_7_)"/><path d="m368.639 220.421c0 16.967 12.198 30.721 27.244 30.721h14.417l-27.244-30.721z" fill="url(#SVGID_8_)"/><path d="m410.3 150.165c15.047 0 27.244 12.198 27.244 27.244v46.488c0 15.047-12.198 27.244-27.244 27.244-15.047 0-27.244-12.198-27.244-27.244v-46.488c-.001-15.046 12.197-27.244 27.244-27.244z" fill="url(#SVGID_9_)"/><path d="m313.569 190.944h-44.311c-63.764 0-115.455 51.691-115.455 115.455l66.777 12.656z" fill="url(#SVGID_10_)"/><path d="m212.335 306.399h-58.532c0 63.764 51.691 115.455 115.455 115.455h44.311z" fill="url(#SVGID_11_)"/><circle cx="313.569" cy="306.399" fill="url(#SVGID_12_)" r="115.455"/><path d="m164.207 150.165h-11.791c-16.967 0-30.721 13.754-30.721 30.721l17.769 3.368z" fill="url(#SVGID_13_)"/><path d="m137.269 180.886h-15.575c0 16.967 13.754 30.721 30.721 30.721h11.791z" fill="url(#SVGID_14_)"/><circle cx="164.207" cy="180.886" fill="url(#SVGID_15_)" r="30.721"/><path d="m379.963 306.399c0 43.138-41.616 77.247-66.394 77.247-3.633 0-7.209.613-10.71.133-38.071-5.22-67.399-37.875-67.399-77.38s29.328-72.16 67.399-77.38c3.501-.48 7.987.711 11.621.711 28.756-.001 65.483 33.53 65.483 76.669z" fill="url(#SVGID_16_)"/><circle cx="302.859" cy="306.399" fill="url(#SVGID_17_)" r="17.179"/><circle cx="320.038" cy="277.629" fill="url(#SVGID_18_)" r="26.487"/><path d="m313.569 228.29c-3.633 0-7.208.248-10.71.729 38.071 5.22 67.399 37.875 67.399 77.38s-29.328 72.16-67.399 77.38c3.501.48 7.077.729 10.71.729 43.138 0 78.109-34.97 78.109-78.109s-34.971-78.109-78.109-78.109z" fill="url(#SVGID_19_)"/><path d="m72.767 220.778h-27.223v-19.737h27.223c5.45 0 9.868 4.418 9.868 9.868 0 5.451-4.418 9.869-9.868 9.869z" fill="url(#SVGID_20_)"/><path d="m72.767 264.868h-27.223v-19.737h27.223c5.45 0 9.868 4.418 9.868 9.868 0 5.45-4.418 9.869-9.868 9.869z" fill="url(#SVGID_21_)"/><path d="m72.767 308.957h-27.223v-19.737h27.223c5.45 0 9.868 4.418 9.868 9.868 0 5.45-4.418 9.869-9.868 9.869z" fill="url(#SVGID_22_)"/><path d="m72.767 353.046h-27.223v-19.737h27.223c5.45 0 9.868 4.418 9.868 9.868 0 5.45-4.418 9.869-9.868 9.869z" fill="url(#SVGID_23_)"/><path d="m72.767 397.135h-27.223v-19.737h27.223c5.45 0 9.868 4.418 9.868 9.868 0 5.45-4.418 9.869-9.868 9.869z" fill="url(#SVGID_24_)"/><path d="m256 512c111.166 0 201.283-11.041 201.283-24.66h-402.566c0 13.619 90.117 24.66 201.283 24.66z" fill="url(#SVGID_25_)"/></g></svg>