<svg height="512pt" viewBox="-27 0 512 512" width="512pt" xmlns="http://www.w3.org/2000/svg" xmlns:xlink="http://www.w3.org/1999/xlink"><linearGradient id="a" gradientUnits="userSpaceOnUse" x1="153.4987817042" x2="389.2490822188" y1="256.00011" y2="256.00011"><stop offset="0" stop-color="#ffc738"/><stop offset=".4286" stop-color="#ffbb23"/><stop offset="1" stop-color="#ffa700"/></linearGradient><linearGradient id="b"><stop offset="0" stop-color="#e58200" stop-opacity="0"/><stop offset=".0396" stop-color="#e27f04" stop-opacity=".039216"/><stop offset=".4671" stop-color="#c15d2f" stop-opacity=".466667"/><stop offset=".8016" stop-color="#ad4949" stop-opacity=".8"/><stop offset="1" stop-color="#a64153"/></linearGradient><linearGradient id="c" gradientUnits="userSpaceOnUse" x1="446.905426993" x2="-27.8906483934" xlink:href="#b" y1="461.0952506758" y2="-13.7009251028"/><linearGradient id="d" gradientUnits="userSpaceOnUse" x1="241.8104871016" x2="241.8104871016" xlink:href="#b" y1="467.701659789" y2="542.9975164564"/><linearGradient id="e" gradientUnits="userSpaceOnUse" x1="321.430235823" x2="251.653139174" y1="141.5252937528" y2="-11.8389509694"><stop offset="0" stop-color="#e58200" stop-opacity="0"/><stop offset=".2044" stop-color="#dd7a0b" stop-opacity=".203922"/><stop offset=".5605" stop-color="#c76327" stop-opacity=".560784"/><stop offset="1" stop-color="#a64153"/></linearGradient><linearGradient id="f"><stop offset="0" stop-color="#fffcf8"/><stop offset=".1875" stop-color="#faf8f6"/><stop offset=".4041" stop-color="#eceef2"/><stop offset=".6353" stop-color="#d5dcea"/><stop offset=".875" stop-color="#b5c4df"/><stop offset="1" stop-color="#a1b5d8"/></linearGradient><linearGradient id="g" gradientUnits="userSpaceOnUse" x1="113.9273890146" x2="472.2802582884" xlink:href="#f" y1="63.7630015158" y2="602.4479702368"/><linearGradient id="h"><stop offset="0" stop-color="#a1b5d8" stop-opacity="0"/><stop offset=".5515" stop-color="#899ab2" stop-opacity=".552941"/><stop offset="1" stop-color="#748290"/></linearGradient><linearGradient id="i" gradientUnits="userSpaceOnUse" x1="300.949725062" x2="257.3389518132" xlink:href="#h" y1="106.3510794232" y2="-54.2817613634"/><linearGradient id="j" gradientUnits="userSpaceOnUse" x1="348.3893564266" x2="222.4521603522" y1="558.271988902" y2="432.3347928276"><stop offset="0" stop-color="#a1b5d8" stop-opacity="0"/><stop offset=".0343" stop-color="#9fb3d5" stop-opacity=".035294"/><stop offset=".4515" stop-color="#8898af" stop-opacity=".45098"/><stop offset=".788" stop-color="#798898" stop-opacity=".788235"/><stop offset="1" stop-color="#748290"/></linearGradient><linearGradient id="k" gradientUnits="userSpaceOnUse" x1="205.9461767892" x2="205.9461767892" xlink:href="#f" y1="431.724609036" y2="514.6273834818"/><linearGradient id="l" gradientUnits="userSpaceOnUse" x1="299.7769433816" x2="216.3715051904" xlink:href="#h" y1="137.5133202642" y2="-46.1968763208"/><linearGradient id="m" gradientUnits="userSpaceOnUse" x1="241.8103867094" x2="241.8103867094" y1="82.1023474352" y2="103.3695314754"><stop offset="0" stop-color="#3b395f"/><stop offset=".8022" stop-color="#1b1f3a"/><stop offset="1" stop-color="#131830"/></linearGradient><linearGradient id="n" gradientUnits="userSpaceOnUse" x1="241.8103867094" x2="241.8103867094" y1="14.5052674092" y2="68.9944390578"><stop offset="0" stop-color="#ff4974"/><stop offset=".2051" stop-color="#fd436f"/><stop offset=".4853" stop-color="#f63162"/><stop offset=".8075" stop-color="#ec154d"/><stop offset="1" stop-color="#e4003d"/></linearGradient><path d="m427.335938 512h-371.050782c-17.265625 0-31.261718-13.996094-31.261718-31.261719v-449.476562c0-17.265625 13.996093-31.261719 31.261718-31.261719h371.050782c17.265624 0 31.261718 13.996094 31.261718 31.261719v449.476562c0 17.265625-13.996094 31.261719-31.261718 31.261719zm0 0" fill="url(#a)"/><path d="m458.597656 480.738281v-419.410156l-27.953125-27.953125c-5.175781-6.132812-12.910156-10.027344-21.558593-10.027344h-334.550782c-15.574218 0-28.203125 12.625-28.203125 28.199219v408.90625c0 8.648437 3.898438 16.382813 10.027344 21.558594l29.992187 29.988281h340.984376c17.265624 0 31.261718-13.996094 31.261718-31.261719zm0 0" fill="url(#c)"/><path d="m25.023438 402.289062v78.449219c0 17.265625 13.996093 31.261719 31.261718 31.261719h371.050782c17.265624 0 31.261718-13.996094 31.261718-31.261719v-78.449219zm0 0" fill="url(#d)"/><path d="m327.519531 6.289062c-3.261719-3.84375-8.121093-6.289062-13.5625-6.289062h-144.296875c-9.824218 0-17.792968 7.96875-17.792968 17.792969v23.285156c0 5.4375 2.445312 10.296875 6.289062 13.5625l102.972656 102.96875c3.261719 3.84375 8.125 6.289063 13.5625 6.289063h144.296875c9.828125 0 17.792969-7.964844 17.792969-17.792969v-23.28125c0-5.441407-2.445312-10.300781-6.289062-13.5625zm0 0" fill="url(#e)"/><path d="m409.085938 488.652344h-334.550782c-15.574218 0-28.203125-12.625-28.203125-28.199219v-408.90625c0-15.574219 12.628907-28.199219 28.203125-28.199219h334.550782c15.574218 0 28.203124 12.625 28.203124 28.199219v408.90625c0 15.574219-12.628906 28.199219-28.203124 28.199219zm0 0" fill="url(#g)"/><path d="m430.492188 109.261719-85.914063-85.914063h-192.710937v17.730469c0 5.4375 2.449218 10.296875 6.292968 13.5625l102.96875 102.96875c3.265625 3.84375 8.125 6.289063 13.5625 6.289063h144.296875c9.828125 0 17.792969-7.964844 17.792969-17.792969v-23.28125c0-5.4375-2.445312-10.300781-6.289062-13.5625zm0 0" fill="url(#i)"/><path d="m74.535156 488.652344h334.550782c15.574218 0 28.203124-12.625 28.203124-28.199219v-29.15625l-53.664062-53.660156c-5.160156-5.675781-12.601562-9.238281-20.875-9.238281h-316.417969v92.050781c0 15.578125 12.628907 28.203125 28.203125 28.203125zm0 0" fill="url(#j)"/><path d="m362.753906 368.398438h-334.550781c-15.578125 0-28.203125 12.625-28.203125 28.203124v37.175782c0 30.304687 24.570312 54.875 54.878906 54.875h357.011719c-11.5625 0-20.9375-9.375-20.9375-20.9375v-71.113282c0-15.578124-12.625-28.203124-28.199219-28.203124zm0 0" fill="url(#k)"/><g fill="#a1b5d8"><path d="m92.242188 176.742188h299.136718v16.351562h-299.136718zm0 0"/><path d="m92.242188 241.140625h299.136718v16.351563h-299.136718zm0 0"/><path d="m92.242188 305.535156h238.203124v16.355469h-238.203124zm0 0"/></g><path d="m320.855469 45.578125h-16.355469v15.800781c0 10.824219-8.804688 19.632813-19.632812 19.632813h-71.648438l-34.097656-35.433594h-16.355469v15.800781c0 10.316406 4.371094 19.625 11.34375 26.191406l77.496094 77.496094c6.566406 6.976563 15.875 11.34375 26.191406 11.34375h86.117187c19.84375 0 35.984376-16.144531 35.984376-35.984375v-15.804687zm0 0" fill="url(#l)"/><path d="m284.871094 97.367188h-86.121094c-19.839844 0-35.984375-16.144532-35.984375-35.988282v-15.800781h16.355469v15.800781c0 10.824219 8.804687 19.632813 19.628906 19.632813h86.117188c10.828124 0 19.632812-8.804688 19.632812-19.632813v-15.800781h16.355469v15.800781c0 19.84375-16.144531 35.988282-35.984375 35.988282zm0 0" fill="url(#m)"/><path d="m313.957031 58.871094h-144.296875c-9.824218 0-17.792968-7.964844-17.792968-17.792969v-23.285156c0-9.824219 7.96875-17.792969 17.792968-17.792969h144.296875c9.828125 0 17.796875 7.96875 17.796875 17.792969v23.285156c0 9.828125-7.96875 17.792969-17.796875 17.792969zm0 0" fill="url(#n)"/></svg>