<svg id="Capa_1" enable-background="new 0 0 510 510" height="512" viewBox="0 0 510 510" width="512" xmlns="http://www.w3.org/2000/svg" xmlns:xlink="http://www.w3.org/1999/xlink"><linearGradient id="lg1"><stop offset="0" stop-color="#f8f6fb"/><stop offset="1" stop-color="#efdcfb"/></linearGradient><linearGradient id="SVGID_1_" gradientUnits="userSpaceOnUse" x1="99.085" x2="99.085" xlink:href="#lg1" y1="90.462" y2="116.404"/><linearGradient id="lg2"><stop offset="0" stop-color="#efdcfb" stop-opacity="0"/><stop offset=".0287" stop-color="#e9d6f7" stop-opacity=".029"/><stop offset=".2203" stop-color="#c5b5de" stop-opacity=".22"/><stop offset=".4138" stop-color="#aa9bcb" stop-opacity=".414"/><stop offset=".6078" stop-color="#9688bd" stop-opacity=".608"/><stop offset=".8028" stop-color="#8a7db5" stop-opacity=".803"/><stop offset="1" stop-color="#8679b2"/></linearGradient><linearGradient id="SVGID_2_" gradientUnits="userSpaceOnUse" x1="92.945" x2="123.09" xlink:href="#lg2" y1="76.401" y2="196.981"/><linearGradient id="SVGID_3_" gradientTransform="matrix(-1 0 0 1 510 0)" gradientUnits="userSpaceOnUse" x1="405.756" x2="431.085" xlink:href="#lg2" y1="80.325" y2="181.639"/><linearGradient id="lg3"><stop offset="0" stop-color="#8a7889"/><stop offset=".3344" stop-color="#867385"/><stop offset=".7039" stop-color="#7b667b"/><stop offset="1" stop-color="#6e566e"/></linearGradient><linearGradient id="SVGID_4_" gradientUnits="userSpaceOnUse" x1="270.291" x2="317.905" xlink:href="#lg3" y1="-31.772" y2="164.455"/><linearGradient id="lg4"><stop offset="0" stop-color="#ffd945"/><stop offset=".3043" stop-color="#ffcd3e"/><stop offset=".8558" stop-color="#ffad2b"/><stop offset="1" stop-color="#ffa325"/></linearGradient><linearGradient id="SVGID_5_" gradientUnits="userSpaceOnUse" x1="295.709" x2="295.709" xlink:href="#lg4" y1="19.254" y2="232.294"/><linearGradient id="SVGID_6_" gradientUnits="userSpaceOnUse" x1="295.709" x2="295.709" xlink:href="#lg4" y1="42.499" y2="9.977"/><linearGradient id="lg5"><stop offset="0" stop-color="#f82814" stop-opacity="0"/><stop offset="1" stop-color="#c0272d"/></linearGradient><linearGradient id="SVGID_7_" gradientUnits="userSpaceOnUse" x1="295.709" x2="295.709" xlink:href="#lg5" y1="111.684" y2="39.12"/><linearGradient id="SVGID_8_" gradientUnits="userSpaceOnUse" x1="295.709" x2="295.709" xlink:href="#lg5" y1="67.056" y2="22.712"/><linearGradient id="SVGID_9_" gradientUnits="userSpaceOnUse" x1="186.417" x2="186.417" y1="103.02" y2="119.271"><stop offset="0" stop-color="#ffa936"/><stop offset=".4112" stop-color="#ff8548"/><stop offset=".7781" stop-color="#ff6c54"/><stop offset="1" stop-color="#ff6359"/></linearGradient><linearGradient id="SVGID_10_" gradientUnits="userSpaceOnUse" x1="133.666" x2="374.818" xlink:href="#lg1" y1="134.888" y2="376.039"/><linearGradient id="SVGID_11_" gradientUnits="userSpaceOnUse" x1="255" x2="255" xlink:href="#lg2" y1="369.115" y2="333.481"/><linearGradient id="SVGID_12_" gradientUnits="userSpaceOnUse" x1="255" x2="255" xlink:href="#lg2" y1="375.937" y2="409.131"/><linearGradient id="SVGID_13_" gradientUnits="userSpaceOnUse" x1="453.812" x2="407.718" xlink:href="#lg2" y1="373.016" y2="339.801"/><linearGradient id="SVGID_14_" gradientUnits="userSpaceOnUse" x1="240.424" x2="269.756" xlink:href="#lg3" y1="173.173" y2="340.297"/><linearGradient id="SVGID_15_" gradientUnits="userSpaceOnUse" x1="492.362" x2="358.932" y1="354.822" y2="287.091"><stop offset="0" stop-color="#6e566e" stop-opacity="0"/><stop offset=".2944" stop-color="#674d66" stop-opacity=".294"/><stop offset="1" stop-color="#593b56"/></linearGradient><linearGradient id="SVGID_16_" gradientUnits="userSpaceOnUse" x1="242.792" x2="428.283" xlink:href="#lg1" y1="203.305" y2="388.795"/><linearGradient id="SVGID_17_" gradientTransform="matrix(-1 0 0 -1 510 -1618)" gradientUnits="userSpaceOnUse" x1="168.236" x2="329.674" xlink:href="#lg1" y1="-1920.277" y2="-1758.839"/><linearGradient id="SVGID_18_" gradientUnits="userSpaceOnUse" x1="236.272" x2="360.544" xlink:href="#lg3" y1="196.784" y2="321.056"/><linearGradient id="SVGID_19_" gradientUnits="userSpaceOnUse" x1="295.709" x2="295.709" y1="260.375" y2="64.364"><stop offset="0" stop-color="#fff" stop-opacity="0"/><stop offset="1" stop-color="#fff"/></linearGradient><linearGradient id="SVGID_20_" gradientUnits="userSpaceOnUse" x1="333.866" x2="319.293" xlink:href="#lg2" y1="417.293" y2="354.478"/><linearGradient id="SVGID_21_" gradientUnits="userSpaceOnUse" x1="241.232" x2="322.605" y1="369.107" y2="532.87"><stop offset="0" stop-color="#cdec7a"/><stop offset=".2157" stop-color="#b0e995"/><stop offset=".5613" stop-color="#87e4bb"/><stop offset=".8347" stop-color="#6ee1d2"/><stop offset="1" stop-color="#65e0db"/></linearGradient><linearGradient id="lg6"><stop offset="0" stop-color="#cdec7a" stop-opacity="0"/><stop offset=".2354" stop-color="#9ad57d" stop-opacity=".235"/><stop offset=".6035" stop-color="#51b482" stop-opacity=".604"/><stop offset=".8679" stop-color="#239f85" stop-opacity=".868"/><stop offset="1" stop-color="#119786"/></linearGradient><linearGradient id="SVGID_22_" gradientUnits="userSpaceOnUse" x1="321.012" x2="329.142" xlink:href="#lg6" y1="486.1" y2="448.052"/><linearGradient id="SVGID_23_" gradientUnits="userSpaceOnUse" x1="365.195" x2="365.195" xlink:href="#lg6" y1="417.32" y2="446.915"/><linearGradient id="SVGID_24_" gradientUnits="userSpaceOnUse" x1="107.556" x2="107.556" xlink:href="#lg6" y1="434.6" y2="401.744"/><linearGradient id="SVGID_25_" gradientUnits="userSpaceOnUse" x1="415.152" x2="415.152" xlink:href="#lg6" y1="426.135" y2="401.302"/><g><g><path d="m143.491 124.078h-88.812c-4.133 0-7.483-3.35-7.483-7.483v-31.269c0-4.133 3.35-7.483 7.483-7.483h88.812c4.133 0 7.483 3.35 7.483 7.483v31.269c0 4.133-3.35 7.483-7.483 7.483z" fill="url(#SVGID_1_)"/><path d="m129.235 124.078h-60.299c-3.462 0-6.269-2.807-6.269-6.269v-33.697c0-3.462 2.807-6.269 6.269-6.269h60.299c3.462 0 6.269 2.807 6.269 6.269v33.697c0 3.462-2.807 6.269-6.269 6.269z" fill="url(#SVGID_2_)"/><path d="m88.368 124.078h21.433c2.2 0 3.983-1.783 3.983-3.983v-38.27c0-2.2-1.783-3.983-3.983-3.983h-21.433c-2.2 0-3.983 1.783-3.983 3.983v38.27c.001 2.2 1.784 3.983 3.983 3.983z" fill="url(#SVGID_3_)"/></g><g><path d="m363.675 145.962h-135.932c-14.975 0-27.114-12.139-27.114-27.114v-91.734c0-14.975 12.139-27.114 27.114-27.114h135.933c14.975 0 27.114 12.139 27.114 27.114v91.734c-.001 14.975-12.14 27.114-27.115 27.114z" fill="url(#SVGID_4_)"/><path d="m352.262 125.936h-113.105c-11.866 0-21.485-9.619-21.485-21.485v-62.94c0-11.866 9.619-21.485 21.485-21.485h113.105c11.866 0 21.485 9.619 21.485 21.485v62.94c-.001 11.866-9.62 21.485-21.485 21.485z" fill="url(#SVGID_5_)"/><path d="m373.746 55.369v-11.794c0-13.006-8.776-23.549-19.602-23.549h-116.871c-10.826 0-19.602 10.543-19.602 23.549v11.793h156.075z" fill="url(#SVGID_6_)"/><path d="m373.745 88.451v13.931c0 13.007-8.779 23.555-19.595 23.555h-116.882c-10.816 0-19.595-10.547-19.595-23.555v-13.931z" fill="url(#SVGID_7_)"/><path d="m217.672 55.369h156.075v33.087h-156.075z" fill="url(#SVGID_8_)"/></g><path d="m209.225 124.078h-45.616c-2.363 0-4.279-1.916-4.279-4.279v-20.406c0-2.363 1.916-4.279 4.279-4.279h45.616c2.363 0 4.279 1.916 4.279 4.279v20.406c0 2.363-1.916 4.279-4.279 4.279z" fill="url(#SVGID_9_)"/><path d="m455.245 399.931h-400.49c-16.997 0-30.776-13.779-30.776-30.776v-225.866c0-16.997 13.779-30.776 30.776-30.776h400.49c16.997 0 30.776 13.779 30.776 30.776v225.866c0 16.997-13.779 30.776-30.776 30.776z" fill="url(#SVGID_10_)"/><path d="m23.979 314.544v54.61c0 16.997 13.779 30.776 30.776 30.776h400.49c16.997 0 30.776-13.779 30.776-30.776v-54.61z" fill="url(#SVGID_11_)"/><path d="m23.979 366.481v2.673c0 16.997 13.779 30.776 30.776 30.776h400.49c16.997 0 30.776-13.779 30.776-30.776v-2.673z" fill="url(#SVGID_12_)"/><path d="m486.021 369.154v-15.566c4.883-2.145 8.297-7.017 8.297-12.692v-113.868l-83.132-83.132c-12.321-12.664-26.712-23.3-42.617-31.383h-142.749c-52.349 26.604-88.219 80.966-88.219 143.709 0 45.29 15.696 86.206 45.781 115.476l28.233 28.233h243.63c16.997 0 30.776-13.779 30.776-30.777z" fill="url(#SVGID_13_)"/><path d="m480.454 354.76h-450.908c-7.657 0-13.863-6.207-13.863-13.863v-169.351c0-7.657 6.207-13.863 13.863-13.863h450.909c7.657 0 13.863 6.207 13.863 13.863v169.351c0 7.657-6.207 13.863-13.864 13.863z" fill="url(#SVGID_14_)"/><path d="m171.252 157.683c-21.092 27.24-33.65 61.421-33.65 98.539 0 37.121 12.566 71.299 33.663 98.539h309.19c7.657 0 13.863-6.207 13.863-13.863v-113.87l-69.345-69.345z" fill="url(#SVGID_15_)"/><g><circle cx="295.709" cy="256.222" fill="url(#SVGID_16_)" r="161.108"/><circle cx="295.709" cy="256.222" fill="url(#SVGID_17_)" r="140.217"/><circle cx="295.709" cy="256.222" fill="url(#SVGID_18_)" r="120.96"/><ellipse cx="295.709" cy="221.084" fill="url(#SVGID_19_)" rx="89.443" ry="67.013"/></g><path d="m366.369 381.147c-2.129-2.129-4.511-3.978-7.108-5.502-7.058-4.144-21.638-11.887-32.043-11.887-23.196 0-41.77 14.788-47.551 36.173-1.115 4.103-1.719 8.411-1.739 12.862v.379c.005 1.034.413 3.215.413 3.207v.008c5.707.612 11.499.944 17.368.944 26.234 0 51.001-6.275 72.889-17.399h16.555z" fill="url(#SVGID_20_)"/><g><path d="m415.899 399.931c-10.662 13.854-24.496 25.15-40.396 32.794 1.31-6.354 2.005-12.933 2.005-19.676 0-4.533-.604-8.933-1.739-13.117-5.781-21.385-25.355-37.173-48.551-37.173s-42.77 15.788-48.551 37.173c-1.115 4.103-1.719 8.411-1.739 12.862v.379c.133 27.606 22.644 50.025 50.291 50.025 4.328 0 8.605-.205 12.821-.614-14.212 17.047-35.597 27.903-59.479 27.903h-70.888c-54.394 0-99.844-39.025-109.81-90.554h-19.821c10.191 62.344 64.441 110.066 129.63 110.066h70.888c37.613 0 70.304-21.539 86.369-52.93 30.512-9.7 56.235-30.266 72.586-57.136h-23.616zm-63.009 40.785c-8.247 1.944-16.842 2.967-25.672 2.967-16.955 0-30.747-13.762-30.788-30.706.01-4.666 1.064-9.086 2.947-13.046 4.922-10.426 15.553-17.661 27.841-17.661 12.278 0 22.899 7.234 27.831 17.661 1.893 3.98 2.947 8.431 2.947 13.117 0 9.751-1.811 19.073-5.106 27.668z" fill="url(#SVGID_21_)"/><path d="m280.557 490.488h-.192v19.512h.192c37.619 0 70.304-21.541 86.368-52.934-15.552 3.974-26.885 5.512-26.885 5.512-14.215 17.047-35.604 27.91-59.483 27.91z" fill="url(#SVGID_22_)"/><path d="m375.499 432.719c1.315-6.353 2.005-12.928 2.005-19.666 0-3.901-.461-7.694-1.306-11.342h-20.381c1.398 3.513 2.175 7.337 2.175 11.342 0 9.741-1.808 19.067-5.106 27.661 12.034-2.295 22.613-7.995 22.613-7.995z" fill="url(#SVGID_23_)"/><path d="m99.862 399.931h-19.82c3.802 23.261 13.741 44.484 28.089 61.955h26.938c-17.809-15.976-30.489-37.56-35.207-61.955z" fill="url(#SVGID_24_)"/><path d="m390.789 423.81v22.948c20.016-11.117 36.846-27.306 48.725-46.828h-23.616c-7.077 9.198-15.559 17.258-25.109 23.88z" fill="url(#SVGID_25_)"/></g></g></svg>