<svg id="Capa_1" enable-background="new 0 0 510 510" height="512" viewBox="0 0 510 510" width="512" xmlns="http://www.w3.org/2000/svg" xmlns:xlink="http://www.w3.org/1999/xlink"><linearGradient id="lg1"><stop offset="0" stop-color="#fff5d9"/><stop offset="1" stop-color="#ffce47"/></linearGradient><linearGradient id="SVGID_1_" gradientUnits="userSpaceOnUse" x1="228.956" x2="388.026" xlink:href="#lg1" y1="19.739" y2="178.809"/><linearGradient id="lg2"><stop offset="0" stop-color="#6fa953"/><stop offset="1" stop-color="#43765a"/></linearGradient><linearGradient id="SVGID_2_" gradientUnits="userSpaceOnUse" x1="44.482" x2="113.666" xlink:href="#lg2" y1="179.178" y2="248.363"/><linearGradient id="lg3"><stop offset="0" stop-color="#e4e08e"/><stop offset="1" stop-color="#6fa953"/></linearGradient><linearGradient id="SVGID_3_" gradientUnits="userSpaceOnUse" x1="161.177" x2="254.747" xlink:href="#lg3" y1="55.267" y2="148.837"/><linearGradient id="lg4"><stop offset="0" stop-color="#ffce47"/><stop offset="1" stop-color="#ff9356"/></linearGradient><linearGradient id="SVGID_4_" gradientUnits="userSpaceOnUse" x1="331.832" x2="483.7" xlink:href="#lg4" y1="122.614" y2="274.483"/><linearGradient id="lg5"><stop offset="0" stop-color="#ff9356"/><stop offset="1" stop-color="#ff755c"/></linearGradient><linearGradient id="SVGID_5_" gradientUnits="userSpaceOnUse" x1="365.57" x2="453.611" xlink:href="#lg5" y1="259.66" y2="347.701"/><linearGradient id="lg6"><stop offset="0" stop-color="#7acbff"/><stop offset="1" stop-color="#45a2e0"/></linearGradient><linearGradient id="SVGID_6_" gradientUnits="userSpaceOnUse" x1="32.372" x2="135.969" xlink:href="#lg6" y1="270.376" y2="373.973"/><linearGradient id="lg7"><stop offset="0" stop-color="#ff755c"/><stop offset="1" stop-color="#ff4181"/></linearGradient><linearGradient id="SVGID_7_" gradientUnits="userSpaceOnUse" x1="254.831" x2="341.741" xlink:href="#lg7" y1="389.528" y2="476.437"/><linearGradient id="lg8"><stop offset="0" stop-color="#ff4181"/><stop offset="1" stop-color="#843561"/></linearGradient><linearGradient id="SVGID_8_" gradientUnits="userSpaceOnUse" x1="106.478" x2="316.633" xlink:href="#lg8" y1="344.481" y2="554.637"/><linearGradient id="SVGID_9_" gradientUnits="userSpaceOnUse" x1="241.702" x2="362.367" xlink:href="#lg1" y1="73.556" y2="194.221"/><linearGradient id="SVGID_10_" gradientUnits="userSpaceOnUse" x1="157.639" x2="36.299" xlink:href="#lg2" y1="263.29" y2="141.95"/><linearGradient id="SVGID_11_" gradientUnits="userSpaceOnUse" x1="242.503" x2="134.517" xlink:href="#lg3" y1="165.639" y2="57.652"/><linearGradient id="SVGID_12_" gradientUnits="userSpaceOnUse" x1="436.365" x2="322.367" xlink:href="#lg4" y1="268.219" y2="154.221"/><linearGradient id="SVGID_13_" gradientUnits="userSpaceOnUse" x1="428.506" x2="352.346" xlink:href="#lg5" y1="351.642" y2="275.481"/><linearGradient id="SVGID_14_" gradientUnits="userSpaceOnUse" x1="187.562" x2="46.948" xlink:href="#lg6" y1="384.494" y2="243.88"/><linearGradient id="SVGID_15_" gradientUnits="userSpaceOnUse" x1="341.317" x2="238.827" xlink:href="#lg7" y1="446.968" y2="344.478"/><linearGradient id="SVGID_16_" gradientUnits="userSpaceOnUse" x1="257.313" x2="132.233" xlink:href="#lg8" y1="454.246" y2="329.165"/><linearGradient id="SVGID_17_" gradientUnits="userSpaceOnUse" x1="412.144" x2="368.938" y1="202.926" y2="159.721"><stop offset="0" stop-color="#ff9356" stop-opacity="0"/><stop offset="1" stop-color="#ff755c"/></linearGradient><linearGradient id="SVGID_18_" gradientUnits="userSpaceOnUse" x1="229.579" x2="374.431" xlink:href="#lg1" y1="22.785" y2="167.637"/><g><g><path d="m425.135 99.259-94.513 94.513c-19.356-19.356-46.094-31.33-75.622-31.33v-133.655c66.438 0 126.598 26.924 170.135 70.472z" fill="url(#SVGID_1_)"/><path d="m175.538 193.771c-19.356 19.356-29.954 41.951-29.954 71.479l-66.226 4.143h-64.965c0-66.438 26.924-126.598 70.472-170.135l46.661 46.661z" fill="url(#SVGID_2_)"/><path d="m255 28.787v133.655c-29.528 0-56.266 11.974-75.622 31.33l-94.513-94.513c43.537-43.548 103.697-70.472 170.135-70.472z" fill="url(#SVGID_3_)"/><path d="m495.607 269.393h-133.655c0-29.528-11.974-56.266-31.33-75.622l94.513-94.513c43.548 43.537 70.472 103.697 70.472 170.135z" fill="url(#SVGID_4_)"/><path d="m495.607 269.393c0 66.438-26.924 126.598-70.472 170.135l-94.513-94.513c19.356-19.356 31.33-46.094 31.33-75.622z" fill="url(#SVGID_5_)"/><path d="m179.378 345.015-94.513 94.513c-43.548-43.536-70.472-103.697-70.472-170.135h133.655c0 29.528 11.974 56.266 31.33 75.622z" fill="url(#SVGID_6_)"/><path d="m425.135 439.528c-43.537 43.548-103.697 70.472-170.135 70.472v-133.655c29.528 0 56.266-11.974 75.622-31.33z" fill="url(#SVGID_7_)"/><path d="m255 376.345v133.655c-66.438 0-126.598-26.924-170.135-70.472l94.513-94.513c19.356 19.356 46.094 31.33 75.622 31.33z" fill="url(#SVGID_8_)"/></g><g><path d="m384.063 140.33-53.441 53.441c-19.356-19.356-46.094-31.33-75.622-31.33v-75.563c50.407 0 96.024 20.425 129.063 53.452z" fill="url(#SVGID_9_)"/><path d="m179.378 193.771c-19.356 19.356-31.33 46.094-31.33 75.622h-75.564c0-50.407 20.425-96.024 53.453-129.063z" fill="url(#SVGID_10_)"/><path d="m255 86.878v75.564c-29.528 0-56.266 11.974-75.622 31.33l-53.441-53.441c33.039-33.028 78.656-53.453 129.063-53.453z" fill="url(#SVGID_11_)"/><path d="m437.516 269.393h-75.564c0-29.528-11.974-56.266-31.33-75.622l53.441-53.441c33.027 33.039 53.453 78.656 53.453 129.063z" fill="url(#SVGID_12_)"/><path d="m437.516 269.393c0 50.407-20.426 96.024-53.453 129.063l-53.441-53.441c19.356-19.356 31.33-46.094 31.33-75.622z" fill="url(#SVGID_13_)"/><path d="m179.378 345.015-53.441 53.441c-33.027-33.039-53.453-78.656-53.453-129.063h75.564c0 29.528 11.974 56.266 31.33 75.622z" fill="url(#SVGID_14_)"/><path d="m384.063 398.456c-33.039 33.027-78.656 53.453-129.063 53.453v-75.564c29.528 0 56.266-11.974 75.622-31.33z" fill="url(#SVGID_15_)"/><path d="m255 376.345v75.564c-50.407 0-96.024-20.426-129.063-53.453l53.441-53.441c19.356 19.356 46.094 31.33 75.622 31.33z" fill="url(#SVGID_16_)"/></g><path d="m495.607 269.393h-133.655c0-29.528-11.974-56.266-31.33-75.622l94.513-94.513c43.548 43.537 70.472 103.697 70.472 170.135z" fill="url(#SVGID_17_)"/><path d="m441.734 108.652-101.97 101.97c-6.776 6.776-17.52 7.294-25.029 1.34-20.686-16.4-45.95-27.275-73.559-30.393-9.406-1.062-16.446-9.151-16.446-18.617v-144.192c0-10.841 9.16-19.379 19.981-18.725 75.105 4.537 143.364 34.482 196.269 81.365 8.062 7.144 8.369 19.636.754 27.252z" fill="url(#SVGID_18_)"/></g></svg>