<svg id="Capa_1" enable-background="new 0 0 510 510" height="512" viewBox="0 0 510 510" width="512" xmlns="http://www.w3.org/2000/svg" xmlns:xlink="http://www.w3.org/1999/xlink"><linearGradient id="SVGID_1_" gradientUnits="userSpaceOnUse" x1="76.151" x2="274.592" y1="233.894" y2="432.335"><stop offset="0" stop-color="#fef17d"/><stop offset="1" stop-color="#ffd746"/></linearGradient><linearGradient id="SVGID_2_" gradientUnits="userSpaceOnUse" x1="244" x2="289.178" y1="300.621" y2="300.621"><stop offset="0" stop-color="#fac600" stop-opacity="0"/><stop offset=".6865" stop-color="#d68d3d" stop-opacity=".687"/><stop offset="1" stop-color="#c5715a"/></linearGradient><linearGradient id="lg1"><stop offset="0" stop-color="#feb454" stop-opacity="0"/><stop offset="1" stop-color="#db841d"/></linearGradient><linearGradient id="SVGID_3_" gradientUnits="userSpaceOnUse" x1="177.886" x2="202.848" xlink:href="#lg1" y1="207.886" y2="182.923"/><linearGradient id="SVGID_4_" gradientUnits="userSpaceOnUse" x1="294.351" x2="230.421" xlink:href="#lg1" y1="370.139" y2="239.587"/><linearGradient id="SVGID_5_" gradientUnits="userSpaceOnUse" x1="143.799" x2="143.799" xlink:href="#lg1" y1="394.109" y2="454.243"/><linearGradient id="SVGID_6_" gradientUnits="userSpaceOnUse" x1="306.957" x2="517.607" y1="242.277" y2="452.928"><stop offset="0" stop-color="#7fd8f7"/><stop offset="1" stop-color="#6aa9ff"/></linearGradient><linearGradient id="lg2"><stop offset="0" stop-color="#3887e5" stop-opacity="0"/><stop offset=".9416" stop-color="#3887e5" stop-opacity=".942"/><stop offset="1" stop-color="#3887e5"/></linearGradient><linearGradient id="SVGID_7_" gradientUnits="userSpaceOnUse" x1="405.222" x2="345.222" xlink:href="#lg2" y1="381.815" y2="201.815"/><linearGradient id="SVGID_8_" gradientUnits="userSpaceOnUse" x1="438" x2="531.134" y1="366.2" y2="366.2"><stop offset="0" stop-color="#2740b0" stop-opacity="0"/><stop offset=".2991" stop-color="#263eac" stop-opacity=".299"/><stop offset=".5635" stop-color="#233aa2" stop-opacity=".564"/><stop offset=".814" stop-color="#1e3290" stop-opacity=".814"/><stop offset="1" stop-color="#192a7d"/></linearGradient><linearGradient id="SVGID_9_" gradientUnits="userSpaceOnUse" x1="365.273" x2="365.273" xlink:href="#lg2" y1="377" y2="525.273"/><linearGradient id="SVGID_10_" gradientTransform="matrix(.707 .707 -.707 .707 127.013 21.652)" gradientUnits="userSpaceOnUse" x1="128.332" x2="338.985" y1="-141.294" y2="69.359"><stop offset="0" stop-color="#ff7286"/><stop offset="1" stop-color="#ff4155"/></linearGradient><linearGradient id="lg3"><stop offset="0" stop-color="#ff4155" stop-opacity="0"/><stop offset="1" stop-color="#dc0050"/></linearGradient><linearGradient id="SVGID_11_" gradientUnits="userSpaceOnUse" x1="346.958" x2="388.606" xlink:href="#lg3" y1="217.042" y2="258.689"/><linearGradient id="SVGID_12_" gradientUnits="userSpaceOnUse" x1="249.91" x2="194.91" xlink:href="#lg3" y1="182.063" y2="262.063"/><g><g><path d="m258.131 294.812c9.676-.596 18.645 3.332 25.763 8.616 1.527 1.134 3.694.018 3.694-1.884v-41.445c0-20.808-16.868-37.676-37.676-37.676h-40.043c-2.219 0-3.471-2.516-2.158-4.306 5.153-7.022 8.022-15.824 7.504-25.315-1.066-19.529-16.75-35.482-36.26-36.849-22.892-1.604-41.962 16.492-41.962 39.042 0 8.649 2.808 16.64 7.56 23.117 1.314 1.792.072 4.311-2.15 4.311h-40.047c-20.808 0-37.676 16.868-37.676 37.676v38.745c0 2.144-2.376 3.419-4.171 2.246-6.727-4.397-14.886-6.783-23.631-6.29-19.514 1.1-35.443 16.812-36.783 36.311-1.572 22.868 16.514 41.907 39.046 41.907 7.89 0 15.229-2.34 21.374-6.358 1.792-1.172 4.165.113 4.165 2.254v38.74c0 20.808 16.868 37.676 37.676 37.676h147.556c20.808 0 37.676-16.868 37.676-37.676v-41.448c0-1.907-2.17-3.012-3.702-1.875-6.506 4.827-14.557 8.686-23.281 8.686-22.554 0-40.652-19.076-39.041-41.974 1.365-19.402 17.153-35.035 36.567-36.231z" fill="url(#SVGID_1_)"/><path d="m249.911 222.423h-40.043c-2.219 0-3.471-2.516-2.158-4.306 5.153-7.022 8.022-15.824 7.504-25.315-1.066-19.529-16.75-35.482-36.26-36.849-.32-.023-.636-.027-.954-.042v289.419h71.911c20.808 0 37.676-16.868 37.676-37.676v-41.448c0-1.907-2.17-3.012-3.702-1.875-6.506 4.827-14.557 8.686-23.281 8.686-22.554 0-40.652-19.076-39.041-41.974 1.366-19.403 17.153-35.035 36.567-36.231 9.676-.596 18.645 3.332 25.763 8.616 1.527 1.134 3.694.018 3.694-1.884v-41.445c0-20.808-16.868-37.676-37.676-37.676z" fill="url(#SVGID_2_)"/><path d="m207.71 218.117c5.153-7.022 8.022-15.824 7.504-25.315-1.066-19.529-16.75-35.482-36.26-36.849-22.892-1.604-41.962 16.492-41.962 39.042 0 8.27 2.572 15.934 6.951 22.253l47.288 47.288 42.112-42.113h-23.475c-2.219 0-3.47-2.517-2.158-4.306z" fill="url(#SVGID_3_)"/><path d="m258.131 294.812c9.676-.596 18.645 3.332 25.763 8.616 1.527 1.134 3.694.018 3.694-1.884v-41.445c0-20.808-16.868-37.676-37.676-37.676h-16.568l-42.112 42.113 41.709 41.709c6.558-6.564 15.413-10.83 25.19-11.433z" fill="url(#SVGID_4_)"/><path d="m.022 332.952c-.507 22.039 17.195 40.066 39.119 40.066 7.89 0 15.229-2.34 21.374-6.358 1.792-1.172 4.165.113 4.165 2.254v38.74c0 20.808 16.868 37.676 37.676 37.676h147.556c20.808 0 37.676-16.868 37.676-37.676v-41.448c0-1.907-2.17-3.012-3.702-1.875-6.506 4.827-14.557 8.686-23.281 8.686-21.923 0-39.626-18.027-39.119-40.066h-221.464z" fill="url(#SVGID_5_)"/></g><g><path d="m472.324 222.413h-40.448c-1.907 0-3.012 2.17-1.875 3.702 4.827 6.506 7.686 14.557 7.686 23.281 0 22.554-19.076 40.652-41.974 39.041-19.403-1.366-35.035-17.153-36.231-36.567-.596-9.676 2.332-18.645 7.616-25.763 1.134-1.527.018-3.694-1.884-3.694h-40.445c-20.808 0-37.676 16.868-37.676 37.676v40.043c0 2.219-2.516 3.471-4.306 2.158-7.022-5.153-15.824-8.022-25.315-7.504-19.529 1.066-35.482 16.749-36.849 36.26-1.604 22.893 16.492 41.962 39.042 41.962 8.649 0 16.64-2.808 23.117-7.56 1.792-1.314 4.311-.072 4.311 2.15v40.047c0 20.808 16.868 37.676 37.676 37.676h38.745c2.144 0 3.419 2.376 2.246 4.171-4.397 6.727-6.783 14.886-6.29 23.631 1.1 19.514 16.812 35.443 36.311 36.783 22.868 1.572 41.907-16.513 41.907-39.045 0-7.89-2.34-15.23-6.358-21.374-1.172-1.792.113-4.165 2.254-4.165h38.74c20.808 0 37.676-16.868 37.676-37.676v-147.557c0-20.808-16.868-37.676-37.676-37.676z" fill="url(#SVGID_6_)"/><path d="m472.324 222.413h-40.448c-1.907 0-3.012 2.17-1.875 3.702 4.827 6.506 7.686 14.557 7.686 23.281 0 22.554-19.076 40.652-41.974 39.041-19.403-1.366-35.035-17.153-36.231-36.567-.596-9.676 2.332-18.645 7.616-25.763 1.134-1.527.017-3.694-1.885-3.694h-40.445c-20.808 0-37.676 16.868-37.676 37.676v40.043c0 2.219-2.516 3.471-4.306 2.158-7.022-5.153-15.824-8.022-25.315-7.504-9.651.527-18.424 4.627-24.999 10.991l193.244 193.243c7.376-7.118 11.971-17.1 11.971-28.161 0-7.89-2.34-15.23-6.358-21.374-1.172-1.792.113-4.165 2.254-4.165h38.74c20.808 0 37.676-16.868 37.676-37.676v-147.555c.001-20.808-16.867-37.676-37.675-37.676z" fill="url(#SVGID_7_)"/><path d="m472.324 222.413h-40.448c-1.907 0-3.012 2.17-1.875 3.702 4.827 6.506 7.686 14.557 7.686 23.281 0 22.129-18.367 39.955-40.687 39.098v221.463c22.32.858 40.687-16.968 40.687-39.097 0-7.89-2.34-15.23-6.358-21.374-1.172-1.792.113-4.165 2.254-4.165h38.74c20.808 0 37.676-16.868 37.676-37.676v-147.556c.001-20.808-16.867-37.676-37.675-37.676z" fill="url(#SVGID_8_)"/><path d="m220.545 334.855c.526 21.159 17.834 38.152 39.119 38.152 8.649 0 16.64-2.808 23.117-7.56 1.792-1.314 4.311-.072 4.311 2.15v40.047c0 20.808 16.868 37.676 37.676 37.676h38.745c2.144 0 3.419 2.376 2.246 4.171-4.397 6.727-6.783 14.886-6.29 23.631 1.1 19.514 16.812 35.443 36.311 36.783 22.868 1.572 41.907-16.513 41.907-39.045 0-7.89-2.34-15.23-6.358-21.374-1.172-1.792.113-4.165 2.254-4.165h38.74c20.808 0 37.676-16.868 37.676-37.676v-72.789h-289.454z" fill="url(#SVGID_9_)"/></g><g><path d="m448.644 115.373-28.601-28.601c-1.349-1.349-3.664-.595-3.944 1.292-1.187 8.014-4.859 15.729-11.027 21.897-15.948 15.948-42.234 15.257-57.286-2.074-12.754-14.685-12.644-36.903.238-51.476 6.42-7.263 14.833-11.535 23.602-12.832 1.882-.278 2.625-2.599 1.28-3.944l-28.599-28.599c-14.714-14.714-38.569-14.713-53.282 0l-28.315 28.314c-1.569 1.569-4.234.675-4.57-1.519-1.322-8.609-5.517-16.861-12.594-23.206-14.563-13.055-36.933-13.246-51.696-.417-17.322 15.053-18.01 41.333-2.065 57.278 6.116 6.116 13.752 9.78 21.692 11 2.196.338 3.099 2.998 1.528 4.569l-28.317 28.317c-14.713 14.713-14.713 38.568 0 53.282l27.397 27.397c1.516 1.516.738 4.098-1.361 4.537-7.866 1.647-15.322 5.729-21.157 12.262-13.02 14.576-13.174 36.95-.334 51.685 15.059 17.281 41.31 17.956 57.242 2.023 5.579-5.579 9.114-12.423 10.618-19.609.439-2.096 3.025-2.865 4.539-1.351l27.394 27.393c14.714 14.714 38.568 14.714 53.282 0l104.338-104.338c14.711-14.712 14.711-38.567-.002-53.28z" fill="url(#SVGID_10_)"/><path d="m448.644 168.654c14.713-14.713 14.713-38.568 0-53.282l-28.601-28.601c-1.349-1.349-3.664-.595-3.944 1.292-1.187 8.014-4.859 15.729-11.027 21.897-15.932 15.932-42.182 15.257-57.241-2.024l-156.6 156.6c15.059 17.281 41.31 17.956 57.242 2.023 5.579-5.579 9.114-12.423 10.618-19.609.439-2.096 3.025-2.865 4.539-1.351l27.394 27.394c14.714 14.713 38.569 14.713 53.282 0z" fill="url(#SVGID_11_)"/><path d="m191.1 16.847c-14.59 15.333-14.367 39.588.684 54.639 6.116 6.116 13.752 9.78 21.692 11 2.196.338 3.099 2.998 1.528 4.569l-28.317 28.317c-14.713 14.713-14.713 38.568 0 53.282l27.397 27.397c1.516 1.516.738 4.098-1.361 4.537-7.866 1.647-15.322 5.729-21.157 12.262-13.02 14.576-13.174 36.95-.334 51.685 15.059 17.281 41.31 17.956 57.242 2.023 5.579-5.579 9.114-12.423 10.618-19.609.439-2.096 3.025-2.865 4.539-1.351l27.394 27.393c14.714 14.714 38.568 14.714 53.282 0l51.47-51.47z" fill="url(#SVGID_12_)"/></g></g></svg>