<svg id="Capa_1" enable-background="new 0 0 512 512" height="512" viewBox="0 0 512 512" width="512" xmlns="http://www.w3.org/2000/svg"><g><g><path d="m346.361 65.749v-23.673c0-8.272 6.705-14.977 14.977-14.977h135.685c8.272 0 14.977 6.705 14.977 14.977v122.951h-353.625v-84.301h173.009c8.272 0 14.977-6.706 14.977-14.977z" fill="#f4dd45"/></g><g><g><path d="m497.023 27.099h-42.484v137.928h57.461v-122.951c0-8.271-6.705-14.977-14.977-14.977z" fill="#ecc32e"/></g></g><g><path d="m166.637 102.057v-23.673c0-8.272-6.705-14.977-14.977-14.977h-136.683c-8.272 0-14.977 6.706-14.977 14.977v125.297h512v-71.67c0-8.272-6.705-14.977-14.977-14.977h-315.409c-8.271 0-14.977-6.706-14.977-14.977z" fill="#ecb780"/></g><g><g><path d="m497.023 117.034h-42.484v86.647h57.461v-71.67c0-8.272-6.705-14.977-14.977-14.977z" fill="#e7a561"/></g></g><g><path d="m265.581 171.986c0 9.681-7.848 17.529-17.529 17.529h-233.075c-8.272.001-14.977 6.706-14.977 14.978v229.327c0 8.272 6.705 14.977 14.977 14.977h482.046c8.272 0 14.977-6.705 14.977-14.977v-264.386c0-8.272-6.705-14.977-14.977-14.977h-97.464l-44.859 15.651-44.859-15.651h-26.73c-9.682 0-17.53 7.848-17.53 17.529z" fill="#f4dd45"/></g><g><path d="m497.023 154.457h-42.484v191.461c0 25.083-20.334 45.417-45.417 45.417h-409.122v42.484c0 8.272 6.705 14.977 14.977 14.977h482.046c8.272 0 14.977-6.705 14.977-14.977v-264.385c0-8.272-6.705-14.977-14.977-14.977z" fill="#ecc32e"/></g><g><path d="m309.841 154.457h89.719v294.34h-89.719z" fill="#efecef"/></g><g><path d="m381.512 154.457h18.047v294.34h-18.047z" fill="#dddaec"/></g><path d="m362.177 229.92h8.785c4.13 0 7.477-3.347 7.477-7.477s-3.347-7.477-7.477-7.477h-8.785v-14.953h8.785c4.13 0 7.477-3.347 7.477-7.477s-3.347-7.477-7.477-7.477h-8.785v-30.604h-14.953v15.651h-8.785c-4.13 0-7.477 3.347-7.477 7.477s3.347 7.477 7.477 7.477h8.785v14.953h-8.785c-4.13 0-7.477 3.347-7.477 7.477 0 4.129 3.347 7.477 7.477 7.477h8.785v14.953h-8.785c-4.13 0-7.477 3.347-7.477 7.477 0 4.129 3.347 7.477 7.477 7.477h8.785v14.953h-8.785c-4.13 0-7.477 3.347-7.477 7.477s3.347 7.477 7.477 7.477h8.785v14.953h-8.785c-4.13 0-7.477 3.347-7.477 7.477s3.347 7.477 7.477 7.477h8.785v50.251h14.953v-35.298h8.785c4.13 0 7.477-3.347 7.477-7.477s-3.347-7.477-7.477-7.477h-8.785v-14.953h8.785c4.13 0 7.477-3.347 7.477-7.477 0-4.129-3.347-7.477-7.477-7.477h-8.785v-14.953h8.785c4.13 0 7.477-3.347 7.477-7.477s-3.347-7.477-7.477-7.477h-8.785z" fill="#beb9dd"/><g><path d="m388.04 387.373v-16.4c0-18.413-14.927-33.34-33.34-33.34-18.413 0-33.34 14.927-33.34 33.34v16.4c0 14.625-3.73 29.009-10.838 41.791l-9.159 16.472c-2.184 3.927-3.33 8.347-3.33 12.841 0 14.593 11.83 26.423 26.423 26.423h60.488c14.593 0 26.423-11.83 26.423-26.423 0-4.494-1.146-8.913-3.33-12.841l-9.159-16.472c-7.108-12.782-10.838-27.165-10.838-41.791z" fill="#d5c6e4"/></g><g><path d="m408.037 445.637-9.159-16.472c-7.108-12.782-10.838-27.166-10.838-41.792v-16.4c0-18.413-14.927-33.34-33.34-33.34-4.429 0-8.653.871-12.519 2.439 12.208 4.951 20.821 16.917 20.821 30.901v16.4c0 14.625 3.73 29.009 10.838 41.792l9.159 16.472c2.184 3.927 3.33 8.347 3.33 12.841 0 14.593-11.83 26.423-26.423 26.423h25.039c14.593 0 26.423-11.83 26.423-26.423-.001-4.494-1.147-8.914-3.331-12.841z" fill="#beb9dd"/></g><g><ellipse cx="354.7" cy="444.004" fill="#365e7d" rx="15.696" ry="15.696" transform="matrix(.16 -.987 .987 .16 -140.387 723.002)"/></g><g><path d="m360.75 429.52c.779 1.862 1.212 3.905 1.212 6.05 0 8.668-7.027 15.696-15.696 15.696-2.145 0-4.188-.433-6.05-1.212 2.369 5.664 7.96 9.646 14.484 9.646 8.668 0 15.696-7.027 15.696-15.696 0-6.524-3.982-12.115-9.646-14.484z" fill="#2b4d66"/></g><path d="m238.488 233.716h-143.059l-10.179 5v94.796l10.179 5h143.059c6.339 0 11.478-5.139 11.478-11.478v-81.841c0-6.338-5.139-11.477-11.478-11.477z" fill="#efecef"/><g><g><path d="m215.479 276.831h-86.125c-4.13 0-7.477-3.347-7.477-7.477s3.347-7.477 7.477-7.477h86.125c4.13 0 7.477 3.347 7.477 7.477s-3.347 7.477-7.477 7.477z" fill="#beb9dd"/></g><g><path d="m172.591 310.999h-43.237c-4.13 0-7.477-3.347-7.477-7.477 0-4.129 3.347-7.477 7.477-7.477h43.237c4.13 0 7.477 3.347 7.477 7.477 0 4.129-3.347 7.477-7.477 7.477z" fill="#beb9dd"/></g></g><path d="m238.524 233.716h-6.19v75.723c0 6.319-5.123 11.442-11.442 11.442h-135.642v12.631l10.179 5h143.095c6.319 0 11.442-5.123 11.442-11.442v-81.913c0-6.318-5.123-11.441-11.442-11.441z" fill="#dddaec"/><g><path d="m95.429 233.716h-46.969c-6.319 0-11.442 5.123-11.442 11.442v81.913c0 6.319 5.123 11.442 11.442 11.442h46.969z" fill="#e28086"/></g><g><path d="m37.019 320.881v6.19c0 6.319 5.123 11.442 11.442 11.442h46.969v-17.631h-58.411z" fill="#dd636e"/></g></g></svg>