<svg id="Capa_1" enable-background="new 0 0 510 510" height="512" viewBox="0 0 510 510" width="512" xmlns="http://www.w3.org/2000/svg" xmlns:xlink="http://www.w3.org/1999/xlink"><linearGradient id="lg1"><stop offset="0" stop-color="#f9f7fc"/><stop offset="1" stop-color="#f0ddfc"/></linearGradient><linearGradient id="SVGID_1_" gradientUnits="userSpaceOnUse" x1="157.728" x2="566.004" xlink:href="#lg1" y1="157.728" y2="566.004"/><linearGradient id="SVGID_2_" gradientUnits="userSpaceOnUse" x1="187.351" x2="54.983" y1="187.351" y2="54.983"><stop offset="0" stop-color="#e9edf5" stop-opacity="0"/><stop offset="1" stop-color="#fff"/></linearGradient><linearGradient id="lg2"><stop offset="0" stop-color="#18cffc"/><stop offset="1" stop-color="#4a98f7"/></linearGradient><linearGradient id="SVGID_3_" gradientUnits="userSpaceOnUse" x1="369.23" x2="475.788" xlink:href="#lg2" y1="255" y2="255"/><linearGradient id="lg3"><stop offset="0" stop-color="#0469bc" stop-opacity="0"/><stop offset="1" stop-color="#0469bc"/></linearGradient><linearGradient id="SVGID_4_" gradientUnits="userSpaceOnUse" x1="481.61" x2="444.911" xlink:href="#lg3" y1="255" y2="255"/><linearGradient id="lg4"><stop offset="0" stop-color="#f0ddfc" stop-opacity="0"/><stop offset=".2889" stop-color="#c8b7e0" stop-opacity=".289"/><stop offset=".5915" stop-color="#a595c8" stop-opacity=".592"/><stop offset=".8395" stop-color="#8f81b8" stop-opacity=".84"/><stop offset="1" stop-color="#8779b3"/></linearGradient><linearGradient id="SVGID_5_" gradientUnits="userSpaceOnUse" x1="179.303" x2="411.785" xlink:href="#lg4" y1="255" y2="255"/><linearGradient id="SVGID_6_" gradientUnits="userSpaceOnUse" x1="333.084" x2="158.197" xlink:href="#lg4" y1="186.72" y2="-2.18"/><linearGradient id="SVGID_7_" gradientUnits="userSpaceOnUse" x1="242.783" x2="38.316" xlink:href="#lg4" y1="379.867" y2="92.366"/><linearGradient id="SVGID_8_" gradientUnits="userSpaceOnUse" x1="82.158" x2="266.905" xlink:href="#lg2" y1="238.661" y2="336.224"/><linearGradient id="SVGID_9_" gradientUnits="userSpaceOnUse" x1="311.33" x2="524.589" xlink:href="#lg2" y1="218.467" y2="347.684"/><linearGradient id="SVGID_10_" gradientUnits="userSpaceOnUse" x1="343.861" x2="138.356" xlink:href="#lg3" y1="196.298" y2="5.842"/><linearGradient id="SVGID_11_" gradientUnits="userSpaceOnUse" x1="410.374" x2="531.802" xlink:href="#lg3" y1="252.22" y2="264.674"/><linearGradient id="SVGID_12_" gradientUnits="userSpaceOnUse" x1="460.125" x2="315.345" y1="289.917" y2="95.319"><stop offset="0" stop-color="#18cffc" stop-opacity="0"/><stop offset="1" stop-color="#65e1dc"/></linearGradient><linearGradient id="SVGID_13_" gradientUnits="userSpaceOnUse" x1="419.917" x2="188.464" xlink:href="#lg3" y1="346.28" y2="185.404"/><linearGradient id="SVGID_14_" gradientUnits="userSpaceOnUse" x1="277.973" x2="421.205" xlink:href="#lg1" y1="199.728" y2="347.111"/><linearGradient id="SVGID_15_" gradientTransform="matrix(0 1 -1 0 529.065 -625.503)" gradientUnits="userSpaceOnUse" x1="689.155" x2="775.534" y1="263.018" y2="325.348"><stop offset="0" stop-color="#92f37f"/><stop offset="1" stop-color="#4ab272"/></linearGradient><linearGradient id="SVGID_16_" gradientTransform="matrix(0 1 -1 0 529.065 -625.503)" gradientUnits="userSpaceOnUse" x1="734.268" x2="636.831" y1="287.35" y2="241.526"><stop offset="0" stop-color="#92f37f" stop-opacity="0"/><stop offset="1" stop-color="#ffee83"/></linearGradient><linearGradient id="SVGID_17_" gradientTransform="matrix(0 1 -1 0 529.065 -625.503)" gradientUnits="userSpaceOnUse" x1="744.849" x2="649.524" y1="261.184" y2="403.272"><stop offset="0" stop-color="#4ab272" stop-opacity="0"/><stop offset="1" stop-color="#009245"/></linearGradient><path d="m432.831 480.495h-355.662c-26.324 0-47.664-21.34-47.664-47.664v-355.662c0-26.324 21.34-47.664 47.664-47.664h355.662c26.324 0 47.664 21.34 47.664 47.664v355.662c0 26.324-21.34 47.664-47.664 47.664z" fill="url(#SVGID_1_)"/><path d="m419.337 463.384h-328.673c-24.327 0-44.048-19.721-44.048-44.047v-328.673c0-24.327 19.721-44.047 44.048-44.047h328.673c24.327 0 44.048 19.721 44.048 44.047v328.673c-.001 24.326-19.722 44.047-44.048 44.047z" fill="url(#SVGID_2_)"/><path d="m435.333 29.571v450.859c25.161-1.302 45.162-22.114 45.162-47.599v-355.662c0-25.485-20.001-46.297-45.162-47.598z" fill="url(#SVGID_3_)"/><path d="m435.333 29.571v450.859c25.161-1.302 45.162-22.114 45.162-47.599v-355.662c0-25.485-20.001-46.297-45.162-47.598z" fill="url(#SVGID_4_)"/><path d="m148.167 29.505h106.833v450.991h-106.833z" fill="url(#SVGID_5_)"/><path d="m480.495 241.555-199.44-199.44c-6.146-6.146-16.655-1.792-16.656 6.901 0 5.388-4.369 9.757-9.758 9.757l-69.924.005c-3.892 0-3.454 3.156-3.455 7.048l-.005 56.092c0 3.892-.439 7.048 3.453 7.047h.778l215.304 216.083 65.873-.005c.641.581 1.357 1.07 2.122 1.464.939 1.865 2.453 3.317 4.237 4.237.939 1.865 2.453 3.317 4.237 4.237.755 1.5 1.893 2.717 3.234 3.621z" fill="url(#SVGID_6_)"/><path d="m419.336 463.384c14.027 0 26.512-6.564 34.579-16.779-.089-.059-.165-.125-.255-.184-1.379-2.268-3.336-4.212-5.846-5.846l-280.6-280.601c-1.902-3.129-4.871-5.66-8.926-7.581-5.491-2.601-11.806-3.902-18.932-3.902-7.131 0-13.44 1.301-18.931 3.902-5.493 2.602-9.01 6.314-10.549 11.128l-53.761 176.31c-.388 1.544-.577 2.601-.577 3.179 0 4.484 2.511 8.424 7.522 11.824l108.549 108.549h247.727z" fill="url(#SVGID_7_)"/><path d="m55.537 343.011c0-.578.189-1.635.578-3.179l53.761-176.31c1.539-4.814 5.057-8.527 10.549-11.128 5.491-2.601 11.8-3.902 18.931-3.902 7.127 0 13.441 1.301 18.932 3.902 5.491 2.602 9.005 6.314 10.551 11.128l54.048 176.31c.384 1.544.578 2.601.578 3.179 0 5.013-3.133 9.349-9.393 13.007-6.264 3.663-12.767 5.491-19.51 5.491-8.287 0-13.201-2.791-14.74-8.382l-9.828-36.129h-60.985l-9.828 36.129c-1.544 5.591-6.458 8.382-14.741 8.382-6.746 0-13.25-1.829-19.51-5.491-6.263-3.659-9.393-7.994-9.393-13.007zm62.721-60.697h42.198l-21.1-77.461z" fill="url(#SVGID_8_)"/><path d="m255 29.505 181.271-29.407c4.543-.737 8.666 2.771 8.666 7.373v495.057c0 4.603-4.123 8.111-8.666 7.374l-181.271-29.407z" fill="url(#SVGID_9_)"/><path d="m480.495 241.555-199.44-199.44c-6.146-6.146-16.655-1.792-16.656 6.901 0 5.267-4.178 9.549-9.399 9.739v139.973l145.793 146.32 65.873-.005c.641.581 1.357 1.07 2.122 1.464.939 1.865 2.453 3.317 4.237 4.237.939 1.865 2.453 3.317 4.237 4.237.755 1.5 1.893 2.717 3.234 3.621v-117.047z" fill="url(#SVGID_10_)"/><path d="m436.271.098-10.542 1.71c1.582 1.36 2.602 3.376 2.602 5.663v495.056c0 2.288-1.02 4.303-2.602 5.663l10.542 1.71c4.543.737 8.666-2.771 8.666-7.374v-495.054c0-4.603-4.123-8.111-8.666-7.374z" fill="url(#SVGID_11_)"/><path d="m436.271.098-10.542 1.71c1.582 1.36 2.602 3.376 2.602 5.663v495.056c0 2.288-1.02 4.303-2.602 5.663l10.542 1.71c4.543.737 8.666-2.771 8.666-7.374v-495.054c0-4.603-4.123-8.111-8.666-7.374z" fill="url(#SVGID_12_)"/><path d="m480.495 432.831v-171.569l-62.178-62.178c-2.332-3.445-6.277-5.709-10.75-5.709h-25.469l-29.688-29.365c-2.332-3.445-6.277-5.709-10.75-5.709-7.165 0-12.974 5.809-12.974 12.974v22.1h-52.933c-7.165 0-12.974 5.809-12.974 12.974 0 4.473 2.265 8.417 5.709 10.75l38.026 38.105c-6.466 2.252-10.119 9.185-8.192 15.841 5.067 17.507 13.34 32.914 23.861 45.459-9.777 5.926-20.73 9.249-32.288 9.249-7.165 0-12.974 5.808-12.974 12.974 0 4.473 2.265 8.417 5.709 10.75l159.147 159.147c1.895-1.343 3.159-3.549 3.159-6.094v-23.594c20.461-5.36 35.559-23.965 35.559-46.105z" fill="url(#SVGID_13_)"/><path d="m407.567 193.374h-52.933v-22.1c0-7.165-5.809-12.974-12.974-12.974s-12.974 5.809-12.974 12.974v22.1h-52.933c-7.165 0-12.974 5.809-12.974 12.974s5.809 12.974 12.974 12.974h88.786v12.518c0 26.502-8.773 50.471-22.855 67.563-8.063-9.75-14.457-21.821-18.438-35.574-1.992-6.883-9.186-10.845-16.069-8.855-6.882 1.992-10.847 9.187-8.855 16.07 5.067 17.507 13.34 32.914 23.861 45.459-9.777 5.926-20.73 9.249-32.288 9.249-7.165 0-12.974 5.808-12.974 12.974 0 7.165 5.809 12.974 12.974 12.974 18.602 0 36.371-5.924 51.832-17.018 15.274 10.887 33.04 17.018 51.697 17.018 7.165 0 12.974-5.809 12.974-12.974s-5.809-12.974-12.974-12.974c-11.38 0-22.349-3.312-32.223-9.295.227-.272.457-.537.682-.812 18.444-22.501 28.602-52.263 28.602-83.804v-12.518h17.081c7.165 0 12.974-5.809 12.974-12.974.001-7.166-5.808-12.975-12.973-12.975z" fill="url(#SVGID_14_)"/><path d="m254.635 128.96-69.925.005c-3.892 0-3.454-3.155-3.453-7.047l.005-56.092c0-3.892-.438-7.048 3.455-7.048l69.925-.005c5.388 0 9.757-4.369 9.757-9.757.001-8.692 10.51-13.046 16.656-6.901l44.846 44.846c3.81 3.81 3.809 9.987-.001 13.798l-44.855 44.854c-6.147 6.147-16.656 1.795-16.655-6.897.001-5.388-4.367-9.756-9.755-9.756z" fill="url(#SVGID_15_)"/><path d="m189.198 66.714 65.443-.005c9.755-.001 17.693-7.938 17.694-17.694 0-.808.379-1.373 1.124-1.682.746-.309 1.413-.177 1.984.394l44.846 44.846c.441.441.533.944.533 1.287 0 .344-.093.846-.533 1.288l-44.855 44.854c-.571.571-1.239.704-1.985.395s-1.124-.874-1.124-1.682c.001-9.756-7.935-17.692-17.69-17.691l-65.443.005z" fill="url(#SVGID_16_)"/><path d="m181.257 121.918c0 3.892-.439 7.048 3.453 7.048l69.925-.005c5.388-.001 9.756 4.367 9.756 9.756-.001 8.692 10.508 13.044 16.655 6.897l44.854-44.854c1.905-1.905 2.858-4.402 2.858-6.899l-147.498.011z" fill="url(#SVGID_17_)"/></svg>