<svg viewBox="-109 0 512 512.00003" xmlns="http://www.w3.org/2000/svg" xmlns:xlink="http://www.w3.org/1999/xlink"><linearGradient id="a"><stop offset="0" stop-color="#cfffb4"/><stop offset="1" stop-color="#8ee388"/></linearGradient><linearGradient id="b" gradientUnits="userSpaceOnUse" x1="91.3427256" x2="201.9144744" xlink:href="#a" y1="27.04259304" y2="27.04259304"/><linearGradient id="c"><stop offset="0" stop-color="#acfcd9"/><stop offset="1" stop-color="#53d6be"/></linearGradient><linearGradient id="d" gradientUnits="userSpaceOnUse" x1=".00006048" x2="293.25713952" xlink:href="#c" y1="278.64401952" y2="278.64401952"/><linearGradient id="e" gradientUnits="userSpaceOnUse" x1="22.8352248" x2="270.4219752" xlink:href="#a" y1="278.64401952" y2="278.64401952"/><linearGradient id="f" gradientUnits="userSpaceOnUse" x1="266.4364128" x2="-54.55997976" xlink:href="#c" y1="108.7697124" y2="108.7697124"/><linearGradient id="g" gradientUnits="userSpaceOnUse" x1="146.6286" x2="146.6286" y1="442.8391512" y2="526.03098984"><stop offset="0" stop-color="#acfcd9" stop-opacity="0"/><stop offset="1" stop-color="#4e6d79"/></linearGradient><linearGradient id="h" gradientUnits="userSpaceOnUse" x1="249.13585944" x2="33.49384344" y1="422.68846896" y2="207.04745688"><stop offset="0" stop-color="#8ee388" stop-opacity="0"/><stop offset="1" stop-color="#4b9345"/></linearGradient><linearGradient id="i" gradientUnits="userSpaceOnUse" x1="113.3386128" x2="191.23678128" y1="286.88921448" y2="364.78738296"><stop offset="0" stop-color="#ffb92d"/><stop offset="1" stop-color="#f59500"/></linearGradient><path d="m201.914062 54.085938h-110.570312v-27.402344c0-14.738282 11.945312-26.683594 26.683594-26.683594h57.203125c14.738281 0 26.683593 11.945312 26.683593 26.683594zm0 0" fill="url(#b)"/><path d="m260.421875 512h-227.585937c-18.136719 0-32.835938-14.699219-32.835938-32.835938v-401.042968c0-18.132813 14.699219-32.832032 32.835938-32.832032h227.585937c18.136719 0 32.835937 14.699219 32.835937 32.832032v401.042968c0 18.136719-14.699218 32.835938-32.835937 32.835938zm0 0" fill="url(#d)"/><path d="m250.664062 493.589844h-208.070312c-10.910156 0-19.757812-8.847656-19.757812-19.761719v-390.367187c0-10.914063 8.847656-19.761719 19.757812-19.761719h208.070312c10.910157 0 19.757813 8.847656 19.757813 19.761719v390.367187c0 10.914063-8.847656 19.761719-19.757813 19.761719zm0 0" fill="url(#e)"/><path d="m250.664062 63.699219h-208.070312c-10.910156 0-19.757812 8.847656-19.757812 19.761719v70.378906h247.585937v-70.378906c0-10.914063-8.847656-19.761719-19.757813-19.761719zm0 0" fill="url(#f)"/><path d="m0 388.207031v90.957031c0 18.136719 14.699219 32.835938 32.835938 32.835938h227.589843c18.132813 0 32.832031-14.699219 32.832031-32.835938v-90.957031zm0 0" fill="url(#g)"/><path d="m270.421875 473.828125v-173.550781l-95.015625-95.015625c-2.492188-5.390625-10.75-6.957031-14.558594-.886719l-74.171875 118.15625c-2.769531 4.414062-.769531 9.882812 3.480469 11.886719l36.140625 36.714843-9.074219 59.199219c-.628906 4.101563 1.550782 7.242188 4.542969 8.683594l54.574219 54.574219h74.320312c10.914063 0 19.761719-8.847656 19.761719-19.761719zm0 0" fill="url(#h)"/><path d="m199.574219 305.15625h-28.488281c-5.066407 0-8.945313-4.515625-8.175782-9.527344l13.121094-85.601562c1.359375-8.878906-10.410156-13.257813-15.183594-5.652344l-74.171875 118.15625c-3.457031 5.507812.5 12.671875 7.007813 12.671875h28.484375c5.070312 0 8.945312 4.515625 8.175781 9.527344l-13.121094 85.601562c-1.359375 8.875 10.410156 13.257813 15.1875 5.652344l74.167969-118.15625c3.460937-5.511719-.5-12.671875-7.003906-12.671875zm0 0" fill="url(#i)"/></svg>