<svg id="Capa_1" enable-background="new 0 0 510 510" height="512" viewBox="0 0 510 510" width="512" xmlns="http://www.w3.org/2000/svg" xmlns:xlink="http://www.w3.org/1999/xlink"><linearGradient id="lg1"><stop offset="0" stop-color="#ffd945"/><stop offset=".3043" stop-color="#ffcd3e"/><stop offset=".8558" stop-color="#ffad2b"/><stop offset="1" stop-color="#ffa325"/></linearGradient><linearGradient id="SVGID_1_" gradientUnits="userSpaceOnUse" x1="76.563" x2="237.704" xlink:href="#lg1" y1="138.21" y2="266.588"/><linearGradient id="lg2"><stop offset="0" stop-color="#f35227" stop-opacity="0"/><stop offset="1" stop-color="#f35227"/></linearGradient><linearGradient id="SVGID_2_" gradientUnits="userSpaceOnUse" x1="298.961" x2="189.542" xlink:href="#lg2" y1="114.013" y2="32.937"/><linearGradient id="SVGID_3_" gradientUnits="userSpaceOnUse" x1="81.564" x2="22.569" y1="276.975" y2="217.98"><stop offset="0" stop-color="#ffd945" stop-opacity="0"/><stop offset="1" stop-color="#fbed21"/></linearGradient><linearGradient id="SVGID_4_" gradientUnits="userSpaceOnUse" x1="260.906" x2="491.188" y1="221.816" y2="405.277"><stop offset="0" stop-color="#9b62cd"/><stop offset=".3003" stop-color="#985dcb"/><stop offset=".6716" stop-color="#8f4ec7"/><stop offset="1" stop-color="#833ac1"/></linearGradient><linearGradient id="lg3"><stop offset="0" stop-color="#833ac1" stop-opacity="0"/><stop offset="1" stop-color="#6e566e"/></linearGradient><linearGradient id="SVGID_5_" gradientUnits="userSpaceOnUse" x1="373.017" x2="390.517" xlink:href="#lg3" y1="103.853" y2="178.853"/><linearGradient id="SVGID_6_" gradientUnits="userSpaceOnUse" x1="414.94" x2="614.663" xlink:href="#lg3" y1="211.632" y2="431.13"/><linearGradient id="lg4"><stop offset="0" stop-color="#9b62cd" stop-opacity="0"/><stop offset="1" stop-color="#ff75c8"/></linearGradient><linearGradient id="SVGID_7_" gradientUnits="userSpaceOnUse" x1="411.766" x2="352.771" xlink:href="#lg4" y1="314.121" y2="255.126"/><linearGradient id="SVGID_8_" gradientUnits="userSpaceOnUse" x1="204.183" x2="145.188" xlink:href="#lg4" y1="407.93" y2="348.935"/><linearGradient id="SVGID_9_" gradientUnits="userSpaceOnUse" x1="186.746" x2="106.496" xlink:href="#lg2" y1="126.793" y2="102.793"/><linearGradient id="SVGID_10_" gradientUnits="userSpaceOnUse" x1="164.184" x2="46.808" xlink:href="#lg2" y1="282.316" y2="164.941"/><linearGradient id="lg5"><stop offset="0" stop-color="#92f37f"/><stop offset="1" stop-color="#4ab272"/></linearGradient><linearGradient id="SVGID_11_" gradientTransform="matrix(1 .002 -.002 1 1.57 -2.521)" gradientUnits="userSpaceOnUse" x1="84.398" x2="123.813" xlink:href="#lg5" y1="202.087" y2="254.64"/><linearGradient id="SVGID_12_" gradientTransform="matrix(1 .002 -.002 1 1.57 -2.521)" gradientUnits="userSpaceOnUse" x1="33.211" x2="61.084" xlink:href="#lg5" y1="130.553" y2="167.717"/><linearGradient id="SVGID_13_" gradientTransform="matrix(1 .002 -.002 1 1.57 -2.521)" gradientUnits="userSpaceOnUse" x1="126.711" x2="154.584" xlink:href="#lg5" y1="86.985" y2="124.149"/><linearGradient id="SVGID_14_" gradientUnits="userSpaceOnUse" x1="390.151" x2="369.818" xlink:href="#lg3" y1="426.429" y2="399.762"/><linearGradient id="SVGID_15_" gradientTransform="matrix(1 .002 -.002 1 1.57 -2.521)" gradientUnits="userSpaceOnUse" x1="429.458" x2="468.873" xlink:href="#lg1" y1="433.242" y2="485.795"/><linearGradient id="SVGID_16_" gradientTransform="matrix(1 .002 -.002 1 1.57 -2.521)" gradientUnits="userSpaceOnUse" x1="345.957" x2="373.829" xlink:href="#lg1" y1="389.563" y2="426.727"/><g><g><g><path d="m342.936 80.392c-30.061 0-58.89-11.942-80.146-33.198-27.764-27.763-65.419-43.36-104.682-43.36h-15.095c-6.246 0-11.309 5.063-11.309 11.309v180.58c-28.105-2.626-63.162 11.602-91.476 39.915-41.377 41.377-52.681 97.159-25.247 124.593s83.216 16.13 124.593-25.247c25.452-25.453 39.519-56.354 40.196-82.756h.032v-159.04c0-15.424 18.619-23.18 29.569-12.319l8.538 8.468c35.633 35.343 93.135 35.225 128.623-.263 3.204-3.203.935-8.682-3.596-8.682z" fill="url(#SVGID_1_)"/><g><path d="m342.936 80.392c-4.947 0-9.86-.33-14.712-.965-34.815 20.462-80.315 15.847-110.315-13.909l-8.538-8.468c-10.951-10.862-29.569-3.105-29.569 12.319v23.819c0-15.424 18.619-23.18 29.569-12.319l8.538 8.468c35.633 35.343 93.135 35.225 128.623-.263 3.204-3.203.935-8.682-3.596-8.682z" fill="url(#SVGID_2_)"/></g><path d="m153.507 221.706c23.291 23.291 13.694 70.649-21.434 105.777s-82.487 44.725-105.777 21.434-13.695-70.649 21.433-105.777 82.487-44.725 105.778-21.434z" fill="url(#SVGID_3_)"/></g><g><path d="m495.856 44.941h-11.754c-34.766 0-68.108 13.811-92.692 38.394-33.21 32.448-77.708 51.851-123.903 54.97-7.421.501-13.183 6.664-13.183 14.102v174.268c-28.11-2.62-63.16 11.608-91.477 39.915-41.378 41.378-52.68 97.163-25.252 124.6 27.437 27.427 83.221 16.126 124.6-25.252 25.45-25.45 39.52-56.348 40.192-82.757h.03v-184.143c0-4.85 3.367-9.016 8.089-10.122 23.755-5.564 45.757-17.518 63.484-34.839 21.22-20.734 46.686-36.133 74.318-45.367 6.693-2.237 13.6 2.818 13.6 9.875v114.281c-28.11-2.62-63.16 11.608-91.477 39.915-41.378 41.378-52.68 97.163-25.252 124.6 27.437 27.427 83.221 16.126 124.6-25.252 25.45-25.45 39.52-56.348 40.192-82.757h.029v-230.288c0-7.811-6.332-14.143-14.144-14.143z" fill="url(#SVGID_4_)"/><path d="m374.807 153.558c-17.93 17.52-40.18 29.61-64.21 35.24-4.77 1.12-8.18 5.33-8.18 10.24v-21.58c0-4.9 3.41-9.12 8.18-10.23 24.03-5.63 46.28-17.72 64.21-35.24 10.73-10.48 22.53-19.62 35.15-27.31 12.62-7.68 26.04-13.91 40.02-18.58 6.76-2.26 13.75 2.85 13.75 9.99v21.58c0-7.14-6.99-12.25-13.75-9.99-13.98 4.67-27.4 10.9-40.02 18.58s-24.42 16.81-35.15 27.3z" fill="url(#SVGID_5_)"/><g><path d="m495.856 44.941h-2.693c.008.19.029.377.029.569v230.287h-.03c-.672 26.409-14.742 57.307-40.192 82.757-35.634 35.634-81.949 48.959-111.646 34.456 1.188 1.524 2.47 2.985 3.854 4.371 27.437 27.427 83.221 16.126 124.6-25.252 25.45-25.45 39.52-56.348 40.192-82.757h.03v-230.288c0-7.811-6.332-14.143-14.144-14.143z" fill="url(#SVGID_6_)"/></g><path d="m483.708 258.852c23.291 23.291 13.694 70.649-21.434 105.777s-82.487 44.725-105.777 21.434c-23.291-23.291-13.694-70.649 21.434-105.777s82.487-44.725 105.777-21.434z" fill="url(#SVGID_7_)"/><path d="m276.126 352.661c23.291 23.291 13.694 70.649-21.434 105.777s-82.487 44.725-105.777 21.434c-23.291-23.291-13.694-70.649 21.434-105.777s82.486-44.725 105.777-21.434z" fill="url(#SVGID_8_)"/></g></g><path d="m134.441 121.428 45.361 45.61v-55.55l-40.105-40.028c-.037-.049-.074-.098-.111-.147-1.222-2.147-4.298-2.201-5.613-.158-.727 1.13-1.485 2.237-2.27 3.324v40.317c.001 2.485.985 4.87 2.738 6.632z" fill="url(#SVGID_9_)"/><g><path d="m179.378 258.299-42.229-42.165c-2.603-2.599-5.456-4.925-8.526-6.95-6.902-4.553-19.123-12.324-21.432-11.843-15.133 3.157-31.028 10.175-46.079 20.73.387.729.977 1.371 1.778 1.828.07.053.141.106.211.159l93.885 94.271c12.94-18.381 20.599-38.034 22.392-56.03z" fill="url(#SVGID_10_)"/><path d="m132.785 219.872c-12.494 8.142-23.154 18.866-31.227 31.412-1.815 2.821-6.005 2.813-7.81-.014-8.027-12.575-18.648-23.338-31.112-31.526-2.767-1.817-2.759-5.95.014-7.757 12.494-8.142 23.154-18.866 31.227-31.412 1.815-2.821 6.005-2.814 7.81.014 8.027 12.575 18.649 23.338 31.113 31.526 2.766 1.817 2.758 5.949-.015 7.757z" fill="url(#SVGID_11_)"/><path d="m67.91 142.344c-8.835 5.758-16.374 13.342-22.083 22.214-1.284 1.995-4.247 1.99-5.523-.01-5.676-8.893-13.187-16.504-22.001-22.294-1.956-1.285-1.951-4.207.01-5.485 8.835-5.758 16.374-13.342 22.082-22.214 1.284-1.995 4.247-1.99 5.523.01 5.677 8.893 13.188 16.504 22.002 22.294 1.957 1.285 1.952 4.207-.01 5.485z" fill="url(#SVGID_12_)"/><path d="m161.489 98.944c-8.835 5.758-16.374 13.342-22.083 22.214-1.284 1.995-4.247 1.99-5.523-.01-5.676-8.893-13.187-16.504-22.001-22.294-1.956-1.285-1.951-4.207.01-5.485 8.835-5.758 16.374-13.342 22.082-22.214 1.284-1.995 4.247-1.99 5.523.01 5.677 8.893 13.188 16.504 22.002 22.294 1.956 1.285 1.951 4.207-.01 5.485z" fill="url(#SVGID_13_)"/></g><path d="m395.686 411.625-37.488-37.488v32.447c10.756 5.239 23.677 6.833 37.488 5.041z" fill="url(#SVGID_14_)"/><g><path d="m477.429 451.648c-12.494 8.142-23.154 18.866-31.227 31.412-1.815 2.821-6.005 2.814-7.81-.014-8.027-12.575-18.648-23.338-31.112-31.526-2.767-1.817-2.759-5.95.014-7.757 12.494-8.142 23.154-18.866 31.227-31.412 1.815-2.821 6.005-2.814 7.81.014 8.027 12.575 18.649 23.338 31.113 31.526 2.766 1.817 2.758 5.949-.015 7.757z" fill="url(#SVGID_15_)"/><path d="m380.19 401.917c-8.835 5.758-16.374 13.342-22.083 22.214-1.284 1.995-4.247 1.99-5.523-.01-5.676-8.893-13.187-16.504-22.001-22.294-1.957-1.285-1.951-4.207.01-5.485 8.835-5.758 16.374-13.342 22.082-22.214 1.284-1.995 4.247-1.99 5.523.01 5.677 8.893 13.188 16.504 22.002 22.294 1.956 1.285 1.951 4.207-.01 5.485z" fill="url(#SVGID_16_)"/></g></g></svg>