<svg id="Capa_1" enable-background="new 0 0 510 510" height="512" viewBox="0 0 510 510" width="512" xmlns="http://www.w3.org/2000/svg" xmlns:xlink="http://www.w3.org/1999/xlink"><linearGradient id="lg1"><stop offset="0" stop-color="#ffda2d"/><stop offset="1" stop-color="#fdbf00"/></linearGradient><linearGradient id="SVGID_1_" gradientUnits="userSpaceOnUse" x1="255" x2="255" xlink:href="#lg1" y1="-.86" y2="41.364"/><linearGradient id="SVGID_2_" gradientTransform="matrix(-1 0 0 -1 505.333 972.158)" gradientUnits="userSpaceOnUse" x1="250.333" x2="250.333" xlink:href="#lg1" y1="461.298" y2="503.523"/><linearGradient id="SVGID_3_" gradientTransform="matrix(0 1 -1 0 509.412 -.588)" gradientUnits="userSpaceOnUse" x1="255.588" x2="255.588" xlink:href="#lg1" y1="-1.447" y2="40.777"/><linearGradient id="SVGID_4_" gradientTransform="matrix(0 -1 1 0 -462.746 504.745)" gradientUnits="userSpaceOnUse" x1="249.745" x2="249.745" xlink:href="#lg1" y1="461.886" y2="504.11"/><linearGradient id="lg2"><stop offset="0" stop-color="#edf5ff"/><stop offset="1" stop-color="#d5e8fe"/></linearGradient><linearGradient id="SVGID_5_" gradientTransform="matrix(.707 -.707 .707 .707 -105.625 255)" gradientUnits="userSpaceOnUse" x1="138.842" x2="310.141" xlink:href="#lg2" y1="139.708" y2="311.007"/><linearGradient id="SVGID_6_" gradientTransform="matrix(.707 -.707 .707 .707 -105.625 255)" gradientUnits="userSpaceOnUse" x1="344.575" x2="122.364" xlink:href="#lg2" y1="345.442" y2="123.231"/><linearGradient id="lg3"><stop offset="0" stop-color="#b5dbff" stop-opacity="0"/><stop offset=".2428" stop-color="#93cef6" stop-opacity=".243"/><stop offset=".5763" stop-color="#6abfec" stop-opacity=".576"/><stop offset=".8403" stop-color="#51b5e5" stop-opacity=".84"/><stop offset="1" stop-color="#48b2e3"/></linearGradient><linearGradient id="SVGID_7_" gradientTransform="matrix(.707 -.707 .707 .707 -105.625 255)" gradientUnits="userSpaceOnUse" x1="341.59" x2="292.937" xlink:href="#lg3" y1="388.139" y2="409.686"/><linearGradient id="SVGID_8_" gradientTransform="matrix(.707 -.707 .707 .707 -105.625 255)" gradientUnits="userSpaceOnUse" x1="125.24" x2="85.623" xlink:href="#lg3" y1="352.481" y2="263.515"/><linearGradient id="SVGID_9_" gradientTransform="matrix(.707 -.707 .707 .707 -105.625 255)" gradientUnits="userSpaceOnUse" x1="383.082" x2="407.061" xlink:href="#lg3" y1="355.051" y2="299.795"/><linearGradient id="SVGID_10_" gradientTransform="matrix(.707 -.707 .707 .707 -105.625 255)" gradientUnits="userSpaceOnUse" x1="347.303" x2="287.355" xlink:href="#lg3" y1="126.49" y2="93.65"/><linearGradient id="lg4"><stop offset="0" stop-color="#ff637b"/><stop offset="1" stop-color="#e63950"/></linearGradient><linearGradient id="SVGID_11_" gradientTransform="matrix(.707 -.707 .707 .707 -105.625 255)" gradientUnits="userSpaceOnUse" x1="206.346" x2="311.951" xlink:href="#lg4" y1="35.718" y2="141.323"/><linearGradient id="SVGID_12_" gradientTransform="matrix(.707 -.707 .707 .707 -105.625 255)" gradientUnits="userSpaceOnUse" x1="202.529" x2="304.473" xlink:href="#lg4" y1="374.89" y2="476.834"/><linearGradient id="SVGID_13_" gradientTransform="matrix(.707 .707 -.707 .707 255 -105.625)" gradientUnits="userSpaceOnUse" x1="207.213" x2="312.818" xlink:href="#lg4" y1="35.718" y2="141.323"/><linearGradient id="SVGID_14_" gradientTransform="matrix(-.707 -.707 .707 -.707 472.919 397.706)" gradientUnits="userSpaceOnUse" x1="206.346" x2="311.951" xlink:href="#lg4" y1="-273.332" y2="-167.727"/><g><g><path d="m356.481 65.17c-2.64 0-5.265-1.108-7.12-3.267-3.378-3.93-2.93-9.855 1-13.232 2.747-2.361 2.47-5.363 2.224-6.544s-1.193-4.043-4.655-5.107l-26.97-8.296c-43.151-13.272-88.769-13.272-131.92.001l-26.968 8.295c-3.463 1.065-4.41 3.926-4.656 5.107s-.523 4.183 2.224 6.544c3.93 3.378 4.378 9.302 1 13.232-3.377 3.929-9.301 4.377-13.232 1-7.167-6.16-10.293-15.36-8.362-24.611 1.931-9.25 8.476-16.432 17.509-19.21l26.968-8.295c46.761-14.383 96.193-14.383 142.954-.001l26.97 8.296c9.032 2.777 15.576 9.959 17.508 19.209 1.931 9.251-1.195 18.451-8.362 24.611-1.771 1.523-3.946 2.268-6.112 2.268z" fill="url(#SVGID_1_)"/><path d="m153.519 444.83c2.64 0 5.265 1.108 7.12 3.267 3.378 3.93 2.93 9.855-1 13.232-2.747 2.361-2.47 5.363-2.224 6.544s1.193 4.042 4.655 5.107l26.97 8.296c43.151 13.272 88.769 13.272 131.92-.001l26.968-8.295c3.463-1.065 4.41-3.926 4.656-5.107s.523-4.183-2.224-6.544c-3.93-3.378-4.378-9.302-1-13.232 3.377-3.93 9.301-4.377 13.232-1 7.167 6.16 10.293 15.36 8.362 24.611-1.931 9.25-8.476 16.432-17.509 19.21l-26.968 8.295c-46.761 14.383-96.193 14.383-142.954 0l-26.97-8.296c-9.032-2.777-15.576-9.959-17.508-19.209-1.931-9.251 1.195-18.451 8.362-24.611 1.771-1.522 3.946-2.267 6.112-2.267z" fill="url(#SVGID_2_)"/></g><g><path d="m444.83 356.481c0-2.64 1.108-5.265 3.267-7.12 3.93-3.378 9.855-2.93 13.232 1 2.361 2.747 5.363 2.47 6.544 2.224s4.042-1.193 5.107-4.655l8.296-26.97c13.272-43.151 13.272-88.769-.001-131.92l-8.295-26.968c-1.065-3.463-3.926-4.41-5.107-4.656s-4.183-.523-6.544 2.224c-3.378 3.93-9.302 4.378-13.232 1-3.93-3.377-4.377-9.301-1-13.232 6.16-7.167 15.36-10.293 24.611-8.362 9.25 1.931 16.432 8.476 19.21 17.509l8.295 26.968c14.383 46.761 14.383 96.193 0 142.954l-8.296 26.97c-2.777 9.032-9.959 15.576-19.209 17.508-9.251 1.931-18.451-1.195-24.611-8.362-1.522-1.771-2.267-3.946-2.267-6.112z" fill="url(#SVGID_3_)"/><path d="m65.17 153.519c0 2.64-1.108 5.265-3.267 7.12-3.93 3.378-9.855 2.93-13.232-1-2.361-2.747-5.363-2.47-6.544-2.224s-4.043 1.193-5.107 4.655l-8.296 26.97c-13.272 43.151-13.272 88.769.001 131.92l8.295 26.968c1.065 3.463 3.926 4.41 5.107 4.656s4.183.523 6.544-2.224c3.378-3.93 9.302-4.378 13.232-1 3.929 3.377 4.377 9.301 1 13.232-6.16 7.167-15.36 10.293-24.611 8.362-9.25-1.931-16.432-8.476-19.21-17.509l-8.295-26.968c-14.383-46.761-14.383-96.193-.001-142.954l8.296-26.97c2.777-9.032 9.959-15.576 19.209-17.508 9.251-1.931 18.451 1.195 24.611 8.362 1.523 1.771 2.268 3.946 2.268 6.112z" fill="url(#SVGID_4_)"/></g><g><path d="m93.559 94.172c-89.161 89.161-89.161 233.72 0 322.881s233.72 89.161 322.881 0 89.161-233.72 0-322.881-233.719-89.161-322.881 0zm227.128 227.128c-36.278 36.278-95.096 36.278-131.374 0s-36.278-95.096 0-131.374 95.096-36.278 131.374 0 36.278 95.096 0 131.374z" fill="url(#SVGID_5_)"/><path d="m125.988 126.601c-71.251 71.251-71.251 186.772 0 258.023s186.772 71.251 258.023 0 71.251-186.772 0-258.023-186.771-71.251-258.023 0zm194.699 194.699c-36.278 36.278-95.096 36.278-131.374 0s-36.278-95.096 0-131.374 95.096-36.278 131.374 0 36.278 95.096 0 131.374z" fill="url(#SVGID_6_)"/><path d="m347.881 254.662 135.404 2.057c-.273 58.054-22.543 116.035-66.843 160.336l-.243.243-95.756-95.756.243-.243c18.378-18.38 27.446-42.545 27.195-66.637z" fill="url(#SVGID_7_)"/><path d="m252.841 483.898 1.692-135.396c-19.547-.098-39.066-6.329-55.43-18.689l-76.083 112.123c38.791 27.547 84.251 41.534 129.821 41.962z" fill="url(#SVGID_8_)"/><path d="m326.889 196.771c13.791 16.808 20.787 37.322 20.996 57.893l135.414 2.055c.216-44.805-12.679-89.654-38.677-128.317z" fill="url(#SVGID_9_)"/><path d="m136.131 60.644 70.521 115.629c16.862-10.294 36.292-14.725 55.367-13.289l-15.059-135.526c-38.549 1.35-76.816 12.412-110.829 33.186z" fill="url(#SVGID_10_)"/><g><path d="m48.689 158.357 113.116 64.251c4.39 2.494 9.936.658 12.045-3.93 4.339-9.437 10.387-18.279 18.161-26.053s16.617-13.823 26.053-18.161c4.587-2.109 6.423-7.655 3.93-12.045l-64.25-113.117c-2.29-4.031-7.356-5.489-11.469-3.348-20.95 10.907-40.617 25.142-58.205 42.729s-31.823 37.255-42.73 58.205c-2.14 4.113-.682 9.179 3.349 11.469z" fill="url(#SVGID_11_)"/><path d="m461.311 352.869-113.116-64.251c-4.39-2.494-9.936-.658-12.045 3.93-4.339 9.437-10.387 18.279-18.161 26.053s-16.617 13.823-26.053 18.161c-4.587 2.109-6.423 7.655-3.93 12.045l64.251 113.116c2.29 4.031 7.356 5.489 11.469 3.348 20.95-10.907 40.617-25.142 58.205-42.729s31.823-37.255 42.73-58.205c2.139-4.112.681-9.178-3.35-11.468z" fill="url(#SVGID_12_)"/></g><g><path d="m352.256 49.302-64.251 113.116c-2.494 4.39-.658 9.936 3.93 12.045 9.437 4.339 18.279 10.387 26.053 18.161s13.823 16.617 18.161 26.053c2.109 4.587 7.655 6.423 12.045 3.93l113.116-64.251c4.031-2.29 5.489-7.356 3.348-11.469-10.907-20.95-25.142-40.617-42.729-58.205-17.588-17.588-37.255-31.823-58.205-42.73-4.112-2.139-9.178-.681-11.468 3.35z" fill="url(#SVGID_13_)"/><path d="m157.744 461.923 64.251-113.116c2.494-4.39.658-9.936-3.93-12.045-9.437-4.339-18.279-10.387-26.053-18.161s-13.823-16.617-18.161-26.053c-2.109-4.587-7.655-6.423-12.045-3.93l-113.117 64.251c-4.031 2.29-5.489 7.356-3.348 11.469 10.907 20.95 25.142 40.617 42.729 58.205s37.255 31.823 58.205 42.73c4.113 2.139 9.179.682 11.469-3.35z" fill="url(#SVGID_14_)"/></g></g></g></svg>