<svg id="Capa_1" enable-background="new 0 0 510 510" height="512" viewBox="0 0 510 510" width="512" xmlns="http://www.w3.org/2000/svg" xmlns:xlink="http://www.w3.org/1999/xlink"><linearGradient id="lg1"><stop offset="0" stop-color="#fee97d"/><stop offset="1" stop-color="#fac600"/></linearGradient><linearGradient id="SVGID_1_" gradientUnits="userSpaceOnUse" x1="142.99" x2="300.702" xlink:href="#lg1" y1="142.99" y2="300.702"/><linearGradient id="lg2"><stop offset="0" stop-color="#fac600" stop-opacity="0"/><stop offset=".6899" stop-color="#d68c3d" stop-opacity=".69"/><stop offset="1" stop-color="#c5715a"/></linearGradient><linearGradient id="SVGID_2_" gradientUnits="userSpaceOnUse" x1="155.326" x2="218.581" xlink:href="#lg2" y1="155.326" y2="218.581"/><linearGradient id="SVGID_3_" gradientUnits="userSpaceOnUse" x1="185.443" x2="185.443" xlink:href="#lg2" y1="199.014" y2="299.414"/><linearGradient id="SVGID_4_" gradientUnits="userSpaceOnUse" x1="171.629" x2="214.444" xlink:href="#lg1" y1="31.443" y2="31.443"/><linearGradient id="SVGID_5_" gradientUnits="userSpaceOnUse" x1="171.629" x2="214.444" xlink:href="#lg1" y1="339.443" y2="339.443"/><linearGradient id="SVGID_6_" gradientTransform="matrix(0 1 -1 0 2025.683 -1434.863)" gradientUnits="userSpaceOnUse" x1="1606.492" x2="1649.307" xlink:href="#lg1" y1="1686.24" y2="1686.24"/><linearGradient id="SVGID_7_" gradientTransform="matrix(0 1 -1 0 2025.683 -1434.863)" gradientUnits="userSpaceOnUse" x1="1606.492" x2="1649.307" xlink:href="#lg1" y1="1994.24" y2="1994.24"/><linearGradient id="SVGID_8_" gradientTransform="matrix(.707 .707 -.707 .707 359.942 -2270.591)" gradientUnits="userSpaceOnUse" x1="1599.475" x2="1642.289" xlink:href="#lg1" y1="1706.068" y2="1706.068"/><linearGradient id="SVGID_9_" gradientTransform="matrix(.707 .707 -.707 .707 359.942 -2270.591)" gradientUnits="userSpaceOnUse" x1="1599.475" x2="1642.289" xlink:href="#lg1" y1="2014.068" y2="2014.068"/><linearGradient id="SVGID_10_" gradientTransform="matrix(-.707 .707 -.707 -.707 2612.591 333.942)" gradientUnits="userSpaceOnUse" x1="1597.434" x2="1640.249" xlink:href="#lg1" y1="1667.258" y2="1667.258"/><linearGradient id="SVGID_11_" gradientTransform="matrix(-.707 .707 -.707 -.707 2612.591 333.942)" gradientUnits="userSpaceOnUse" x1="1597.434" x2="1640.249" xlink:href="#lg1" y1="1975.258" y2="1975.258"/><linearGradient id="SVGID_12_" gradientUnits="userSpaceOnUse" x1="197.561" x2="427.462" y1="198.561" y2="428.462"><stop offset="0" stop-color="#a0d4ff"/><stop offset="1" stop-color="#0593fc"/></linearGradient><linearGradient id="lg3"><stop offset="0" stop-color="#a2e62e"/><stop offset=".1231" stop-color="#97de30"/><stop offset=".3395" stop-color="#79cb36"/><stop offset=".6234" stop-color="#4aab3f"/><stop offset=".9609" stop-color="#09804c"/><stop offset="1" stop-color="#017b4e"/></linearGradient><linearGradient id="SVGID_13_" gradientUnits="userSpaceOnUse" x1="124.768" x2="367.6" xlink:href="#lg3" y1="250.628" y2="493.46"/><linearGradient id="SVGID_14_" gradientUnits="userSpaceOnUse" x1="324.624" x2="482.924" xlink:href="#lg3" y1="165.624" y2="323.923"/><linearGradient id="SVGID_15_" gradientUnits="userSpaceOnUse" x1="189.987" x2="235.683" xlink:href="#lg3" y1="257.909" y2="303.605"/><linearGradient id="SVGID_16_" gradientUnits="userSpaceOnUse" x1="336.01" x2="382.668" y1="359.523" y2="507.394"><stop offset="0" stop-color="#2740b0" stop-opacity="0"/><stop offset=".3153" stop-color="#243ba4" stop-opacity=".315"/><stop offset=".8855" stop-color="#1b2d84" stop-opacity=".886"/><stop offset="1" stop-color="#192a7d"/></linearGradient><linearGradient id="SVGID_17_" gradientUnits="userSpaceOnUse" x1="345.5" x2="173.009" y1="345.5" y2="173.01"><stop offset="0" stop-color="#b3dafe" stop-opacity="0"/><stop offset=".3799" stop-color="#cee2c1" stop-opacity=".38"/><stop offset="1" stop-color="#fef056"/></linearGradient><g><g><g><circle cx="185.443" cy="185.443" fill="url(#SVGID_1_)" r="103"/><circle cx="185.443" cy="185.443" fill="url(#SVGID_2_)" r="103"/><path d="m185.443 288.443c56.885 0 103-46.115 103-103h-206c0 56.885 46.115 103 103 103z" fill="url(#SVGID_3_)"/></g><g><g><path d="m185.443 62.886c-8.514 0-15.415-6.902-15.415-15.415v-32.056c-.001-8.513 6.901-15.415 15.415-15.415 8.514 0 15.415 6.902 15.415 15.415v32.055c0 8.514-6.902 15.416-15.415 15.416z" fill="url(#SVGID_4_)"/></g><g><path d="m185.443 370.885c-8.514 0-15.415-6.902-15.415-15.415v-32.055c0-8.514 6.902-15.415 15.415-15.415 8.514 0 15.415 6.902 15.415 15.415v32.055c0 8.514-6.902 15.415-15.415 15.415z" fill="url(#SVGID_5_)"/></g></g><g><g><path d="m308 185.443c0-8.514 6.902-15.415 15.415-15.415h32.055c8.514 0 15.415 6.902 15.415 15.415 0 8.514-6.902 15.415-15.415 15.415h-32.055c-8.513 0-15.415-6.902-15.415-15.415z" fill="url(#SVGID_6_)"/></g><g><path d="m0 185.443c0-8.514 6.902-15.415 15.415-15.415h32.055c8.514 0 15.415 6.902 15.415 15.415 0 8.514-6.902 15.415-15.415 15.415h-32.055c-8.513 0-15.415-6.902-15.415-15.415z" fill="url(#SVGID_7_)"/></g></g><g><g><path d="m272.104 98.782c-6.02-6.02-6.02-15.781 0-21.801l22.666-22.666c6.02-6.02 15.78-6.02 21.8 0 6.02 6.02 6.02 15.78 0 21.8l-22.666 22.666c-6.02 6.021-15.78 6.021-21.8.001z" fill="url(#SVGID_8_)"/></g><g><path d="m54.315 316.571c-6.02-6.02-6.02-15.781 0-21.801l22.666-22.666c6.02-6.02 15.78-6.02 21.8 0 6.02 6.02 6.02 15.78 0 21.8l-22.666 22.666c-6.02 6.021-15.78 6.021-21.8.001z" fill="url(#SVGID_9_)"/></g></g><g><g><path d="m272.104 272.104c6.02-6.02 15.78-6.02 21.801 0l22.666 22.666c6.02 6.02 6.02 15.78 0 21.8-6.02 6.02-15.78 6.02-21.8 0l-22.666-22.666c-6.021-6.02-6.021-15.78-.001-21.8z" fill="url(#SVGID_10_)"/></g><g><path d="m54.315 54.315c6.02-6.02 15.781-6.02 21.801 0l22.666 22.666c6.02 6.02 6.02 15.78 0 21.8-6.02 6.02-15.78 6.02-21.8 0l-22.667-22.666c-6.02-6.02-6.02-15.78 0-21.8z" fill="url(#SVGID_11_)"/></g></g></g><g><path d="m508 326.956c0 9.501 1.276 18.833-.119 27.944-13.454 87.828-89.334 155.1-180.926 155.1-101.093 0-183.045-81.952-183.045-183.044 0-95.241 72.738-173.492 165.693-182.233 5.712-.537 11.499 1.188 17.352 1.188 101.093 0 181.045 79.952 181.045 181.045z" fill="url(#SVGID_12_)"/><path d="m227.696 443.906c-11.669 11.669-9.418 31.268 4.705 39.806 27.596 16.684 59.953 26.288 94.554 26.288 47.006 0 89.867-17.725 122.281-46.847 2.059-1.85 3.228-4.493 3.228-7.261 0-8.699-10.517-13.055-16.668-6.904-11.904 11.904-31.204 11.904-43.107 0-15.843-15.843-37.331-24.743-59.736-24.743h-18.841c-16.352 0-29.609-13.256-29.609-29.609v-1.732c0-7.853 3.119-15.384 8.672-20.936 11.563-11.563 11.563-30.31 0-41.873-16.385-16.385-42.95-16.385-59.335 0l-23.885 23.885c-9.967 9.967-9.967 26.127 0 36.094l17.74 17.74c9.968 9.965 9.968 26.125.001 36.092z" fill="url(#SVGID_13_)"/><path d="m371.858 264.896c16.436 0 24.667 19.871 13.045 31.493-8.176 8.176-8.176 21.432 0 29.609 8.176 8.176 21.432 8.176 29.609 0l6.639-6.639c6.591-6.591 17.277-6.591 23.868 0 8.904 8.904 13.906 20.981 13.906 33.573 0 13.518 10.959 24.477 24.477 24.477 11.937 0 22.188-8.6 24.136-20.377 1.529-9.241 2.365-18.716 2.454-28.369.932-101.941-80.764-184.572-182.709-184.751-7.001-.012-13.911.37-20.708 1.124-8.723.968-12.5 11.536-6.294 17.742 4.071 4.071 4.071 10.672 0 14.743-13.322 13.322-13.322 34.921 0 48.243l16.191 16.191c14.689 14.688 34.612 22.941 55.386 22.941z" fill="url(#SVGID_14_)"/><path d="m225.647 310.293c9.315-9.315 9.315-24.416 0-33.731l-6.54-6.54c-4.615-4.615-4.615-12.098 0-16.714 7.445-7.445 2.172-20.175-8.357-20.175-18.731 0-33.915 15.184-33.915 33.915 0 13.702 3.975 27.11 11.442 38.599l.506.779c8.265 12.715 26.141 14.59 36.864 3.867z" fill="url(#SVGID_15_)"/><path d="m510 326.956c0 101.09-81.954 183.044-183.045 183.044-4.96 0-9.877-.194-14.737-.589-80.331-6.396-146.048-64.661-163.656-141.289-3.044-13.229-4.652-27.012-4.652-41.167 0-9.095.66-18.032 1.945-26.768h362.198c1.287 8.737 1.947 17.674 1.947 26.769z" fill="url(#SVGID_16_)"/></g><circle cx="326.956" cy="326.956" fill="url(#SVGID_17_)" r="183.044"/></g></svg>