<?xml version="1.0" encoding="iso-8859-1"?>
<!-- Generator: Adobe Illustrator 19.0.0, SVG Export Plug-In . SVG Version: 6.00 Build 0)  -->
<svg version="1.1" id="Capa_1" xmlns="http://www.w3.org/2000/svg" xmlns:xlink="http://www.w3.org/1999/xlink" x="0px" y="0px"
	 viewBox="0 0 512.001 512.001" style="enable-background:new 0 0 512.001 512.001;" xml:space="preserve">
<linearGradient id="SVGID_1_" gradientUnits="userSpaceOnUse" x1="254.8091" y1="420.503" x2="254.8091" y2="-178.647" gradientTransform="matrix(1.0039 0 0 -1.0039 0.1922 516.5609)">
	<stop  offset="0" style="stop-color:#FFE7A5"/>
	<stop  offset="0.966" style="stop-color:#FFBF5C"/>
</linearGradient>
<path style="fill:url(#SVGID_1_);" d="M470.79,42.968c0-15.752-12.769-28.519-28.519-28.519H69.729
	c-15.751,0-28.519,12.769-28.519,28.519v220.607l0,0v222.484c0,14.327,12.769,25.942,28.519,25.942l0,0h257.494h59.911h55.137
	c15.751,0,28.519-11.614,28.519-25.942V375.901v-0.002V42.968H470.79z"/>
<linearGradient id="SVGID_2_" gradientUnits="userSpaceOnUse" x1="477.0702" y1="29.7345" x2="-25.0529" y2="531.8635" gradientTransform="matrix(1.0039 0 0 -1.0039 0.1922 516.5609)">
	<stop  offset="0" style="stop-color:#FF5D00;stop-opacity:0"/>
	<stop  offset="1" style="stop-color:#D54003"/>
</linearGradient>
<path style="fill:url(#SVGID_2_);" d="M441.33,52.261c-4.63-5.975-11.87-9.826-20.015-9.826H256H90.684l0,0
	c-12.54,0-25.311,11.332-25.311,25.311v195.789l0,0v197.454c0,5.786,2.351,11.068,6.224,15.112L107.497,512h219.726h59.911h55.137
	c15.751,0,28.519-11.614,28.519-25.942V375.901v-0.002V81.721L441.33,52.261z"/>
<linearGradient id="SVGID_3_" gradientUnits="userSpaceOnUse" x1="374.3606" y1="132.795" x2="450.8406" y2="56.315" gradientTransform="matrix(1.0039 0 0 -1.0039 0.1922 516.5609)">
	<stop  offset="0" style="stop-color:#97AAAA"/>
	<stop  offset="1" style="stop-color:#E8EFEE"/>
</linearGradient>
<path style="fill:url(#SVGID_3_);" d="M446.627,458.702V67.747c0-13.972-11.339-25.311-25.311-25.311H90.684
	c-13.972,0-25.311,11.339-25.311,25.311v390.955c0,13.972,11.339,25.311,25.311,25.311h330.632
	C435.287,484.013,446.627,472.673,446.627,458.702z"/>
<linearGradient id="SVGID_4_" gradientUnits="userSpaceOnUse" x1="254.8086" y1="327.353" x2="254.8086" y2="-241.457" gradientTransform="matrix(1.0039 0 0 -1.0039 0.1922 516.5609)">
	<stop  offset="0" style="stop-color:#E2EDF2"/>
	<stop  offset="1" style="stop-color:#E6E6E6"/>
</linearGradient>
<path style="fill:url(#SVGID_4_);" d="M319.21,484.013H90.684c-13.979,0-25.311-11.332-25.311-25.311V67.747
	c0-13.979,11.332-25.311,25.311-25.311h330.632c13.979,0,25.311,11.332,25.311,25.311v295.478c0,3.873-1.524,7.591-4.243,10.35
	l-98.736,100.209C337.201,480.328,328.398,484.013,319.21,484.013z"/>
<linearGradient id="SVGID_5_" gradientUnits="userSpaceOnUse" x1="258.7358" y1="318.4212" x2="458.9258" y2="463.9012" gradientTransform="matrix(1.0039 0 0 -1.0039 0.1922 516.5609)">
	<stop  offset="0" style="stop-color:#9FC7E2;stop-opacity:0"/>
	<stop  offset="1" style="stop-color:#4975AD"/>
</linearGradient>
<path style="fill:url(#SVGID_5_);" d="M256,484.013H88.08c-12.54,0-22.707-11.332-22.707-25.311v-48.934V67.747
	c0-13.979,10.166-25.311,22.707-25.311H256V484.013z"/>
<linearGradient id="SVGID_6_" gradientUnits="userSpaceOnUse" x1="271.2354" y1="137.0685" x2="-35.2147" y2="337.6284" gradientTransform="matrix(1.0039 0 0 -1.0039 0.1922 516.5609)">
	<stop  offset="0" style="stop-color:#9FC7E2;stop-opacity:0"/>
	<stop  offset="1" style="stop-color:#4975AD"/>
</linearGradient>
<path style="fill:url(#SVGID_6_);" d="M446.627,263.534v197.454c0,12.716-11.332,23.024-25.311,23.024h-48.934H90.684
	c-13.979,0-25.311-10.308-25.311-23.024V263.534C65.373,262.136,446.627,263.534,446.627,263.534z"/>
<linearGradient id="SVGID_7_" gradientUnits="userSpaceOnUse" x1="334.9359" y1="134.8063" x2="384.6201" y2="85.122" gradientTransform="matrix(1.0039 0 0 -1.0039 0.1922 516.5609)">
	<stop  offset="0" style="stop-color:#FFFFFF"/>
	<stop  offset="1" style="stop-color:#E8EFEE"/>
</linearGradient>
<path style="fill:url(#SVGID_7_);" d="M445.331,369.269c0,0-0.748,2.118-3.692,5.063c-1.093,1.093-97.409,98.863-97.409,98.863
	c-6.819,6.921-16.129,10.818-25.845,10.818l0,0l0,0c8.388,0,15.186-6.8,15.186-15.186v-74.246c0-13.979,11.332-25.311,25.311-25.311
	L445.331,369.269L445.331,369.269z"/>
<linearGradient id="SVGID_8_" gradientUnits="userSpaceOnUse" x1="306.2639" y1="398.3541" x2="276.3938" y2="543.834" gradientTransform="matrix(1.0039 0 0 -1.0039 0.1922 516.5609)">
	<stop  offset="0" style="stop-color:#9FC7E2;stop-opacity:0"/>
	<stop  offset="1" style="stop-color:#4975AD"/>
</linearGradient>
<path style="fill:url(#SVGID_8_);" d="M446.627,125.098l-82.663-82.663H157.152v5.834c0,11.084,4.953,21.035,12.751,27.766
	l276.724,276.724L446.627,125.098L446.627,125.098z"/>
<path style="fill:#A5B0B8;" d="M318.151,84.965H193.849c-20.235,0-36.697-16.462-36.697-36.697v-27.72h197.695v27.72
	C354.848,68.503,338.386,84.965,318.151,84.965z M173.812,37.206v11.061c0,11.049,8.989,20.037,20.037,20.037h124.302
	c11.048,0,20.037-8.988,20.037-20.037V37.206H173.812z"/>
<linearGradient id="SVGID_9_" gradientUnits="userSpaceOnUse" x1="254.8081" y1="504.586" x2="254.8081" y2="455.896" gradientTransform="matrix(1.0039 0 0 -1.0039 0.1922 516.5609)">
	<stop  offset="0" style="stop-color:#FF7BAC"/>
	<stop  offset="1" style="stop-color:#E24786"/>
</linearGradient>
<path style="fill:url(#SVGID_9_);" d="M347.459,52.201H164.541c-9.908,0-17.94-8.031-17.94-17.939V17.939
	c0-9.908,8.031-17.939,17.94-17.939h182.919c9.908,0,17.939,8.031,17.939,17.939v16.322
	C365.399,44.169,357.367,52.201,347.459,52.201z"/>
<g>
	<rect x="117.579" y="145.177" style="fill:#A5B0B8;" width="172.273" height="31.058"/>
	<rect x="117.579" y="263.77" style="fill:#A5B0B8;" width="172.273" height="31.058"/>
</g>
<linearGradient id="SVGID_10_" gradientUnits="userSpaceOnUse" x1="155.9265" y1="151.6909" x2="236.3065" y2="71.3109" gradientTransform="matrix(1.0039 0 0 -1.0039 0.1922 516.5609)">
	<stop  offset="0" style="stop-color:#FF7BAC"/>
	<stop  offset="1" style="stop-color:#E24786"/>
</linearGradient>
<path style="fill:url(#SVGID_10_);" d="M206.218,349.897c-16.521-0.805-30.205,12.171-30.555,28.431
	c-0.001,0.035-0.013,0.035-0.014,0c-0.35-16.26-14.035-29.236-30.555-28.431c-18.145,0.884-30.187,18.631-27,36.516
	c5.359,30.078,42.378,50.788,54.048,56.629c2.215,1.108,4.817,1.108,7.031,0c11.671-5.84,48.689-26.55,54.048-56.629
	C236.404,368.528,224.362,350.78,206.218,349.897z"/>
<linearGradient id="SVGID_11_" gradientUnits="userSpaceOnUse" x1="359.9388" y1="390.2432" x2="458.1188" y2="292.0632" gradientTransform="matrix(1.0039 0 0 -1.0039 0.1922 516.5609)">
	<stop  offset="0" style="stop-color:#9EB644"/>
	<stop  offset="1" style="stop-color:#738611"/>
</linearGradient>
<path style="fill:url(#SVGID_11_);" d="M431.916,115.641c3.758,3.758,3.758,9.85,0,13.607l-54.503,54.497
	c-10.046,10.046-26.394,10.046-36.433,0l-20.655-20.655c-3.757-3.757-3.758-9.847-0.002-13.605l0,0
	c3.757-3.759,9.85-3.76,13.608-0.002l20.651,20.651c2.542,2.542,6.684,2.542,9.219,0l54.504-54.498
	c3.758-3.757,9.849-3.757,13.606,0L431.916,115.641z"/>
<linearGradient id="SVGID_12_" gradientUnits="userSpaceOnUse" x1="359.9394" y1="274.2137" x2="458.1194" y2="176.0337" gradientTransform="matrix(1.0039 0 0 -1.0039 0.1922 516.5609)">
	<stop  offset="0" style="stop-color:#9EB644"/>
	<stop  offset="1" style="stop-color:#738611"/>
</linearGradient>
<path style="fill:url(#SVGID_12_);" d="M431.916,232.125c3.758,3.758,3.758,9.849,0,13.607l-54.503,54.497
	c-10.046,10.046-26.394,10.046-36.433,0l-20.655-20.655c-3.757-3.757-3.758-9.847-0.002-13.605l0,0
	c3.757-3.759,9.85-3.76,13.608-0.002l20.651,20.651c2.542,2.542,6.684,2.542,9.219,0l54.504-54.498
	c3.758-3.757,9.849-3.757,13.606,0L431.916,232.125z"/>
<g>
</g>
<g>
</g>
<g>
</g>
<g>
</g>
<g>
</g>
<g>
</g>
<g>
</g>
<g>
</g>
<g>
</g>
<g>
</g>
<g>
</g>
<g>
</g>
<g>
</g>
<g>
</g>
<g>
</g>
</svg>
