<svg id="Capa_1" enable-background="new 0 0 510 510" height="512" viewBox="0 0 510 510" width="512" xmlns="http://www.w3.org/2000/svg" xmlns:xlink="http://www.w3.org/1999/xlink"><linearGradient id="SVGID_1_" gradientUnits="userSpaceOnUse" x1="76.677" x2="396.954" y1="74.195" y2="394.472"><stop offset="0" stop-color="#a0d4ff"/><stop offset="1" stop-color="#0593fc"/></linearGradient><linearGradient id="lg1"><stop offset="0" stop-color="#a2e62e"/><stop offset=".1231" stop-color="#97de30"/><stop offset=".3395" stop-color="#79cb36"/><stop offset=".6234" stop-color="#4aab3f"/><stop offset=".9609" stop-color="#09804c"/><stop offset="1" stop-color="#017b4e"/></linearGradient><linearGradient id="SVGID_2_" gradientUnits="userSpaceOnUse" x1="198.168" x2="532.671" xlink:href="#lg1" y1="22.832" y2="357.336"/><linearGradient id="SVGID_3_" gradientUnits="userSpaceOnUse" x1="40.948" x2="253.668" xlink:href="#lg1" y1="262.452" y2="475.172"/><linearGradient id="SVGID_4_" gradientUnits="userSpaceOnUse" x1="391.311" x2="446.814" xlink:href="#lg1" y1="296.689" y2="352.191"/><linearGradient id="SVGID_5_" gradientUnits="userSpaceOnUse" x1="155.785" x2="155.785" y1="367.333" y2="486.011"><stop offset="0" stop-color="#017b4e" stop-opacity="0"/><stop offset=".4693" stop-color="#01764a" stop-opacity=".469"/><stop offset="1" stop-color="#026841"/></linearGradient><linearGradient id="SVGID_6_" gradientUnits="userSpaceOnUse" x1="267.614" x2="332.614" y1="300.37" y2="506.37"><stop offset="0" stop-color="#2740b0" stop-opacity="0"/><stop offset=".3153" stop-color="#243ba4" stop-opacity=".315"/><stop offset=".8855" stop-color="#1b2d84" stop-opacity=".886"/><stop offset="1" stop-color="#192a7d"/></linearGradient><g><path d="m510 255c0 140.833-114.167 255-255 255-73.848 0-138.364-34.392-184.932-84.559-42.24-45.504-70.068-103.456-70.068-170.441 0-74.817 32.221-142.109 83.544-188.756 45.285-41.158 105.441-63.244 171.456-63.244 48.201 0 93.278 10.373 131.723 33.612 73.885 44.66 123.277 125.756 123.277 218.388z" fill="url(#SVGID_1_)"/><path d="m393.279 92.076c16.256-16.256 13.12-43.559-6.554-55.454-38.445-23.243-83.521-36.622-131.725-36.622-65.483 0-125.193 24.692-170.35 65.263-2.868 2.577-4.497 6.26-4.497 10.116 0 12.118 14.652 18.187 23.221 9.618 16.583-16.583 43.47-16.583 60.053 0 22.071 22.071 52.005 34.47 83.218 34.47h26.248c22.781 0 41.248 18.467 41.248 41.248v2.414c0 10.94-4.346 21.431-12.081 29.167-16.108 16.108-16.108 42.225 0 58.333 22.826 22.826 59.834 22.826 82.659 0l33.274-33.274c13.885-13.885 13.885-36.398 0-50.283l-24.714-24.714c-13.885-13.885-13.885-36.397 0-50.282z" fill="url(#SVGID_2_)"/><path d="m192.446 341.456c-22.896 0-34.363-27.683-18.173-43.873 11.39-11.39 11.39-29.858 0-41.248-11.39-11.39-29.858-11.39-41.248 0l-9.249 9.249c-9.182 9.182-24.068 9.182-33.25 0-12.404-12.404-19.373-29.228-19.373-46.771 0-18.832-15.267-34.099-34.099-34.099-16.629 0-30.91 11.981-33.625 28.388-2.13 12.874-3.295 26.073-3.418 39.521-1.299 142.014 112.512 257.127 254.533 257.377 9.754.017 19.38-.515 28.849-1.566 12.151-1.348 17.414-16.071 8.769-24.716-5.671-5.671-5.671-14.867 0-20.538 18.559-18.559 18.559-48.649 0-67.208l-22.556-22.556c-20.465-20.464-48.22-31.96-77.16-31.96z" fill="url(#SVGID_3_)"/><path d="m396.133 278.212c-12.976 12.976-12.976 34.015 0 46.991l9.111 9.111c6.43 6.43 6.43 16.854 0 23.284-10.372 10.372-3.026 28.106 11.642 28.106 26.094 0 47.248-21.153 47.248-47.248 0-19.088-5.537-37.767-15.94-53.772l-.705-1.085c-11.514-17.713-36.417-20.325-51.356-5.387z" fill="url(#SVGID_4_)"/><path d="m5.49 308c24.223 115.396 126.048 201.784 249.054 202 9.754.017 19.38-.515 28.849-1.565 12.151-1.348 17.414-16.071 8.769-24.716-5.671-5.671-5.671-14.867 0-20.538 18.559-18.559 18.559-48.649 0-67.208l-22.556-22.556c-20.464-20.464-48.219-31.961-77.16-31.961-18.462 0-29.481-17.997-24.574-33.456z" fill="url(#SVGID_5_)"/><path d="m510 255c0 140.83-114.17 255-255 255-6.91 0-13.76-.27-20.53-.82-111.91-8.91-203.46-90.08-227.99-196.83-4.24-18.43-6.48-37.63-6.48-57.35 0-12.67.92-25.12 2.71-37.29h504.58c1.79 12.17 2.71 24.62 2.71 37.29z" fill="url(#SVGID_6_)"/></g></svg>