<svg id="Capa_1" enable-background="new 0 0 497.068 497.068" height="512" viewBox="0 0 497.068 497.068" width="512" xmlns="http://www.w3.org/2000/svg"><g><path d="m248.534 473.428c0 8.284 6.716 15 15 15h200.534c8.284 0 15-6.716 15-15v-439.788c0-8.284-6.716-15-15-15h-190.534c-8.284 0-15 6.716-15 15l-30 82.184z" fill="#edf5fa"/><path d="m470.068 8.64h-206.534c-8.284 0-15 6.716-15 15l-20 92.184h256.534v-92.184c0-8.284-6.715-15-15-15z" fill="#978ecb"/><path d="m0 473.428c0 8.284 6.716 15 15 15h200.534c8.284 0 15-6.716 15-15v-439.788c0-8.284-6.716-15-15-15h-190.534c-8.284 0-15 6.716-15 15l-10 82.184z" fill="#edf5fa"/><g><path d="m204.085 456.684h-159.636c-4.142 0-7.5-3.358-7.5-7.5s3.358-7.5 7.5-7.5h159.636c4.143 0 7.5 3.358 7.5 7.5s-3.357 7.5-7.5 7.5z" fill="#5b596d"/></g><g><path d="m452.619 456.684h-159.636c-4.143 0-7.5-3.358-7.5-7.5s3.357-7.5 7.5-7.5h159.636c4.142 0 7.5 3.358 7.5 7.5s-3.357 7.5-7.5 7.5z" fill="#5b596d"/></g><g><path d="m452.619 411.346h-159.636c-4.143 0-7.5-3.358-7.5-7.5s3.357-7.5 7.5-7.5h159.636c4.142 0 7.5 3.358 7.5 7.5s-3.357 7.5-7.5 7.5z" fill="#5b596d"/></g><g><path d="m452.619 366.009h-159.636c-4.143 0-7.5-3.358-7.5-7.5s3.357-7.5 7.5-7.5h159.636c4.142 0 7.5 3.358 7.5 7.5s-3.357 7.5-7.5 7.5z" fill="#5b596d"/></g><g><path d="m452.619 165.195h-52.563c-4.143 0-7.5-3.358-7.5-7.5s3.357-7.5 7.5-7.5h52.563c4.142 0 7.5 3.358 7.5 7.5s-3.357 7.5-7.5 7.5z" fill="#5b596d"/></g><g><path d="m452.619 221.068h-52.563c-4.143 0-7.5-3.358-7.5-7.5s3.357-7.5 7.5-7.5h52.563c4.142 0 7.5 3.358 7.5 7.5s-3.357 7.5-7.5 7.5z" fill="#5b596d"/></g><g><path d="m452.619 276.941h-52.563c-4.143 0-7.5-3.358-7.5-7.5s3.357-7.5 7.5-7.5h52.563c4.142 0 7.5 3.358 7.5 7.5s-3.357 7.5-7.5 7.5z" fill="#5b596d"/></g><path d="m472.068 10.64h-20c8.284 0 15 4.716 15 13v449.788c0 8.284-6.716 15-15 15h30c8.284 0 15-6.716 15-15v-357.604l-10-92.184c0-8.284-6.715-13-15-13z" fill="#d0e7f2"/><path d="m482.068 8.64h-30c8.284 0 15 6.716 15 15v92.184h30v-92.184c0-8.284-6.715-15-15-15z" fill="#6e61b6"/><path d="m320.12 62.232c0 9.826-6.965 16.791-16.791 16.791-2.456 0-4.797.502-6.925-.398-6.386-2.701-10.866-9.024-10.866-16.393 0-7.34 4.445-13.642 10.79-16.36 2.149-.921 4.516-.431 7.002-.431 9.825 0 16.79 6.965 16.79 16.791z" fill="#e592b8"/><path d="m303.329 44.441c-2.486 0-4.851.513-7 1.434 6.345 2.719 10.791 9.017 10.791 16.357s-4.446 13.638-10.791 16.357c2.149.921 4.514 1.434 7 1.434 9.826 0 17.791-7.965 17.791-17.791s-7.965-17.791-17.791-17.791z" fill="#e175a5"/><path d="m223.534 10.64h-20c8.284 0 15 4.716 15 13v449.788c0 8.284-6.716 15-15 15h30c8.284 0 15-6.716 15-15v-357.604l-10-92.184c0-8.284-6.716-13-15-13z" fill="#d0e7f2"/><path d="m221.534 8.64h-206.534c-8.284 0-15 6.716-15 15v92.184h236.534v-92.184c0-8.284-6.716-15-15-15z" fill="#978ecb"/><path d="m233.534 8.64h-30c8.284 0 15 6.716 15 15v92.184h30v-92.184c0-8.284-6.716-15-15-15z" fill="#6e61b6"/><path d="m71.586 62.232c0 9.826-6.965 16.791-16.791 16.791-2.457 0-4.797.502-6.925-.398-6.386-2.701-10.866-9.024-10.866-16.393 0-7.34 4.445-13.642 10.79-16.36 2.149-.921 4.516-.431 7.002-.431 9.824 0 16.79 6.965 16.79 16.791z" fill="#e592b8"/><path d="m54.795 44.441c-2.486 0-4.851.513-7 1.434 6.345 2.719 10.791 9.017 10.791 16.357s-4.446 13.638-10.791 16.357c2.149.921 4.514 1.434 7 1.434 9.826 0 17.791-7.965 17.791-17.791s-7.966-17.791-17.791-17.791z" fill="#e175a5"/><path d="m361.801 325.314h-58.818c-5.523 0-10-4.477-10-10v-147.62c0-5.523 4.477-10 10-10h58.818c5.523 0 10 4.477 10 10v147.62c0 5.523-4.477 10-10 10z" fill="#6cf5c2"/><path d="m194.085 267.352h-139.636c-5.523 0-10-4.477-10-10v-89.657c0-5.523 4.477-10 10-10h139.636c5.523 0 10 4.477 10 10v89.657c0 5.523-4.477 10-10 10z" fill="#e592b8"/><g fill="#fee97d"><path d="m194.085 344.136h-139.636c-5.523 0-10-4.477-10-10v-27.644c0-5.523 4.477-10 10-10h139.636c5.523 0 10 4.477 10 10v27.644c0 5.523-4.477 10-10 10z"/><path d="m194.085 420.921h-139.636c-5.523 0-10-4.477-10-10v-27.644c0-5.523 4.477-10 10-10h139.636c5.523 0 10 4.477 10 10v27.644c0 5.523-4.477 10-10 10z"/></g></g></svg>