<svg id="Capa_1" enable-background="new 0 0 510.003 510.003" height="512" viewBox="0 0 510.003 510.003" width="512" xmlns="http://www.w3.org/2000/svg" xmlns:xlink="http://www.w3.org/1999/xlink"><linearGradient id="SVGID_1_" gradientUnits="userSpaceOnUse" x1="291.642" x2="446.456" y1="249.677" y2="403.344"><stop offset="0" stop-color="#ccfc5c"/><stop offset=".1591" stop-color="#c6f95a"/><stop offset=".3653" stop-color="#b6f053"/><stop offset=".5975" stop-color="#9be248"/><stop offset=".8469" stop-color="#76cf38"/><stop offset="1" stop-color="#5cc12d"/></linearGradient><linearGradient id="lg1"><stop offset="0" stop-color="#5cc12d" stop-opacity="0"/><stop offset=".2144" stop-color="#5dbb2d" stop-opacity=".214"/><stop offset=".4924" stop-color="#5fab2d" stop-opacity=".492"/><stop offset=".8039" stop-color="#62912d" stop-opacity=".804"/><stop offset="1" stop-color="#647c2d"/></linearGradient><linearGradient id="SVGID_2_" gradientTransform="matrix(.854 -.52 .52 .854 -383.84 334.359)" gradientUnits="userSpaceOnUse" x1="523.895" x2="523.895" xlink:href="#lg1" y1="458.551" y2="509.126"/><linearGradient id="SVGID_3_" gradientUnits="userSpaceOnUse" x1="435.72" x2="425.835" xlink:href="#lg1" y1="256.698" y2="338.871"/><linearGradient id="SVGID_4_" gradientUnits="userSpaceOnUse" x1="339.075" x2="180.409" xlink:href="#lg1" y1="384.658" y2="212.658"/><linearGradient id="SVGID_5_" gradientUnits="userSpaceOnUse" x1="77.81" x2="347.81" y1="80.002" y2="348.002"><stop offset="0" stop-color="#ff9df0"/><stop offset=".3625" stop-color="#f791e8"/><stop offset="1" stop-color="#e273d3"/></linearGradient><linearGradient id="lg2"><stop offset="0" stop-color="#c146b6" stop-opacity="0"/><stop offset="1" stop-color="#c146b6"/></linearGradient><linearGradient id="SVGID_6_" gradientTransform="matrix(.854 -.52 .52 .854 -383.84 334.359)" gradientUnits="userSpaceOnUse" x1="405.895" x2="405.895" xlink:href="#lg2" y1="207.63" y2="258.205"/><linearGradient id="SVGID_7_" gradientTransform="matrix(.854 -.52 .52 .854 -383.84 334.359)" gradientUnits="userSpaceOnUse" x1="587.684" x2="587.684" xlink:href="#lg2" y1="318.402" y2="368.977"/><linearGradient id="SVGID_8_" gradientUnits="userSpaceOnUse" x1="225.83" x2="215.164" xlink:href="#lg2" y1="101.804" y2="190.471"/><g><g><path d="m510.001 179.313v79.319c0 8.309-5.548 15.535-13.529 17.845-11.813 3.419-23.884 8.271-36.451 13.68-32.2 13.85-61.06 24.02-90.64 15.92v127.15l-.02-.02c.03 7.02-1.49 14.55-4.79 22.3-13.95 32.8-54.01 57.09-89.48 54.27-35.46-2.82-52.9-31.7-38.95-64.5 13.96-32.79 54.02-57.09 89.48-54.27 4.33.35 8.39 1.09 12.15 2.17v-180.53c0-16.99 16.12-29.09 32.56-24.8 29.25 7.63 57.83-2.48 89.69-16.18 8.517-3.666 16.806-7.076 24.942-9.957 12.211-4.325 25.038 4.648 25.038 17.603z" fill="url(#SVGID_1_)"/><path d="m237.087 488.77c15.21 25.187 55.868 28.424 90.812 7.23s50.942-58.793 35.732-83.98c-1.118-1.851-2.389-3.569-3.77-5.182l-125.496 76.47c.763 1.872 1.658 3.7 2.722 5.462z" fill="url(#SVGID_2_)"/><path d="m510.001 179.315v79.317c0 8.309-5.548 15.535-13.529 17.845-11.813 3.419-23.884 8.271-36.451 13.68-32.2 13.85-61.06 24.02-90.64 15.92v-118.45c.015-.011.018-.014.033-.025 29.57 8.086 58.414-2.092 90.607-15.935 8.517-3.666 16.808-7.076 24.945-9.956 12.211-4.322 25.035 4.651 25.035 17.604z" fill="url(#SVGID_3_)"/></g><path d="m453.541 292.91c-29.62 12.39-56.58 20.72-84.16 13.17v127.15l-.02-.02c.03 7.02-1.49 14.55-4.79 22.3-13.95 32.8-54.01 57.09-89.48 54.27-35.46-2.82-52.9-31.7-38.95-64.5 13.96-32.79 54.02-57.09 89.48-54.27 4.33.35 8.39 1.09 12.15 2.17v-180.53c0-9.83 5.4-18.03 13.15-22.36z" fill="url(#SVGID_4_)"/><g><path d="m350.93 32.802c0-9.373-5.055-18.086-13.307-22.532-36.221-19.514-70.223-8.13-108.937 8.523-31.853 13.702-60.44 23.806-89.686 16.181-16.44-4.286-32.557 7.812-32.557 24.802v.012 180.514c-3.767-1.081-7.822-1.819-12.15-2.164-35.465-2.823-75.526 21.474-89.48 54.271-13.954 32.796 3.484 61.672 38.948 64.495s75.526-21.474 89.48-54.27c3.298-7.751 4.822-15.277 4.79-22.298l.021.014v-127.143c29.578 8.097 58.438-2.069 90.636-15.919 32.139-13.825 61.028-24.013 90.636-15.914v118.927c-3.767-1.081-7.822-1.819-12.15-2.164-35.465-2.823-75.526 21.474-89.48 54.271-13.954 32.796 3.484 61.672 38.948 64.495s75.526-21.474 89.48-54.27c3.298-7.751 4.822-15.277 4.79-22.298l.021.014z" fill="url(#SVGID_5_)"/><path d="m5.754 335.896c15.21 25.187 55.868 28.424 90.812 7.23s50.942-58.793 35.732-83.98c-1.118-1.851-2.389-3.569-3.77-5.182l-125.496 76.47c.763 1.873 1.658 3.7 2.722 5.462z" fill="url(#SVGID_6_)"/><path d="m218.634 335.896c15.21 25.187 55.868 28.424 90.812 7.23s50.942-58.793 35.732-83.98c-1.118-1.851-2.389-3.569-3.77-5.182l-125.496 76.47c.763 1.873 1.658 3.7 2.722 5.462z" fill="url(#SVGID_7_)"/><path d="m228.686 137.289c32.139-13.825 61.028-24.013 90.636-15.914v-118.482c-29.608-8.099-58.499 2.075-90.636 15.9-31.853 13.702-60.44 23.806-89.686 16.181-.317-.083-.633-.148-.95-.219v118.452c29.578 8.098 58.438-2.068 90.636-15.918z" fill="url(#SVGID_8_)"/></g></g></svg>