<?xml version="1.0" encoding="iso-8859-1"?>
<!-- Generator: Adobe Illustrator 19.0.0, SVG Export Plug-In . SVG Version: 6.00 Build 0)  -->
<svg version="1.1" id="Capa_1" xmlns="http://www.w3.org/2000/svg" xmlns:xlink="http://www.w3.org/1999/xlink" x="0px" y="0px"
	 viewBox="0 0 512.001 512.001" style="enable-background:new 0 0 512.001 512.001;" xml:space="preserve">
<linearGradient id="SVGID_1_" gradientUnits="userSpaceOnUse" x1="196.2185" y1="343.798" x2="401.2385" y2="343.798" gradientTransform="matrix(1.0667 0 0 -1.0667 3.2666 557.5334)">
	<stop  offset="0" style="stop-color:#5B6A6A"/>
	<stop  offset="1" style="stop-color:#303033"/>
</linearGradient>
<path style="fill:url(#SVGID_1_);" d="M256.001,381.631L256.001,381.631c-57.745,0-104.557-46.812-104.557-104.557V104.557
	C151.444,46.812,198.256,0,256.001,0l0,0c57.745,0,104.557,46.812,104.557,104.557v172.518
	C360.558,334.819,313.746,381.631,256.001,381.631z"/>
<linearGradient id="SVGID_2_" gradientUnits="userSpaceOnUse" x1="236.9385" y1="278.0375" x2="236.9385" y2="192.1775" gradientTransform="matrix(1.0667 0 0 -1.0667 3.2666 557.5334)">
	<stop  offset="0" style="stop-color:#5B6A6A;stop-opacity:0"/>
	<stop  offset="1" style="stop-color:#303033"/>
</linearGradient>
<path style="fill:url(#SVGID_2_);" d="M360.558,232.364v44.71c0,57.741-46.815,104.557-104.557,104.557
	s-104.557-46.815-104.557-104.557v-44.71c2.038,1.006,4.326,1.582,6.757,1.582h195.599
	C356.231,233.946,358.518,233.37,360.558,232.364z"/>
<linearGradient id="SVGID_3_" gradientUnits="userSpaceOnUse" x1="245.489" y1="252.698" x2="148.259" y2="349.928" gradientTransform="matrix(1.0667 0 0 -1.0667 3.2666 557.5334)">
	<stop  offset="0" style="stop-color:#5B6A6A;stop-opacity:0"/>
	<stop  offset="1" style="stop-color:#303033"/>
</linearGradient>
<polygon style="fill:url(#SVGID_3_);" points="151.444,236.341 255.892,340.788 255.892,216.73 151.444,216.73 "/>
<linearGradient id="SVGID_4_" gradientUnits="userSpaceOnUse" x1="207.9385" y1="199.8765" x2="236.2985" y2="199.8765" gradientTransform="matrix(1.0667 0 0 -1.0667 3.2666 557.5334)">
	<stop  offset="0" style="stop-color:#FFFFFF"/>
	<stop  offset="1" style="stop-color:#E8EFEE"/>
</linearGradient>
<path style="fill:url(#SVGID_4_);" d="M256.001,512L256.001,512c-9.023,0-16.337-7.314-16.337-16.337V193.001
	c0-9.023,7.314-16.337,16.337-16.337l0,0c9.023,0,16.337,7.314,16.337,16.337v302.662C272.338,504.686,265.024,512,256.001,512z"/>
<linearGradient id="SVGID_5_" gradientUnits="userSpaceOnUse" x1="241.8385" y1="199.876" x2="256.7485" y2="199.876" gradientTransform="matrix(1.0667 0 0 -1.0667 3.2666 557.5334)">
	<stop  offset="0" style="stop-color:#C2CECE;stop-opacity:0"/>
	<stop  offset="0.179" style="stop-color:#AFBCBC;stop-opacity:0.179"/>
	<stop  offset="1" style="stop-color:#5B6A6A"/>
</linearGradient>
<path style="fill:url(#SVGID_5_);" d="M256.001,176.663c-0.147,0-0.289,0.018-0.435,0.022v335.293
	c0.146,0.004,0.288,0.022,0.435,0.022c9.023,0,16.337-7.314,16.337-16.337V193.001C272.338,183.978,265.024,176.663,256.001,176.663
	z"/>
<linearGradient id="SVGID_6_" gradientUnits="userSpaceOnUse" x1="281.0471" y1="279.4761" x2="212.5571" y2="347.9661" gradientTransform="matrix(1.0667 0 0 -1.0667 3.2666 557.5334)">
	<stop  offset="0" style="stop-color:#C2CECE;stop-opacity:0"/>
	<stop  offset="0.179" style="stop-color:#AFBCBC;stop-opacity:0.179"/>
	<stop  offset="1" style="stop-color:#5B6A6A"/>
</linearGradient>
<path style="fill:url(#SVGID_6_);" d="M256.001,176.663c-9.023,0-16.337,7.314-16.337,16.337v45.519l32.674,32.674v-78.193
	C272.338,183.978,265.024,176.663,256.001,176.663z"/>
<linearGradient id="SVGID_7_" gradientUnits="userSpaceOnUse" x1="233.5357" y1="340.0498" x2="22.5357" y2="449.5098" gradientTransform="matrix(1.0667 0 0 -1.0667 3.2666 557.5334)">
	<stop  offset="0" style="stop-color:#FFFFFF"/>
	<stop  offset="1" style="stop-color:#E8EFEE"/>
</linearGradient>
<path style="fill:url(#SVGID_7_);" d="M158.196,155.527h195.61c10.586,0,19.168,8.581,19.168,19.168v44.002
	c0,10.586-8.581,19.168-19.168,19.168h-195.61c-10.586,0-19.168-8.581-19.168-19.168v-44.002
	C139.028,164.11,147.611,155.527,158.196,155.527z"/>
<linearGradient id="SVGID_8_" gradientUnits="userSpaceOnUse" x1="229.7346" y1="334.9021" x2="18.7346" y2="235.8621" gradientTransform="matrix(1.0667 0 0 -1.0667 3.2666 557.5334)">
	<stop  offset="0" style="stop-color:#FFFFFF"/>
	<stop  offset="1" style="stop-color:#E8EFEE"/>
</linearGradient>
<path style="fill:url(#SVGID_8_);" d="M158.196,233.946c-8.407,0-15.247-6.839-15.247-15.247v-44.002
	c0-8.407,6.839-15.247,15.247-15.247h195.61c8.407,0,15.247,6.839,15.247,15.247v44.002c0,8.407-6.839,15.247-15.247,15.247H158.196
	z"/>
<linearGradient id="SVGID_9_" gradientUnits="userSpaceOnUse" x1="243.3668" y1="319.7607" x2="-1.5332" y2="281.3607" gradientTransform="matrix(1.0667 0 0 -1.0667 3.2666 557.5334)">
	<stop  offset="0" style="stop-color:#C2CECE;stop-opacity:0"/>
	<stop  offset="0.179" style="stop-color:#AFBCBC;stop-opacity:0.179"/>
	<stop  offset="1" style="stop-color:#5B6A6A"/>
</linearGradient>
<path style="fill:url(#SVGID_9_);" d="M139.028,199.964v18.734c0,10.587,8.581,19.168,19.168,19.168h195.61
	c10.587,0,19.168-8.581,19.168-19.168v-18.734H139.028z"/>
<linearGradient id="SVGID_10_" gradientUnits="userSpaceOnUse" x1="271.8604" y1="303.3693" x2="225.9903" y2="349.2293" gradientTransform="matrix(1.0667 0 0 -1.0667 3.2666 557.5334)">
	<stop  offset="0" style="stop-color:#C2CECE;stop-opacity:0"/>
	<stop  offset="0.179" style="stop-color:#AFBCBC;stop-opacity:0.179"/>
	<stop  offset="1" style="stop-color:#5B6A6A"/>
</linearGradient>
<path style="fill:url(#SVGID_10_);" d="M270.841,183.274c-3.666-4.05-8.947-6.609-14.839-6.609
	c-11.063,0-20.033,8.969-20.033,20.033c0,5.892,2.56,11.174,6.609,14.839l26.33,26.33h56.527L270.841,183.274z"/>
<linearGradient id="SVGID_11_" gradientUnits="userSpaceOnUse" x1="236.9385" y1="360.9475" x2="236.9385" y2="324.1875" gradientTransform="matrix(1.0667 0 0 -1.0667 3.2666 557.5334)">
	<stop  offset="0" style="stop-color:#D63305"/>
	<stop  offset="0.366" style="stop-color:#CF3004"/>
	<stop  offset="0.899" style="stop-color:#BC2602"/>
	<stop  offset="1" style="stop-color:#B72401"/>
</linearGradient>
<circle style="fill:url(#SVGID_11_);" cx="256.001" cy="196.693" r="20.033"/>
<linearGradient id="SVGID_12_" gradientUnits="userSpaceOnUse" x1="267.108" y1="75.007" x2="179.028" y2="163.087" gradientTransform="matrix(1.0667 0 0 -1.0667 3.2666 557.5334)">
	<stop  offset="0" style="stop-color:#C2CECE;stop-opacity:0"/>
	<stop  offset="0.179" style="stop-color:#AFBCBC;stop-opacity:0.179"/>
	<stop  offset="1" style="stop-color:#5B6A6A"/>
</linearGradient>
<polygon style="fill:url(#SVGID_12_);" points="239.664,448.177 272.338,480.851 272.338,442.513 239.664,442.513 "/>
<linearGradient id="SVGID_13_" gradientUnits="userSpaceOnUse" x1="312.6288" y1="357.7636" x2="101.6288" y2="105.9836" gradientTransform="matrix(1.0667 0 0 -1.0667 3.2666 557.5334)">
	<stop  offset="0" style="stop-color:#FFFFFF"/>
	<stop  offset="1" style="stop-color:#E8EFEE"/>
</linearGradient>
<path style="fill:url(#SVGID_13_);" d="M392.198,209.1v69.469c0,75.154-60.244,137.26-135.396,137.694
	c-75.463,0.436-136.999-60.831-136.999-136.195V209.1c0-9.023-7.314-16.337-16.337-16.337l0,0c-9.023,0-16.337,7.314-16.337,16.337
	v69.11c0,93.19,74.708,170.197,167.897,170.726c93.566,0.531,169.846-75.424,169.846-168.869V209.1
	c0-9.023-7.314-16.337-16.337-16.337l0,0C399.514,192.763,392.198,200.077,392.198,209.1z"/>
<linearGradient id="SVGID_14_" gradientUnits="userSpaceOnUse" x1="231.9557" y1="198.7521" x2="-12.9443" y2="147.2722" gradientTransform="matrix(1.0667 0 0 -1.0667 3.2666 557.5334)">
	<stop  offset="0" style="stop-color:#C2CECE;stop-opacity:0"/>
	<stop  offset="0.179" style="stop-color:#AFBCBC;stop-opacity:0.179"/>
	<stop  offset="1" style="stop-color:#5B6A6A"/>
</linearGradient>
<path style="fill:url(#SVGID_14_);" d="M255.026,442.402C161.838,441.873,87.13,364.866,87.13,271.676v6.534
	c0,93.189,74.708,170.197,167.897,170.726c93.566,0.531,169.846-75.423,169.846-168.869v-6.534
	C424.873,366.978,348.592,442.932,255.026,442.402z"/>
<linearGradient id="SVGID_15_" gradientUnits="userSpaceOnUse" x1="221.3444" y1="53.9247" x2="10.3444" y2="-1.2654" gradientTransform="matrix(1.0667 0 0 -1.0667 3.2666 557.5334)">
	<stop  offset="0" style="stop-color:#FFFFFF"/>
	<stop  offset="1" style="stop-color:#E8EFEE"/>
</linearGradient>
<path style="fill:url(#SVGID_15_);" d="M144.884,495.663L144.884,495.663c0-9.023,7.314-16.337,16.337-16.337h189.56
	c9.023,0,16.337,7.314,16.337,16.337l0,0c0,9.023-7.314,16.337-16.337,16.337h-189.56C152.198,512,144.884,504.686,144.884,495.663z
	"/>
<linearGradient id="SVGID_16_" gradientUnits="userSpaceOnUse" x1="241.9433" y1="50.3401" x2="-2.9567" y2="38.3901" gradientTransform="matrix(1.0667 0 0 -1.0667 3.2666 557.5334)">
	<stop  offset="0" style="stop-color:#C2CECE;stop-opacity:0"/>
	<stop  offset="0.179" style="stop-color:#AFBCBC;stop-opacity:0.179"/>
	<stop  offset="1" style="stop-color:#5B6A6A"/>
</linearGradient>
<path style="fill:url(#SVGID_16_);" d="M144.95,496.97c0.668,8.41,7.69,15.03,16.271,15.03h189.56
	c8.581,0,15.603-6.621,16.271-15.03H144.95z"/>
<g>
</g>
<g>
</g>
<g>
</g>
<g>
</g>
<g>
</g>
<g>
</g>
<g>
</g>
<g>
</g>
<g>
</g>
<g>
</g>
<g>
</g>
<g>
</g>
<g>
</g>
<g>
</g>
<g>
</g>
</svg>
