<svg id="Capa_1" enable-background="new 0 0 510 510" height="512" viewBox="0 0 510 510" width="512" xmlns="http://www.w3.org/2000/svg" xmlns:xlink="http://www.w3.org/1999/xlink"><linearGradient id="lg1"><stop offset="0" stop-color="#8a7889"/><stop offset="1" stop-color="#6e566e"/></linearGradient><linearGradient id="SVGID_1_" gradientTransform="matrix(.453 .892 -.892 .453 222.732 -394.857)" gradientUnits="userSpaceOnUse" x1="431.504" x2="459.473" xlink:href="#lg1" y1="79.057" y2="79.057"/><linearGradient id="SVGID_2_" gradientTransform="matrix(-.453 .892 .892 .453 453.268 -394.857)" gradientUnits="userSpaceOnUse" x1="506.645" x2="534.615" xlink:href="#lg1" y1="-68.962" y2="-68.962"/><linearGradient id="SVGID_3_" gradientUnits="userSpaceOnUse" x1="230.832" x2="247.218" xlink:href="#lg1" y1="50.039" y2="87.086"/><linearGradient id="SVGID_4_" gradientUnits="userSpaceOnUse" x1="9.981" x2="500.019" xlink:href="#lg1" y1="303.108" y2="303.108"/><linearGradient id="SVGID_5_" gradientTransform="matrix(-1 0 0 -1 510 510)" gradientUnits="userSpaceOnUse" x1="57.206" x2="452.794" xlink:href="#lg1" y1="206.892" y2="206.892"/><linearGradient id="SVGID_6_" gradientUnits="userSpaceOnUse" x1="73.313" x2="436.687" y1="303.108" y2="303.108"><stop offset="0" stop-color="#cdec7a"/><stop offset=".34" stop-color="#c1ea76"/><stop offset=".9563" stop-color="#a1e66b"/><stop offset="1" stop-color="#9ee66a"/></linearGradient><linearGradient id="SVGID_7_" gradientUnits="userSpaceOnUse" x1="84.906" x2="103.43" y1="475.747" y2="475.747"><stop offset="0" stop-color="#ff7044"/><stop offset="1" stop-color="#f82814"/></linearGradient><g><g><path d="m293.818 68.557c-3.473-6.842-.742-15.203 6.099-18.676l95.29-48.373c6.842-3.473 15.203-.742 18.676 6.099 3.473 6.842.742 15.203-6.099 18.676l-95.29 48.373c-6.842 3.474-15.203.743-18.676-6.099z" fill="url(#SVGID_1_)"/><path d="m216.182 68.557c3.473-6.842.742-15.203-6.099-18.676l-95.29-48.373c-6.842-3.473-15.203-.742-18.676 6.099-3.473 6.842-.742 15.203 6.099 18.676l95.29 48.373c6.842 3.474 15.203.743 18.676-6.099z" fill="url(#SVGID_2_)"/></g><path d="m346.192 118.231h-182.384v-13.892c0-34.428 27.91-62.338 62.338-62.338h57.707c34.428 0 62.338 27.91 62.338 62.338v13.892z" fill="url(#SVGID_3_)"/><g><path d="m445.46 493.16c-126.629 22.453-254.291 22.453-380.92 0-17.542-3.11-31.574-16.272-35.748-33.591-25.081-104.069-25.082-208.854 0-312.923 4.174-17.32 18.206-30.481 35.748-33.591 126.628-22.453 254.291-22.453 380.92 0 17.542 3.11 31.574 16.272 35.748 33.591 25.082 104.069 25.082 208.853 0 312.923-4.174 17.32-18.206 30.481-35.748 33.591z" fill="url(#SVGID_4_)"/></g><g><path d="m101.249 149.685c102.223-18.125 205.28-18.125 307.502 0 14.161 2.511 25.488 13.136 28.858 27.117 20.247 84.011 20.248 168.599 0 252.61-3.37 13.981-14.697 24.606-28.858 27.117-102.222 18.125-205.279 18.125-307.502 0-14.161-2.511-25.488-13.136-28.858-27.117-20.247-84.011-20.247-168.599 0-252.61 3.37-13.981 14.697-24.606 28.858-27.117z" fill="url(#SVGID_5_)"/></g><g><path d="m396.23 444.036c-93.898 16.649-188.563 16.649-282.46 0-13.008-2.306-23.413-12.066-26.508-24.909-18.598-77.17-18.599-154.87 0-232.039 3.095-12.843 13.5-22.602 26.508-24.909 93.898-16.649 188.563-16.649 282.46 0 13.008 2.306 23.413 12.066 26.508 24.909 18.599 77.17 18.599 154.869 0 232.039-3.095 12.843-13.5 22.603-26.508 24.909z" fill="url(#SVGID_6_)"/></g><circle cx="94.168" cy="475.747" fill="url(#SVGID_7_)" r="9.262"/></g></svg>