<svg id="Capa_1" enable-background="new 0 0 510 510" height="512" viewBox="0 0 510 510" width="512" xmlns="http://www.w3.org/2000/svg" xmlns:xlink="http://www.w3.org/1999/xlink"><linearGradient id="SVGID_1_" gradientUnits="userSpaceOnUse" x1="68" x2="464.247" y1="68" y2="464.247"><stop offset="0" stop-color="#eaf6ff"/><stop offset="1" stop-color="#b3dafe"/></linearGradient><linearGradient id="lg1"><stop offset="0" stop-color="#8ac9fe" stop-opacity="0"/><stop offset=".0634" stop-color="#85c2f3" stop-opacity=".063"/><stop offset=".3677" stop-color="#70a3c3" stop-opacity=".368"/><stop offset=".6362" stop-color="#608ca0" stop-opacity=".636"/><stop offset=".8561" stop-color="#577e8b" stop-opacity=".856"/><stop offset="1" stop-color="#537983"/></linearGradient><linearGradient id="SVGID_2_" gradientUnits="userSpaceOnUse" x1="242.683" x2="304.683" xlink:href="#lg1" y1="100.517" y2="713.517"/><linearGradient id="SVGID_3_" gradientUnits="userSpaceOnUse" x1="242.683" x2="304.683" xlink:href="#lg1" y1="264.917" y2="877.917"/><linearGradient id="SVGID_4_" gradientUnits="userSpaceOnUse" x1="255" x2="255" xlink:href="#lg1" y1="471" y2="520.255"/><linearGradient id="SVGID_5_" gradientUnits="userSpaceOnUse" x1="249.743" x2="265.743" y1="16.777" y2="150.777"><stop offset="0" stop-color="#fe93bb"/><stop offset="1" stop-color="#814aa0"/></linearGradient><linearGradient id="SVGID_6_" gradientUnits="userSpaceOnUse" x1="55.607" x2="86.752" y1="132.393" y2="163.538"><stop offset="0" stop-color="#fd4755"/><stop offset="1" stop-color="#d2024e"/></linearGradient><linearGradient id="SVGID_7_" gradientUnits="userSpaceOnUse" x1="64.02" x2="64.02" y1="144.435" y2="171.291"><stop offset="0" stop-color="#c00148" stop-opacity="0"/><stop offset="1" stop-color="#6d3326"/></linearGradient><linearGradient id="SVGID_8_" gradientUnits="userSpaceOnUse" x1="40.292" x2="66.776" y1="282.077" y2="308.561"><stop offset="0" stop-color="#fee97d"/><stop offset="1" stop-color="#fac600"/></linearGradient><linearGradient id="SVGID_9_" gradientUnits="userSpaceOnUse" x1="64.02" x2="64.02" y1="309.435" y2="336.291"><stop offset="0" stop-color="#fac600" stop-opacity="0"/><stop offset=".6899" stop-color="#d68c3d" stop-opacity=".69"/><stop offset="1" stop-color="#c5715a"/></linearGradient><linearGradient id="SVGID_10_" gradientUnits="userSpaceOnUse" x1="51.357" x2="71.382" y1="458.143" y2="478.168"><stop offset="0" stop-color="#c5715a"/><stop offset="1" stop-color="#883f2e"/></linearGradient><linearGradient id="SVGID_11_" gradientUnits="userSpaceOnUse" x1="64.02" x2="64.02" y1="474.435" y2="501.291"><stop offset="0" stop-color="#883f2e" stop-opacity="0"/><stop offset="1" stop-color="#6d3326"/></linearGradient><linearGradient id="SVGID_12_" gradientUnits="userSpaceOnUse" x1="51.91" x2="84.661" y1="374.59" y2="407.341"><stop offset="0" stop-color="#8bc727"/><stop offset="1" stop-color="#017b4e"/></linearGradient><linearGradient id="SVGID_13_" gradientUnits="userSpaceOnUse" x1="64.02" x2="64.02" y1="390.33" y2="417.185"><stop offset="0" stop-color="#017b4e" stop-opacity="0"/><stop offset="1" stop-color="#026841"/></linearGradient><linearGradient id="SVGID_14_" gradientUnits="userSpaceOnUse" x1="57.11" x2="90.883" y1="215.39" y2="249.163"><stop offset="0" stop-color="#26a6fe"/><stop offset="1" stop-color="#2740b0"/></linearGradient><linearGradient id="SVGID_15_" gradientUnits="userSpaceOnUse" x1="64.02" x2="64.02" y1="225.93" y2="252.785"><stop offset="0" stop-color="#2740b0" stop-opacity="0"/><stop offset="1" stop-color="#192a7d"/></linearGradient><g><path d="m487.004 510h-464.008c-12.7 0-22.996-10.296-22.996-22.996v-464.008c0-12.7 10.296-22.996 22.996-22.996h464.008c12.7 0 22.996 10.296 22.996 22.996v464.008c0 12.7-10.296 22.996-22.996 22.996z" fill="url(#SVGID_1_)"/><path d="m0 181.2h510v82.2h-510z" fill="url(#SVGID_2_)"/><path d="m0 345.6h510v82.2h-510z" fill="url(#SVGID_3_)"/><path d="m510 427.8v59.2c0 12.7-10.3 23-23 23h-464c-12.7 0-23-10.3-23-23v-59.2z" fill="url(#SVGID_4_)"/><path d="m487.004 0h-464.008c-12.7 0-22.996 10.296-22.996 22.996v77.004h510v-77.004c0-12.7-10.296-22.996-22.996-22.996z" fill="url(#SVGID_5_)"/><g><path d="m154.742 67.801h-99.345c-13.037 0-22.164-12.124-17.843-23.701 2.661-7.13 9.815-11.902 17.843-11.902h99.345c13.037 0 22.164 12.124 17.843 23.701-2.66 7.131-9.814 11.902-17.843 11.902z" fill="#814aa0"/><g fill="#d9b1ee"><path d="m320.358 50c0 5.172 4.193 9.365 9.365 9.365h90.165c5.172 0 9.365-4.193 9.365-9.365 0-5.172-4.193-9.365-9.365-9.365h-90.165c-5.172 0-9.365 4.193-9.365 9.365z"/><path d="m438.775 50c0 5.172 4.193 9.365 9.365 9.365h16.025c5.172 0 9.365-4.193 9.365-9.365 0-5.172-4.193-9.365-9.365-9.365h-16.025c-5.172 0-9.365 4.193-9.365 9.365z"/></g></g><g><g><circle cx="64.02" cy="140.805" fill="url(#SVGID_6_)" r="27.551"/><path d="m64.02 168.356c15.216 0 27.551-12.335 27.551-27.551h-55.102c0 15.216 12.335 27.551 27.551 27.551z" fill="url(#SVGID_7_)"/></g><g fill="#7bacdf"><path d="m145.358 140.805c0 5.172 4.193 9.365 9.365 9.365h90.165c5.172 0 9.365-4.193 9.365-9.365 0-5.172-4.193-9.365-9.365-9.365h-90.165c-5.172 0-9.365 4.193-9.365 9.365z"/><path d="m310.775 140.805c0 5.172 4.193 9.365 9.365 9.365h16.025c5.172 0 9.365-4.193 9.365-9.365 0-5.172-4.193-9.365-9.365-9.365h-16.025c-5.172 0-9.365 4.193-9.365 9.365z"/><path d="m374.775 140.805c0 5.172 4.193 9.365 9.365 9.365h16.025c5.172 0 9.365-4.193 9.365-9.365 0-5.172-4.193-9.365-9.365-9.365h-16.025c-5.172 0-9.365 4.193-9.365 9.365z"/><path d="m438.775 140.805c0 5.172 4.193 9.365 9.365 9.365h16.025c5.172 0 9.365-4.193 9.365-9.365 0-5.172-4.193-9.365-9.365-9.365h-16.025c-5.172 0-9.365 4.193-9.365 9.365z"/></g></g><g><g><circle cx="64.02" cy="305.805" fill="url(#SVGID_8_)" r="27.551"/><path d="m64.02 333.356c15.216 0 27.551-12.335 27.551-27.551h-55.102c0 15.216 12.335 27.551 27.551 27.551z" fill="url(#SVGID_9_)"/></g><g fill="#7bacdf"><path d="m145.358 305.805c0 5.172 4.193 9.365 9.365 9.365h90.165c5.172 0 9.365-4.193 9.365-9.365 0-5.172-4.193-9.365-9.365-9.365h-90.165c-5.172 0-9.365 4.193-9.365 9.365z"/><path d="m310.775 305.805c0 5.172 4.193 9.365 9.365 9.365h16.025c5.172 0 9.365-4.193 9.365-9.365 0-5.172-4.193-9.365-9.365-9.365h-16.025c-5.172 0-9.365 4.193-9.365 9.365z"/><path d="m374.775 305.805c0 5.172 4.193 9.365 9.365 9.365h16.025c5.172 0 9.365-4.193 9.365-9.365 0-5.172-4.193-9.365-9.365-9.365h-16.025c-5.172 0-9.365 4.193-9.365 9.365z"/><path d="m438.775 305.805c0 5.172 4.193 9.365 9.365 9.365h16.025c5.172 0 9.365-4.193 9.365-9.365 0-5.172-4.193-9.365-9.365-9.365h-16.025c-5.172 0-9.365 4.193-9.365 9.365z"/></g></g><g><g><circle cx="64.02" cy="470.805" fill="url(#SVGID_10_)" r="27.551"/><path d="m64.02 498.356c15.216 0 27.551-12.335 27.551-27.551h-55.102c0 15.216 12.335 27.551 27.551 27.551z" fill="url(#SVGID_11_)"/></g><g fill="#7bacdf"><path d="m145.358 470.805c0 5.172 4.193 9.365 9.365 9.365h90.165c5.172 0 9.365-4.193 9.365-9.365 0-5.172-4.193-9.365-9.365-9.365h-90.165c-5.172 0-9.365 4.193-9.365 9.365z"/><path d="m310.775 470.805c0 5.172 4.193 9.365 9.365 9.365h16.025c5.172 0 9.365-4.193 9.365-9.365 0-5.172-4.193-9.365-9.365-9.365h-16.025c-5.172 0-9.365 4.193-9.365 9.365z"/><path d="m374.775 470.805c0 5.172 4.193 9.365 9.365 9.365h16.025c5.172 0 9.365-4.193 9.365-9.365 0-5.172-4.193-9.365-9.365-9.365h-16.025c-5.172 0-9.365 4.193-9.365 9.365z"/><path d="m438.775 470.805c0 5.172 4.193 9.365 9.365 9.365h16.025c5.172 0 9.365-4.193 9.365-9.365 0-5.172-4.193-9.365-9.365-9.365h-16.025c-5.172 0-9.365 4.193-9.365 9.365z"/></g></g><g><g><circle cx="64.02" cy="386.7" fill="url(#SVGID_12_)" r="27.551"/><path d="m64.02 414.251c15.216 0 27.551-12.335 27.551-27.551h-55.102c0 15.216 12.335 27.551 27.551 27.551z" fill="url(#SVGID_13_)"/></g><g fill="#7bacdf"><path d="m145.358 386.7c0 5.172 4.193 9.365 9.365 9.365h90.165c5.172 0 9.365-4.193 9.365-9.365 0-5.172-4.193-9.365-9.365-9.365h-90.165c-5.172 0-9.365 4.193-9.365 9.365z"/><path d="m310.775 386.7c0 5.172 4.193 9.365 9.365 9.365h16.025c5.172 0 9.365-4.193 9.365-9.365 0-5.172-4.193-9.365-9.365-9.365h-16.025c-5.172 0-9.365 4.193-9.365 9.365z"/><path d="m374.775 386.7c0 5.172 4.193 9.365 9.365 9.365h16.025c5.172 0 9.365-4.193 9.365-9.365 0-5.172-4.193-9.365-9.365-9.365h-16.025c-5.172 0-9.365 4.193-9.365 9.365z"/><path d="m438.775 386.7c0 5.172 4.193 9.365 9.365 9.365h16.025c5.172 0 9.365-4.193 9.365-9.365 0-5.172-4.193-9.365-9.365-9.365h-16.025c-5.172 0-9.365 4.193-9.365 9.365z"/></g></g><g><g><circle cx="64.02" cy="222.3" fill="url(#SVGID_14_)" r="27.551"/><path d="m64.02 249.851c15.216 0 27.551-12.335 27.551-27.551h-55.102c0 15.216 12.335 27.551 27.551 27.551z" fill="url(#SVGID_15_)"/></g><g fill="#7bacdf"><path d="m145.358 222.3c0 5.172 4.193 9.365 9.365 9.365h90.165c5.172 0 9.365-4.193 9.365-9.365 0-5.172-4.193-9.365-9.365-9.365h-90.165c-5.172 0-9.365 4.193-9.365 9.365z"/><path d="m310.775 222.3c0 5.172 4.193 9.365 9.365 9.365h16.025c5.172 0 9.365-4.193 9.365-9.365 0-5.172-4.193-9.365-9.365-9.365h-16.025c-5.172 0-9.365 4.193-9.365 9.365z"/><path d="m374.775 222.3c0 5.172 4.193 9.365 9.365 9.365h16.025c5.172 0 9.365-4.193 9.365-9.365 0-5.172-4.193-9.365-9.365-9.365h-16.025c-5.172 0-9.365 4.193-9.365 9.365z"/><path d="m438.775 222.3c0 5.172 4.193 9.365 9.365 9.365h16.025c5.172 0 9.365-4.193 9.365-9.365 0-5.172-4.193-9.365-9.365-9.365h-16.025c-5.172 0-9.365 4.193-9.365 9.365z"/></g></g></g></svg>