<svg viewBox="0 0 512.00103 512" xmlns="http://www.w3.org/2000/svg" xmlns:xlink="http://www.w3.org/1999/xlink"><linearGradient id="a"><stop offset="0" stop-color="#f2f2f2"/><stop offset="1" stop-color="#c3c3c3"/></linearGradient><linearGradient id="b" gradientUnits="userSpaceOnUse" x1="145.38869832" x2="545.9618136" xlink:href="#a" y1="145.38969832" y2="545.9628136"/><linearGradient id="c"><stop offset="0" stop-color="#c3c3c3" stop-opacity="0"/><stop offset=".0516" stop-color="#bdbcbc" stop-opacity=".05098"/><stop offset=".3065" stop-color="#a39f9d" stop-opacity=".305882"/><stop offset=".5545" stop-color="#918b86" stop-opacity=".552941"/><stop offset=".7901" stop-color="#867e79" stop-opacity=".788235"/><stop offset="1" stop-color="#827a74"/></linearGradient><linearGradient id="d" gradientUnits="userSpaceOnUse" x1="415.26749232" x2="106.46772384" xlink:href="#c" y1="415.26849232" y2="106.46872384"/><linearGradient id="e" gradientTransform="matrix(-1.00392 0 0 -1.00392 1580.173 512.001)" gradientUnits="userSpaceOnUse" x1="1239.106" x2="1409.721" xlink:href="#a" y1="175.107" y2="345.721"/><linearGradient id="f" gradientUnits="userSpaceOnUse" x1="190.06291008" x2="330.86469792" xlink:href="#a" y1="190.06715008" y2="330.86893792"/><linearGradient id="g" gradientUnits="userSpaceOnUse" x1="366.87955224" x2="270.07757016" xlink:href="#c" y1="366.77212888" y2="269.9701468"/><linearGradient id="h" gradientUnits="userSpaceOnUse" x1="207.47211504" x2="331.00647888" y1="207.47311504" y2="331.00647496"><stop offset="0" stop-color="#ffb92d"/><stop offset="1" stop-color="#f59500"/></linearGradient><linearGradient id="i" gradientUnits="userSpaceOnUse" x1="255.9996" x2="255.9996" xlink:href="#c" y1="372.23144584" y2="539.26967896"/><linearGradient id="j" gradientUnits="userSpaceOnUse" x1="330.68221272" x2="213.25168248" y1="330.68020096" y2="213.24967072"><stop offset="0" stop-color="#be3f45" stop-opacity="0"/><stop offset="1" stop-color="#be3f45"/></linearGradient><linearGradient id="k" gradientUnits="userSpaceOnUse" x1="226.88993568" x2="300.99328656" y1="226.88692" y2="300.9912748"><stop offset="0" stop-color="#fff9b4"/><stop offset="1" stop-color="#fff465"/></linearGradient><path d="m512 284.273438v-56.546876c0-12.65625-10.269531-22.929687-22.929688-22.929687h-12.867187c-9.882813 0-18.601563-6.339844-21.75-15.699219-3.027344-8.980468-6.644531-17.675781-10.800781-26.058594-4.410156-8.871093-2.75-19.53125 4.246094-26.535156l9.109374-9.109375c8.957032-8.949219 8.957032-23.464843 0-32.421875l-39.980468-39.976562c-8.957032-8.960938-23.472656-8.960938-32.417969 0l-9.109375 9.109375c-7.003906 6.992187-17.667969 8.652343-26.535156 4.242187-8.382813-4.15625-17.082032-7.773437-26.058594-10.800781-9.359375-3.148437-15.703125-11.867187-15.703125-21.75v-12.863281c0-12.660156-10.269531-22.933594-22.929687-22.933594h-56.546876c-12.660156 0-22.929687 10.273438-22.929687 22.933594v12.863281c0 9.882813-6.339844 18.601563-15.703125 21.75-8.976562 3.027344-17.675781 6.644531-26.054688 10.800781-8.871093 4.410156-19.535156 2.75-26.535156-4.242187l-9.109375-9.109375c-8.949219-8.960938-23.464843-8.960938-32.421875 0l-39.980468 39.976562c-8.957032 8.957032-8.957032 23.472656 0 32.417969l9.109374 9.109375c6.996094 7.003906 8.65625 17.667969 4.246094 26.539062-4.15625 8.378907-7.773437 17.078126-10.800781 26.054688-3.148437 9.359375-11.867187 15.703125-21.75 15.703125h-12.867187c-12.660157 0-22.929688 10.269531-22.929688 22.929687v56.546876c0 12.660156 10.269531 22.929687 22.929688 22.929687h12.867187c9.882813 0 18.601563 6.34375 21.75 15.703125 3.027344 8.976562 6.644531 17.675781 10.800781 26.054688 4.410156 8.871093 2.75 19.535156-4.246094 26.539062l-9.109374 9.109375c-8.957032 8.945313-8.957032 23.460937 0 32.417969l39.980468 39.980468c8.957032 8.957032 23.472656 8.957032 32.417969 0l9.109375-9.109374c7.003906-6.992188 17.667969-8.65625 26.535156-4.246094 8.382813 4.15625 17.082032 7.773437 26.058594 10.800781 9.359375 3.148437 15.703125 11.867187 15.703125 21.75v12.867187c0 12.660157 10.269531 22.929688 22.929687 22.929688h56.546876c3.414062 0 6.648437-.753906 9.5625-2.105469.019531-.007812.035156-.015625.054687-.023437.6875-.324219 1.363281-.667969 2.011719-1.050782.597656-.335937 1.160156-.707031 1.714844-1.121093.269531-.195313.542968-.398438.8125-.605469.273437-.207031.53125-.425781.78125-.640625.261718-.230469.511718-.457031.761718-.683594.976563-.914062 1.878906-1.914062 2.671875-2.988281.183594-.226562.359375-.476562.507813-.714844.285156-.402344.554687-.816406.816406-1.25.164062-.269531.316406-.542968.464844-.824218.164062-.292969.328125-.609376.480468-.921876.292969-.597656.5625-1.226562.800782-1.859374.066406-.171876.132812-.335938.1875-.507813.085937-.242187.160156-.480469.238281-.71875.019531-.054687.042969-.117187.054687-.171875.074219-.25.148438-.488281.214844-.738281.042969-.175781.097656-.359375.140625-.546875.109375-.453125.207031-.910156.285157-1.378906.054687-.28125.097656-.550782.140624-.835938.042969-.304688.074219-.597656.109376-.902344.042968-.386718.0625-.769531.085937-1.160156s.03125-.792969.03125-1.183594v-12.867187c0-9.878907 6.339844-18.597657 15.703125-21.746094 8.976562-3.027344 17.675781-6.644531 26.054688-10.804687 8.871093-4.40625 19.535156-2.746094 26.535156 4.246093l9.109375 9.109375c8.949219 8.957032 23.464843 8.957032 32.421875 0l39.980468-39.976562c8.957032-8.957032 8.957032-23.472656 0-32.421875l-9.109374-9.109375c-6.996094-7.003906-8.65625-17.664063-4.246094-26.535156 4.15625-8.382813 7.773437-17.078126 10.800781-26.058594 3.148437-9.359375 11.867187-15.699219 21.75-15.699219h12.867187c.386719 0 .792969-.011719 1.183594-.03125.386719-.023437.769532-.042969 1.160156-.085937.304688-.035157.597657-.066407.902344-.109376.28125-.042968.554688-.085937.835938-.140624.464844-.074219.921875-.171876 1.378906-.28125.183594-.042969.367188-.097657.542969-.140626.25-.066406.488281-.140624.738281-.21875.054688-.011718.121094-.03125.175781-.054687.238281-.074219.476563-.152344.714844-.238281.171875-.054688.335937-.121094.511719-.183594.628906-.238281 1.257812-.511719 1.855468-.804688.3125-.152343.628907-.316406.921876-.476562.28125-.152344.554687-.304688.824218-.46875.4375-.261719.847656-.53125 1.25-.8125.238282-.152344.488282-.324219.714844-.511719 1.078125-.792969 2.074219-1.691406 2.988281-2.671875.226563-.25.453125-.496094.683594-.757812.214844-.25.433594-.511719.640625-.78125.203125-.273438.410156-.542969.609375-.816406.410156-.554688.78125-1.117188 1.117187-1.714844.386719-.648438.730469-1.324219 1.050782-2.011719.007812-.019531.015625-.035156.023437-.054687 1.347657-2.910157 2.105469-6.148438 2.105469-9.5625zm-322.957031-90.464844c1.324219-1.835938 2.929687-3.441406 4.765625-4.765625 93.253906-67.535157 196.683594 35.894531 129.148437 129.148437-1.324219 1.835938-2.929687 3.441406-4.765625 4.769532-93.253906 67.53125-196.683594-35.898438-129.148437-129.152344zm0 0" fill="url(#b)"/><path d="m511.578125 286.859375c-1.585937-1.664063-3.203125-3.28125-4.855469-4.867187-1.585937-1.648438-3.203125-3.265626-4.851562-4.851563-1.585938-1.648437-3.203125-3.265625-4.855469-4.851563-1.582031-1.652343-3.199219-3.269531-4.851563-4.855468-1.585937-1.648438-3.203124-3.265625-4.863281-4.851563-1.574219-1.648437-3.203125-3.265625-4.851562-4.851562-1.585938-1.652344-3.203125-3.28125-4.855469-4.855469-1.585938-1.660156-3.203125-3.277344-4.851562-4.863281-1.585938-1.652344-3.203126-3.269531-4.851563-4.855469-1.585937-1.648438-3.207031-3.265625-4.855469-4.851562-1.585937-1.652344-3.203125-3.269532-4.851562-4.851563-1.585938-1.652344-3.203125-3.269531-4.863282-4.855469-1.574218-1.648437-3.195312-3.265625-4.855468-4.851562-1.574219-1.652344-3.203125-3.269532-4.851563-4.855469-1.585937-1.660156-3.203125-3.277344-4.851562-4.851563-1.585938-1.660156-3.203125-3.277343-4.855469-4.863281-1.585938-1.652343-3.203125-3.269531-4.851562-4.851562-1.585938-1.652344-3.203126-3.269531-4.855469-4.855469-1.582031-1.648438-3.199219-3.265625-4.851563-4.851562-1.585937-1.652344-3.203125-3.269532-4.863281-4.851563-1.574219-1.652344-3.191406-3.269531-4.851563-4.855469-1.574218-1.648437-3.203124-3.265625-4.855468-4.851562-1.585938-1.664063-3.203125-3.28125-4.851563-4.855469-1.585937-1.660156-3.203125-3.277344-4.855469-4.863281-1.582031-1.648438-3.199218-3.265625-4.851562-4.851563-1.585938-1.652343-3.203125-3.269531-4.851562-4.855469-1.585938-1.648437-3.203126-3.265624-4.855469-4.851562-1.585938-1.652344-3.203125-3.269531-4.863281-4.851562-1.574219-1.652344-3.191407-3.269532-4.851563-4.855469-1.847656-1.941407-3.757813-3.832031-5.710937-5.667969-.425782-.402344-.847657-.800781-1.28125-1.195312-.46875-.433594-.925782-.855469-1.390626-1.269532-3.617187-3.277344-7.394531-6.371094-11.3125-9.292968-.480468-.371094-.96875-.726563-1.457031-1.074219-2.082031-1.53125-4.199219-3.007813-6.363281-4.421875-.53125-.355469-1.074219-.703125-1.605469-1.039063-1.605469-1.042969-3.246093-2.054687-4.898437-3.019531-.554688-.328125-1.105469-.652344-1.660156-.96875-.554688-.324219-1.109376-.640625-1.660157-.945312-.566406-.324219-1.121093-.628907-1.683593-.933594-1.109376-.597656-2.214844-1.183594-3.332032-1.757813-1.738281-.890625-3.488281-1.746093-5.265625-2.574219-.566406-.257812-1.121093-.519531-1.683593-.78125-3.074219-1.386718-6.210938-2.691406-9.390626-3.886718-.632812-.238282-1.25-.464844-1.878906-.695313-2-.726562-4.019531-1.410156-6.058594-2.0625-.511718-.164062-1.03125-.324219-1.542968-.476562-.414063-.132813-.824219-.261719-1.238282-.382813-.585937-.171875-1.171874-.347656-1.769531-.507812-.042969-.011719-.097656-.035156-.152343-.042969-.5-.140625-1.007813-.28125-1.519532-.425781-.78125-.214844-1.5625-.421875-2.355468-.617188-.585938-.152344-1.171876-.304687-1.769532-.445312-1.707031-.425782-3.421875-.804688-5.15625-1.171875-.578125-.121094-1.164062-.238281-1.738281-.347657-.664063-.132812-1.3125-.261718-1.976563-.371093-.910156-.183594-1.835937-.335938-2.757812-.488281-.660156-.109376-1.3125-.214844-1.976562-.316407-.703126-.105469-1.421876-.214843-2.148438-.3125-.597656-.089843-1.203125-.164062-1.8125-.242187-.488281-.0625-.988281-.128906-1.488281-.183594-.574219-.066406-1.148438-.128906-1.726563-.195312-.921875-.097657-1.855468-.183594-2.78125-.269532-.671875-.054687-1.34375-.121094-2.019531-.164062-.671875-.054688-1.34375-.097656-2.019531-.140625-.683594-.042969-1.378906-.085938-2.074219-.121094-.660156-.03125-1.324219-.0625-1.984375-.085937-2.042969-.078126-4.09375-.121094-6.144531-.121094-87.785157 0-158.945313 71.160156-158.945313 158.945312 0 2.050782.042969 4.105469.121094 6.144532.019531.664062.050781 1.324218.085938 1.988281.03125.691406.074218 1.386719.117187 2.074219.046875.671874.089844 1.34375.144531 2.019531.042969.671875.105469 1.34375.160156 2.019531.089844.921875.175782 1.855469.273438 2.777344.0625.578125.128906 1.152344.195312 1.726562.054688.5.117188 1 .183594 1.488282.078125.609374.152344 1.21875.238282 1.816406.097656.726562.207031 1.441406.316406 2.148437.097656.660157.207031 1.3125.316406 1.976563.152344.921875.304688 1.84375.488281 2.757812.109375.660156.238281 1.3125.367188 1.972656.109375.578126.230469 1.164063.347656 1.738282.371094 1.738281.75 3.453125 1.175781 5.15625.140625.597656.292969 1.183594.441406 1.773437.199219.789063.402344 1.570313.621094 2.355469.140625.507812.28125 1.019531.421875 1.519531.011719.054688.035157.109375.042969.152344.164062.597656.339844 1.183594.511719 1.769531.121093.410156.25.824219.378906 1.238282.152344.507812.316406 1.03125.480469 1.539062.652344 2.042969 1.335937 4.0625 2.0625 6.058594.226562.632812.457031 1.25.695312 1.878906 1.195313 3.183594 2.496094 6.320312 3.886719 9.390625.257813.566406.519531 1.121094.78125 1.683594.824219 1.78125 1.683594 3.53125 2.574219 5.265625.574218 1.121094 1.160156 2.226562 1.757812 3.332031.304688.566406.609375 1.121094.933594 1.683594.304688.554687.621094 1.109375.945312 1.664062.316407.550781.640626 1.105469.964844 1.660157.96875 1.648437 1.976563 3.289062 3.019532 4.898437.335937.53125.683593 1.074219 1.042968 1.605469 1.410156 2.160156 2.886719 4.277344 4.417969 6.363281.347656.488281.707031.976563 1.078125 1.453125 2.917969 3.921875 6.015625 7.699219 9.292969 11.3125.414062.46875.835937.925781 1.269531 1.390625.390625.433594.792969.859375 1.195312 1.28125 1.835938 1.957031 3.722657 3.867187 5.667969 5.710937 1.582031 1.664063 3.199219 3.28125 4.851563 4.855469 1.585937 1.660157 3.203125 3.277344 4.851562 4.863281 1.585938 1.648438 3.203125 3.265626 4.855469 4.851563 1.585937 1.652344 3.203125 3.269531 4.851563 4.855469 1.585937 1.648437 3.203124 3.265625 4.851562 4.851562 1.585938 1.652344 3.207031 3.269532 4.867188 4.855469 1.574218 1.648437 3.191406 3.265625 4.851562 4.851563 1.585938 1.652343 3.203125 3.277343 4.851562 4.851562 1.585938 1.664062 3.203126 3.28125 4.855469 4.855469 1.582031 1.660156 3.203125 3.277343 4.851563 4.863281 1.585937 1.648438 3.203125 3.269531 4.851562 4.851562 1.585938 1.652344 3.203125 3.269532 4.855469 4.855469 1.585937 1.648438 3.203125 3.265625 4.851563 4.851563 1.585937 1.652344 3.203124 3.269531 4.863281 4.855468 1.574219 1.648438 3.195312 3.265626 4.855469 4.851563 1.582031 1.652344 3.199218 3.277344 4.851562 4.851563 1.585938 1.664062 3.203125 3.28125 4.851562 4.855468 1.585938 1.660156 3.203126 3.277344 4.855469 4.863282 1.585938 1.648437 3.203125 3.265624 4.851563 4.851562 1.585937 1.652344 3.203125 3.269531 4.851562 4.855469 1.585938 1.648437 3.203125 3.265625 4.855469 4.851562 1.585937 1.652344 3.203125 3.269531 4.863281 4.855469 1.574219 1.648438 3.203125 3.265625 4.851563 4.851562 1.585937 1.652344 3.203125 3.28125 4.855469 4.855469 1.582031 1.660157 3.203124 3.277344 4.851562 4.863281 1.585938 1.648438 3.203125 3.265626 4.851562 4.851563 1.585938 1.652344 3.203126 3.269531 4.855469 4.851563 1.585938 1.652343 3.203125 3.269531 4.851563 4.855468 1.585937 1.648438 3.203125 3.265625 4.863281 4.851563.066406.078125.152344.152343.230469.230469 3.191406-.390626 6.175781-1.433594 8.816406-2.988282.585938-.347656 1.160156-.714844 1.714844-1.117187.269531-.195313.542968-.402344.8125-.609375.273437-.207032.535156-.421875.785156-.640625.257812-.226563.507812-.457031.757812-.683594.976563-.910156 1.878907-1.910156 2.671876-2.984375.183593-.230469.359374-.480469.511718-.71875.28125-.398438.550782-.8125.8125-1.246094.164063-.273437.316406-.542968.464844-.828125.164062-.292969.328125-.605469.480469-.921875.292969-.597656.5625-1.226562.800781-1.855468.066406-.175782.132812-.335938.1875-.511719.085938-.238281.160156-.476563.238281-.714844.019531-.054687.042969-.121094.054688-.175781.074219-.25.152343-.488282.214843-.738282.042969-.171874.097657-.359374.140626-.542968.109374-.457032.207031-.910156.285156-1.378906.054687-.28125.097656-.554688.140625-.835938.042969-.304688.074219-.597656.109375-.902344.042968-.390625.0625-.769531.085937-1.160156.023438-.390625.03125-.792969.03125-1.183594v-12.867187c0-9.882813 6.339844-18.601563 15.703125-21.75 8.976563-3.027344 17.675782-6.644531 26.054688-10.800781 8.871094-4.410157 19.535156-2.746094 26.535156 4.246093l9.113281 9.109375c8.945313 8.957032 23.460938 8.957032 32.417969 0l39.980469-39.976562c8.957031-8.960938 8.957031-23.476563 0-32.421875l-9.109375-9.109375c-6.992188-7.003906-8.65625-17.664063-4.246094-26.535156 4.15625-8.382813 7.773438-17.078126 10.800781-26.058594 3.148438-9.359375 11.867188-15.699219 21.75-15.699219h12.867188c.390625 0 .792969-.011719 1.183593-.035156.390626-.019531.769532-.042969 1.160157-.085938.304687-.03125.597656-.0625.902343-.105469.28125-.046874.554688-.089843.835938-.140624.464844-.078126.921875-.175782 1.378906-.285157.183594-.042969.367188-.097656.542969-.140625.25-.066406.488281-.140625.738281-.214844.054688-.011718.121094-.035156.175782-.054687.238281-.078125.476562-.152344.714843-.238281.175781-.054688.335938-.121094.511719-.1875.628906-.238282 1.257812-.507813 1.855469-.800782.316406-.152343.628906-.316406.921875-.480468.28125-.152344.554687-.304688.824218-.464844.4375-.261719.847657-.53125 1.25-.816406.238282-.148438.488282-.324219.714844-.507813 1.078125-.792969 2.074219-1.695312 2.988282-2.671875.226562-.25.453124-.5.683593-.761718.214844-.25.433594-.507813.640625-.78125.203125-.269532.410156-.542969.609375-.8125.398438-.554688.769531-1.128907 1.117188-1.71875 1.550781-2.636719 2.59375-5.621094 2.984375-8.816407-.078125-.074219-.15625-.160156-.230469-.222656zm-317.769531-97.816406c93.253906-67.535157 196.683594 35.894531 129.148437 129.148437-1.324219 1.835938-2.929687 3.441406-4.765625 4.769532-93.253906 67.53125-196.683594-35.898438-129.148437-129.152344 1.324219-1.835938 2.929687-3.441406 4.765625-4.765625zm0 0" fill="url(#d)"/><path d="m370.785156 146.066406c-1.84375-1.941406-3.753906-3.832031-5.710937-5.667968-.421875-.398438-.847657-.800782-1.28125-1.191407-.464844-.433593-.921875-.859375-1.386719-1.273437-3.617188-3.277344-7.394531-6.371094-11.316406-9.292969-.476563-.367187-.964844-.726563-1.453125-1.074219-2.085938-1.53125-4.203125-3.007812-6.363281-4.417968-.53125-.359376-1.074219-.707032-1.605469-1.042969-1.609375-1.042969-3.246094-2.054688-4.898438-3.019531-.554687-.324219-1.105469-.652344-1.660156-.96875-.554687-.324219-1.109375-.640626-1.664063-.941407-.5625-.328125-1.117187-.632812-1.679687-.933593-1.109375-.597657-2.214844-1.183594-3.335937-1.761719-1.734376-.890625-3.484376-1.746094-5.265626-2.570313-.5625-.261718-1.117187-.523437-1.679687-.785156-3.074219-1.386719-6.210937-2.691406-9.394531-3.886719-.628906-.238281-1.246094-.464843-1.878906-.695312-1.996094-.726563-4.015626-1.410157-6.058594-2.0625-.507813-.160157-1.027344-.324219-1.539063-.476563-.414062-.128906-.828125-.261718-1.238281-.378906-.585938-.175781-1.171875-.347656-1.769531-.511719-.042969-.011719-.097657-.03125-.152344-.042969-.5-.140624-1.011719-.28125-1.519531-.425781-.78125-.214843-1.5625-.421875-2.355469-.617187-.585937-.152344-1.175781-.304688-1.769531-.445313-1.707032-.421875-3.421875-.804687-5.160156-1.171875-.574219-.121094-1.160157-.238281-1.734376-.347656-.664062-.128906-1.316406-.261719-1.976562-.371094-.914062-.183594-1.835938-.335937-2.757812-.488281-.664063-.109375-1.316407-.214844-1.976563-.3125-.707031-.109375-1.421875-.21875-2.148437-.316406-.597657-.089844-1.207032-.164063-1.8125-.238281-.488282-.066407-.988282-.132813-1.488282-.1875-.574218-.0625-1.152344-.128907-1.726562-.195313-.921875-.097656-1.855469-.183594-2.78125-.269531-.671875-.054688-1.34375-.121094-2.019532-.164063-.671874-.054687-1.347656-.097656-2.019531-.140625-.683593-.042968-1.378906-.085937-2.074219-.121094-.664062-.03125-1.324218-.0625-1.988281-.085937-2.039062-.074219-4.089843-.121094-6.144531-.121094-87.78125 0-158.941406 71.164063-158.941406 158.945313 0 2.050781.042968 4.105468.117187 6.144531.023438.664063.054688 1.324219.089844 1.988281.03125.695313.074219 1.390625.117187 2.074219.042969.671875.089844 1.34375.140626 2.019531.042968.671875.109374 1.347656.164062 2.019532.085938.921874.171875 1.855468.269531 2.78125.066407.574218.132813 1.148437.199219 1.726562.050781.496094.117188.996094.183594 1.488281.074218.605469.152344 1.214844.238281 1.8125.097656.726563.207031 1.441407.316406 2.148438.097657.664062.207031 1.3125.3125 1.976562.152344.921875.304688 1.84375.492188 2.757813.105469.660156.238281 1.3125.367187 1.976562.109375.574219.226563 1.160156.347656 1.734375.371094 1.738281.75 3.453125 1.171876 5.160157.140624.597656.292968 1.183593.445312 1.769531.195312.789062.402344 1.574219.621094 2.355469.140625.507812.28125 1.019531.421875 1.519531.011719.054687.03125.109375.042969.152343.164062.597657.335937 1.183594.511718 1.769532.117188.414062.25.824218.378906 1.238281.152344.507813.316407 1.03125.476563 1.542969.652344 2.039062 1.335937 4.058594 2.066406 6.058594.226563.628906.453125 1.246093.691407 1.875 1.195312 3.183593 2.5 6.320312 3.890624 9.394531.257813.5625.519532 1.117187.78125 1.679687.824219 1.78125 1.683594 3.53125 2.570313 5.265625.578125 1.121094 1.164063 2.226563 1.761719 3.335938.304687.5625.605468 1.117187.933594 1.679687.304687.554688.617187 1.109375.945312 1.664063.3125.554687.640625 1.105469.964844 1.660156.96875 1.652344 1.976562 3.289063 3.019531 4.898437.335937.53125.683594 1.074219 1.042969 1.605469 1.410156 2.160157 2.886718 4.277344 4.417968 6.363281.347657.488282.707032.976563 1.074219 1.457032 2.921875 3.917968 6.015625 7.695312 9.296875 11.3125.410156.464844.835938.921875 1.269532 1.386718.390624.4375.789062.859376 1.195312 1.28125 1.832031 1.957032 3.722656 3.867188 5.664062 5.710938 28.546876 27.351562 67.285157 44.160156 109.933594 44.160156 87.785156 0 158.945313-71.160156 158.945313-158.945312-.003907-42.644532-16.8125-81.382813-44.164063-109.929688zm-47.25 109.933594c0 37.296875-30.238281 67.535156-67.535156 67.535156s-67.535156-30.238281-67.535156-67.535156 30.238281-67.535156 67.535156-67.535156 67.535156 30.238281 67.535156 67.535156zm0 0" fill="url(#e)"/><path d="m386.550781 250.953125c-.011719-.542969-.042969-1.097656-.0625-1.640625-.035156-.566406-.066406-1.140625-.097656-1.703125-.035156-.554687-.078125-1.109375-.121094-1.664063-.03125-.554687-.085937-1.105468-.128906-1.648437-.078125-.761719-.144531-1.53125-.230469-2.292969-.054687-.464844-.105468-.945312-.148437-1.421875-.054688-.402343-.109375-.8125-.15625-1.214843-.0625-.5-.128907-1-.203125-1.5-.078125-.597657-.164063-1.183594-.25-1.757813-.085938-.542969-.175782-1.085937-.261719-1.628906-.128906-.757813-.25-1.519531-.402344-2.269531-.085937-.542969-.195312-1.074219-.300781-1.617188-.089844-.476562-.1875-.957031-.285156-1.433594-.304688-1.421875-.617188-2.832031-.964844-4.234375-.117188-.488281-.238281-.976562-.367188-1.453125-.164062-.652344-.328124-1.292968-.511718-1.945312-.121094-.410156-.226563-.835938-.347656-1.25-.011719-.042969-.023438-.085938-.03125-.117188-.132813-.488281-.285157-.976562-.425782-1.457031-.097656-.335937-.207031-.683594-.316406-1.019531-.117188-.421875-.25-.847656-.390625-1.269532-.53125-1.671874-1.09375-3.332031-1.691406-4.972656-.183594-.519531-.371094-1.03125-.574219-1.554687-.976562-2.605469-2.054688-5.1875-3.195312-7.71875-.214844-.457031-.421876-.910157-.640626-1.378907-.671874-1.464843-1.378906-2.898437-2.117187-4.332031-.464844-.910156-.953125-1.824219-1.441406-2.734375-.25-.46875-.5-.921875-.773438-1.378906-.25-.457031-.507812-.914062-.769531-1.371094-.261719-.453125-.53125-.910156-.792969-1.367187-.804687-1.355469-1.628906-2.703125-2.488281-4.027344-.269531-.433594-.5625-.878906-.855469-1.3125-1.160156-1.78125-2.367187-3.519531-3.625-5.234375-.292969-.402344-.589843-.804688-.890625-1.195312-2.402344-3.222657-4.941406-6.328126-7.632812-9.304688-.347656-.378906-.695313-.761719-1.054688-1.140625-.316406-.359375-.652344-.703125-.976562-1.050781-1.507813-1.609375-3.0625-3.183594-4.660156-4.691406-23.460938-22.484376-55.308594-36.308594-90.367188-36.308594-72.160156 0-130.660156 58.5-130.660156 130.660156 0 35.058594 13.820312 66.90625 36.308594 90.367188 1.507812 1.597656 3.082031 3.148437 4.6875 4.660156.347656.324218.695312.660156 1.054687.976562.378906.359375.761719.707032 1.140625 1.050782 2.976562 2.695312 6.078125 5.234374 9.304688 7.636718.390624.300782.792968.59375 1.195312.886719 1.714844 1.261719 3.453125 2.464844 5.234375 3.628906.433594.292969.878906.585938 1.3125.855469 1.324219.859375 2.671875 1.683594 4.027344 2.488281.457031.261719.914062.53125 1.371093.792969.453126.261719.910157.519531 1.367188.769531.457031.273438.910156.523438 1.378906.773438.910156.488281 1.824219.976562 2.734375 1.441406 1.433594.738281 2.867188 1.445313 4.332031 2.117187.46875.21875.921876.425782 1.378907.640626 2.53125 1.140624 5.113281 2.214843 7.71875 3.191406.523437.207031 1.03125.390625 1.554687.578125 1.640625.597656 3.300782 1.160156 4.972656 1.691406.421876.144531.847657.273437 1.269532.390625.335937.109375.683594.21875 1.019531.316406.480469.140625.96875.292969 1.457031.421875.03125.011719.074219.023438.117188.035157.414062.117187.835937.226562 1.25.347656.652344.183594 1.292968.347656 1.945312.511718.476563.128907.964844.25 1.453125.367188 1.398438.347656 2.8125.664062 4.234375.964844.476563.097656.957032.199218 1.433594.285156.542969.105469 1.074219.214844 1.617188.304688.75.148437 1.511718.269531 2.269531.398437.542969.089844 1.085937.175781 1.628906.261719.574219.085937 1.160156.171875 1.757813.25.5.074218 1 .140625 1.5.207031.402343.042969.8125.097656 1.214843.152344.480469.042969.957031.097656 1.421875.148437.761719.089844 1.53125.152344 2.292969.230469.542969.042969 1.09375.097656 1.648437.128906.554688.042969 1.109376.089844 1.664063.121094.5625.03125 1.140625.066406 1.703125.097656.542969.019531 1.097656.054688 1.640625.0625 1.671875.066407 3.367187.109375 5.046875.109375 72.160156 0 130.660156-58.5 130.660156-130.660156 0-1.683594-.042968-3.375-.109375-5.046875zm-63.007812 5.046875c0 37.296875-30.234375 67.546875-67.542969 67.546875s-67.542969-30.25-67.542969-67.546875c0-37.304688 30.234375-67.542969 67.542969-67.542969s67.542969 30.238281 67.542969 67.542969zm0 0" fill="url(#f)"/><path d="m414.941406 256.273438-65.9375-65.9375c.867188 1.664062 1.292969 3.585937 1.140625 5.570312l-2.023437 25.976562c-.222656 2.738282.679687 5.453126 2.445312 7.527344l16.90625 19.84375c3.292969 3.855469 3.292969 9.546875 0 13.421875l-16.90625 19.828125c-1.765625 2.089844-2.667968 4.789063-2.445312 7.523438l2.023437 25.976562c.390625 5.082032-2.957031 9.683594-7.902343 10.875l-25.332032 6.082032c-2.683594.644531-4.976562 2.328124-6.421875 4.671874l-13.589843 22.207032c-2.667969 4.347656-8.085938 6.113281-12.792969 4.160156l-24.074219-9.988281c-2.53125-1.054688-5.386719-1.054688-7.917969 0l-24.074219 9.988281c-4.703124 1.953125-10.125.1875-12.792968-4.160156l-13.589844-22.207032c-1.441406-2.34375-3.738281-4.027343-6.421875-4.671874l-25.332031-6.082032c-.832032-.207031-1.613282-.496094-2.34375-.867187l88.929687 88.925781c87.464844-.261719 158.304688-71.171875 158.453125-158.664062zm0 0" fill="url(#g)"/><path d="m367.398438 249.289062-16.90625-19.839843c-1.773438-2.078125-2.660157-4.789063-2.449219-7.519531l2.027343-25.980469c.390626-5.070313-2.953124-9.675781-7.90625-10.867188l-25.332031-6.089843c-2.671875-.644532-4.96875-2.316407-6.410156-4.65625l-13.601563-22.207032c-2.660156-4.347656-8.082031-6.109375-12.792968-4.164062l-24.0625 9.980468c-2.539063 1.058594-5.390625 1.058594-7.933594 0l-24.0625-9.980468c-4.699219-1.945313-10.132812-.183594-12.792969 4.164062l-13.597656 22.207032c-1.433594 2.339843-3.742187 4.011718-6.414063 4.65625l-25.332031 6.089843c-4.949219 1.191407-8.296875 5.796875-7.90625 10.867188l2.027344 25.980469c.210937 2.730468-.664063 5.433593-2.449219 7.519531l-16.90625 19.839843c-3.296875 3.859376-3.296875 9.554688 0 13.425782l16.90625 19.832031c1.785156 2.085937 2.660156 4.785156 2.449219 7.519531l-2.027344 25.976563c-.390625 5.070312 2.957031 9.6875 7.90625 10.867187l25.332031 6.089844c2.671876.644531 4.980469 2.320312 6.414063 4.667969l13.597656 22.207031c2.660157 4.347656 8.085938 6.109375 12.792969 4.15625l24.0625-9.980469c2.539062-1.050781 5.394531-1.050781 7.933594 0l24.0625 9.980469c4.707031 1.953125 10.132812.191406 12.792968-4.15625l13.601563-22.207031c1.429687-2.351563 3.738281-4.023438 6.410156-4.667969l25.332031-6.078125c4.953126-1.191406 8.296876-5.796875 7.90625-10.878906l-2.027343-25.976563c-.210938-2.734375.675781-5.433594 2.449219-7.519531l16.90625-19.832031c3.296874-3.871094 3.296874-9.566406 0-13.425782zm0 0" fill="url(#h)"/><path d="m344.628906 257.476562c-.316406 19.464844-6.910156 40.332032-21.671875 60.714844-1.324219 1.835938-2.929687 3.441406-4.765625 4.769532-71.835937 52.019531-149.707031 2.59375-150.816406-65.484376h-167.375v26.796876c0 12.660156 10.269531 22.929687 22.929688 22.929687h12.867187c9.882813 0 18.601563 6.34375 21.75 15.703125 3.027344 8.976562 6.644531 17.675781 10.800781 26.054688 4.410156 8.871093 2.75 19.535156-4.246094 26.539062l-9.109374 9.109375c-8.957032 8.945313-8.957032 23.460937 0 32.417969l39.980468 39.980468c8.957032 8.957032 23.472656 8.957032 32.417969 0l9.109375-9.109374c7.003906-6.992188 17.667969-8.65625 26.535156-4.246094 8.382813 4.15625 17.082032 7.773437 26.058594 10.800781 9.359375 3.148437 15.703125 11.867187 15.703125 21.75v12.867187c0 12.660157 10.269531 22.929688 22.929687 22.929688h56.546876c3.414062 0 6.648437-.753906 9.5625-2.105469.019531-.007812.035156-.015625.054687-.023437.6875-.324219 1.363281-.667969 2.011719-1.050782.597656-.335937 1.160156-.707031 1.714844-1.121093.269531-.195313.542968-.398438.8125-.605469.273437-.207031.53125-.425781.78125-.640625.261718-.230469.511718-.457031.761718-.683594.976563-.914062 1.878906-1.914062 2.671875-2.988281.183594-.226562.359375-.476562.507813-.714844.285156-.402344.554687-.816406.816406-1.25.164062-.269531.316406-.542968.464844-.824218.164062-.292969.328125-.609376.480468-.921876.292969-.597656.5625-1.226562.800782-1.859374.066406-.171876.132812-.335938.1875-.507813.085937-.242187.160156-.480469.238281-.71875.019531-.054687.042969-.117187.054687-.171875.074219-.25.148438-.488281.214844-.738281.042969-.175781.097656-.359375.140625-.546875.109375-.453125.207031-.910156.285157-1.378906.054687-.28125.097656-.550782.140624-.835938.042969-.304688.074219-.597656.109376-.902344.042968-.386718.0625-.769531.085937-1.160156s.03125-.792969.03125-1.183594v-12.867187c0-9.878907 6.339844-18.597657 15.703125-21.746094 8.976562-3.027344 17.675781-6.644531 26.054688-10.804687 8.871093-4.40625 19.535156-2.746094 26.535156 4.246093l9.109375 9.109375c8.949219 8.957032 23.464843 8.957032 32.421875 0l39.980468-39.976562c8.957032-8.957032 8.957032-23.472656 0-32.421875l-9.109374-9.109375c-6.996094-7.003906-8.65625-17.664063-4.246094-26.535156 4.15625-8.382813 7.773437-17.078126 10.800781-26.058594 3.148437-9.359375 11.867187-15.699219 21.75-15.699219h12.867187c.386719 0 .792969-.011719 1.183594-.03125.386719-.023437.769532-.042969 1.160156-.085937.304688-.035157.597657-.066407.902344-.109376.28125-.042968.554688-.085937.835938-.140624.464844-.074219.921875-.171876 1.378906-.28125.183594-.042969.367188-.097657.542969-.140626.25-.066406.488281-.140624.738281-.21875.054688-.011718.121094-.03125.175781-.054687.238281-.074219.476563-.152344.714844-.238281.171875-.054688.335937-.121094.511719-.183594.628906-.238281 1.257812-.511719 1.855468-.804688.3125-.152343.628907-.316406.921876-.476562.28125-.152344.554687-.304688.824218-.46875.4375-.261719.847656-.53125 1.25-.8125.238282-.152344.488282-.324219.714844-.511719 1.078125-.792969 2.074219-1.691406 2.988281-2.671875.226563-.25.453125-.496094.683594-.757812.214844-.25.433594-.511719.640625-.78125.203125-.273438.410156-.542969.609375-.816406.410156-.554688.78125-1.117188 1.117187-1.714844.386719-.648438.730469-1.324219 1.050782-2.011719.007812-.019531.015625-.035156.023437-.054687 1.351563-2.910157 2.105469-6.148438 2.105469-9.5625v-26.796876zm0 0" fill="url(#i)"/><path d="m342.167969 326.921875c4.949219-1.191406 8.296875-5.796875 7.902343-10.878906l-2.027343-25.976563c-.210938-2.734375.675781-5.433594 2.449219-7.519531l12.664062-14.855469-58.074219-58.074218c-12.3125-13.027344-29.742187-21.167969-49.078125-21.167969-37.308594 0-67.550781 30.246093-67.550781 67.550781 0 19.339844 8.140625 36.765625 21.167969 49.078125l48.378906 48.378906c.667969.128907 1.328125.328125 1.964844.589844l24.066406 9.980469c4.707031 1.957031 10.128906.191406 12.792969-4.152344l13.597656-22.207031c1.429687-2.351563 3.738281-4.023438 6.410156-4.667969zm0 0" fill="url(#j)"/><path d="m256.003906 323.542969c-37.308594 0-67.550781-30.242188-67.550781-67.542969 0-37.308594 30.242187-67.550781 67.550781-67.550781 37.300782 0 67.542969 30.246093 67.542969 67.550781 0 37.300781-30.242187 67.542969-67.542969 67.542969zm0 0" fill="url(#k)"/></svg>