<svg id="Capa_1" enable-background="new 0 0 504.5 504.5" height="512" viewBox="0 0 504.5 504.5" width="512" xmlns="http://www.w3.org/2000/svg"><g><path d="m252.25 20.75c-127.854 0-231.5 103.646-231.5 231.5l241.5 20z" fill="#e5646e"/><path d="m252.25 483.75c-127.854 0-231.5-103.646-231.5-231.5h241.5z" fill="#ffe07d"/><path d="m252.25 483.75c127.637-1.171 221.5-103.646 221.5-231.5l-221.5-25.574z" fill="#739ad6"/><path d="m453.75 252.25c0 117.687-87.819 216.789-201.5 231.5 127.854 0 231.5-103.646 231.5-231.5l-14.491-10z" fill="#5a84c8"/><path d="m252.25 20.75v231.5h201.5 20c0-127.854-93.646-231.5-221.5-231.5z" fill="#aee4a4"/><path d="m252.25 20.75c113.681 14.711 201.5 113.813 201.5 231.5h30c0-127.854-103.646-231.5-231.5-231.5z" fill="#8dd5a7"/><g><path d="m7.5 504.5c-1.919 0-3.839-.732-5.303-2.197-2.929-2.929-2.929-7.678 0-10.606l62.347-62.347c2.929-2.929 7.678-2.929 10.606 0 2.929 2.929 2.929 7.678 0 10.606l-62.347 62.347c-1.464 1.465-3.383 2.197-5.303 2.197z" fill="#8dd5a7"/></g><path d="m51.39 453.677-4.128-7.046c-12.938-12.939-3.551-18.408 9.387-31.347l110.383-124.672 155.026-155.026 31.373 62.336-92.689 92.689-169.37 156.737c-12.938 12.939-27.043 19.268-39.982 6.329z" fill="#eef5f6"/><path d="m353.592 164.583-277.599 277.599c-10.017 10.017-24.85 12.272-37.044 6.779 1.602 3.556 3.857 6.89 6.779 9.811 12.938 12.939 28.916 15.939 41.855 3l173.159-171.159 92.689-92.689z" fill="#deecf1"/><path d="m42.729 461.772c12.938 12.939 33.916 12.939 46.854 0l171.159-171.159h-93.709l-124.305 124.304c-12.938 12.939-12.938 33.916.001 46.855z" fill="#aee4a4"/><path d="m89.583 461.772 171.159-171.159h-33.18l-154.569 154.569c-10.017 10.017-24.85 12.272-37.043 6.779 1.602 3.556 3.857 6.89 6.779 9.811 12.938 12.938 33.916 12.938 46.854 0z" fill="#8dd5a7"/><path d="m397.31 153.53h-25.988l-30.352-46.34 95.521-95.521c11.669-11.669 28.775-14.586 43.162-8.752 4.796 1.945 8.289 5.862 12.179 9.751 15.558 15.558 6.558 39.782-9 55.34z" fill="#6f6571"/><path d="m492.832 11.669c-3.155-3.155-6.711-5.658-10.499-7.534 7.373 14.895 4.87 33.438-7.533 45.841l-103.478 103.554 25.988 10 95.521-95.521c15.559-15.558 15.559-40.783.001-56.34z" fill="#5d5360"/><path d="m358.719 203.211-67.429-67.429c-10.807-10.807-10.807-28.329 0-39.136 10.807-10.807 28.329-10.807 39.136 0l67.429 67.429c10.807 10.807 10.807 28.329 0 39.136-10.807 10.807-28.329 10.807-39.136 0z" fill="#739ad6"/><path d="m407.855 174.075-21.639-21.639c10.807 10.807 10.807 28.329 0 39.136-10.807 10.807-28.329 10.807-39.136 0l21.639 21.639c10.807 10.807 28.329 10.807 39.136 0 10.807-10.807 10.807-28.329 0-39.136z" fill="#5a84c8"/></g></svg>