<svg id="Capa_1" enable-background="new 0 0 510 510" height="512" viewBox="0 0 510 510" width="512" xmlns="http://www.w3.org/2000/svg" xmlns:xlink="http://www.w3.org/1999/xlink"><linearGradient id="lg1"><stop offset="0" stop-color="#537983"/><stop offset="1" stop-color="#3e5959"/></linearGradient><linearGradient id="SVGID_1_" gradientUnits="userSpaceOnUse" x1="169.41" x2="354.852" xlink:href="#lg1" y1="169.411" y2="354.854"/><linearGradient id="SVGID_2_" gradientTransform="matrix(-1 0 0 -1 727.333 -266)" gradientUnits="userSpaceOnUse" x1="393.635" x2="564.145" xlink:href="#lg1" y1="-599.701" y2="-429.19"/><linearGradient id="SVGID_3_" gradientUnits="userSpaceOnUse" x1="186.824" x2="301.767" y1="186.826" y2="301.768"><stop offset="0" stop-color="#fff"/><stop offset="1" stop-color="#eef5f6"/></linearGradient><linearGradient id="lg2"><stop offset="0" stop-color="#3e5959" stop-opacity="0"/><stop offset=".8153" stop-color="#394c4c" stop-opacity=".815"/><stop offset="1" stop-color="#384949"/></linearGradient><linearGradient id="SVGID_4_" gradientUnits="userSpaceOnUse" x1="303.646" x2="60.646" xlink:href="#lg2" y1="281.176" y2="131.176"/><linearGradient id="lg3"><stop offset="0" stop-color="#ffe177"/><stop offset="1" stop-color="#fe9738"/></linearGradient><linearGradient id="SVGID_5_" gradientUnits="userSpaceOnUse" x1="206.765" x2="249.692" xlink:href="#lg3" y1="277.187" y2="320.114"/><linearGradient id="SVGID_6_" gradientUnits="userSpaceOnUse" x1="228.63" x2="281.37" xlink:href="#lg3" y1="173.303" y2="173.303"/><linearGradient id="lg4"><stop offset="0" stop-color="#fe99a0"/><stop offset="1" stop-color="#fd4755"/></linearGradient><linearGradient id="SVGID_7_" gradientUnits="userSpaceOnUse" x1="241.977" x2="270.193" xlink:href="#lg4" y1="241.979" y2="270.195"/><linearGradient id="SVGID_8_" gradientUnits="userSpaceOnUse" x1="421.461" x2="421.461" xlink:href="#lg3" y1="387.046" y2="489.041"/><linearGradient id="lg5"><stop offset="0" stop-color="#fe9738" stop-opacity="0"/><stop offset="1" stop-color="#f46700"/></linearGradient><linearGradient id="SVGID_9_" gradientUnits="userSpaceOnUse" x1="454.092" x2="426.592" xlink:href="#lg5" y1="509.936" y2="418.436"/><linearGradient id="SVGID_10_" gradientUnits="userSpaceOnUse" x1="421.461" x2="421.461" xlink:href="#lg1" y1="427.62" y2="447.843"/><linearGradient id="SVGID_11_" gradientUnits="userSpaceOnUse" x1="425.19" x2="398.602" y1="467.974" y2="441.385"><stop offset="0" stop-color="#3e5959" stop-opacity="0"/><stop offset="1" stop-color="#384949"/></linearGradient><linearGradient id="SVGID_12_" gradientUnits="userSpaceOnUse" x1="360.711" x2="397.711" xlink:href="#lg1" y1="436.37" y2="436.37"/><linearGradient id="SVGID_13_" gradientUnits="userSpaceOnUse" x1="445.211" x2="482.211" xlink:href="#lg1" y1="436.37" y2="436.37"/><linearGradient id="SVGID_14_" gradientUnits="userSpaceOnUse" x1="189.273" x2="117.512" xlink:href="#lg2" y1="161.229" y2="89.468"/><linearGradient id="lg6"><stop offset="0" stop-color="#60b7ff"/><stop offset="1" stop-color="#0268b4"/></linearGradient><linearGradient id="SVGID_15_" gradientUnits="userSpaceOnUse" x1="88.539" x2="88.539" xlink:href="#lg6" y1="30" y2="187.521"/><linearGradient id="SVGID_16_" gradientUnits="userSpaceOnUse" x1="88.54" x2="88.54" xlink:href="#lg6" y1="34.563" y2="127.607"/><linearGradient id="lg7"><stop offset="0" stop-color="#0268b4" stop-opacity="0"/><stop offset="1" stop-color="#0268b4"/></linearGradient><linearGradient id="SVGID_17_" gradientUnits="userSpaceOnUse" x1="156.977" x2="56.977" xlink:href="#lg7" y1="106.695" y2="70.695"/><linearGradient id="SVGID_18_" gradientUnits="userSpaceOnUse" x1="174.371" x2="113.038" xlink:href="#lg7" y1="107.125" y2="75.125"/><linearGradient id="lg8"><stop offset="0" stop-color="#eef5f6"/><stop offset="1" stop-color="#cbe5e8"/></linearGradient><linearGradient id="SVGID_19_" gradientUnits="userSpaceOnUse" x1="54.546" x2="76.604" xlink:href="#lg8" y1="71.227" y2="71.227"/><linearGradient id="SVGID_20_" gradientUnits="userSpaceOnUse" x1="101.969" x2="130.676" xlink:href="#lg8" y1="71.229" y2="71.229"/><linearGradient id="SVGID_21_" gradientUnits="userSpaceOnUse" x1="118.934" x2="196.549" xlink:href="#lg8" y1="42.594" y2="80.363"/><linearGradient id="SVGID_22_" gradientUnits="userSpaceOnUse" x1="126.908" x2="94.078" xlink:href="#lg8" y1="53.15" y2="20.321"/><linearGradient id="SVGID_23_" gradientUnits="userSpaceOnUse" x1="416.166" x2="392.166" xlink:href="#lg2" y1="213.44" y2="129.774"/><linearGradient id="SVGID_24_" gradientUnits="userSpaceOnUse" x1="421.461" x2="421.461" xlink:href="#lg4" y1="30.669" y2="136.213"/><linearGradient id="SVGID_25_" gradientUnits="userSpaceOnUse" x1="506.026" x2="405.481" y1="150.976" y2="50.431"><stop offset="0" stop-color="#fd4755" stop-opacity="0"/><stop offset="1" stop-color="#c41926"/></linearGradient><linearGradient id="SVGID_26_" gradientUnits="userSpaceOnUse" x1="411.999" x2="411.999" y1="25.459" y2="30.083"><stop offset="0" stop-color="#fe9738"/><stop offset="1" stop-color="#f46700"/></linearGradient><linearGradient id="SVGID_27_" gradientUnits="userSpaceOnUse" x1="402.963" x2="402.963" xlink:href="#lg3" y1="18.806" y2="31.558"/><linearGradient id="SVGID_28_" gradientUnits="userSpaceOnUse" x1="384.145" x2="440.231" xlink:href="#lg3" y1="29.095" y2="85.181"/><linearGradient id="SVGID_29_" gradientUnits="userSpaceOnUse" x1="421.461" x2="421.461" xlink:href="#lg5" y1="80.906" y2="97.023"/><linearGradient id="SVGID_30_" gradientUnits="userSpaceOnUse" x1="225.32" x2="118.987" xlink:href="#lg2" y1="428.365" y2="380.699"/><linearGradient id="SVGID_31_" gradientUnits="userSpaceOnUse" x1="88.539" x2="88.539" y1="379.546" y2="486.893"><stop offset="0" stop-color="#c1e9af"/><stop offset="1" stop-color="#4fc123"/></linearGradient><linearGradient id="SVGID_32_" gradientUnits="userSpaceOnUse" x1="129.69" x2="48.69" y1="509.67" y2="348.17"><stop offset="0" stop-color="#4fc123" stop-opacity="0"/><stop offset=".1348" stop-color="#4bab2f" stop-opacity=".135"/><stop offset=".385" stop-color="#468741" stop-opacity=".385"/><stop offset=".6201" stop-color="#426e4e" stop-opacity=".62"/><stop offset=".8318" stop-color="#3f5e56" stop-opacity=".832"/><stop offset="1" stop-color="#3e5959"/></linearGradient><linearGradient id="SVGID_33_" gradientUnits="userSpaceOnUse" x1="52.603" x2="120.481" xlink:href="#lg8" y1="406.739" y2="474.617"/><linearGradient id="lg9"><stop offset="0" stop-color="#cbe5e8" stop-opacity="0"/><stop offset=".0227" stop-color="#c8e2e6" stop-opacity=".023"/><stop offset=".2928" stop-color="#a7c6cf" stop-opacity=".293"/><stop offset=".5522" stop-color="#8fb2be" stop-opacity=".552"/><stop offset=".7938" stop-color="#81a6b5" stop-opacity=".794"/><stop offset="1" stop-color="#7ca1b1"/></linearGradient><linearGradient id="SVGID_34_" gradientUnits="userSpaceOnUse" x1="87.632" x2="87.632" xlink:href="#lg9" y1="464.148" y2="486.864"/><linearGradient id="SVGID_35_" gradientUnits="userSpaceOnUse" x1="75.949" x2="136.964" xlink:href="#lg9" y1="416.305" y2="398.568"/><linearGradient id="SVGID_36_" gradientUnits="userSpaceOnUse" x1="114.188" x2="56.02" xlink:href="#lg9" y1="481.358" y2="423.19"/><linearGradient id="SVGID_37_" gradientUnits="userSpaceOnUse" x1="73.078" x2="99.843" xlink:href="#lg6" y1="446.171" y2="472.936"/><g><g><g><circle cx="255" cy="255.002" fill="url(#SVGID_1_)" r="200"/><circle cx="255" cy="255.002" fill="url(#SVGID_2_)" r="183.896"/><circle cx="255" cy="255.002" fill="url(#SVGID_3_)" r="166.583"/><path d="m421.546 257.946-160.391-160.392c-2.125-3.22-6.85-3.22-8.976 0l-20.983 31.793c-2.325 3.523.135 8.192 4.306 8.327.097 2.668 2.198 5.093 5.19 5.189.021.569.126 1.126.318 1.653v86.057c-8.851 5.322-14.773 15.016-14.773 26.095 0 3.222.505 6.326 1.433 9.241l-25.346 25.346-3.766-3.766c-3.029-3.029-8.211-1.473-9.07 2.723l-7.643 37.319c-.687 3.352 1.864 6.352 5.086 6.45l86.576 86.576c82.333-9.102 146.575-78.2 148.039-162.611z" fill="url(#SVGID_4_)"/><g fill="#bccbd3"><g><g><path d="m255 158.028c-8.685 0-15.725-7.041-15.725-15.725v-19.657c0-8.685 7.041-15.725 15.725-15.725 8.685 0 15.725 7.041 15.725 15.725v19.657c0 8.685-7.04 15.725-15.725 15.725z"/><path d="m255 403.083c-8.685 0-15.725-7.041-15.725-15.725v-19.657c0-8.685 7.041-15.725 15.725-15.725 8.685 0 15.725 7.041 15.725 15.725v19.657c0 8.685-7.04 15.725-15.725 15.725z"/></g><g><path d="m351.974 255.002c0-8.685 7.041-15.725 15.725-15.725h19.657c8.685 0 15.725 7.041 15.725 15.725 0 8.685-7.041 15.725-15.725 15.725h-19.657c-8.685 0-15.725-7.04-15.725-15.725z"/><path d="m106.918 255.002c0-8.685 7.041-15.725 15.725-15.725h19.657c8.685 0 15.725 7.041 15.725 15.725 0 8.685-7.041 15.725-15.725 15.725h-19.657c-8.684 0-15.725-7.04-15.725-15.725z"/></g></g><g><g><path d="m323.571 186.431c-6.141-6.141-6.141-16.098 0-22.239l13.9-13.9c6.141-6.141 16.098-6.141 22.239 0 6.141 6.141 6.141 16.098 0 22.239l-13.9 13.9c-6.141 6.141-16.098 6.141-22.239 0z"/><path d="m150.291 359.711c-6.141-6.141-6.141-16.098 0-22.239l13.9-13.9c6.141-6.141 16.098-6.141 22.239 0 6.141 6.141 6.141 16.098 0 22.239l-13.9 13.9c-6.141 6.141-16.098 6.141-22.239 0z"/></g><g><path d="m323.571 323.573c6.141-6.141 16.098-6.141 22.239 0l13.9 13.9c6.141 6.141 6.141 16.098 0 22.239-6.141 6.141-16.098 6.141-22.239 0l-13.9-13.9c-6.141-6.141-6.141-16.098 0-22.239z"/><path d="m150.291 150.292c6.141-6.141 16.098-6.141 22.239 0l13.9 13.9c6.141 6.141 6.141 16.098 0 22.239-6.141 6.141-16.098 6.141-22.239 0l-13.9-13.9c-6.142-6.141-6.142-16.097 0-22.239z"/></g></g></g></g><path d="m186.523 332.211 37.319-7.643c4.196-.859 5.752-6.041 2.723-9.07l-3.766-3.766 44.935-44.935c2.022-2.022 2.022-5.299 0-7.321l-14.822-14.822c-2.022-2.022-5.299-2.022-7.321 0l-44.935 44.935-3.766-3.766c-3.029-3.029-8.211-1.473-9.07 2.723l-7.644 37.319c-.774 3.779 2.567 7.12 6.347 6.346z" fill="url(#SVGID_5_)"/><path d="m250.512 95.888-20.983 31.793c-2.36 3.575.204 8.339 4.488 8.339h5.326v111.938c0 2.859 2.318 5.177 5.177 5.177h20.961c2.859 0 5.177-2.318 5.177-5.177v-111.938h5.326c4.284 0 6.847-4.764 4.488-8.339l-20.983-31.793c-2.127-3.221-6.851-3.221-8.977 0z" fill="url(#SVGID_6_)"/><circle cx="255" cy="255.002" fill="url(#SVGID_7_)" r="30.431"/></g><g><path d="m403.392 509.998h36.139c38.919 0 70.47-31.55 70.47-70.47 0-38.919-31.55-70.47-70.47-70.47h-36.139c-4.098 0-8.108.37-12.015 1.041l-21.281-10.571c-5.291-2.628-11.38 1.683-10.659 7.546l1.951 15.869c-17.273 12.843-28.467 33.405-28.467 56.584.001 38.921 31.551 70.471 70.471 70.471z" fill="url(#SVGID_8_)"/><path d="m439.53 509.998c38.7 0 70.1-31.199 70.453-69.816l-29.658-29.658c-2.507-3.375-6.511-5.572-11.038-5.572h-9.486c-7.598 0-13.757 6.159-13.757 13.757v4.493h-37.313l-12.906-12.678c-2.507-3.375-6.511-5.572-11.038-5.572h-9.486c-7.598 0-13.757 6.159-13.757 13.757v36.986c0 4.527 2.197 8.531 5.572 11.038l43.264 43.264h29.15z" fill="url(#SVGID_9_)"/><g><g><path d="m389.711 422.37h63.5v28h-63.5z" fill="url(#SVGID_10_)"/></g><path d="m397.461 422.37h-7.75v28h35.75z" fill="url(#SVGID_11_)"/><g><path d="m383.954 468.62h-9.486c-7.598 0-13.757-6.159-13.757-13.757v-36.986c0-7.598 6.159-13.757 13.757-13.757h9.486c7.598 0 13.757 6.159 13.757 13.757v36.986c0 7.597-6.159 13.757-13.757 13.757z" fill="url(#SVGID_12_)"/><path d="m468.454 468.62h-9.486c-7.598 0-13.757-6.159-13.757-13.757v-36.986c0-7.598 6.159-13.757 13.757-13.757h9.486c7.598 0 13.757 6.159 13.757 13.757v36.986c0 7.597-6.159 13.757-13.757 13.757z" fill="url(#SVGID_13_)"/></g></g></g><path d="m176.84 70.855c-34.911 14.836-64.728 39.315-86.131 70.087l278.351 278.351c30.841-21.452 55.363-51.354 70.189-86.366z" fill="url(#SVGID_14_)"/><g><path d="m106.608.002h-36.138c-38.92 0-70.47 31.55-70.47 70.47 0 38.919 31.55 70.47 70.47 70.47h36.139c4.098 0 8.108-.37 12.015-1.041l21.281 10.571c5.291 2.628 11.38-1.683 10.659-7.546l-1.951-15.869c17.273-12.843 28.467-33.405 28.467-56.584-.002-38.921-31.552-70.471-70.472-70.471z" fill="url(#SVGID_15_)"/><path d="m177.08 70.472c0 .21 0 .41-.01.62-.09 11.13-2.76 21.64-7.46 30.96-4.96 9.89-12.19 18.45-21 25l1.95 15.87c.72 5.87-5.37 10.18-10.66 7.55l-16.97-8.43-4.31-2.14c-3.9.67-7.91 1.04-12.01 1.04h-36.14c-19.46 0-37.08-7.89-49.83-20.64s-20.64-30.37-20.64-49.83c0-38.92 31.55-70.47 70.47-70.47h36.14c19.46 0 37.08 7.89 49.83 20.64s20.64 30.37 20.64 49.83z" fill="url(#SVGID_16_)"/><g><path d="m148.61 127.052 1.95 15.87c.72 5.87-5.37 10.18-10.66 7.55l-16.97-8.43-4.31-2.14c-3.9.67-7.91 1.04-12.01 1.04h-31.81l-15.26-15.26c-2.58-1.57-4.31-4.4-4.31-7.64v-.07c0-6.57.67-13.12 2-19.55l.5-2.47c3.06-14.86 4.61-9.4 4.61-24.56v-3.69l-7.99-8.14c-4.29-3.39-6.95-8.61-6.95-14.32v-24.61c0-2.26 1.85-4.07 4.12-4 1.77.05 3.27 1.42 3.73 3.1l8.15 7.36v-6.46c0-2.26 1.86-4.07 4.12-4 1.78.05 3.27 1.42 3.73 3.1l8.14 7.36v-6.3c0-2.14 1.75-4.1 3.89-4.16 1.95-.06 3.6 1.29 4.02 3.1l9.07 9.07 73.24 73.25c-4.96 9.89-12.19 18.45-21 25z" fill="url(#SVGID_17_)"/><path d="m177.07 71.092c-.09 11.13-2.76 21.64-7.46 30.96-4.96 9.89-12.19 18.45-21 25l1.95 15.87c.72 5.87-5.37 10.18-10.66 7.55l-16.97-8.43-16.22-16.22c-2.57-1.57-4.28-4.39-4.28-7.62v-.07c0-6.57.67-13.12 1.99-19.56l.51-2.46c3.06-14.86 4.6-9.45 4.6-24.61v-2.31c0-.39-.04-.78-.1-1.17-.53-.52-6.53-6.47-7.42-7.56-4.52-3.66-7.42-9.26-7.42-15.54v-7.79c0-2.95.64-5.78 1.78-8.33 3.19-7.16 10.35-12.21 18.61-12.05 6.12.11 11.58 2.98 15.17 7.42z" fill="url(#SVGID_18_)"/><g><g><path d="m82.704 16.055c-2.139.069-3.882 2.03-3.882 4.168v15.544c0 2.139-1.737 4.105-3.876 4.168-2.265.069-4.122-1.749-4.122-3.996v-15.716c0-2.139-1.737-4.099-3.876-4.168-2.265-.063-4.122 1.749-4.122 4.002v15.71c0 2.139-1.743 4.105-3.876 4.168-2.265.069-4.122-1.749-4.122-3.996v-15.716c0-2.139-1.743-4.099-3.882-4.168-2.265-.063-4.122 1.749-4.122 4.002v24.614c0 7.993 5.2 15.056 12.832 17.436l.023.006c1.238.384 2.087 1.537 2.087 2.838v5.865c0 15.159-1.542 9.694-4.604 24.549l-.505 2.465c-1.324 6.433-1.995 12.986-1.995 19.557v.069c0 4.942 4.008 8.944 8.95 8.944h6.427c4.942 0 8.95-4.002 8.95-8.944v-.069c0-6.571-.671-13.124-1.995-19.557l-.505-2.465c-3.062-14.855-4.604-9.39-4.604-24.549v-5.906c0-1.279.831-2.408 2.053-2.786l.057-.017c3.819-1.193 7.024-3.549 9.277-6.611 2.253-3.068 3.555-6.829 3.555-10.825v-24.614c-.001-2.253-1.858-4.065-4.123-4.002z" fill="url(#SVGID_19_)"/></g><g><g><path d="m114.29 16.061c-11.209-.218-20.388 9.174-20.388 20.388v7.786c0 7.844 4.518 14.632 11.089 17.906 2.391 1.193 3.853 3.692 3.853 6.364v2.311c0 15.159-1.542 9.694-4.604 24.549l-.505 2.465c-1.324 6.433-1.995 12.986-1.995 19.557v.069c0 4.942 4.008 8.944 8.95 8.944h6.427c4.942 0 8.95-4.002 8.95-8.944v-.069c0-6.571-.671-13.124-1.995-19.557l-.505-2.465c-3.062-14.855-4.604-9.39-4.604-24.549v-2.311c0-2.672 1.462-5.172 3.853-6.364 6.571-3.274 11.089-10.062 11.089-17.906v-8.176c-.001-10.916-8.744-19.792-19.615-19.998z" fill="url(#SVGID_20_)"/><path d="m113.903 64.235c-11.046 0-20.001-8.955-20.001-20.001v-8.178c0-11.046 8.955-20.001 20.001-20.001 11.046 0 20.001 8.955 20.001 20.001v8.178c0 11.046-8.955 20.001-20.001 20.001z" fill="url(#SVGID_21_)"/><path d="m113.903 59.267c-8.732 0-15.812-7.079-15.812-15.812v-6.62c0-8.732 7.079-15.812 15.812-15.812 8.732 0 15.812 7.079 15.812 15.812v6.62c-.001 8.733-7.08 15.812-15.812 15.812z" fill="url(#SVGID_22_)"/></g></g></g></g></g><path d="m410.177 128.835h-47.177v21.333l91.55 91.55c-2.798-42.666-18.97-81.677-44.373-112.883z" fill="url(#SVGID_23_)"/><g><path d="m403.392.002h36.139c38.919 0 70.47 31.55 70.47 70.47 0 38.919-31.55 70.47-70.47 70.47h-36.139c-4.098 0-8.108-.37-12.015-1.041l-21.281 10.571c-5.291 2.628-11.38-1.683-10.659-7.546l1.951-15.869c-17.273-12.843-28.467-33.405-28.467-56.584.001-38.921 31.551-70.471 70.471-70.471z" fill="url(#SVGID_24_)"/><path d="m509.192 81.175-42.658-42.658c-1.492-2.511-4.224-4.199-7.357-4.199h-18.493l-11.015-10.489c-.944-2.082-3.036-3.533-5.471-3.533h-41.754c-3.319 0-6.009 2.691-6.009 6.01v64.887c0 3.133 1.688 5.865 4.199 7.357l42.392 42.392h16.505c35.28-.001 64.504-25.927 69.661-59.767z" fill="url(#SVGID_25_)"/><g><g><path d="m429.582 35.696h-35.166v-10.016c0-3.319 2.691-6.009 6.009-6.009h23.147c3.319 0 6.009 2.691 6.009 6.009v10.016z" fill="url(#SVGID_26_)"/><path d="m420.546 35.696h-35.166v-10.016c0-3.319 2.691-6.009 6.009-6.009h23.147c3.319 0 6.009 2.691 6.009 6.009v10.016z" fill="url(#SVGID_27_)"/><path d="m410.976 31.077v-5.397c0-3.319-2.691-6.009-6.009-6.009h-23.148c-3.319 0-6.009 2.691-6.009 6.009v64.888c0 4.728 3.833 8.561 8.561 8.561h74.181c4.728 0 8.561-3.833 8.561-8.561v-48.314c0-4.728-3.833-8.561-8.561-8.561h-44.96c-1.445-.001-2.616-1.171-2.616-2.616z" fill="url(#SVGID_28_)"/><path d="m375.809 81.1v9.467c0 4.728 3.833 8.561 8.561 8.561h74.181c4.728 0 8.561-3.833 8.561-8.561v-9.467z" fill="url(#SVGID_29_)"/></g><path d="m438.841 121.59h-34.76c-2.223 0-4.025-1.802-4.025-4.025v-5.488c0-2.223 1.802-4.025 4.025-4.025h34.76c2.223 0 4.025 1.802 4.025 4.025v5.488c0 2.223-1.802 4.025-4.025 4.025z" fill="#3e5959"/></g></g><path d="m241.183 454.518-93.516-93.516v62.782c27.364 17.438 59.256 28.396 93.516 30.734z" fill="url(#SVGID_30_)"/><g><path d="m106.608 509.998h-36.138c-38.919 0-70.47-31.55-70.47-70.47 0-38.919 31.55-70.47 70.47-70.47h36.139c4.098 0 8.108.37 12.015 1.041l21.281-10.571c5.291-2.628 11.38 1.683 10.659 7.546l-1.951 15.869c17.273 12.843 28.467 33.405 28.467 56.584-.002 38.921-31.552 70.471-70.472 70.471z" fill="url(#SVGID_31_)"/><path d="m176.141 450.963-32.527-32.527c-6.344-7.336-15.712-11.984-26.172-11.984-2.392 0-4.718.269-6.973.732-.66-.679-7.922-7.957-9.206-9.042-5.292-6.338-13.251-10.373-22.153-10.373-15.935 0-28.852 12.917-28.852 28.852 0 2.302.271 4.541.781 6.688-13.599.958-24.333 12.292-24.333 26.135 0 8.142 3.713 15.416 9.539 20.222l40.331 40.332h30.032c35.025 0 64.067-25.556 69.533-59.035z" fill="url(#SVGID_32_)"/><g><g><path d="m116.609 405.619c-3.751 0-7.361.599-10.744 1.703-3.618-11.803-14.6-20.386-27.588-20.386-15.934 0-28.852 12.917-28.852 28.852 0 2.302.271 4.541.781 6.688-13.599.959-24.333 12.293-24.333 26.135 0 14.471 11.731 26.202 26.202 26.202h64.534c19.107 0 34.597-15.49 34.597-34.597s-15.49-34.597-34.597-34.597z" fill="url(#SVGID_33_)"/><path d="m26.074 451.873c1.606 12.932 12.634 22.941 26 22.941h64.534c15.017 0 27.797-9.569 32.582-22.941z" fill="url(#SVGID_34_)"/><path d="m82.011 440.218c0 1.403.084 2.786.247 4.146-1.301.183-2.632.277-3.983.277-15.935 0-28.85-12.918-28.85-28.853 0-15.932 12.915-28.85 28.85-28.85 12.988 0 23.973 8.583 27.589 20.386-13.847 4.515-23.853 17.536-23.853 32.894z" fill="url(#SVGID_35_)"/></g><path d="m116.609 474.813c5.422 0 10.553-1.249 15.121-3.472l-39.31-39.305-.012-.018c-1.69-2.56-5.446-2.56-7.136 0l-16.682 25.276c-1.39 2.105-.63 4.728 1.24 5.947l10.128 10.209v1.363z" fill="url(#SVGID_36_)"/><path d="m84.971 432.018-16.682 25.276c-1.876 2.842.162 6.63 3.568 6.63h7.8v20.429c0 2.273 1.843 4.116 4.116 4.116h9.534c2.273 0 4.116-1.843 4.116-4.116v-20.429h7.8c3.406 0 5.444-3.788 3.568-6.63l-16.682-25.276c-1.692-2.56-5.448-2.56-7.138 0z" fill="url(#SVGID_37_)"/></g></g></g></svg>