<?xml version="1.0" encoding="iso-8859-1"?>
<!-- Generator: Adobe Illustrator 19.0.0, SVG Export Plug-In . SVG Version: 6.00 Build 0)  -->
<svg version="1.1" id="Capa_1" xmlns="http://www.w3.org/2000/svg" xmlns:xlink="http://www.w3.org/1999/xlink" x="0px" y="0px"
	 viewBox="0 0 512 512" style="enable-background:new 0 0 512 512;" xml:space="preserve">
<linearGradient id="SVGID_1_" gradientUnits="userSpaceOnUse" x1="241.6042" y1="463.407" x2="241.6042" y2="190.437" gradientTransform="matrix(1.0667 0 0 -1.0667 3.2667 557.5323)">
	<stop  offset="0" style="stop-color:#C2D600"/>
	<stop  offset="1" style="stop-color:#7BD101"/>
</linearGradient>
<path style="fill:url(#SVGID_1_);" d="M142.267,211.575l104.277,137.897c7.241,9.575,21.627,9.575,28.867,0l104.277-137.897
	c9.014-11.92,0.511-29.011-14.434-29.011h-40.278V41.48c0-4.761-3.859-8.62-8.62-8.62H205.599c-4.761,0-8.62,3.859-8.62,8.62
	v141.085h-40.278C141.756,182.564,133.253,199.655,142.267,211.575z"/>
<linearGradient id="SVGID_2_" gradientUnits="userSpaceOnUse" x1="236.9375" y1="229.617" x2="236.9375" y2="26.797" gradientTransform="matrix(1.0667 0 0 -1.0667 3.2667 557.5323)">
	<stop  offset="0" style="stop-color:#FFCF95"/>
	<stop  offset="0.427" style="stop-color:#FFC954"/>
	<stop  offset="1" style="stop-color:#FFC200"/>
</linearGradient>
<path style="fill:url(#SVGID_2_);" d="M512,341.116v108.582c0,16.259-13.181,29.44-29.44,29.44H29.44
	c-16.259,0-29.44-13.181-29.44-29.44V341.116c0-16.259,13.181-29.44,29.44-29.44h99.775c12.405,0,23.479,7.776,27.692,19.445
	l7.211,19.978c4.211,11.668,15.286,19.445,27.692,19.445h128.383c12.405,0,23.479-7.776,27.692-19.445l7.211-19.978
	c4.211-11.668,15.286-19.445,27.692-19.445h99.774C498.819,311.676,512,324.857,512,341.116z"/>
<linearGradient id="SVGID_3_" gradientUnits="userSpaceOnUse" x1="236.9375" y1="133.617" x2="236.9375" y2="69.807" gradientTransform="matrix(1.0667 0 0 -1.0667 3.2667 557.5323)">
	<stop  offset="0" style="stop-color:#FFC200;stop-opacity:0"/>
	<stop  offset="0.203" style="stop-color:#FFBB00;stop-opacity:0.203"/>
	<stop  offset="0.499" style="stop-color:#FFA700;stop-opacity:0.499"/>
	<stop  offset="0.852" style="stop-color:#FF8800;stop-opacity:0.852"/>
	<stop  offset="1" style="stop-color:#FF7800"/>
</linearGradient>
<path style="fill:url(#SVGID_3_);" d="M0,405.911v43.788c0,16.259,13.181,29.44,29.44,29.44h453.12
	c16.259,0,29.44-13.181,29.44-29.44v-43.788H0z"/>
<linearGradient id="SVGID_4_" gradientUnits="userSpaceOnUse" x1="365.4413" y1="-46.2405" x2="195.8412" y2="208.9595" gradientTransform="matrix(1.0667 0 0 -1.0667 3.2667 557.5323)">
	<stop  offset="0" style="stop-color:#FFC200;stop-opacity:0"/>
	<stop  offset="0.203" style="stop-color:#FFBB00;stop-opacity:0.203"/>
	<stop  offset="0.499" style="stop-color:#FFA700;stop-opacity:0.499"/>
	<stop  offset="0.852" style="stop-color:#FF8800;stop-opacity:0.852"/>
	<stop  offset="1" style="stop-color:#FF7800"/>
</linearGradient>
<path style="fill:url(#SVGID_4_);" d="M382.372,403.603c-1.226-1.674-3.201-2.778-5.466-2.778H135.093
	c-4.078,0-7.231,3.577-6.72,7.622l3.764,29.804c0.241,1.905,1.274,3.521,2.725,4.589c0.262,0.363,21.139,21.212,36.26,36.3h286.785
	L382.372,403.603z"/>
<linearGradient id="SVGID_5_" gradientUnits="userSpaceOnUse" x1="236.9375" y1="82.617" x2="236.9375" y2="114.107" gradientTransform="matrix(1.0667 0 0 -1.0667 3.2667 557.5323)">
	<stop  offset="0" style="stop-color:#FF9102"/>
	<stop  offset="0.128" style="stop-color:#FF9409"/>
	<stop  offset="0.314" style="stop-color:#FF9C1D"/>
	<stop  offset="0.537" style="stop-color:#FFAA3D"/>
	<stop  offset="0.785" style="stop-color:#FFBC69"/>
	<stop  offset="1" style="stop-color:#FFCF95"/>
</linearGradient>
<path style="fill:url(#SVGID_5_);" d="M373.142,444.176H138.858c-3.412,0-6.292-2.539-6.72-5.924l-3.764-29.804
	c-0.511-4.046,2.642-7.622,6.72-7.622h241.813c4.078,0,7.231,3.577,6.72,7.622l-3.764,29.804
	C379.435,441.637,376.556,444.176,373.142,444.176z"/>
<g>
</g>
<g>
</g>
<g>
</g>
<g>
</g>
<g>
</g>
<g>
</g>
<g>
</g>
<g>
</g>
<g>
</g>
<g>
</g>
<g>
</g>
<g>
</g>
<g>
</g>
<g>
</g>
<g>
</g>
</svg>
