<svg id="Capa_1" enable-background="new 0 0 510 510" height="512" viewBox="0 0 510 510" width="512" xmlns="http://www.w3.org/2000/svg" xmlns:xlink="http://www.w3.org/1999/xlink"><linearGradient id="lg1"><stop offset="0" stop-color="#0b799d"/><stop offset="1" stop-color="#07485e"/></linearGradient><linearGradient id="SVGID_1_" gradientUnits="userSpaceOnUse" x1="247.819" x2="258.717" xlink:href="#lg1" y1="182.178" y2="275.896"/><linearGradient id="lg2"><stop offset="0" stop-color="#07485e" stop-opacity="0"/><stop offset="1" stop-color="#03232e"/></linearGradient><linearGradient id="SVGID_2_" gradientUnits="userSpaceOnUse" x1="251.81" x2="258.953" xlink:href="#lg2" y1="236.135" y2="297.564"/><linearGradient id="SVGID_3_" gradientUnits="userSpaceOnUse" x1="306.156" x2="47.51" xlink:href="#lg2" y1="213.721" y2="91.664"/><linearGradient id="lg3"><stop offset="0" stop-color="#b9dd39"/><stop offset="1" stop-color="#90cc1c"/></linearGradient><linearGradient id="SVGID_4_" gradientUnits="userSpaceOnUse" x1="48.325" x2="69.221" xlink:href="#lg3" y1="240.062" y2="255.983"/><linearGradient id="SVGID_5_" gradientUnits="userSpaceOnUse" x1="158.927" x2="208.452" xlink:href="#lg3" y1="232.829" y2="282.354"/><linearGradient id="SVGID_6_" gradientUnits="userSpaceOnUse" x1="100.615" x2="150.139" xlink:href="#lg3" y1="232.829" y2="282.354"/><linearGradient id="SVGID_7_" gradientUnits="userSpaceOnUse" x1="379.6" x2="379.6" xlink:href="#lg2" y1="275.175" y2="192.194"/><linearGradient id="SVGID_8_" gradientUnits="userSpaceOnUse" x1="247.819" x2="258.717" xlink:href="#lg1" y1="320.56" y2="414.278"/><linearGradient id="SVGID_9_" gradientUnits="userSpaceOnUse" x1="251.81" x2="258.953" xlink:href="#lg2" y1="374.517" y2="435.945"/><linearGradient id="SVGID_10_" gradientUnits="userSpaceOnUse" x1="306.156" x2="47.51" xlink:href="#lg2" y1="352.103" y2="230.046"/><linearGradient id="SVGID_11_" gradientUnits="userSpaceOnUse" x1="48.325" x2="69.221" xlink:href="#lg3" y1="378.444" y2="394.365"/><linearGradient id="SVGID_12_" gradientUnits="userSpaceOnUse" x1="158.927" x2="208.452" xlink:href="#lg3" y1="371.211" y2="420.735"/><linearGradient id="SVGID_13_" gradientUnits="userSpaceOnUse" x1="100.615" x2="150.139" xlink:href="#lg3" y1="371.211" y2="420.735"/><linearGradient id="SVGID_14_" gradientUnits="userSpaceOnUse" x1="379.6" x2="379.6" xlink:href="#lg2" y1="413.557" y2="330.576"/><linearGradient id="SVGID_15_" gradientUnits="userSpaceOnUse" x1="270.895" x2="270.895" xlink:href="#lg2" y1="399.316" y2="226.316"/><linearGradient id="SVGID_16_" gradientUnits="userSpaceOnUse" x1="445.088" x2="301.755" xlink:href="#lg2" y1="358.001" y2="181.335"/><linearGradient id="SVGID_17_" gradientUnits="userSpaceOnUse" x1="199.599" x2="314.407" y1="122.205" y2="237.012"><stop offset="0" stop-color="#76e2f8"/><stop offset="1" stop-color="#48b2e3"/></linearGradient><linearGradient id="lg4"><stop offset="0" stop-color="#48b2e3" stop-opacity="0"/><stop offset=".4112" stop-color="#2995bf" stop-opacity=".411"/><stop offset=".7781" stop-color="#1381a6" stop-opacity=".778"/><stop offset="1" stop-color="#0b799d"/></linearGradient><linearGradient id="SVGID_18_" gradientUnits="userSpaceOnUse" x1="319.139" x2="237.691" xlink:href="#lg4" y1="175.101" y2="93.653"/><linearGradient id="lg5"><stop offset="0" stop-color="#edf5ff"/><stop offset="1" stop-color="#d5e8fe"/></linearGradient><linearGradient id="SVGID_19_" gradientUnits="userSpaceOnUse" x1="237.276" x2="272.724" xlink:href="#lg5" y1="111.03" y2="111.03"/><linearGradient id="SVGID_20_" gradientUnits="userSpaceOnUse" x1="314.399" x2="228.942" xlink:href="#lg4" y1="242.473" y2="202.955"/><linearGradient id="SVGID_21_" gradientUnits="userSpaceOnUse" x1="238.364" x2="272.071" xlink:href="#lg5" y1="205.151" y2="205.151"/><g><g><g><path d="m478.215 313.125h-446.43c-17.554 0-31.785-14.231-31.785-31.786v-74.811c0-17.555 14.231-31.785 31.785-31.785h446.429c17.555 0 31.785 14.231 31.785 31.785v74.811c.001 17.555-14.23 31.786-31.784 31.786z" fill="url(#SVGID_1_)"/><path d="m0 243.934v37.406c0 17.555 14.231 31.785 31.785 31.785h446.429c17.555 0 31.785-14.231 31.785-31.785v-37.406z" fill="url(#SVGID_2_)"/><path d="m478.215 174.743h-223.215v138.382h223.215c17.555 0 31.785-14.231 31.785-31.785v-74.811c0-17.555-14.231-31.786-31.785-31.786z" fill="url(#SVGID_3_)"/><g><path d="m60.838 266.802h-14.864c-8.525 0-15.436-6.911-15.436-15.436v-14.864c0-8.525 6.911-15.436 15.436-15.436h14.864c8.525 0 15.436 6.911 15.436 15.436v14.864c0 8.525-6.911 15.436-15.436 15.436z" fill="url(#SVGID_4_)"/><path d="m177.464 266.802h-14.864c-8.525 0-15.436-6.911-15.436-15.436v-14.864c0-8.525 6.911-15.436 15.436-15.436h14.864c8.525 0 15.436 6.911 15.436 15.436v14.864c0 8.525-6.911 15.436-15.436 15.436z" fill="url(#SVGID_5_)"/><path d="m119.151 266.802h-14.864c-8.525 0-15.436-6.911-15.436-15.436v-14.864c0-8.525 6.911-15.436 15.436-15.436h14.864c8.525 0 15.436 6.911 15.436 15.436v14.864c0 8.525-6.911 15.436-15.436 15.436z" fill="url(#SVGID_6_)"/></g><path d="m460.609 266.802h-162.017c-9.229 0-16.71-7.481-16.71-16.71v-15.602c0-9.229 7.481-16.71 16.71-16.71h162.017c9.229 0 16.71 7.481 16.71 16.71v15.602c0 9.228-7.482 16.71-16.71 16.71z" fill="url(#SVGID_7_)"/></g><g><path d="m478.215 451.507h-446.43c-17.554 0-31.785-14.231-31.785-31.786v-74.811c0-17.555 14.231-31.785 31.785-31.785h446.429c17.555 0 31.785 14.231 31.785 31.785v74.811c.001 17.555-14.23 31.786-31.784 31.786z" fill="url(#SVGID_8_)"/><path d="m0 382.316v37.405c0 17.555 14.231 31.785 31.785 31.785h446.429c17.555 0 31.785-14.231 31.785-31.785v-37.405z" fill="url(#SVGID_9_)"/><path d="m478.215 313.125h-223.215v138.382h223.215c17.555 0 31.785-14.231 31.785-31.785v-74.812c0-17.554-14.231-31.785-31.785-31.785z" fill="url(#SVGID_10_)"/><g><path d="m60.838 405.183h-14.864c-8.525 0-15.436-6.911-15.436-15.436v-14.864c0-8.525 6.911-15.436 15.436-15.436h14.864c8.525 0 15.436 6.911 15.436 15.436v14.864c0 8.526-6.911 15.436-15.436 15.436z" fill="url(#SVGID_11_)"/><path d="m177.464 405.183h-14.864c-8.525 0-15.436-6.911-15.436-15.436v-14.864c0-8.525 6.911-15.436 15.436-15.436h14.864c8.525 0 15.436 6.911 15.436 15.436v14.864c0 8.526-6.911 15.436-15.436 15.436z" fill="url(#SVGID_12_)"/><path d="m119.151 405.183h-14.864c-8.525 0-15.436-6.911-15.436-15.436v-14.864c0-8.525 6.911-15.436 15.436-15.436h14.864c8.525 0 15.436 6.911 15.436 15.436v14.864c0 8.526-6.911 15.436-15.436 15.436z" fill="url(#SVGID_13_)"/></g><path d="m460.609 405.183h-162.017c-9.229 0-16.71-7.481-16.71-16.71v-15.602c0-9.229 7.481-16.71 16.71-16.71h162.017c9.229 0 16.71 7.481 16.71 16.71v15.602c0 9.229-7.482 16.71-16.71 16.71z" fill="url(#SVGID_14_)"/></g></g><path d="m510 344.906v74.82c0 17.55-14.23 31.78-31.79 31.78h-308.05l-138.37-138.38h446.42c17.56 0 31.79 14.23 31.79 31.78z" fill="url(#SVGID_15_)"/><path d="m510 419.721v-74.811c0-17.555-14.231-31.786-31.785-31.786 17.555 0 31.785-14.231 31.785-31.785v-74.811c0-17.555-14.231-31.786-31.785-31.786h-340.322c-.001 1.574-.002 2.661-.002 2.862 0 34.52 12.689 65.6 36.149 87.35l186.543 186.551h117.631c17.555.002 31.786-14.229 31.786-31.784z" fill="url(#SVGID_16_)"/><circle cx="255" cy="177.606" fill="url(#SVGID_17_)" r="119.112"/><path d="m371.351 203.179-102.247-102.247c-3.209-3.995-8.258-4.663-13.995-4.663-10.004 0-15.831 5.735-15.831 14.643 0 5.035.502 9.768 4.483 12.934l114.005 114.005c6.237-10.616 10.874-22.282 13.585-34.672z" fill="url(#SVGID_18_)"/><path d="m272.724 110.912c0 8.908-7.829 16.879-17.615 16.879-10.004 0-17.833-7.971-17.833-16.879s7.829-16.644 17.833-16.644c9.786 0 17.615 7.736 17.615 16.644z" fill="url(#SVGID_19_)"/><path d="m355.888 240.939-85.426-85.426c-2.708-3.799-8.564-4.153-15.353-4.153-9.786 0-14.744 2.453-14.744 9.016v89.315c0 2.673-.417 5.337 2.28 7.407l37.05 37.05c32.031-6.754 59.314-26.377 76.193-53.209z" fill="url(#SVGID_20_)"/><path d="m272.071 160.375v89.315c0 5.627-7.611 11.252-16.962 11.252-9.786 0-16.745-5.626-16.745-11.252v-89.315c0-6.564 6.959-11.018 16.745-11.018 9.351.001 16.962 4.455 16.962 11.018z" fill="url(#SVGID_21_)"/></g></svg>