<svg height="512pt" viewBox="0 0 512 512" width="512pt" xmlns="http://www.w3.org/2000/svg" xmlns:xlink="http://www.w3.org/1999/xlink"><linearGradient id="a" gradientUnits="userSpaceOnUse" x1="168.2550181794" x2="513.9494349552" y1="168.2550181794" y2="513.9494349552"><stop offset="0" stop-color="#3b395f"/><stop offset=".0633" stop-color="#37355a"/><stop offset=".4033" stop-color="#232543"/><stop offset=".7232" stop-color="#171b35"/><stop offset="1" stop-color="#131830"/></linearGradient><linearGradient id="b"><stop offset="0" stop-color="#131830" stop-opacity="0"/><stop offset="1" stop-color="#131830"/></linearGradient><linearGradient id="c" gradientUnits="userSpaceOnUse" x1="256.00011" x2="256.00011" xlink:href="#b" y1="458.3110737932" y2="529.3574290268"/><linearGradient id="d" gradientUnits="userSpaceOnUse" x1="497.4432506078" x2="267.5067627874" xlink:href="#b" y1="497.4434513922" y2="267.5069635718"/><radialGradient id="e" cx="207.3948" cy="136.1743" gradientTransform="matrix(.709873 -.709873 .709873 .709873 -72.120922 337.884662)" gradientUnits="userSpaceOnUse" r="159.3457"><stop offset="0" stop-color="#fffcf8"/><stop offset=".2239" stop-color="#fbf9f7"/><stop offset=".4254" stop-color="#f0f1f3"/><stop offset=".6183" stop-color="#dee3ed"/><stop offset=".8059" stop-color="#c4d0e4"/><stop offset=".9882" stop-color="#a3b7d9"/><stop offset="1" stop-color="#a1b5d8"/></radialGradient><linearGradient id="f" gradientUnits="userSpaceOnUse" x1="273.9242337802" x2="216.1422983638" y1="244.927854262" y2="214.9111888152"><stop offset="0" stop-color="#a1b5d8" stop-opacity="0"/><stop offset=".0343" stop-color="#9fb3d5" stop-opacity=".035294"/><stop offset=".4515" stop-color="#8898af" stop-opacity=".45098"/><stop offset=".788" stop-color="#798898" stop-opacity=".788235"/><stop offset="1" stop-color="#748290"/></linearGradient><radialGradient id="g" cx="370.1753" cy="156.7867" gradientTransform="matrix(.709873 -.709873 .709873 .709873 -72.120922 337.884662)" gradientUnits="userSpaceOnUse" r="123.7524"><stop offset="0" stop-color="#ffc738"/><stop offset=".4873" stop-color="#ffc636"/><stop offset=".6746" stop-color="#ffc22f"/><stop offset=".8103" stop-color="#ffbb23"/><stop offset=".9203" stop-color="#ffb112"/><stop offset="1" stop-color="#ffa700"/></radialGradient><linearGradient id="h" gradientUnits="userSpaceOnUse" x1="361.6289679364" x2="290.2581451124" y1="327.8444828314" y2="256.4735596152"><stop offset="0" stop-color="#ffa700" stop-opacity="0"/><stop offset=".0206" stop-color="#fea600" stop-opacity=".019608"/><stop offset=".6348" stop-color="#ec8c00" stop-opacity=".635294"/><stop offset="1" stop-color="#e58200"/></linearGradient><path d="m450.105469 512h-388.210938c-34.183593 0-61.894531-27.710938-61.894531-61.894531v-388.210938c0-34.183593 27.710938-61.894531 61.894531-61.894531h388.210938c34.183593 0 61.894531 27.710938 61.894531 61.894531v388.210938c0 34.183593-27.710938 61.894531-61.894531 61.894531zm0 0" fill="url(#a)"/><path d="m0 421.261719v28.84375c0 34.183593 27.710938 61.894531 61.894531 61.894531h388.210938c34.183593 0 61.894531-27.710938 61.894531-61.894531v-28.84375zm0 0" fill="url(#c)"/><path d="m512 205.320312-112.964844-112.960937c-36.949218-36.953125-97.070312-36.953125-134.015625-.007813l-60.484375 60.484376c-9.15625 9.15625-16.039062 19.738281-20.660156 31.039062v.003906c-11.296875 4.617188-21.878906 11.5-31.035156 20.65625l-60.484375 60.480469c-36.949219 36.949219-36.949219 97.070313 0 134.019531l112.964843 112.964844h244.785157c34.183593 0 61.894531-27.710938 61.894531-61.894531zm0 0" fill="url(#d)"/><path d="m307.464844 359.160156-60.480469 60.484375c-36.949219 36.949219-97.070313 36.949219-134.019531 0l-20.609375-20.609375c-36.949219-36.949218-36.949219-97.070312 0-134.019531l60.484375-60.484375c36.945312-36.945312 97.066406-36.945312 134.015625 0l20.609375 20.613281c36.949218 36.949219 36.949218 97.066407 0 134.015625zm-178.640625-57.675781c-16.839844 16.839844-16.839844 44.242187 0 61.082031l20.609375 20.609375c16.839844 16.839844 44.242187 16.839844 61.082031 0l60.480469-60.484375c16.839844-16.839844 16.839844-44.238281 0-61.078125l-20.609375-20.609375c-16.839844-16.839844-44.238281-16.839844-61.078125 0zm0 0" fill="url(#e)"/><path d="m325.796875 250.957031-42.195313 42.195313c.035157-1.71875-.023437-3.4375-.179687-5.148438-.066406-.691406-.148437-1.375-.25-2.0625-.148437-1.03125-.328125-2.050781-.554687-3.070312-.019532-.105469-.042969-.210938-.074219-.324219-1.734375-7.675781-5.574219-14.96875-11.542969-20.933594l-20.613281-20.613281c-5.964844-5.96875-13.257813-9.816406-20.933594-11.558594-13.988281-3.164062-29.269531.683594-40.140625 11.558594l-7.941406 7.9375c-2.527344-7.871094-4-16.011719-4.417969-24.199219l47.785156-47.789062c8.179688.421875 16.328125 1.890625 24.199219 4.421875 13.878906 4.441406 26.925781 12.171875 37.921875 23.164062l20.605469 20.605469c7.734375 7.730469 13.835937 16.480469 18.332031 25.816406zm0 0" fill="url(#f)"/><path d="m265.019531 92.351562-60.484375 60.484376c-9.15625 9.15625-16.039062 19.738281-20.660156 31.039062-8.476562 20.726562-9.3125 43.863281-2.503906 65.0625 4.449218 13.882812 12.171875 26.925781 23.164062 37.921875l20.609375 20.605469c10.992188 10.992187 24.035157 18.714844 37.917969 23.164062l7.933594-7.933594c10.878906-10.878906 14.730468-26.15625 11.554687-40.148437-7.683593-1.730469-14.972656-5.585937-20.9375-11.550781l-20.609375-20.609375c-5.964844-5.964844-9.820312-13.253907-11.550781-20.9375-3.171875-13.992188.679687-29.269531 11.550781-40.144531l60.484375-60.484376c16.839844-16.835937 44.238281-16.832031 61.078125.007813l20.609375 20.605469c16.835938 16.839844 16.84375 44.238281.003907 61.078125l-52.550782 52.550781c6.808594 21.199219 5.972656 44.335938-2.503906 65.0625 11.300781-4.617188 21.882812-11.503906 31.039062-20.660156l60.484376-60.484375c36.945312-36.945313 36.945312-97.066407-.003907-134.015625l-20.609375-20.605469c-36.949218-36.953125-97.070312-36.953125-134.015625-.007813zm0 0" fill="url(#g)"/><path d="m330.628906 263.0625c6.808594 21.199219 5.972656 44.335938-2.503906 65.0625 11.300781-4.617188 21.882812-11.503906 31.039062-20.660156l7.933594-7.9375zm0 0" fill="url(#h)"/><g fill="#a1b5d8"><path d="m64.644531 64.644531h117.308594v15.058594h-117.308594zm0 0"/><path d="m64.644531 101.855469h117.308594v15.058593h-117.308594zm0 0"/><path d="m64.644531 139.066406h93.414063v15.058594h-93.414063zm0 0"/></g></svg>