<?xml version="1.0" encoding="iso-8859-1"?>
<!-- Generator: Adobe Illustrator 18.0.0, SVG Export Plug-In . SVG Version: 6.00 Build 0)  -->
<!DOCTYPE svg PUBLIC "-//W3C//DTD SVG 1.1//EN" "http://www.w3.org/Graphics/SVG/1.1/DTD/svg11.dtd">
<svg version="1.1" id="Capa_1" xmlns="http://www.w3.org/2000/svg" xmlns:xlink="http://www.w3.org/1999/xlink" x="0px" y="0px"
	 viewBox="0 0 59 59" style="enable-background:new 0 0 59 59;" xml:space="preserve">
<g>
	<path style="fill:#4C9109;" d="M1,58l4.988-14.963C3.458,38.78,2,33.812,2,28.5C2,12.76,14.76,0,30.5,0C46.24,0,59,12.76,59,28.5
		S46.24,57,30.5,57c-4.789,0-9.299-1.187-13.26-3.273L1,58z"/>
	<path style="fill:#A4E869;" d="M25.976,51.783c-0.12-0.54-0.651-0.877-1.193-0.76l-7.76,1.727c-0.007,0.002-0.012,0.007-0.02,0.009
		c-0.006,0.001-0.012,0-0.017,0.001L2.533,56.563l4.403-13.209c0.175-0.524-0.108-1.091-0.632-1.265
		c-0.525-0.176-1.091,0.108-1.265,0.632L0.051,57.684c-0.116,0.349-0.032,0.732,0.219,1C0.462,58.889,0.728,59,1,59
		c0.085,0,0.17-0.011,0.254-0.033l16.203-4.264l0,0l7.76-1.727C25.756,52.856,26.096,52.322,25.976,51.783z"/>
	<path style="fill:#52C306;" d="M42,25.759c9.389,0,17,6.824,17,15.241c0,3.102-1.036,5.986-2.812,8.393
		C56.422,52.175,57.092,56.092,59,58c0,0-5.829-0.818-9.776-3.202c-2.193,0.924-4.64,1.443-7.224,1.443c-9.389,0-17-6.824-17-15.241
		S32.611,25.759,42,25.759z"/>
	<circle style="fill:#FFFFFF;" cx="33" cy="41" r="3"/>
	<circle style="fill:#FFFFFF;" cx="42" cy="41" r="3"/>
	<circle style="fill:#FFFFFF;" cx="51" cy="41" r="3"/>
</g>
<g>
</g>
<g>
</g>
<g>
</g>
<g>
</g>
<g>
</g>
<g>
</g>
<g>
</g>
<g>
</g>
<g>
</g>
<g>
</g>
<g>
</g>
<g>
</g>
<g>
</g>
<g>
</g>
<g>
</g>
</svg>
